<svg width="200" height="11" viewBox="0 0 200 11" fill="none" xmlns="http://www.w3.org/2000/svg">
<path d="M181.268 0.90286C181.384 0.999579 181.588 0.923044 181.721 0.732128L181.737 0.753154C181.907 0.976871 182.047 0.660639 182.111 0.716148C182.336 0.920521 182.489 0.899496 182.736 0.727082C182.8 0.680825 183.101 0.939025 183.313 0.978554L183.47 1.00883C183.67 0.938184 183.964 0.902019 184.123 0.928932C184.282 0.955004 184.935 1.08284 185.224 1.14592L185.451 0.945752C185.478 0.921362 185.556 0.917999 185.598 0.931455C185.87 1.02565 186.137 1.19975 186.409 1.20227L186.627 1.20479C186.836 1.05088 186.982 1.16526 186.953 1.46131L187.371 1.11648L187.721 0.828007C188.064 0.962574 188.532 1.00883 188.762 0.930614C188.992 0.851556 189.684 1.22582 189.929 1.20648C190.176 1.18797 191.002 1.45542 191.249 1.50925L191.233 1.19134C191.232 1.17283 191.384 1.11564 191.411 1.13415L191.732 1.35282C192.12 1.28637 192.554 1.32759 192.696 1.44617C192.838 1.56392 193.341 1.31329 193.466 1.37216C193.591 1.43103 194.069 1.52018 194.234 1.43356C194.398 1.34609 195.317 1.37468 195.836 1.39319L196.285 1.59083C196.431 1.65643 196.712 1.45879 196.938 1.43608L197.101 1.41842C197.294 1.47309 197.519 1.47477 197.602 1.42262L197.612 1.43103L198.025 1.77923C198.517 1.5942 198.977 1.63288 199.05 1.86501C199.122 2.0963 199.515 2.64718 199.613 2.6312C199.712 2.61438 199.981 2.62447 199.998 2.68755C200.016 2.75147 199.897 2.99369 199.735 3.08537C199.574 3.1762 199.557 3.91127 199.298 4.29563L199.385 4.77334L199.406 4.88352C199.397 5.05509 199.334 5.15265 199.267 5.1005C199.2 5.0492 199.022 5.04584 198.96 5.16358L198.964 5.16526C199.413 5.35786 198.881 5.67998 199.095 5.8995C199.119 5.92557 199.119 6.00126 199.093 6.02565L198.752 6.34609C198.738 6.58915 198.371 6.8566 197.936 6.94071L197.55 6.63036L197.486 6.57822C197.235 6.68923 196.829 6.78511 196.584 6.79352C196.338 6.80109 195.515 6.73381 195.287 6.78343L195.077 6.7868L194.87 6.79016C194.649 6.74811 194.389 6.71194 194.292 6.70858C194.195 6.70606 193.833 6.68419 193.716 6.71951C193.599 6.75484 192.817 6.78511 192.246 6.78259C191.674 6.77923 189.901 6.76829 189.572 6.72708C189.244 6.68587 188.366 6.97603 188.289 6.97603L188.218 6.98108L187.786 7.01556C187.321 6.93145 186.765 6.91295 186.55 6.97267C186.335 7.03154 185.637 6.84819 185.457 6.8751C185.278 6.90034 184.643 6.9508 184.429 6.90118C184.215 6.85071 183.17 6.9651 182.665 6.98024H182.2C181.734 6.98024 181.268 6.98108 180.803 6.98024C180.517 6.98024 180.067 7.07527 179.977 6.96005C179.766 6.69176 179.484 7.06854 179.327 6.83137C179.296 6.78511 179.127 6.78427 179.03 6.79941C178.814 6.83221 178.498 6.98696 178.407 6.91632L178.097 6.67325C177.867 6.84567 177.551 6.93482 177.394 6.87006C177.237 6.8053 176.893 6.76661 176.707 6.70858C176.522 6.65223 175.954 6.87847 175.793 6.7868C175.632 6.69512 175.068 7.00463 174.89 7.03995C174.712 7.07443 174.042 6.78175 173.709 6.71951L173.355 6.94828L173.102 7.11144C172.607 7.0349 172.117 6.9323 172.014 6.88436C171.911 6.83642 171.438 6.77082 171.185 6.72708C170.931 6.68251 169.955 7.08789 169.51 7.26367L169.196 6.80362C169.169 6.76241 168.948 6.75568 168.893 6.80193C168.551 7.08789 168.159 6.60597 167.808 6.87174C167.697 6.95585 167.485 6.9878 167.328 6.97182C167.031 6.94071 166.742 6.81203 166.449 6.80782L166.194 6.80614C165.916 6.88856 165.557 6.94071 165.397 6.91968C165.237 6.8995 164.663 6.88772 164.528 6.82044C164.392 6.75399 163.866 7.00547 163.691 7.07527C163.516 7.14592 163.048 6.85324 162.879 6.92473C162.709 6.99706 161.951 6.94239 161.645 6.89108L161.367 6.89024C161.096 6.89024 160.824 6.97855 160.554 6.97351L160.051 6.96426C159.503 6.89613 158.613 6.84903 158.074 6.86081L157.622 6.99369L157.227 7.1106C156.822 7.02313 156.111 6.96426 155.647 6.98024H155.217H153.927H152.639H151.349C150.92 6.98024 150.489 6.96678 150.061 6.98444L149.793 6.99622C149.502 7.0635 149.22 7.12658 149.168 7.13667C149.115 7.14676 148.715 7.09125 148.39 7.03406C148.066 6.97771 146.244 7.11901 146.114 7.07359C145.983 7.02817 145.621 7.04247 145.488 7.02229C145.355 7.00378 144.691 7.15097 144.346 7.16526H144.025H143.058H141.984H141.017H140.05H139.083H138.761C138.408 7.16947 137.358 7.19807 136.429 7.22918C135.499 7.2603 132.762 7.46468 132.409 7.5942L132.304 7.51177L132.038 7.3032C131.857 7.43608 131.492 7.43103 131.228 7.29394L130.897 7.5143C130.719 7.63373 130.343 7.53616 130.058 7.53616H129.592C129.082 7.5286 128.486 7.56728 128.268 7.62111C128.051 7.67494 127.277 7.46888 127.046 7.32675L126.882 7.5471L126.644 7.86838C126.456 7.68839 126.088 7.57317 125.828 7.61186C125.568 7.64886 124.715 7.70606 124.512 7.69092C124.31 7.67746 123.509 7.8095 123.139 7.75399L122.801 7.72708L122.446 7.69933C122.052 7.71363 121.559 7.76997 121.352 7.82464C121.145 7.88015 120.538 7.918 120.214 8.05257L119.838 7.92725C119.526 7.8238 119.13 7.90538 118.773 7.90538H118.415C118.022 7.91043 117.533 7.9878 117.329 8.07696H117.143H116.958C116.756 7.99033 115.895 7.93902 115.044 7.96341C114.192 7.98781 111.835 8.23423 111.695 8.42262L111.44 8.15181C111.382 8.08957 111.038 8.24685 110.82 8.27124L110.609 8.29478C110.375 8.29058 110.015 8.17788 109.811 8.04415C109.606 7.90959 108.868 8.26703 108.632 8.26955C108.397 8.27208 107.583 8.27292 107.347 8.26955C107.11 8.26535 106.267 8.32843 105.995 8.38562L105.749 8.38646C105.518 8.38814 105.283 8.27376 105.055 8.28469L104.611 8.30824C104.126 8.29058 103.382 8.28385 102.958 8.2931C102.535 8.3032 101.275 8.49243 101.013 8.4386L100.776 8.42599L100.432 8.40833C100.056 8.45374 99.5914 8.45374 99.4008 8.40833C99.2103 8.36207 98.5601 8.64045 98.3044 8.67073C98.048 8.70017 97.1064 8.66569 96.8111 8.67073C96.5158 8.67578 95.2392 8.67662 94.6255 8.72119C94.0118 8.76661 91.8762 8.83221 91.2458 8.83978C90.6155 8.84651 88.849 8.87342 88.7188 8.94155C88.5886 9.01051 88.0067 8.83642 87.8368 8.81203C87.6669 8.78848 87.0429 9.03238 86.7436 9.05088C86.4451 9.07023 85.2344 9.04415 84.7413 9.05172C84.2483 9.06013 82.5684 9.04752 82.0929 9.10219C81.6181 9.15685 79.5849 9.20143 78.6394 9.20143H77.7804H76.8856C75.9004 9.19975 74.8826 9.20395 74.6222 9.21152L74.4277 9.3831C74.2443 9.54458 74.0832 9.02565 73.8283 9.34945L73.7767 9.41505C73.5465 9.37468 73.2138 9.39655 73.0376 9.46299C72.8605 9.52944 72.1897 9.28469 71.7896 9.37889L71.422 9.38057L68.629 9.39319C65.5574 9.39403 62.7239 9.32843 62.3326 9.246L62.0332 9.52944L61.988 9.57317C61.8602 9.55383 61.572 9.51093 61.3481 9.47729C61.1242 9.44449 60.4708 9.45542 60.3914 9.51934C60.3128 9.58326 59.9691 9.43608 59.8746 9.47477C59.7809 9.51346 59.3308 9.54458 59.1077 9.52355L58.9045 9.49916L57.9311 9.55887L57.7176 9.56392C57.4842 9.5656 57.2539 9.50505 57.2071 9.42851C57.1602 9.35198 56.7212 9.50757 56.5164 9.5143L56.3251 9.49327C56.2314 9.48234 56.1115 9.37048 56.0607 9.39571L55.3279 9.7439C54.4768 9.6455 53.0716 9.56812 52.2063 9.57233H51.4179H49.9143H49.449C48.9417 9.58579 48.3288 9.56392 48.0851 9.52355C47.8422 9.48318 46.9721 9.86249 46.5934 9.99201L46.3417 9.60934C46.3115 9.56308 46.113 9.54121 46.0503 9.57906L45.6915 9.79605C45.2898 9.70353 44.6245 9.66905 44.2132 9.71867L43.8401 9.74979C43.4138 9.78427 42.9811 9.75736 42.5516 9.75736H41.3702H40.0817H38.9004H37.6111H37.2173C36.7846 9.76156 36.1638 9.72288 35.8367 9.67241C35.5104 9.62111 34.5808 9.88772 34.4633 9.84399C34.3458 9.80025 33.6154 9.74558 33.1089 9.71951C32.6024 9.69344 31.1344 9.91548 30.955 9.90706C30.7756 9.89781 30.2198 9.89108 30.0896 9.8095C29.9594 9.72876 29.3719 9.93818 29.2028 9.96173C29.0337 9.98528 28.478 9.80362 28.2597 9.85913C28.0422 9.91632 27.2895 9.95753 27.0855 9.98612C26.8807 10.0147 26.2082 9.82885 26.055 9.86333C25.9018 9.89697 25.1627 9.9323 24.7689 9.92977C24.3751 9.92725 22.7706 9.89024 22.0783 9.82044L21.4877 10.1198L21.3805 10.1737C21.213 10.1434 20.7906 10.1266 20.4445 10.1367L20.2222 10.0189L19.8602 9.82717C19.5966 9.97771 19.1893 10.0669 18.9543 10.0273L18.6891 10.1072L18.4025 10.1955C18.0334 10.156 17.6015 10.1468 17.4435 10.1754C17.2855 10.2048 16.1336 9.93818 15.1523 9.87342L14.3322 10.2872L14.04 10.4352C13.7137 10.3654 13.2707 10.3116 13.054 10.3141C12.8381 10.3175 12.0942 10.3234 11.8822 10.3402C11.6702 10.3562 11.17 10.2519 11.0819 10.2847C10.993 10.3167 10.5 10.3234 10.2253 10.3183C9.94982 10.3141 9.03762 10.2956 8.80977 10.2746C8.58271 10.2527 7.90631 10.3116 7.71418 10.2544C7.52126 10.1981 7.08223 10.4563 7.02586 10.4066C6.97108 10.3562 6.71227 10.2325 6.63923 10.3007C6.56619 10.3688 6.12398 10.4907 5.89057 10.4975H5.67543C5.28165 10.4975 4.88788 10.4958 4.4941 10.4983L4.27577 10.5C4.17732 10.3511 4.06538 10.2292 4.02569 10.2283C3.98599 10.2283 3.87247 10.2931 3.86056 10.3747C3.84786 10.4554 3.29054 10.4537 2.91661 10.4008L2.57522 10.3982L2.31086 10.3957C1.99885 10.3873 1.79244 10.3671 1.85039 10.3486C1.90755 10.3318 2.02266 10.1838 1.93295 10.0727C1.84403 9.96173 1.79084 9.54458 1.83054 9.41085C1.87103 9.27712 1.90199 8.86922 1.77417 8.86922C1.64635 8.86922 1.35896 8.91211 1.38436 8.96594C1.40977 9.01808 1.42089 9.16442 1.35737 9.18377C1.29307 9.20227 1.09539 9.10303 0.979476 9.00631C0.865153 8.91043 0.302276 8.70606 0.19113 8.59672C0.0807766 8.48823 -0.121673 8.03827 0.098239 7.98865C0.318151 7.93734 0.569813 8.52271 0.716685 8.63709H0.899293C0.962011 8.63793 1.04457 8.54289 1.08189 8.47645L1.10253 8.4386C1.06204 8.37132 0.982649 8.33263 0.92787 8.35198C0.871502 8.37216 0.692082 8.3688 0.692082 8.28553C0.692082 8.20227 0.873083 7.92641 1.09458 7.86922C1.31529 7.81371 1.94883 7.56055 1.94883 7.44954C1.94883 7.33852 2.02664 6.98865 2.12112 7.11312C2.21559 7.23759 2.59349 7.44197 2.74671 7.28806L2.79832 7.14676C2.8658 6.95753 2.91184 6.99958 3.05553 7.08789L3.15636 7.15013C3.31593 7.1577 3.74147 7.16611 4.10191 7.17031C4.46234 7.17368 5.32611 6.86838 5.24672 6.83473C5.16733 6.80193 5.43805 6.58999 6.02316 6.43692L6.65511 6.68251C6.77499 6.7296 6.90201 6.77502 7.03062 6.78932L7.12272 6.79941C7.27991 6.75315 7.33152 6.62447 7.23783 6.51262C7.14495 6.39992 6.98935 6.08032 7.0997 6.04836L7.19179 6.06098C7.29976 6.07443 7.43948 6.19386 7.49585 6.16526L7.85471 5.9836C8.07621 6.19975 8.32707 6.38562 8.41281 6.39655C8.49935 6.40749 8.85184 6.38814 8.76848 6.3074C8.68353 6.22582 8.77007 6.03322 8.94553 5.89109C9.12178 5.74811 9.77833 5.72035 9.8998 5.73297C10.0229 5.74727 10.5183 5.71783 10.6969 5.74054C10.8771 5.76241 11.4106 5.72119 11.6591 5.79268C11.9076 5.86417 12.407 5.38982 12.5419 5.4058C12.6769 5.4201 12.9278 5.69176 12.9524 5.72456C12.977 5.75736 13.0754 5.79689 13.1167 5.7397L13.1175 5.68671L13.1239 5.1804C13.5383 5.25694 14.0972 5.41842 14.3639 5.54037L14.699 5.36964L15.0014 5.21489C15.4198 5.16695 15.9025 5.07023 16.0748 4.99958C16.2471 4.92809 16.6623 5.23087 16.7425 5.20143L16.7671 5.15601L16.8131 5.07107C16.906 5.04247 17.1585 5.06602 17.3744 5.12405L17.5721 5.12237L17.8627 5.11901C18.1699 5.05004 18.5232 4.97351 18.6487 4.94912C18.7741 4.92389 19.3282 4.89697 19.568 4.86922C19.807 4.8423 20.6461 4.79016 20.8986 4.82885C21.151 4.86754 21.9727 4.60008 22.2212 4.57569C22.4697 4.55214 23.1914 4.68082 23.3065 4.60261C23.4216 4.52523 23.8805 4.68082 23.9924 4.60177C24.1052 4.52271 24.4942 4.67662 24.564 4.6169C24.6339 4.55719 24.8911 4.4487 24.9745 4.51598C25.0571 4.58326 25.381 4.71699 25.5255 4.67494C25.67 4.63457 26.2336 4.59756 26.4591 4.6169C26.6838 4.63709 27.3586 4.56308 27.5269 4.57822C27.6944 4.5942 28.2263 4.52691 28.3502 4.47729C28.4732 4.42767 28.9782 4.36291 29.2108 4.31665C29.4426 4.26955 30.1277 4.5984 30.2754 4.64718C30.4215 4.6968 30.5961 4.30235 30.6747 4.26703L30.7184 4.28637L31.0534 4.44281C31.3932 4.32759 31.7013 4.21741 31.7378 4.19807L31.7624 4.20563C31.949 4.26283 32.1601 4.4058 32.3118 4.36796L32.4936 4.32254C32.6532 4.35618 32.8596 4.33516 32.9548 4.27628C33.0485 4.21573 33.5042 4.26955 33.7067 4.34525L33.898 4.38225L34.0282 4.40664C34.1798 4.37805 34.4744 4.3402 34.6824 4.32254C34.8904 4.30656 35.6359 4.31918 35.9058 4.46972L36.2241 4.22246C36.4052 4.082 36.7775 4.31413 37.0173 4.08621C37.0395 4.06518 37.2102 4.17452 37.3189 4.20059L37.7945 4.31833C38.3209 4.25442 38.8488 4.13415 38.9679 4.05004C39.087 3.96678 39.5197 4.1148 39.6157 4.01724C39.711 3.92052 40.0889 4.16947 40.1508 4.19134C40.2135 4.21405 40.4985 4.23255 40.7129 4.27796C40.9272 4.32254 41.7227 4.12069 42.1046 4.08284L42.3841 4.32927L42.4254 4.36627C42.5421 4.38982 42.7175 4.32843 42.8159 4.22918C42.9144 4.13078 43.1708 4.05172 43.3328 4.02817C43.4955 4.00463 44.2791 4.0677 44.7015 4.14844L45.0381 3.84483C45.1238 3.76745 45.4089 3.88183 45.5565 3.82296L45.8884 3.69008C46.1742 3.83221 46.5044 3.95921 46.6219 3.97267C46.7402 3.98696 47.1761 3.89361 47.3349 3.94912L47.4778 4.01976C47.6635 4.10976 47.7509 3.66653 47.9875 3.95585C48.0097 3.9836 48.2526 3.84315 48.3947 3.84062L48.5948 3.8381C48.8107 3.89108 49.0513 3.95332 49.1283 3.97687C49.2045 4.0021 49.6769 3.94071 49.9627 3.96089C50.2493 3.98108 50.9964 3.68923 51.0734 3.72372C51.1496 3.7582 51.5346 3.94912 51.7363 4.09546L51.9355 3.81034L52.238 3.37637C52.6802 3.55803 53.2471 3.75063 53.4972 3.80362C53.7465 3.8566 54.5848 3.64382 54.7785 3.56728C54.9722 3.49075 55.5042 3.48654 55.6947 3.44029L55.8193 3.5185L55.9583 3.60513C56.0774 3.74138 56.3012 3.74138 56.4568 3.60681L56.5855 3.5L56.6077 3.48066C56.6839 3.45458 56.8228 3.48738 56.9157 3.55467C57.0086 3.62111 57.3508 3.74727 57.4492 3.67241C57.5485 3.59672 58.3606 3.59924 58.521 3.64214C58.6822 3.68419 59.0593 3.65812 59.2157 3.69512C59.3721 3.73213 59.7206 3.64298 59.8508 3.65223C59.981 3.66064 60.4486 3.60008 60.6122 3.51598C60.7765 3.43188 61.4799 3.68839 61.8102 3.73633L62.0245 3.46636C62.0467 3.43776 62.1627 3.45458 62.2317 3.46384L62.6684 3.52271C63.1471 3.58242 63.7211 3.53953 63.9442 3.42767C64.1673 3.31581 64.9985 3.62195 65.2811 3.61522L65.5082 3.5614L65.7193 3.51177C65.9543 3.50421 66.3362 3.45458 66.5688 3.40244C66.8014 3.34945 67.4175 3.64382 67.4969 3.66484L67.5525 3.64466L68.182 3.39992C68.9101 3.4344 69.6547 3.45879 69.8381 3.45458C70.0199 3.45038 70.6995 3.50841 70.9877 3.68671L71.2354 3.3032L71.345 3.1333C71.6506 3.21573 71.9706 3.36123 72.0563 3.45627C72.1421 3.5513 72.6033 3.30404 72.728 3.27628C72.8526 3.24853 73.2472 3.44365 73.3686 3.46047L73.4242 3.41674L73.7227 3.18545C74.0141 3.32254 74.4214 3.46047 74.627 3.49243C74.8326 3.52439 75.4169 3.38225 75.5606 3.31329C75.7027 3.24516 76.1957 3.38562 76.2712 3.36459C76.3466 3.34188 76.6165 3.2132 76.6983 3.13499C76.7809 3.05761 77.0992 3.18209 77.177 3.09041L77.4176 3.1947L77.6835 3.30908C78.0813 3.2418 78.614 3.14087 78.868 3.08621C79.1213 3.02986 79.7921 3.17872 79.9049 3.15517C80.0184 3.12994 80.4812 3.18965 80.6908 3.25021L80.8869 3.26703L80.9576 3.27208C81.0679 3.16022 81.1791 3.15685 81.2053 3.26703C81.2315 3.37637 81.4403 3.64802 81.5967 3.5614C81.7531 3.47561 82.2469 3.23339 82.3755 3.1762C82.5033 3.11985 83.3996 3.10976 83.5576 3.14087C83.7148 3.17115 84.2277 2.94323 84.4246 2.92389C84.6223 2.90454 85.2915 2.93566 85.463 2.99537C85.6345 3.05677 86.4975 2.97267 86.9421 2.9651L87.2175 2.81371L87.4652 2.6783C87.6201 2.78764 87.8098 2.92641 87.886 2.98696C87.9614 3.04668 88.6315 2.9323 88.9745 2.8381C89.3174 2.74306 90.3741 2.76745 90.5154 2.81371C90.6575 2.86165 91.1918 2.86501 91.3911 2.82885C91.5912 2.79352 92.2914 2.74138 92.4986 2.7582C92.7058 2.77502 93.2615 2.62868 93.3759 2.57906C93.4902 2.52944 93.8101 2.71531 93.8482 2.72876L93.876 2.72035C94.0626 2.66232 94.2436 2.56308 94.4334 2.5471C94.6017 2.53364 94.789 2.66232 94.9502 2.63793L95.1955 2.60008C95.4702 2.57822 95.8402 2.5286 96.0164 2.48991C96.1934 2.45122 96.6031 2.64298 96.642 2.56224L96.6984 2.50336L96.7389 2.46215C96.8135 2.4386 97.0969 2.46215 97.3676 2.5143C97.6384 2.56644 98.8459 2.42262 99.0499 2.46972L99.2143 2.54121L99.4207 2.63204C99.5906 2.53196 99.8859 2.50252 100.076 2.56728L100.215 2.52439L100.459 2.4487C100.7 2.29983 101.011 2.21741 101.151 2.26619C101.291 2.31581 101.815 2.29731 101.991 2.24096C102.165 2.18377 102.522 2.19975 102.667 2.17452C102.813 2.14929 103.219 2.21741 103.347 2.25526C103.474 2.29226 103.845 2.21489 103.895 2.27208C103.944 2.33011 104.26 2.4344 104.48 2.37132C104.702 2.30824 106.001 2.33852 106.448 2.32254C106.896 2.3074 107.731 2.07275 107.904 2.02902L108.126 2.082L108.555 2.18293C109.066 2.17199 109.64 2.16274 109.832 2.16527L110.024 2.09041L110.272 1.99369C110.599 1.98696 110.999 2.01388 111.16 2.05341C111.322 2.09378 111.883 2.0122 112.022 2.03827L112.152 2.06518L112.275 2.08957C112.403 2.11144 112.846 2.08873 113.258 2.04163L113.626 1.9836L113.938 1.93482C114.287 1.89109 114.598 1.85408 114.629 1.8524C114.659 1.85071 114.872 1.90118 115.063 1.93482C115.254 1.96846 115.869 2.00547 116.028 2.05256C116.186 2.1005 116.584 2.26114 116.64 2.17872C116.694 2.09462 116.969 1.99453 117.085 1.99033C117.201 1.98528 117.623 1.7868 117.865 1.77334C118.107 1.76156 119.062 1.7439 119.441 1.72624C119.822 1.70858 120.973 1.8095 121.146 1.84146C121.318 1.87342 121.824 1.66484 121.94 1.70269C122.057 1.74054 122.274 1.73381 122.35 1.75736C122.426 1.78007 122.981 1.68251 123.435 1.57653L123.857 1.62111L124.165 1.65307C124.421 1.53785 124.826 1.50757 125.067 1.58579L125.292 1.60093L125.52 1.61775C125.775 1.53869 126.117 1.56812 126.28 1.68335C126.444 1.79773 127.172 1.3873 127.554 1.31834L127.874 1.53364C127.902 1.5513 128.02 1.51093 128.056 1.47056L128.113 1.40749C128.147 1.31834 128.278 1.21152 128.405 1.16947C128.532 1.1291 128.978 1.30656 129.145 1.35282C129.31 1.39907 129.93 1.37468 130.092 1.41674C130.252 1.45963 130.603 1.39151 130.724 1.37553C130.846 1.3587 131.398 1.42683 131.625 1.46636C131.851 1.50589 132.645 1.33347 132.901 1.38478L133.002 1.30572C133.325 1.05425 133.436 1.48654 133.637 1.4159L133.846 1.34272C134.045 1.19554 134.352 1.04752 134.53 1.01304C134.707 0.979394 135.369 1.05425 135.541 1.08789C135.713 1.12069 136.327 1.10555 136.492 1.05088C136.657 0.994533 137.251 1.10387 137.411 1.16695C137.569 1.23171 138.178 1.16527 138.498 1.10219L138.831 1.2233C139.063 1.3074 139.4 1.29563 139.581 1.03238L140.266 0.926409C140.976 1.17031 141.719 1.12069 142.415 0.960892C142.685 0.898655 142.933 1.29899 143.201 0.918839C143.283 0.803617 143.735 0.860807 144.014 0.87931L144.17 0.888562C144.338 0.964255 144.536 1.00126 144.613 0.971825C144.689 0.941547 144.894 0.85492 145.051 0.759041C145.208 0.663162 145.643 0.99958 145.791 0.981077C145.94 0.962574 146.302 0.807822 146.373 0.79016C146.445 0.773339 146.772 0.938183 146.93 1.03743L147.079 1.03827C147.228 1.03995 147.373 0.916316 147.53 0.874264L147.789 0.804458C148.059 0.893608 148.344 0.985282 148.424 1.00631C148.502 1.02733 148.702 0.955005 148.798 0.903701C148.892 0.851556 149.23 0.975189 149.315 0.955845L149.379 0.917157C149.465 0.86249 149.54 0.728764 149.607 0.734651C149.791 0.74979 149.971 0.869217 150.146 0.858284C150.37 0.845668 150.585 0.719513 150.811 0.69344L151.012 0.671573C151.229 0.712784 151.548 0.690076 151.718 0.619428L151.894 0.748949L152.009 0.833894C152.202 0.847351 152.585 0.87931 152.86 0.904541C153.136 0.930614 153.972 0.757359 154.154 0.83894C154.334 0.91968 155.344 0.802776 155.985 0.934819L156.585 0.695963C156.762 0.626156 157.045 0.623634 157.215 0.699327L157.508 0.828007C157.785 0.748108 158.147 0.605972 158.312 0.512616L158.46 0.514298C158.609 0.516821 158.758 0.626156 158.902 0.697645L158.985 0.739697C159.061 0.794365 159.551 0.874264 160.071 0.915475C160.591 0.955846 161.905 0.539529 161.938 0.555509C161.972 0.571489 162.036 0.644659 162.08 0.678301C162.124 0.711943 162.528 0.66989 162.766 0.634567C163.004 0.599243 163.809 0.532801 164.025 0.55635C164.242 0.579899 164.958 0.807821 165.137 0.886038C165.316 0.965937 165.893 0.771657 166.033 0.8709C166.172 0.969302 166.815 0.623633 167.104 0.5L167.43 0.772498L167.572 0.890244C168.001 0.780067 168.675 0.680825 169.069 0.671573L169.426 0.689235L169.796 0.708579C170.196 0.796047 170.733 0.736333 170.992 0.574012L171.335 0.828848C171.601 1.02565 171.91 0.463835 172.267 0.736333C172.565 0.963415 172.827 0.917158 173.083 0.687553C173.101 0.672414 173.158 0.674937 173.187 0.686712L173.431 0.780067C173.7 0.811186 174.006 0.861649 174.11 0.891926C174.215 0.923045 174.696 0.745585 174.926 0.69344L175.124 0.702691L175.533 0.720353C175.983 0.711943 176.734 0.691758 177.203 0.674937L177.632 0.689235L177.901 0.697645C178.193 0.769974 178.553 0.848192 178.702 0.871741C178.849 0.89529 179.213 0.78259 179.33 0.748108C179.446 0.713625 179.818 0.877628 179.92 0.892767L179.935 0.867536L180.156 0.518503C180.41 0.706897 181.152 0.805299 181.268 0.90286Z" fill="#7B448E"/>
</svg>
