<svg width="21" height="20" viewBox="0 0 21 20" fill="none" xmlns="http://www.w3.org/2000/svg">
<path fill-rule="evenodd" clip-rule="evenodd" d="M18.0285 1.12813C16.7604 -0.132726 14.6726 0.0917086 13.6108 1.51002L12.2972 3.2646C11.4333 4.41866 11.5095 6.03158 12.535 7.05128L12.7838 7.29859C12.7946 7.33015 12.821 7.42932 12.7917 7.61781C12.7259 8.04229 12.3714 8.94271 10.8834 10.4223C9.39588 11.9014 8.48911 12.2555 8.05859 12.3216C7.86348 12.3515 7.7614 12.3235 7.72984 12.3125L7.30484 11.8899C6.39317 10.9834 4.99223 10.814 3.86348 11.4276L1.87338 12.5095C0.169313 13.4358 -0.261311 15.7522 1.13494 17.1404L2.61463 18.6118C3.08088 19.0753 3.70786 19.4619 4.47307 19.5332C6.35744 19.709 10.7514 19.4848 15.3682 14.8942C19.6785 10.6083 20.5056 6.87083 20.6103 5.02934C20.6632 4.09819 20.2232 3.31037 19.6635 2.75384L18.0285 1.12813ZM14.8616 2.44642C15.3893 1.74148 16.373 1.68543 16.9268 2.23613L18.5618 3.86184C18.9055 4.20356 19.0708 4.58016 19.0503 4.9407C18.9672 6.40381 18.2991 9.77635 14.2665 13.7861C10.0358 17.9928 6.12827 18.1183 4.61806 17.9775C4.30952 17.9487 4.00265 17.7884 3.71629 17.5037L2.2366 16.0324C1.63504 15.4344 1.76775 14.3453 2.61963 13.8822L4.60973 12.8004C5.15932 12.5017 5.80317 12.6002 6.20317 12.9979L6.67754 13.4697L7.22838 12.9156C6.67754 13.4697 6.67827 13.4704 6.679 13.4711L6.68057 13.4726L6.68379 13.4757L6.69057 13.4823L6.70577 13.4965C6.71671 13.5065 6.72931 13.5174 6.74338 13.5292C6.77171 13.5526 6.8065 13.5791 6.84806 13.607C6.9315 13.6628 7.04161 13.7236 7.18004 13.7751C7.46213 13.8802 7.83421 13.9367 8.29546 13.8659C9.19838 13.7275 10.3944 13.1119 11.985 11.5303C13.5751 9.94927 14.1959 8.75869 14.3358 7.85735C14.4073 7.39647 14.3502 7.02428 14.2439 6.74193C14.1917 6.60355 14.1303 6.49352 14.0739 6.4103C14.0458 6.3688 14.019 6.3341 13.9954 6.30592C13.9836 6.29182 13.9725 6.27934 13.9625 6.26844L13.9482 6.25325L13.9416 6.24652L13.9385 6.24336L13.937 6.24184C13.9363 6.2411 13.9355 6.24037 13.3846 6.79435L13.9355 6.24036L13.6368 5.94329C13.1903 5.49936 13.1278 4.76244 13.5481 4.20101L14.8616 2.44642Z" fill="#8F4EA6"/>
</svg>
