<svg width="200" height="201" viewBox="0 0 200 201" fill="none" xmlns="http://www.w3.org/2000/svg">
<g clip-path="url(#clip0_45_3200)">
<path d="M200 105.771V87.4409C200 71.9297 184.489 63.469 171.798 63.469C162.969 64.1596 154.582 67.6132 147.827 73.3397C144.916 70.2707 141.42 67.8161 137.545 66.1208C133.669 64.4255 129.494 63.5238 125.264 63.469C116.347 63.7713 107.838 67.2754 101.293 73.3397C98.9083 70.0204 95.7107 67.3695 92.007 65.6411C88.3033 63.9127 84.2177 63.1648 80.1418 63.469C75.9334 63.1439 71.7209 64.0463 68.015 66.0669C64.3091 68.0875 61.2687 71.1397 59.2625 74.8534L40.6612 117.052L20.0068 69.7153C18.9028 67.1909 16.8453 65.2055 14.2832 64.192C11.7211 63.1786 8.86218 63.2193 6.32997 64.3053C5.04773 64.8543 3.88854 65.6548 2.9209 66.6594C1.95325 67.664 1.19678 68.8523 0.696173 70.1542C0.19557 71.4562 -0.0390072 72.8452 0.00630195 74.2393C0.0516111 75.6334 0.375887 77.0043 0.95997 78.2709L26.5625 133.973C26.5625 133.973 30.7931 143.844 39.2531 143.844C41.8495 144.229 44.5003 143.746 46.7947 142.472C49.0891 141.197 50.8992 139.201 51.9443 136.793C53.8968 133.864 68.7 102.731 77.6181 83.8609C77.9632 83.1319 78.5462 82.5422 79.2712 82.1889C79.9962 81.8355 80.8199 81.7396 81.6067 81.917C82.3934 82.0943 83.0964 82.5343 83.5997 83.1645C84.103 83.7947 84.3766 84.5775 84.3756 85.384V132.177C84.3381 135.088 85.4025 137.905 87.3554 140.065C89.3083 142.224 92.0053 143.565 94.9056 143.82C96.4469 143.922 97.9928 143.707 99.4476 143.188C100.902 142.669 102.235 141.857 103.363 140.801C104.491 139.746 105.39 138.47 106.005 137.053C106.62 135.636 106.937 134.108 106.937 132.563V93.7859C106.937 90.6071 108.2 87.5585 110.448 85.3108C112.696 83.0631 115.744 81.8003 118.923 81.8003C122.102 81.8003 125.15 83.0631 127.398 85.3108C129.646 87.5585 130.909 90.6071 130.909 93.7859V132.563C130.909 135.555 132.097 138.425 134.213 140.54C136.329 142.656 139.198 143.845 142.19 143.845C145.182 143.845 148.051 142.656 150.167 140.54C152.283 138.425 153.471 135.555 153.471 132.563V93.7859C153.471 90.6071 154.734 87.5585 156.982 85.3108C159.229 83.0631 162.278 81.8003 165.457 81.8003C168.636 81.8003 171.684 83.0631 173.932 85.3108C176.18 87.5585 177.442 90.6071 177.442 93.7859V132.563C177.442 135.555 178.631 138.425 180.747 140.54C182.862 142.656 185.732 143.845 188.724 143.845C191.716 143.845 194.585 142.656 196.701 140.54C198.816 138.425 200.005 135.555 200.005 132.563L200 105.771Z" fill="#939393"/>
</g>
<defs>
<clipPath id="clip0_45_3200">
<rect width="200" height="200" fill="white" transform="translate(0 0.958496)"/>
</clipPath>
</defs>
</svg>
