<svg width="160" height="201" viewBox="0 0 160 201" fill="none" xmlns="http://www.w3.org/2000/svg">
<path fill-rule="evenodd" clip-rule="evenodd" d="M20.1594 82.9895C19.7456 82.99 19.3488 83.154 19.0555 83.4458C18.7622 83.7376 18.5962 84.1336 18.5938 84.5474V88.1888C18.5938 88.8341 19.1125 89.3567 19.7633 89.3567H54.143C54.7891 89.3567 55.3125 88.8356 55.3125 88.1888V84.1575C55.3125 83.5122 54.7938 82.9895 54.143 82.9895H20.1594ZM19.7633 92.3645C19.1172 92.3645 18.5938 92.8856 18.5938 93.5325V97.5638C18.5938 98.2091 19.1125 98.7317 19.7633 98.7317H54.143C54.7891 98.7317 55.3125 98.2106 55.3125 97.5638V93.5325C55.3125 92.8872 54.7938 92.3645 54.143 92.3645H19.7633ZM19.7633 102.521C19.1172 102.521 18.5938 103.042 18.5938 103.689V107.72C18.5938 108.365 19.1125 108.888 19.7633 108.888H54.143C54.7891 108.888 55.3125 108.367 55.3125 107.72V103.689C55.3125 103.043 54.7938 102.521 54.143 102.521H19.7633ZM19.7633 112.677C19.1172 112.677 18.5938 113.198 18.5938 113.845V117.876C18.5938 118.522 19.1125 119.044 19.7633 119.044H54.143C54.7891 119.044 55.3125 118.523 55.3125 117.876V113.845C55.3125 113.2 54.7938 112.677 54.143 112.677H19.7633ZM9.21876 118.539C9.21876 119.185 9.73985 119.708 10.3867 119.708H14.418C15.0633 119.708 15.5859 119.19 15.5859 118.539V84.1591C15.5859 83.513 15.0648 82.9895 14.418 82.9895H10.3867C9.74142 82.9895 9.21876 83.5083 9.21876 84.1591V118.539ZM-11.875 118.539C-11.875 119.185 -11.3539 119.708 -10.707 119.708H-6.67578C-6.03046 119.708 -5.5078 119.19 -5.5078 118.539V84.1591C-5.5078 83.513 -6.0289 82.9895 -6.67578 82.9895H-10.707C-11.3523 82.9895 -11.875 83.5083 -11.875 84.1591V118.539ZM-16.4453 118.539C-16.4453 119.185 -16.9664 119.708 -17.6133 119.708H-21.6445C-21.7981 119.709 -21.9503 119.679 -22.0922 119.62C-22.2342 119.561 -22.3631 119.475 -22.4716 119.366C-22.5802 119.258 -22.6662 119.129 -22.7247 118.987C-22.7832 118.845 -22.813 118.692 -22.8125 118.539V84.1591C-22.8125 83.513 -22.2914 82.9895 -21.6445 82.9895H-17.6133C-16.968 82.9895 -16.4453 83.5083 -16.4453 84.1591V118.539ZM-1.71874 118.539C-1.71874 119.185 -1.19765 119.708 -0.550774 119.708H3.48048C4.12579 119.708 4.64845 119.19 4.64845 118.539V84.1591C4.64845 83.513 4.12735 82.9895 3.48048 82.9895H-0.550774C-1.19609 82.9895 -1.71874 83.5083 -1.71874 84.1591V118.539ZM70.6406 83.2622C70.6406 84.0552 70.4805 118.947 70.4805 118.947L86.7446 118.936L86.9813 113.329L75.8508 113.004L75.882 83.3599C75.882 83.3599 70.6406 82.4685 70.6406 83.2622ZM93.386 84.7083C92.2203 84.752 91.0828 85.5888 91.136 86.4505C91.1883 87.3138 92.4571 88.1614 93.5953 88.1169C94.7336 88.0739 95.7797 87.1122 95.7281 86.2755C95.6774 85.4388 94.5524 84.6638 93.386 84.7083ZM91.3883 96.2833L91.3008 118.562L96.0617 118.558L96.4485 96.163L91.3883 96.2833ZM100.031 96.4458L99.6992 119.012H105.968L105.647 103.336L108.265 100.052L111.995 99.8919L114.93 102.908L115.088 118.3L121.356 118.297L120.161 99.5044L115.434 95.6591L109.027 95.2583L104.782 97.956L104.776 94.752L100.031 96.4458ZM124.567 79.4185L124.681 118.594L129.601 118.833C129.601 118.833 130.545 106.992 130.073 107.626C129.601 108.261 137.294 118.338 137.294 118.338L144.673 118.179L135.304 105.615L143.079 95.5325L137.055 95.2919L130.563 103.296L130.632 79.5364L124.567 79.4185Z" fill="#939393"/>
</svg>
