<svg width="200" height="201" viewBox="0 0 200 201" fill="none" xmlns="http://www.w3.org/2000/svg">
<path fill-rule="evenodd" clip-rule="evenodd" d="M26.3258 172.893L25.2688 170.786L23.8453 168.06L23.7985 37.3978L24.6813 33.5892L27.286 29.5821L31.0891 27.4399L168.704 27.5282L172.745 29.4657L176.604 32.7243L177.846 35.8485L177.702 167.65L175.917 171.613L173.338 174.535L169.133 175.697L33.7055 175.586L29.3016 174.676L26.3258 172.893ZM30.2531 167.038L31.2446 168.765L32.7125 169.915L169.189 169.596L170.34 168.515L171.53 166.552L171.403 36.5032L170.162 34.7806L168.92 33.8196L32.3563 33.9423L30.7547 34.8946L29.7899 36.6798L30.2531 167.038Z" fill="#939393"/>
<path fill-rule="evenodd" clip-rule="evenodd" d="M42.6274 68.6519L81.7078 68.5776L90.8719 70.6401L97.7352 74.3292L101.86 79.7628L103.766 83.0128L104.599 88.0511L104.916 94.3354L103.914 100.838L100.512 105.439L96.1883 108.932L92.2219 111.865L87.6203 112.736L87.218 113.927L107.531 144.361L86.5016 144.431L70.0508 115.778L59.9578 116.132L59.7696 144.457L42.5055 144.419L42.6274 68.6519ZM59.5914 82.8823L59.9016 102.589L78.186 102.386C78.186 102.386 82.2328 101.105 82.4703 100.824C82.7086 100.544 85.8032 97.18 85.8032 97.18L86.5946 93.4558L85.8336 88.4909L82.75 84.487L78.9453 82.9253L59.5914 82.8823ZM113.391 98.0792L119.142 92.6745L125.767 89.4698L134.655 88.7472L144.097 89.7784L151.357 94.6589L155.679 100.308L157.821 105.546C157.821 105.546 159.766 112.306 159.766 112.624C159.766 112.941 159.684 122.343 159.684 122.343L124.235 122.492L124.632 125.785L127.25 129.832L131.098 132.53L138.651 132.779L143.53 129.935L145.554 126.692L160.003 131.567L155.558 137.953L150.673 142.078L143.989 145.68L135.9 146.153L126.224 145.83L118.295 141.825L112.571 136.178L109.109 128.282L107.748 120.373L107.796 112.292L110.177 104.452L113.391 98.0792ZM124.511 111.232L143.352 111.778L143.353 108.643L141.884 104.914L139.227 102.257L132.959 101.424L128.158 103.025L125.778 106.39L124.511 111.232ZM52.0625 162.678H50.0156C48.7899 160.742 48.0289 159.553 47.7328 159.111C47.4619 158.7 47.1481 158.319 46.7969 157.974C46.4696 157.657 46.1617 157.458 45.8735 157.374C45.5852 157.29 45.2039 157.248 44.7281 157.248H42.8485V162.678H41.2203V150.375H46.6664C47.411 150.375 48.0344 150.421 48.5383 150.517C49.0225 150.603 49.4777 150.809 49.8624 151.115C50.2471 151.421 50.5493 151.819 50.7414 152.271C50.9453 152.734 51.0496 153.234 51.0477 153.74C51.0477 154.668 50.7539 155.415 50.1664 155.981C49.5789 156.546 48.7227 156.903 47.5985 157.055V157.089C48.4211 157.452 49.1922 158.199 49.9149 159.329L52.0625 162.678ZM42.8485 155.787H46.3391C47.0446 155.787 47.6024 155.728 48.0141 155.607C48.414 155.495 48.7625 155.247 49 154.907C49.2437 154.567 49.3728 154.158 49.3688 153.74C49.3688 153.18 49.1649 152.705 48.7563 152.313C48.3477 151.922 47.6735 151.725 46.7336 151.725H42.8485V155.788V155.787ZM61.1266 162.678H59.5406C59.3953 162.398 59.2914 162.032 59.2297 161.578C58.2172 162.451 57.1235 162.888 55.9485 162.888C55.0086 162.888 54.2672 162.653 53.725 162.182C53.1821 161.713 52.911 161.092 52.911 160.319C52.911 159.581 53.1719 158.972 53.6953 158.494C54.2188 158.016 55.1266 157.698 56.4188 157.541L57.8289 157.332C58.3547 157.248 58.7883 157.144 59.1297 157.021C59.1297 156.568 59.1157 156.248 59.0875 156.06C59.0499 155.85 58.9653 155.65 58.8399 155.477C58.7024 155.275 58.4828 155.114 58.1813 154.99C57.8789 154.867 57.4735 154.806 56.9641 154.806C56.3156 154.806 55.8016 154.926 55.4242 155.167C55.0461 155.407 54.7875 155.854 54.6477 156.509L53.1711 156.316C53.3328 155.404 53.7492 154.719 54.4211 154.26C55.093 153.801 56.0157 153.572 57.1907 153.572C58.2594 153.572 59.0438 153.73 59.5446 154.046C60.0453 154.362 60.3532 154.744 60.468 155.192C60.5828 155.639 60.6399 156.215 60.6399 156.921V158.952C60.6399 160.188 60.6633 161.017 60.711 161.44C60.7637 161.877 60.9052 162.298 61.1266 162.678ZM59.1297 158.758V158.213C58.3406 158.476 57.375 158.685 56.2336 158.838C55.093 158.992 54.5227 159.475 54.5227 160.285C54.5227 160.694 54.6758 161.032 54.9836 161.297C55.2914 161.563 55.7336 161.696 56.3094 161.696C57.0539 161.696 57.7094 161.473 58.2781 161.028C58.8453 160.583 59.1297 159.827 59.1297 158.758ZM70.2578 159.598C70.0617 160.733 69.6141 161.566 68.9141 162.094C68.2334 162.617 67.3972 162.896 66.5391 162.888C65.2477 162.888 64.2485 162.464 63.5438 161.616C62.8391 160.768 62.486 159.645 62.486 158.246C62.486 157.089 62.6891 156.16 63.0953 155.465C63.5 154.767 64.0078 154.278 64.618 153.996C65.2274 153.714 65.868 153.572 66.5399 153.572C67.4571 153.572 68.2422 153.81 68.8938 154.285C69.5453 154.761 69.9469 155.46 70.0985 156.383L68.6375 156.61C68.4867 156.011 68.2422 155.561 67.9031 155.258C67.5649 154.957 67.1328 154.805 66.6063 154.805C65.7625 154.805 65.1219 155.105 64.6844 155.703C64.2485 156.303 64.0305 157.139 64.0305 158.213C64.0305 159.31 64.2446 160.156 64.6727 160.752C65.1008 161.347 65.7172 161.646 66.5227 161.646C67.1719 161.646 67.6828 161.46 68.0539 161.087C68.4266 160.715 68.6602 160.157 68.7555 159.413L70.2578 159.598ZM78.9352 162.678H77.0805L74.118 158.121L73.0524 159.136V162.678H71.5414V150.375H73.0524V157.382L76.6274 153.773H78.5914L75.1836 157.071L78.9352 162.678ZM94.3266 162.678H85.1375V150.375H94.0414V151.835H86.7656V155.595H93.5711V157.055H86.7656V161.217H94.3266V162.678ZM103.717 162.678H101.855L99.5383 159.153L97.1969 162.678H95.3594L98.6235 158.037L95.6196 153.774H97.4907C98.7102 155.614 99.3758 156.641 99.4883 156.853L101.67 153.774H103.475L100.395 157.953L103.718 162.678H103.717ZM108.459 162.661C108.012 162.75 107.634 162.795 107.327 162.795C106.666 162.795 106.185 162.679 105.883 162.447C105.592 162.233 105.394 161.916 105.329 161.561C105.262 161.203 105.228 160.706 105.228 160.067V154.94H104.129V153.774H105.228V151.558L106.739 150.643V153.774H108.25V154.94H106.739V160.151C106.739 160.6 106.786 160.917 106.877 161.104C106.97 161.292 107.203 161.385 107.578 161.385C107.797 161.385 108.02 161.363 108.25 161.318L108.459 162.661ZM117.498 158.607H110.827C110.888 159.592 111.169 160.345 111.67 160.865C112.17 161.385 112.795 161.646 113.545 161.646C114.122 161.646 114.605 161.493 114.998 161.188C115.388 160.883 115.688 160.422 115.895 159.807L117.448 160C117.196 160.929 116.734 161.642 116.063 162.141C115.391 162.639 114.552 162.888 113.545 162.888C112.208 162.888 111.163 162.478 110.411 161.658C109.658 160.838 109.282 159.718 109.282 158.297C109.282 156.892 109.647 155.754 110.377 154.882C111.107 154.008 112.135 153.572 113.461 153.572C114.11 153.572 114.735 153.714 115.337 154C115.938 154.285 116.449 154.771 116.868 155.456C117.288 156.142 117.498 157.192 117.498 158.607ZM115.945 157.365C115.884 156.459 115.603 155.806 115.102 155.406C114.602 155.006 114.055 154.806 113.461 154.806C112.751 154.806 112.166 155.043 111.707 155.519C111.248 155.995 110.983 156.61 110.91 157.365H115.945ZM126.595 162.678H125.077V157.264C125.077 156.353 124.913 155.725 124.585 155.385C124.258 155.043 123.804 154.873 123.222 154.873C122.774 154.873 122.35 154.982 121.95 155.2C121.568 155.399 121.266 155.726 121.098 156.123C120.93 156.521 120.847 157.083 120.847 157.81V162.678H119.336V153.774H120.695V155.032H120.729C121.048 154.546 121.441 154.18 121.909 153.937C122.375 153.693 122.916 153.572 123.532 153.572C124.002 153.572 124.466 153.656 124.925 153.824C125.384 153.992 125.744 154.243 126.003 154.579C126.264 154.915 126.427 155.273 126.495 155.653C126.562 156.034 126.595 156.549 126.595 157.197V162.678ZM133.846 156.266C133.779 155.779 133.582 155.414 133.255 155.171C132.927 154.928 132.473 154.806 131.891 154.806C131.315 154.806 130.848 154.903 130.494 155.1C130.138 155.295 129.961 155.581 129.961 155.956C129.961 156.307 130.102 156.56 130.384 156.71C130.667 156.862 131.225 157.046 132.059 157.265C132.998 157.505 133.702 157.718 134.17 157.903C134.637 158.087 135 158.346 135.26 158.678C135.52 159.011 135.651 159.475 135.651 160.067C135.651 160.862 135.326 161.531 134.677 162.074C134.028 162.616 133.161 162.888 132.076 162.888C130.945 162.888 130.063 162.648 129.427 162.17C128.793 161.692 128.402 160.975 128.257 160.017L129.759 159.791C129.838 160.412 130.068 160.876 130.452 161.184C130.834 161.492 131.37 161.645 132.059 161.645C132.719 161.645 133.225 161.507 133.577 161.23C133.93 160.953 134.106 160.616 134.106 160.219C134.106 159.95 134.025 159.735 133.863 159.572C133.692 159.404 133.483 159.279 133.254 159.207C133.012 159.126 132.465 158.982 131.613 158.775C130.349 158.473 129.514 158.107 129.109 157.676C128.709 157.262 128.491 156.707 128.5 156.132C128.5 155.388 128.797 154.775 129.391 154.294C129.983 153.813 130.78 153.572 131.781 153.572C132.845 153.572 133.672 153.78 134.262 154.197C134.852 154.614 135.205 155.236 135.323 156.064L133.847 156.266H133.846ZM138.982 162.678H137.472V153.774H138.982V162.678ZM138.982 152.086H137.472V150.375H138.982V152.086ZM144.916 153.572C146.119 153.572 147.116 153.964 147.908 154.747C148.699 155.53 149.095 156.643 149.095 158.087C149.095 159.839 148.667 161.076 147.811 161.8C146.955 162.525 145.991 162.888 144.916 162.888C143.791 162.888 142.815 162.515 141.987 161.771C141.159 161.027 140.745 159.846 140.745 158.23C140.745 156.663 141.145 155.496 141.945 154.726C142.745 153.957 143.735 153.572 144.916 153.572ZM144.916 161.646C145.777 161.646 146.431 161.327 146.88 160.689C147.327 160.051 147.552 159.212 147.552 158.171C147.552 157.057 147.298 156.218 146.791 155.653C146.285 155.088 145.66 154.806 144.916 154.806C144.149 154.806 143.52 155.092 143.027 155.665C142.535 156.239 142.289 157.094 142.289 158.23C142.289 159.36 142.539 160.212 143.04 160.785C143.541 161.359 144.166 161.646 144.916 161.646ZM158.125 162.678H156.606V157.264C156.606 156.353 156.442 155.725 156.116 155.385C155.788 155.043 155.334 154.873 154.752 154.873C154.307 154.872 153.87 154.985 153.48 155.2C153.098 155.399 152.797 155.726 152.629 156.123C152.46 156.521 152.377 157.083 152.377 157.81V162.678H150.866V153.774H152.225V155.032H152.259C152.578 154.546 152.97 154.18 153.438 153.937C153.905 153.693 154.446 153.572 155.062 153.572C155.532 153.572 155.996 153.656 156.455 153.824C156.914 153.992 157.273 154.243 157.534 154.579C157.783 154.891 157.952 155.26 158.024 155.653C158.091 156.034 158.126 156.549 158.126 157.197V162.678H158.125Z" fill="#939393"/>
</svg>
