<svg width="200" height="201" viewBox="0 0 200 201" fill="none" xmlns="http://www.w3.org/2000/svg">
<path fill-rule="evenodd" clip-rule="evenodd" d="M6.32971 79.7976H16.0063V103.403H31.1094V111.115H6.32971V79.7976ZM54.7789 105.945H43.7555L42.2407 111.115H32.35L44.1203 79.7976H54.6719L66.443 111.115H56.3172L54.7789 105.945ZM52.75 99.1733L49.2891 87.9155L45.8492 99.1733H52.75ZM69.6688 79.7983H84.0453C86.8797 79.7983 89.1688 80.1819 90.9133 80.9515C92.6578 81.7202 94.1 82.8241 95.2391 84.2624C96.3789 85.7007 97.2047 87.3741 97.7172 89.2827C98.2297 91.1905 98.486 93.2124 98.486 95.3491C98.486 98.696 98.1055 101.291 97.3438 103.136C96.5813 104.98 95.5235 106.526 94.1719 107.772C92.818 109.018 91.3657 109.848 89.8125 110.26C87.6914 110.83 85.7688 111.115 84.0453 111.115H69.6688V79.7983ZM79.3453 86.8897V104.001H81.7172C83.7391 104.001 85.1782 103.776 86.0321 103.328C86.8867 102.88 87.5555 102.096 88.0399 100.978C88.5243 99.8608 88.7664 98.0483 88.7664 95.5413C88.7664 92.2233 88.225 89.9515 87.143 88.7272C86.061 87.5022 84.2664 86.8897 81.7602 86.8897H79.3461H79.3453ZM101.883 100.754L111.09 100.177C111.29 101.673 111.695 102.812 112.308 103.595C113.305 104.862 114.729 105.497 116.581 105.497C117.962 105.497 119.026 105.173 119.774 104.524C120.522 103.876 120.895 103.126 120.895 102.271C120.895 101.458 120.539 100.732 119.827 100.091C119.115 99.4507 117.463 98.846 114.871 98.2757C110.627 97.3218 107.601 96.0546 105.793 94.4733C103.97 92.8929 103.059 90.8772 103.059 88.428C103.059 86.8186 103.524 85.2983 104.457 83.8671C105.39 82.4358 106.793 81.3108 108.666 80.4921C110.538 79.6733 113.105 79.2632 116.366 79.2632C120.369 79.2632 123.42 80.0077 125.52 81.496C127.621 82.9843 128.87 85.3515 129.27 88.5991L120.148 89.1327C119.906 87.7233 119.396 86.6976 118.62 86.0569C117.844 85.4163 116.773 85.096 115.405 85.096C114.28 85.096 113.433 85.3343 112.863 85.8108C112.293 86.2882 112.009 86.8686 112.009 87.5522C112.009 88.0507 112.243 88.4991 112.713 88.8976C113.17 89.3116 114.252 89.6952 115.961 90.0515C120.191 90.9632 123.22 91.8851 125.05 92.8179C126.88 93.7507 128.212 94.9077 129.045 96.289C129.878 97.671 130.295 99.2163 130.295 100.925C130.295 102.933 129.739 104.784 128.629 106.48C127.518 108.174 125.965 109.459 123.972 110.335C121.977 111.211 119.464 111.649 116.431 111.649C111.105 111.649 107.416 110.623 105.365 108.573C103.314 106.522 102.154 103.916 101.883 100.754ZM135.123 79.7976H151.209C154.712 79.7976 157.336 80.6304 159.081 82.2976C160.825 83.9632 161.698 86.3343 161.698 89.4108C161.698 92.5726 160.747 95.0437 158.846 96.8233C156.945 98.6038 154.043 99.4937 150.141 99.4937H144.842V111.115H135.123V79.7976ZM144.842 93.1491H147.214C149.08 93.1491 150.39 92.8249 151.144 92.1772C151.899 91.5288 152.277 90.6991 152.277 89.6882C152.277 88.7054 151.948 87.8726 151.294 87.189C150.639 86.5054 149.407 86.1632 147.598 86.1632H144.842V93.1491ZM182.312 105.945H171.289L169.773 111.115H159.882L171.652 79.7976H182.206L193.976 111.115H183.851L182.312 105.945ZM180.283 99.1733L176.822 87.9155L173.383 99.1733H180.283Z" fill="#939393"/>
</svg>
