<svg width="200" height="201" viewBox="0 0 200 201" fill="none" xmlns="http://www.w3.org/2000/svg">
<path fill-rule="evenodd" clip-rule="evenodd" d="M25.0492 35.557L27.2703 31.7133L30.8406 29.1492L34.0046 27.707L170.83 28.0695L174.559 30.132L178.527 33.543L179.115 170.571L176.63 173.269L171.664 175.57L32.882 176.151L28.075 173.827L24.6296 169.662L25.0492 35.557ZM32.432 147.17L171.528 147.076L171.923 35.8391L32.9304 35.4141L32.432 147.17ZM61.5789 167.07L80.0562 167.234L80.1421 164.602L64.7445 164.462L64.8976 161.596L80.0179 161.659L80.1406 159.675L65.0023 159.55C65.0023 159.55 64.9656 156.391 65.0054 156.011C65.0453 155.631 80.157 156.391 80.157 156.391L80.1179 154.406L61.7335 154.48L61.5789 167.07ZM148.298 166.288L166.775 166.452L166.861 163.821L151.463 163.68L151.616 160.815L166.737 160.877L166.859 158.894L151.721 158.769C151.721 158.769 151.684 155.609 151.724 155.23C151.764 154.85 166.876 155.609 166.876 155.609L166.837 153.625L148.452 153.698L148.298 166.288ZM86.0492 154.544L85.9531 166.783L110.255 166.896L110.272 154.595L105.698 154.532L105.83 163.788L99.7359 163.902L99.6124 154.62L95.4718 154.479L95.5624 164.018L89.6226 163.834L89.4562 154.506L86.0492 154.544ZM116.223 154.473L115.933 167.118L119.336 167.064C119.336 167.064 119.219 154.689 119.119 154.491C119.02 154.293 116.223 154.474 116.223 154.474V154.473ZM37.6085 154.588L37.5015 167.129L41.0124 167.048L41.0054 162.122L48.6914 162.221L51.696 166.434L56.5789 166.472L52.6796 162.284L55.9999 159.991L55.8445 154.109L37.6085 154.588ZM125.109 154.588L125.002 167.129L128.512 167.048L128.505 162.122L136.191 162.221L139.196 166.434L144.079 166.472L140.18 162.284L143.5 159.991L143.344 154.109L125.109 154.588Z" fill="#939393"/>
<path fill-rule="evenodd" clip-rule="evenodd" d="M41.1999 115.775L58.4976 115.529L70.082 113.285L81.032 108.878L85.5507 106.235L90.8984 109.784L97.4046 112.957L88.4991 118.353L79.8491 122.717L72.2398 125.415L63.2546 126.756L41.2179 127.163L41.1999 115.775ZM40.9023 96.9393L50.6484 97.0135L56.3616 95.6525L62.0741 93.1689L69.2538 96.7221L76.6335 100.292L67.7304 105.29L58.4382 107.432L50.6679 108.542L40.4952 108.699L40.9023 96.9393Z" fill="#939393"/>
<path fill-rule="evenodd" clip-rule="evenodd" d="M41.0859 84.6227L52.4328 85.254L63.0656 88.904L73.6977 93.7446L82.9789 98.1759L92.5 104.683L101.625 110.713L110.034 116.259L121.177 121.195L132.445 125.877L138.395 126.908L163.395 126.902L163.426 115.047L143.35 115.68L131.098 112.076L118.047 106.39L107.799 99.1853L96.8414 91.8993L85.6094 85.7743L74.8859 79.8477L63.3742 74.6431L54.307 72.5571L41.2562 72.7032L41.0859 84.6227Z" fill="#939393"/>
<path fill-rule="evenodd" clip-rule="evenodd" d="M41.2703 66.1483L58.0742 66.1882L67.2781 68.0132L77.0375 72.0601L86.0039 76.6616L97.4296 83.4858L106.634 89.9921L118.615 97.371L129.168 102.687L140.038 106.972L148.132 108.479L164.351 108.554L164.344 96.7827L150.491 97.3382L137.6 92.9335L125.268 85.8843L111.338 77.8741L98.5312 69.464L86.521 62.4944L75.1789 57.2499L67.5781 55.1671L64.0132 54.4429L41.3453 54.9421L41.2703 66.1483Z" fill="#939393"/>
<path fill-rule="evenodd" clip-rule="evenodd" d="M164.384 84.0148L164.566 71.3992L150.314 71.5492L143.667 72.8188L134.936 75.4375L128.127 78.7703L125.564 80.1984L132.695 83.7547L139.836 87.643L147.691 85.3992L153.721 84.2781L164.384 84.0148ZM163.479 65.732L163.855 53.3477L148.318 53.4234L137.188 53.4977L126.935 56.275L116.125 61.2734L107.797 67.3781L107.858 68.9469L113.095 72.0414L118.807 76.0086L126.424 71.6836L135.073 68.7195L146.023 66.3102L163.479 65.732ZM41.6875 157.211L41.6078 159.988L50.9383 160.06L51.3351 157.177L41.6875 157.211ZM129.187 157.211L129.108 159.988L138.438 160.06L138.835 157.177L129.187 157.211Z" fill="#939393"/>
</svg>
