<svg width="200" height="201" viewBox="0 0 200 201" fill="none" xmlns="http://www.w3.org/2000/svg">
<path fill-rule="evenodd" clip-rule="evenodd" d="M106.334 72.0523C104.933 72.0523 103.797 73.1929 103.797 74.571V80.4601C103.797 80.7087 103.846 80.9549 103.941 81.1846C104.036 81.4142 104.176 81.6228 104.352 81.7983C104.528 81.9737 104.737 82.1127 104.967 82.2071C105.197 82.3015 105.444 82.3495 105.692 82.3484H161.386C161.634 82.349 161.881 82.3006 162.11 82.206C162.34 82.1114 162.549 81.9725 162.725 81.7971C162.901 81.6217 163.041 81.4134 163.136 81.184C163.232 80.9545 163.281 80.7086 163.281 80.4601V73.9405C163.281 73.6919 163.233 73.4457 163.137 73.2161C163.042 72.9864 162.902 72.7779 162.726 72.6024C162.55 72.4269 162.341 72.288 162.111 72.1936C161.881 72.0992 161.635 72.0511 161.386 72.0523H106.334ZM105.692 87.2116C105.444 87.211 105.198 87.2594 104.968 87.354C104.738 87.4486 104.529 87.5875 104.353 87.7629C104.177 87.9383 104.037 88.1466 103.942 88.376C103.846 88.6055 103.797 88.8514 103.797 89.0999V95.6195C103.797 95.8681 103.846 96.1143 103.941 96.3439C104.036 96.5736 104.176 96.7821 104.352 96.9576C104.528 97.1331 104.737 97.272 104.967 97.3664C105.197 97.4608 105.444 97.5089 105.692 97.5077H161.386C161.634 97.5084 161.881 97.46 162.11 97.3654C162.34 97.2708 162.549 97.1318 162.725 96.9565C162.901 96.7811 163.041 96.5727 163.136 96.3433C163.232 96.1139 163.281 95.8679 163.281 95.6195V89.0999C163.281 88.8513 163.233 88.6051 163.137 88.3754C163.042 88.1458 162.902 87.9372 162.726 87.7617C162.55 87.5863 162.341 87.4473 162.111 87.3529C161.881 87.2585 161.635 87.2105 161.386 87.2116H105.692ZM105.692 103.635C105.444 103.634 105.198 103.683 104.968 103.777C104.738 103.872 104.529 104.011 104.353 104.186C104.177 104.362 104.037 104.57 103.942 104.799C103.846 105.029 103.797 105.275 103.797 105.523V112.042C103.797 112.291 103.846 112.537 103.941 112.767C104.036 112.996 104.176 113.205 104.352 113.38C104.528 113.556 104.737 113.695 104.967 113.789C105.197 113.883 105.444 113.932 105.692 113.93H161.386C161.634 113.931 161.881 113.883 162.11 113.788C162.34 113.693 162.549 113.554 162.725 113.379C162.901 113.204 163.041 112.995 163.136 112.766C163.232 112.537 163.281 112.291 163.281 112.042V105.523C163.281 105.275 163.233 105.029 163.137 104.799C163.042 104.569 162.902 104.361 162.726 104.185C162.55 104.01 162.341 103.871 162.111 103.776C161.881 103.682 161.635 103.634 161.386 103.635H105.692ZM105.692 120.058C105.444 120.057 105.198 120.105 104.968 120.2C104.738 120.295 104.529 120.434 104.353 120.609C104.177 120.784 104.037 120.993 103.942 121.222C103.846 121.452 103.797 121.698 103.797 121.946V128.465C103.797 128.713 103.845 128.96 103.941 129.189C104.036 129.419 104.176 129.628 104.352 129.803C104.528 129.979 104.737 130.118 104.967 130.212C105.197 130.307 105.444 130.355 105.692 130.354H161.386C161.634 130.354 161.881 130.306 162.111 130.211C162.34 130.117 162.549 129.978 162.725 129.802C162.901 129.627 163.041 129.418 163.136 129.189C163.232 128.959 163.281 128.713 163.281 128.465V121.946C163.281 121.697 163.233 121.451 163.137 121.222C163.042 120.992 162.902 120.783 162.726 120.608C162.55 120.432 162.341 120.293 162.111 120.199C161.881 120.105 161.635 120.057 161.386 120.058H105.692ZM88.6094 129.536C88.6093 129.784 88.6582 130.03 88.7532 130.26C88.8483 130.49 88.9877 130.698 89.1634 130.874C89.3391 131.049 89.5478 131.189 89.7774 131.284C90.007 131.379 90.2531 131.427 90.5016 131.427H97.0328C97.2814 131.428 97.5276 131.379 97.7574 131.285C97.9871 131.19 98.1959 131.05 98.3716 130.875C98.5474 130.699 98.6867 130.49 98.7815 130.26C98.8763 130.031 98.9248 129.784 98.9242 129.536V73.9429C98.9242 73.6945 98.8753 73.4485 98.7802 73.219C98.6851 72.9895 98.5456 72.781 98.3699 72.6055C98.1942 72.4299 97.9856 72.2907 97.756 72.1957C97.5265 72.1008 97.2804 72.0521 97.032 72.0523H90.5008C90.2522 72.0516 90.006 72.1001 89.7762 72.195C89.5465 72.2898 89.3377 72.4291 89.162 72.6049C88.9862 72.7806 88.8469 72.9894 88.7521 73.2191C88.6573 73.4489 88.6088 73.6951 88.6094 73.9437V129.536ZM54.4375 129.536C54.4374 129.784 54.4863 130.03 54.5813 130.26C54.6764 130.49 54.8158 130.698 54.9915 130.874C55.1673 131.049 55.3759 131.189 55.6055 131.284C55.8351 131.379 56.0812 131.427 56.3297 131.427H62.8609C63.1095 131.428 63.3557 131.379 63.5855 131.285C63.8152 131.19 64.024 131.05 64.1997 130.875C64.3755 130.699 64.5148 130.49 64.6096 130.26C64.7045 130.031 64.753 129.784 64.7524 129.536V73.9429C64.7524 73.6945 64.7034 73.4485 64.6083 73.219C64.5132 72.9895 64.3738 72.781 64.198 72.6055C64.0223 72.4299 63.8137 72.2907 63.5842 72.1957C63.3546 72.1008 63.1086 72.0521 62.8602 72.0523H56.3289C56.0804 72.0516 55.8341 72.1001 55.6044 72.195C55.3746 72.2898 55.1659 72.4291 54.9901 72.6049C54.8144 72.7806 54.6751 72.9894 54.5802 73.2191C54.4854 73.4489 54.4369 73.6951 54.4375 73.9437V129.536ZM47.0336 129.536C47.0337 129.784 46.9848 130.03 46.8898 130.26C46.7947 130.49 46.6553 130.698 46.4796 130.874C46.3038 131.049 46.0952 131.189 45.8656 131.284C45.636 131.379 45.3899 131.427 45.1414 131.427H38.6102C38.3616 131.428 38.1154 131.379 37.8856 131.285C37.6559 131.19 37.4471 131.05 37.2714 130.875C37.0956 130.699 36.9563 130.49 36.8615 130.26C36.7666 130.031 36.7181 129.784 36.7188 129.536V73.9429C36.7188 73.6945 36.7677 73.4485 36.8628 73.219C36.9579 72.9895 37.0973 72.781 37.2731 72.6055C37.4488 72.4299 37.6574 72.2907 37.887 72.1957C38.1165 72.1008 38.3625 72.0521 38.6109 72.0523H45.1422C45.3908 72.0516 45.637 72.1001 45.8667 72.195C46.0965 72.2898 46.3052 72.4291 46.481 72.6049C46.6568 72.7806 46.7961 72.9894 46.8909 73.2191C46.9857 73.4489 47.0342 73.6951 47.0336 73.9437V129.536ZM70.8906 129.536C70.8905 129.784 70.9394 130.03 71.0345 130.26C71.1295 130.49 71.2689 130.698 71.4447 130.874C71.6204 131.049 71.829 131.189 72.0586 131.284C72.2883 131.379 72.5343 131.427 72.7828 131.427H79.3141C79.5626 131.428 79.8089 131.379 80.0386 131.285C80.2684 131.19 80.4771 131.05 80.6529 130.875C80.8286 130.699 80.9679 130.49 81.0628 130.26C81.1576 130.031 81.2061 129.784 81.2055 129.536V73.9429C81.2055 73.6945 81.1565 73.4485 81.0614 73.219C80.9663 72.9895 80.8269 72.781 80.6512 72.6055C80.4754 72.4299 80.2668 72.2907 80.0373 72.1957C79.8077 72.1008 79.5617 72.0521 79.3133 72.0523H72.782C72.5335 72.0516 72.2873 72.1001 72.0575 72.195C71.8277 72.2898 71.619 72.4291 71.4432 72.6049C71.2675 72.7806 71.1282 72.9894 71.0333 73.2191C70.9385 73.4489 70.89 73.6951 70.8906 73.9437V129.536Z" fill="#939393"/>
</svg>
