<svg width="177" height="190" viewBox="0 0 177 190" fill="none" xmlns="http://www.w3.org/2000/svg">
<g opacity="0.51">
<path d="M71.06 169.899C109.986 180.561 150.184 157.649 160.846 118.723C171.507 79.7978 148.595 39.5995 109.67 28.9378C70.7441 18.276 30.5457 41.1883 19.884 80.1138C9.22225 119.039 32.1346 159.238 71.06 169.899Z" fill="url(#paint0_linear_83_30)"/>
<path d="M73.7139 160.21C106.986 169.323 141.346 149.739 150.459 116.467C159.573 83.1947 139.988 48.8346 106.716 39.7213C73.4438 30.6081 39.0837 50.1927 29.9704 83.4647C20.8572 116.737 40.4418 151.097 73.7139 160.21Z" fill="url(#paint1_linear_83_30)"/>
<g opacity="0.42">
<path d="M73.1356 147.149C102.017 155.06 131.842 138.06 139.753 109.179C147.664 80.2973 130.664 50.4716 101.782 42.561C72.9011 34.6504 43.0755 51.6505 35.1649 80.5317C27.2543 109.413 44.2543 139.239 73.1356 147.149Z" fill="#91B3FA"/>
</g>
<path d="M109.483 19.5787C113.221 22.5424 124.083 31.8545 126.163 33.6399C126.335 33.7879 126.315 34.0602 126.123 34.1815L106.735 46.4212C105.921 46.935 104.91 47.0263 104.017 46.6662L97.8159 44.1657C97.5875 44.0735 97.5313 43.7756 97.7104 43.6066L109.831 32.174C109.984 32.0299 109.97 31.7826 109.801 31.6571L98.9764 23.6141C98.1081 22.9689 98.4199 21.5992 99.4821 21.3937L109.209 19.5115C109.306 19.493 109.406 19.5173 109.483 19.5787Z" fill="url(#paint2_linear_83_30)"/>
<path d="M65.7359 107.357L49.7772 102.986L50.909 98.8539L58.2532 92.8124C60.27 91.1476 61.6864 89.8906 62.5026 89.0421C63.3185 88.1931 63.9809 87.3461 64.4898 86.5007C64.9982 85.6553 65.3869 84.7443 65.6546 83.767C65.9667 82.6272 65.9461 81.7026 65.5935 80.9931C65.2408 80.2838 64.6573 79.8177 63.843 79.5946C63.1236 79.3976 62.3998 79.4037 61.6717 79.6125C60.9433 79.8218 59.9955 80.299 58.8288 81.0441L56.6266 76.9399C58.4939 75.7154 60.12 74.972 61.5049 74.7091C62.8898 74.4466 64.2948 74.5103 65.7195 74.9005C68.1215 75.5584 69.8042 76.778 70.768 78.559C71.7316 80.3403 71.8699 82.4863 71.1823 84.9966C70.8701 86.1365 70.4525 87.1819 69.9296 88.1326C69.4065 89.0835 68.7567 90.0034 67.9809 90.8924C67.2048 91.7815 66.2921 92.6767 65.2432 93.5782C64.1936 94.4798 61.5723 96.4864 57.3798 99.5974L57.3351 99.7604L67.0855 102.431L65.7362 107.357L65.7359 107.357Z" fill="url(#paint3_linear_83_30)"/>
<path d="M87.9656 106.728L84.9531 105.903L83.2415 112.152L78.0305 110.725L79.7422 104.476L70.0324 101.816L71.2645 97.3176L85.4692 80.7698L91.3927 82.3923L86.2076 101.323L89.2201 102.148L87.9656 106.728ZM80.9967 99.8954L82.7138 93.6261L83.5737 90.8853L84.4411 88.2784L84.2781 88.2338C83.3977 89.5828 82.5159 90.7782 81.6326 91.82L75.9481 98.5126L80.9967 99.8954Z" fill="url(#paint4_linear_83_30)"/>
<path d="M111.647 87.9396L92.4018 114.661L87.1908 113.234L106.436 86.5123L111.647 87.9396Z" fill="url(#paint5_linear_83_30)"/>
<path d="M107.403 118.77L122.546 96.2424L112.164 93.399L113.508 88.4933L129.467 92.8644L128.441 96.6099L113.123 120.337L107.403 118.77Z" fill="url(#paint6_linear_83_30)"/>
</g>
<defs>
<linearGradient id="paint0_linear_83_30" x1="73.1856" y1="29.1436" x2="114.222" y2="197.013" gradientUnits="userSpaceOnUse">
<stop stop-color="#FE7062"/>
<stop offset="1" stop-color="#FF928E"/>
</linearGradient>
<linearGradient id="paint1_linear_83_30" x1="29.9705" y1="83.4647" x2="150.459" y2="116.467" gradientUnits="userSpaceOnUse">
<stop stop-color="#4042E2"/>
<stop offset="1" stop-color="#4F52FF"/>
</linearGradient>
<linearGradient id="paint2_linear_83_30" x1="199.976" y1="-184.75" x2="159.068" y2="-85.3205" gradientUnits="userSpaceOnUse">
<stop stop-color="#E1473D"/>
<stop offset="1" stop-color="#E9605A"/>
</linearGradient>
<linearGradient id="paint3_linear_83_30" x1="53.6465" y1="87.8199" x2="69.87" y2="92.2635" gradientUnits="userSpaceOnUse">
<stop stop-color="#DAE3FE"/>
<stop offset="1" stop-color="#E9EFFD"/>
</linearGradient>
<linearGradient id="paint4_linear_83_30" x1="72.3964" y1="93.1853" x2="90.3296" y2="98.0972" gradientUnits="userSpaceOnUse">
<stop stop-color="#DAE3FE"/>
<stop offset="1" stop-color="#E9EFFD"/>
</linearGradient>
<linearGradient id="paint5_linear_83_30" x1="91.2663" y1="98.3537" x2="107.571" y2="102.82" gradientUnits="userSpaceOnUse">
<stop stop-color="#DAE3FE"/>
<stop offset="1" stop-color="#E9EFFD"/>
</linearGradient>
<linearGradient id="paint6_linear_83_30" x1="109.438" y1="103.353" x2="125.397" y2="107.724" gradientUnits="userSpaceOnUse">
<stop stop-color="#DAE3FE"/>
<stop offset="1" stop-color="#E9EFFD"/>
</linearGradient>
</defs>
</svg>
