<svg width="578" height="562" viewBox="0 0 578 562" fill="none" xmlns="http://www.w3.org/2000/svg">
<path d="M494.069 478.027C479.542 493.001 466.543 501.803 456.591 508.448C359.532 573.256 248.582 554.577 214.279 548.192C158.935 537.892 112.217 530.625 72.0786 494.361C-19.1289 411.959 -14.6927 240.062 55.001 133.579C63.2645 120.953 132.853 17.8016 244.043 3.2667C246.762 2.9111 248.792 2.70875 250.569 2.52049C267.77 0.699237 374.36 -8.91249 461.273 63.9038C473.715 74.3271 493.736 93.128 512.303 121.802C580.191 226.65 580.406 389.034 494.069 478.027Z" fill="url(#paint0_linear_23_178)"/>
<path d="M0.183333 24.6145C-0.987662 21.1937 3.70799 18.3756 6.96835 20.5223C40.0762 42.3206 121.087 109.4 115.666 241.239C108.865 406.651 154.134 462.261 206.727 493.699C206.727 493.699 137.759 483.313 89.4314 427.122C-29.2241 289.161 21.005 85.4387 0.183333 24.6145Z" fill="#91B3FA"/>
<path d="M153.417 415.174C151.294 420.584 144.336 422.068 140.137 418.049C116.972 395.875 57.1443 327.256 66.1151 216.917C73.6905 123.74 68.9436 72.4964 65.1768 49.3828C64.3803 44.4953 70.2861 41.4316 73.8297 44.8909C112.925 83.0563 230.331 219.128 153.417 415.174Z" fill="#7D97F4"/>
<path d="M145.549 415.012C145.427 415.089 145.296 415.154 145.156 415.208C143.986 415.657 142.674 415.073 142.225 413.903C141.716 412.577 91.3608 279.793 96.0414 149.761C96.0869 148.51 97.1382 147.531 98.391 147.575C99.6435 147.62 100.622 148.672 100.577 149.924C95.9304 279.009 145.955 410.959 146.461 412.276C146.857 413.307 146.451 414.447 145.549 415.012Z" fill="#91B3FA"/>
<path d="M129.057 2.32503C114.407 3.59901 103.175 15.8683 103.133 30.5737C102.878 120.503 102.457 430.692 108.319 540.481C108.94 552.112 118.475 561.249 130.123 561.375C187.73 561.995 353.434 563.135 447.505 557.117C467.099 555.864 482.346 539.636 482.322 520.003C482.208 425.619 480.7 160.18 467.771 38.8507C466.222 24.3137 454.536 12.9666 439.961 11.831C377.132 6.9354 210.288 -4.73935 129.057 2.32503Z" fill="#09005D"/>
<path d="M126.257 54.1412C125.126 131.067 121.905 386.969 127.528 481.418C128.35 495.223 139.073 506.122 152.314 506.583C206.831 508.483 346.63 512.159 426.291 503.394C440.635 501.816 451.598 489.383 451.98 474.328C453.972 395.825 459.355 157.482 453.89 64.0895C453.018 49.1908 441.635 37.3026 427.367 36.3412C368.338 32.3636 216.76 23.1909 149.019 28.8321C136.303 29.8911 126.453 40.8234 126.257 54.1412Z" fill="#91B3FA"/>
<path d="M257.976 15.7002C258.023 17.8253 259.718 19.5418 261.843 19.6063C272.333 19.9251 301.883 20.8296 315.091 21.3055C317.696 21.3992 319.686 19.0166 319.136 16.4693C319.091 16.389 318.753 13.1228 315.417 12.8911C306.482 12.2698 279.527 10.595 261.715 11.6226C258.057 11.8338 257.858 15.9936 257.976 15.7002Z" fill="url(#paint1_linear_23_178)"/>
<path d="M195.711 286.453C195.711 286.453 270.852 267.603 350.245 278.97C372.583 282.169 392.368 295.165 404.422 314.241C426.142 348.612 456.85 409.863 450.354 473.744L416.264 482.174C416.264 482.174 392.704 406.365 366.187 375.512C366.187 375.512 334.783 447.094 336.371 486.403C336.416 487.514 336.487 488.599 336.586 489.656C340.19 528.114 185.837 496.832 185.837 496.832L195.711 286.453Z" fill="url(#paint2_linear_23_178)"/>
<path d="M276.945 222.281L260.947 273.238C259.459 277.978 260.94 283.055 264.656 285.917C273.219 292.512 290.144 303.011 310.822 302.71C314.606 302.655 317.787 299.425 318.051 295.462L323.735 210.293L276.945 222.281Z" fill="url(#paint3_linear_23_178)"/>
<path d="M338.888 166.435C338.888 166.435 345.102 206.564 341.189 225.742C337.275 244.92 338.126 258.254 315.271 256.318C292.417 254.382 276.867 238.658 271.84 217.209C271.84 217.209 263.835 184.092 270.462 173.132C277.089 162.173 338.888 166.435 338.888 166.435Z" fill="url(#paint4_linear_23_178)"/>
<path d="M282.864 205.635L285.627 206.361C285.627 206.361 280.378 180.02 291.458 178.546C302.538 177.072 344.282 179.403 356.524 167.59C368.326 156.202 365.576 136.764 355.867 128.976C355.253 128.483 354.347 128.595 353.814 129.175L352.451 130.659C351.517 131.676 349.821 131.039 349.786 129.659C349.754 128.35 348.184 127.654 347.232 128.553C343.511 132.069 334.629 137.044 314.704 135.558C286.43 133.45 265.736 139.679 260.402 158.2C260.064 159.373 258.631 159.693 257.784 158.813C256.112 157.077 253.076 155.671 247.877 158.132C238.837 162.412 237.624 179.359 250.365 196.909C250.97 197.742 250.647 198.945 249.669 199.269C246.223 200.412 240.64 203.817 250.409 212.879C260.403 222.149 267.462 223.279 270.233 223.297C270.979 223.302 271.616 222.789 271.76 222.057L275.08 205.274C275.251 204.406 276.119 203.862 276.975 204.087L282.864 205.635Z" fill="url(#paint5_linear_23_178)"/>
<path d="M282.636 209.269C282.636 209.269 282.699 184.694 270.691 188.434C258.683 192.174 269.271 215.614 277.336 218.654L282.636 209.269Z" fill="url(#paint6_linear_23_178)"/>
<path d="M196.177 439.699C192.849 416.196 217.189 381.646 227.257 368.536C230.137 364.786 231.747 360.201 231.788 355.473C232.083 322.185 218.106 300.808 195.711 286.453C195.711 286.453 114.432 381.145 135.128 453.98C137.361 461.84 140.822 468.593 145.21 474.396C148.471 446.953 180.192 440.966 196.177 439.699Z" fill="url(#paint7_linear_23_178)"/>
<path d="M197.693 430.608L194.596 430.255C197.221 407.205 217.447 378.751 226.021 367.586L228.493 369.485C220.078 380.443 200.231 408.334 197.693 430.608Z" fill="url(#paint8_linear_23_178)"/>
<path d="M196.815 442.954C196.531 441.899 196.334 440.807 196.177 439.699C180.192 440.966 148.471 446.952 145.21 474.396C181.482 522.368 281.458 505.061 281.458 505.061V486.394C281.458 486.394 204.676 472.129 196.815 442.954Z" fill="url(#paint9_linear_23_178)"/>
<path d="M271.847 499.908C271.847 499.908 286.609 465.075 312.62 477.431C338.631 489.786 336.586 497.871 336.586 497.871L271.847 499.908Z" fill="url(#paint10_linear_23_178)"/>
<path d="M268.531 507.134C268.738 509.77 270.984 511.775 273.626 511.683L408.412 506.981C410.507 506.908 412.327 505.52 412.953 503.519L416.865 491C417.826 487.925 415.632 484.768 412.414 484.597L363.262 481.986C362.816 481.962 362.369 481.999 361.932 482.096L272.386 501.928C269.983 502.46 268.339 504.681 268.531 507.134Z" fill="url(#paint11_linear_23_178)"/>
<path d="M358.88 502.216L362.59 484.934L413.078 487.343L409.756 501.682L358.88 502.216Z" fill="url(#paint12_linear_23_178)"/>
<path d="M332.998 316.201C330.14 339.549 317.286 434.412 313.606 461.517C313.089 465.329 316.116 468.681 319.962 468.571L538.022 462.331C540.875 462.25 543.309 460.24 543.928 457.453L577.849 304.689C578.746 300.651 575.531 296.875 571.401 297.117L338.819 310.74C335.812 310.916 333.364 313.21 332.998 316.201Z" fill="url(#paint13_linear_23_178)"/>
<path d="M420.65 411.999L388.422 503.472L463.36 505.061L469.6 412.549C469.893 408.207 466.292 404.603 461.95 404.891L426.954 407.215C424.085 407.406 421.605 409.287 420.65 411.999Z" fill="url(#paint14_linear_23_178)"/>
<path d="M358.041 504.775C357.215 507.292 359.09 509.881 361.739 509.881H479.096C481.246 509.881 482.988 508.139 482.988 505.989V500.956C482.988 498.741 481.142 496.972 478.929 497.067L361.572 502.101C359.953 502.17 358.546 503.235 358.041 504.775Z" fill="url(#paint15_linear_23_178)"/>
<path d="M329.703 412.706L328.156 412.511L338.871 328.017C339.535 322.775 343.844 318.742 349.116 318.423L550.104 306.286L550.198 307.842L349.211 319.98C344.685 320.252 340.987 323.714 340.418 328.212L329.703 412.706Z" fill="#91B3FA"/>
<path d="M325.12 436.559L322.815 454.854L324.362 455.049L326.667 436.754L325.12 436.559Z" fill="#91B3FA"/>
<path d="M317.485 235.175C293.269 237.004 279.194 211.965 279.054 211.711L280.676 210.818C280.81 211.061 294.327 235.067 317.345 233.329L317.485 235.175Z" fill="url(#paint16_linear_23_178)"/>
<path d="M327.356 234.239C327.356 235.674 326.193 236.838 324.758 236.838H317.828C316.393 236.838 315.23 235.675 315.23 234.239C315.23 232.804 316.393 231.641 317.828 231.641H324.758C326.193 231.641 327.356 232.804 327.356 234.239Z" fill="url(#paint17_linear_23_178)"/>
<path d="M280.723 183.935C280.723 183.935 289.415 139.355 315.021 135.149C315.021 135.149 307.769 131.499 300.209 135.459C292.65 139.419 273.542 161.117 274.321 185.034C279.519 186.906 280.723 183.935 280.723 183.935Z" fill="url(#paint18_linear_23_178)"/>
<path d="M276.275 181.825C262.963 184.527 264.599 201.361 264.599 201.361C263.64 213.578 267.206 219.634 271.775 222.52C274.896 224.492 278.826 224.674 282.122 223.011C285.417 221.348 287.601 218.078 287.872 214.397C288.118 211.072 288.4 207.911 288.646 206.789C289.244 204.069 289.587 179.123 276.275 181.825Z" fill="url(#paint19_linear_23_178)"/>
<path d="M277.498 186.082C274.734 185.602 272.009 187.07 270.897 189.645C262.941 208.076 272.709 220.065 277.505 220.315C282.559 220.579 282.457 196.262 281.384 190.028C280.934 187.416 279.274 186.391 277.498 186.082Z" fill="url(#paint20_linear_23_178)"/>
<path d="M482.09 207.679C528.745 207.679 566.566 169.857 566.566 123.202C566.566 76.5465 528.745 38.725 482.09 38.725C435.434 38.725 397.613 76.5465 397.613 123.202C397.613 169.857 435.434 207.679 482.09 207.679Z" fill="url(#paint21_linear_23_178)"/>
<path d="M482.09 196.065C521.969 196.065 554.297 163.737 554.297 123.858C554.297 83.9784 521.969 51.65 482.09 51.65C442.211 51.65 409.882 83.9784 409.882 123.858C409.882 163.737 442.211 196.065 482.09 196.065Z" fill="url(#paint22_linear_23_178)"/>
<g opacity="0.42">
<path d="M477.456 181.68C512.073 181.68 540.135 153.618 540.135 119.001C540.135 84.3848 512.073 56.3227 477.456 56.3227C442.84 56.3227 414.778 84.3848 414.778 119.001C414.778 153.618 442.84 181.68 477.456 181.68Z" fill="#91B3FA"/>
</g>
<path d="M479.024 28.3471C484.096 30.5101 499.051 37.5753 501.915 38.9307C502.152 39.0432 502.213 39.3529 502.036 39.5468L484.157 59.114C483.407 59.9354 482.307 60.3462 481.201 60.2172L473.524 59.323C473.241 59.29 473.088 58.975 473.236 58.7319L483.258 42.2838C483.385 42.0765 483.293 41.8051 483.067 41.7168L468.542 36.0549C467.377 35.6008 467.306 33.9784 468.428 33.4249L478.698 28.356C478.8 28.3057 478.919 28.3023 479.024 28.3471Z" fill="url(#paint23_linear_23_178)"/>
<path d="M457.054 139.574H437.927V134.621L444.27 125.643C446.01 123.171 447.206 121.337 447.856 120.141C448.507 118.946 448.987 117.799 449.296 116.701C449.605 115.603 449.76 114.469 449.76 113.297C449.76 111.931 449.454 110.907 448.845 110.223C448.235 109.54 447.442 109.199 446.466 109.199C445.603 109.199 444.798 109.427 444.05 109.882C443.302 110.337 442.391 111.159 441.318 112.346L437.609 108.443C439.317 106.507 440.903 105.182 442.367 104.466C443.831 103.75 445.417 103.392 447.124 103.392C450.003 103.392 452.252 104.238 453.87 105.929C455.489 107.621 456.298 109.971 456.298 112.98C456.298 114.346 456.152 115.64 455.859 116.859C455.566 118.079 455.123 119.303 454.529 120.531C453.936 121.76 453.191 123.036 452.297 124.362C451.402 125.688 449.093 128.725 445.368 133.474V133.669H457.055V139.574H457.054Z" fill="url(#paint24_linear_23_178)"/>
<path d="M481.647 132.084H478.036V139.574H471.791V132.084H460.153V126.692L470.937 103.905H478.036V126.594H481.647V132.084ZM471.791 126.594V119.08L471.912 115.762L472.083 112.59H471.888C471.318 114.363 470.7 115.965 470.033 117.396L465.739 126.594H471.791Z" fill="url(#paint25_linear_23_178)"/>
<path d="M502.312 103.904L489.015 139.574H482.77L496.066 103.904H502.312Z" fill="url(#paint26_linear_23_178)"/>
<path d="M506.996 139.574L516.999 109.833H504.557V103.953H523.684V108.443L513.852 139.574H506.996Z" fill="url(#paint27_linear_23_178)"/>
<defs>
<linearGradient id="paint0_linear_23_178" x1="612.222" y1="646.091" x2="218.704" y2="227.184" gradientUnits="userSpaceOnUse">
<stop stop-color="#DAE3FE"/>
<stop offset="1" stop-color="#E9EFFD"/>
</linearGradient>
<linearGradient id="paint1_linear_23_178" x1="305.125" y1="-187.392" x2="288.728" y2="14.8319" gradientUnits="userSpaceOnUse">
<stop stop-color="#53D8FF"/>
<stop offset="1" stop-color="#3840F7"/>
</linearGradient>
<linearGradient id="paint2_linear_23_178" x1="339.186" y1="359.194" x2="162.458" y2="587.902" gradientUnits="userSpaceOnUse">
<stop stop-color="#FE7062"/>
<stop offset="1" stop-color="#FF928E"/>
</linearGradient>
<linearGradient id="paint3_linear_23_178" x1="264.016" y1="350.005" x2="300.749" y2="250.539" gradientUnits="userSpaceOnUse">
<stop stop-color="#FEBBBA"/>
<stop offset="1" stop-color="#FF928E"/>
</linearGradient>
<linearGradient id="paint4_linear_23_178" x1="333.845" y1="198.994" x2="226.213" y2="244.021" gradientUnits="userSpaceOnUse">
<stop stop-color="#FEBBBA"/>
<stop offset="1" stop-color="#FF928E"/>
</linearGradient>
<linearGradient id="paint5_linear_23_178" x1="327.477" y1="86.2129" x2="282.215" y2="221.998" gradientUnits="userSpaceOnUse">
<stop stop-color="#09005D"/>
<stop offset="1" stop-color="#1A0F91"/>
</linearGradient>
<linearGradient id="paint6_linear_23_178" x1="326.547" y1="181.545" x2="218.914" y2="226.572" gradientUnits="userSpaceOnUse">
<stop stop-color="#FEBBBA"/>
<stop offset="1" stop-color="#FF928E"/>
</linearGradient>
<linearGradient id="paint7_linear_23_178" x1="251.299" y1="291.281" x2="74.5719" y2="519.988" gradientUnits="userSpaceOnUse">
<stop stop-color="#FE7062"/>
<stop offset="1" stop-color="#FF928E"/>
</linearGradient>
<linearGradient id="paint8_linear_23_178" x1="498.339" y1="198.669" x2="-48.4764" y2="581.231" gradientUnits="userSpaceOnUse">
<stop stop-color="#FEBBBA"/>
<stop offset="1" stop-color="#FF928E"/>
</linearGradient>
<linearGradient id="paint9_linear_23_178" x1="187.631" y1="412.754" x2="246.877" y2="568.667" gradientUnits="userSpaceOnUse">
<stop stop-color="#FEBBBA"/>
<stop offset="1" stop-color="#FF928E"/>
</linearGradient>
<linearGradient id="paint10_linear_23_178" x1="261.14" y1="384.821" x2="320.386" y2="540.733" gradientUnits="userSpaceOnUse">
<stop stop-color="#FEBBBA"/>
<stop offset="1" stop-color="#FF928E"/>
</linearGradient>
<linearGradient id="paint11_linear_23_178" x1="254.611" y1="476.938" x2="396.714" y2="511.097" gradientUnits="userSpaceOnUse">
<stop stop-color="#4042E2"/>
<stop offset="1" stop-color="#4F52FF"/>
</linearGradient>
<linearGradient id="paint12_linear_23_178" x1="257.733" y1="463.951" x2="399.836" y2="498.11" gradientUnits="userSpaceOnUse">
<stop stop-color="#4042E2"/>
<stop offset="1" stop-color="#4F52FF"/>
</linearGradient>
<linearGradient id="paint13_linear_23_178" x1="496.423" y1="414.609" x2="262.195" y2="267.697" gradientUnits="userSpaceOnUse">
<stop stop-color="#4042E2"/>
<stop offset="1" stop-color="#4F52FF"/>
</linearGradient>
<linearGradient id="paint14_linear_23_178" x1="427.581" y1="516.785" x2="430.352" y2="403.137" gradientUnits="userSpaceOnUse">
<stop stop-color="#4042E2"/>
<stop offset="1" stop-color="#4F52FF"/>
</linearGradient>
<linearGradient id="paint15_linear_23_178" x1="417.43" y1="327.305" x2="418.816" y2="409.077" gradientUnits="userSpaceOnUse">
<stop stop-color="#4042E2"/>
<stop offset="1" stop-color="#4F52FF"/>
</linearGradient>
<linearGradient id="paint16_linear_23_178" x1="278.132" y1="242.802" x2="309.847" y2="212.313" gradientUnits="userSpaceOnUse">
<stop stop-color="#4042E2"/>
<stop offset="1" stop-color="#4F52FF"/>
</linearGradient>
<linearGradient id="paint17_linear_23_178" x1="315.23" y1="234.239" x2="327.356" y2="234.239" gradientUnits="userSpaceOnUse">
<stop stop-color="#4042E2"/>
<stop offset="1" stop-color="#4F52FF"/>
</linearGradient>
<linearGradient id="paint18_linear_23_178" x1="384.067" y1="127.59" x2="119.197" y2="219.398" gradientUnits="userSpaceOnUse">
<stop stop-color="#4042E2"/>
<stop offset="1" stop-color="#4F52FF"/>
</linearGradient>
<linearGradient id="paint19_linear_23_178" x1="322.868" y1="187.258" x2="186.936" y2="234.374" gradientUnits="userSpaceOnUse">
<stop stop-color="#4042E2"/>
<stop offset="1" stop-color="#4F52FF"/>
</linearGradient>
<linearGradient id="paint20_linear_23_178" x1="252.599" y1="119.321" x2="263.687" y2="159.051" gradientUnits="userSpaceOnUse">
<stop stop-color="#4042E2"/>
<stop offset="1" stop-color="#4F52FF"/>
</linearGradient>
<linearGradient id="paint21_linear_23_178" x1="441.475" y1="50.096" x2="538.493" y2="224.728" gradientUnits="userSpaceOnUse">
<stop stop-color="#FE7062"/>
<stop offset="1" stop-color="#FF928E"/>
</linearGradient>
<linearGradient id="paint22_linear_23_178" x1="409.882" y1="123.858" x2="554.297" y2="123.858" gradientUnits="userSpaceOnUse">
<stop stop-color="#4042E2"/>
<stop offset="1" stop-color="#4F52FF"/>
</linearGradient>
<linearGradient id="paint23_linear_23_178" x1="517.52" y1="-227.101" x2="502.274" y2="-103.751" gradientUnits="userSpaceOnUse">
<stop stop-color="#E1473D"/>
<stop offset="1" stop-color="#E9605A"/>
</linearGradient>
<linearGradient id="paint24_linear_23_178" x1="437.609" y1="121.483" x2="457.054" y2="121.483" gradientUnits="userSpaceOnUse">
<stop stop-color="#DAE3FE"/>
<stop offset="1" stop-color="#E9EFFD"/>
</linearGradient>
<linearGradient id="paint25_linear_23_178" x1="460.153" y1="121.739" x2="481.647" y2="121.739" gradientUnits="userSpaceOnUse">
<stop stop-color="#DAE3FE"/>
<stop offset="1" stop-color="#E9EFFD"/>
</linearGradient>
<linearGradient id="paint26_linear_23_178" x1="482.77" y1="121.739" x2="502.312" y2="121.739" gradientUnits="userSpaceOnUse">
<stop stop-color="#DAE3FE"/>
<stop offset="1" stop-color="#E9EFFD"/>
</linearGradient>
<linearGradient id="paint27_linear_23_178" x1="504.557" y1="121.764" x2="523.684" y2="121.764" gradientUnits="userSpaceOnUse">
<stop stop-color="#DAE3FE"/>
<stop offset="1" stop-color="#E9EFFD"/>
</linearGradient>
</defs>
</svg>
