<svg width="327" height="82" viewBox="0 0 327 82" fill="none" xmlns="http://www.w3.org/2000/svg">
<path d="M32.5026 62.512C32.2466 62.544 31.9746 62.56 31.6866 62.56C31.4306 62.56 31.1746 62.56 30.9186 62.56C29.1906 62.56 27.3826 62.384 25.4946 62.032C23.6066 61.712 21.7346 61.28 19.8786 60.736C18.0546 60.192 16.3426 59.6 14.7426 58.96L10.7106 57.328C10.3906 57.488 10.0706 57.632 9.75063 57.76C9.46263 57.888 9.14263 58.016 8.79063 58.144C7.73463 58.496 6.50263 58.672 5.09463 58.672C4.58263 58.672 4.08663 58.624 3.60663 58.528C3.12663 58.464 2.72663 58.352 2.40663 58.192C2.05463 58 1.76663 57.728 1.54263 57.376C1.35063 56.992 1.25463 56.624 1.25463 56.272C1.25463 55.92 1.35063 55.632 1.54263 55.408C1.67063 55.28 1.79863 55.216 1.92663 55.216C2.05463 55.184 2.08663 55.248 2.02263 55.408C1.92663 55.92 2.13463 56.384 2.64663 56.8C3.19063 57.184 3.68663 57.44 4.13463 57.568C4.55063 57.696 5.06263 57.76 5.67063 57.76C6.56663 57.76 7.41463 57.6 8.21463 57.28L9.31863 56.8C8.58263 56.48 7.83063 56.192 7.06263 55.936C6.29463 55.648 5.59063 55.392 4.95063 55.168C4.47063 55.008 3.84663 54.848 3.07863 54.688C2.34263 54.496 1.75063 54.448 1.30263 54.544H1.25463C1.15863 54.544 1.09463 54.496 1.06263 54.4C1.03063 54.304 1.07863 54.208 1.20663 54.112C1.36663 53.984 1.68663 53.92 2.16663 53.92C2.67863 53.92 3.23863 54 3.84663 54.16C4.45463 54.288 4.90263 54.384 5.19063 54.448L10.5666 55.936C11.3346 55.296 12.0866 54.544 12.8226 53.68C13.5586 52.816 14.2466 51.888 14.8866 50.896C16.0386 49.136 17.1586 47.12 18.2466 44.848C19.3666 42.544 20.5186 40.208 21.7026 37.84C22.9186 35.44 24.2466 33.264 25.6866 31.312C26.4226 30.288 27.2866 29.28 28.2786 28.288C29.2706 27.296 30.3586 26.496 31.5426 25.888C32.2466 25.536 32.9666 25.248 33.7026 25.024C34.4386 24.8 35.2066 24.688 36.0066 24.688C37.6706 24.688 38.9346 25.12 39.7986 25.984C40.6626 26.848 41.0946 27.936 41.0946 29.248C41.0946 29.568 41.0626 29.904 40.9986 30.256C40.9666 30.608 40.8866 30.96 40.7586 31.312C40.2786 32.88 39.3986 34.224 38.1186 35.344C36.8386 36.432 35.4306 37.248 33.8946 37.792C33.7026 37.856 33.5906 37.888 33.5586 37.888C33.3986 37.888 33.3186 37.824 33.3186 37.696C33.3186 37.504 33.4466 37.36 33.7026 37.264C35.1426 36.72 36.4386 35.872 37.5906 34.72C38.7746 33.568 39.5106 32.208 39.7986 30.64C39.8306 30.448 39.8466 30.272 39.8466 30.112C39.8786 29.92 39.8946 29.76 39.8946 29.632C39.8946 28.32 39.4306 27.36 38.5026 26.752C37.6066 26.112 36.5666 25.792 35.3826 25.792C34.1666 25.792 33.0466 26.08 32.0226 26.656C30.9026 27.296 29.7986 28.368 28.7106 29.872C27.6546 31.344 26.6146 33.056 25.5906 35.008C24.5986 36.928 23.6226 38.912 22.6626 40.96C21.7346 42.976 20.8226 44.88 19.9266 46.672C19.0626 48.464 18.2146 49.952 17.3826 51.136C16.6786 52.16 15.8946 53.12 15.0306 54.016C14.1666 54.912 13.2386 55.712 12.2466 56.416L15.2706 57.28C17.5106 57.92 19.9426 58.528 22.5666 59.104C25.1906 59.712 27.6866 60.016 30.0546 60.016C31.1426 60.016 32.1826 59.936 33.1746 59.776C34.1666 59.616 35.0626 59.344 35.8626 58.96C37.1746 58.352 38.2306 57.52 39.0306 56.464C39.8306 55.408 40.2306 54.288 40.2306 53.104C40.2306 52.272 40.0066 51.456 39.5586 50.656C39.1426 49.856 38.4706 49.104 37.5426 48.4C37.0306 48.016 36.5026 47.68 35.9586 47.392C35.4146 47.072 34.9186 46.832 34.4706 46.672C34.2466 46.576 34.1346 46.48 34.1346 46.384C34.1346 46.32 34.1826 46.272 34.2786 46.24C34.4066 46.208 34.4866 46.192 34.5186 46.192C35.6066 46.448 36.6946 46.944 37.7826 47.68C39.4466 48.864 40.5666 50.24 41.1426 51.808C41.4626 52.64 41.6226 53.504 41.6226 54.4C41.6226 55.68 41.3026 56.896 40.6626 58.048C40.0226 59.2 39.1426 60.128 38.0226 60.832C36.4226 61.792 34.5826 62.352 32.5026 62.512ZM54.151 58.336C53.127 58.336 52.423 58.016 52.039 57.376C51.655 56.704 51.463 55.968 51.463 55.168C51.463 55.008 51.479 54.736 51.511 54.352C51.575 53.936 51.639 53.552 51.703 53.2C51.255 53.808 50.711 54.48 50.071 55.216C49.463 55.952 48.839 56.576 48.199 57.088C47.175 57.92 46.247 58.336 45.415 58.336C44.615 58.336 43.991 58 43.543 57.328C43.127 56.656 42.919 55.808 42.919 54.784C42.919 53.472 43.207 52.144 43.783 50.8C44.359 49.456 45.111 48.192 46.039 47.008C46.999 45.792 48.055 44.752 49.207 43.888C49.879 43.408 50.695 43.024 51.655 42.736C52.647 42.416 53.639 42.256 54.631 42.256C55.751 42.256 56.727 42.432 57.559 42.784C58.423 43.104 59.015 43.568 59.335 44.176C58.663 45.04 57.975 46.112 57.271 47.392C56.567 48.64 55.959 49.776 55.447 50.8C55.095 51.504 54.711 52.384 54.295 53.44C53.879 54.464 53.671 55.344 53.671 56.08C53.671 56.4 53.751 56.72 53.911 57.04C54.071 57.36 54.375 57.52 54.823 57.52C55.335 57.52 55.831 57.328 56.311 56.944C56.791 56.56 57.191 56.176 57.511 55.792C58.247 54.992 58.919 54.112 59.527 53.152C60.135 52.192 60.743 51.168 61.351 50.08C61.447 49.952 61.543 49.888 61.639 49.888C61.767 49.888 61.831 49.984 61.831 50.176C61.831 50.336 61.799 50.464 61.735 50.56C61.191 51.616 60.583 52.672 59.911 53.728C59.239 54.784 58.439 55.776 57.511 56.704C57.063 57.152 56.535 57.536 55.927 57.856C55.319 58.176 54.727 58.336 54.151 58.336ZM46.471 56.848C47.079 56.848 47.735 56.528 48.439 55.888C49.175 55.216 49.879 54.416 50.551 53.488C51.255 52.528 51.879 51.616 52.423 50.752C52.999 49.856 53.447 49.168 53.767 48.688C54.439 47.632 55.063 46.752 55.639 46.048C56.215 45.344 57.111 44.8 58.327 44.416C58.391 44.416 58.439 44.416 58.471 44.416C58.535 44.384 58.599 44.368 58.663 44.368C58.375 43.92 57.895 43.584 57.223 43.36C56.551 43.136 55.895 43.024 55.255 43.024C54.263 43.024 53.303 43.296 52.375 43.84C51.447 44.384 50.599 45.072 49.831 45.904C49.095 46.768 48.375 47.712 47.671 48.736C46.967 49.76 46.391 50.8 45.943 51.856C45.527 52.912 45.319 53.92 45.319 54.88C45.319 55.392 45.399 55.856 45.559 56.272C45.751 56.656 46.055 56.848 46.471 56.848ZM72.1713 58.336C71.2753 58.336 70.4913 58 69.8193 57.328C69.1793 56.656 68.8593 55.68 68.8593 54.4C68.8593 53.92 68.9073 53.424 69.0033 52.912C68.6833 53.52 68.2513 54.176 67.7073 54.88C67.1633 55.552 66.6193 56.16 66.0753 56.704C65.5633 57.216 64.9553 57.632 64.2513 57.952C63.5793 58.24 62.9073 58.352 62.2353 58.288C61.3393 58.192 60.6993 57.872 60.3153 57.328C59.9633 56.784 59.7873 56.112 59.7873 55.312C59.7873 54.256 59.9953 53.104 60.4113 51.856C60.8593 50.608 61.3713 49.424 61.9473 48.304C62.5233 47.152 62.9873 46.256 63.3393 45.616C64.0433 44.432 64.7473 43.696 65.4513 43.408C66.1873 43.12 67.0833 42.976 68.1393 42.976C67.8193 43.072 67.4033 43.456 66.8913 44.128C66.3793 44.768 65.8353 45.568 65.2593 46.528C64.7153 47.488 64.1873 48.528 63.6753 49.648C63.1953 50.736 62.7953 51.808 62.4753 52.864C62.1873 53.888 62.0433 54.768 62.0433 55.504C62.0433 56.048 62.1393 56.496 62.3313 56.848C62.5553 57.2 62.8913 57.376 63.3393 57.376C63.7233 57.376 64.1713 57.232 64.6833 56.944C65.1953 56.624 65.6593 56.24 66.0753 55.792C67.4833 54.224 68.6193 52.512 69.4833 50.656C70.3793 48.768 71.3713 46.896 72.4593 45.04C73.1633 43.856 73.8673 43.12 74.5713 42.832C75.3073 42.544 76.2033 42.4 77.2593 42.4C76.9713 42.496 76.5553 42.88 76.0113 43.552C75.4993 44.192 74.9393 45.008 74.3313 46C73.7553 46.992 73.1953 48.048 72.6513 49.168C72.1393 50.288 71.7073 51.36 71.3553 52.384C71.0353 53.408 70.8753 54.272 70.8753 54.976C70.8753 55.936 71.1313 56.576 71.6432 56.896C72.1553 57.184 72.6193 57.328 73.0353 57.328C73.8673 57.328 74.6513 57.056 75.3873 56.512C76.1553 55.968 76.8433 55.28 77.4513 54.448C78.0913 53.616 78.6353 52.768 79.0833 51.904C79.5633 51.008 79.9313 50.24 80.1873 49.6C80.0593 49.088 79.9953 48.176 79.9953 46.864C79.9953 46.064 80.0433 45.248 80.1393 44.416C80.2353 43.584 80.3953 42.864 80.6193 42.256C80.9393 41.456 81.4353 41.056 82.1073 41.056C82.3633 41.056 82.5873 41.184 82.7793 41.44C83.0033 41.696 83.1153 42.128 83.1153 42.736C83.1153 43.632 82.9713 44.56 82.6833 45.52C82.4273 46.448 82.2193 47.088 82.0593 47.44C81.9313 47.76 81.7713 48.16 81.5793 48.64C81.3873 49.088 81.1633 49.584 80.9073 50.128C80.8753 51.12 81.0353 51.936 81.3873 52.576C81.7713 53.184 82.2353 53.488 82.7793 53.488C83.3873 53.488 83.9153 53.312 84.3633 52.96C84.8433 52.576 85.2433 52.128 85.5633 51.616C85.9153 51.072 86.2033 50.576 86.4273 50.128C86.5233 49.936 86.6513 49.84 86.8113 49.84C86.9393 49.84 87.0033 49.92 87.0033 50.08C87.0033 50.176 86.9553 50.32 86.8593 50.512C86.4753 51.376 85.9313 52.192 85.2273 52.96C84.5233 53.728 83.6593 54.112 82.6353 54.112C82.1233 54.112 81.6113 53.904 81.0993 53.488C80.6193 53.072 80.3313 52.416 80.2353 51.52C79.6913 52.48 79.0353 53.488 78.2673 54.544C77.5313 55.6 76.6673 56.496 75.6753 57.232C74.6833 57.968 73.5153 58.336 72.1713 58.336ZM87.5523 58.288C86.6563 58.288 86.0003 58 85.5843 57.424C85.1683 56.816 84.9603 56.08 84.9603 55.216C84.9603 54.96 84.9763 54.704 85.0083 54.448C85.0723 54.16 85.1363 53.872 85.2003 53.584C85.5523 52.304 86.0963 50.88 86.8323 49.312C87.6003 47.712 88.3363 46.288 89.0403 45.04C89.4563 44.336 89.8403 43.84 90.1923 43.552C90.5443 43.232 90.9283 43.008 91.3443 42.88C91.7603 42.72 92.2563 42.544 92.8323 42.352C92.9923 42.288 93.1523 42.24 93.3123 42.208C93.4723 42.176 93.6483 42.144 93.8403 42.112C93.2003 42.752 92.5443 43.52 91.8723 44.416C91.2323 45.312 90.5283 46.544 89.7603 48.112C89.3443 48.944 88.9283 49.872 88.5123 50.896C88.1283 51.92 87.7923 52.88 87.5043 53.776C87.2163 54.672 87.0563 55.376 87.0243 55.888C86.9923 56.496 87.0723 56.928 87.2643 57.184C87.4563 57.44 87.7123 57.568 88.0323 57.568C88.5763 57.568 89.0883 57.376 89.5683 56.992C90.0803 56.608 90.5283 56.208 90.9123 55.792C91.6163 54.992 92.2723 54.112 92.8803 53.152C93.5203 52.192 94.1443 51.168 94.7523 50.08C94.8483 49.952 94.9283 49.888 94.9922 49.888C95.1203 49.888 95.1843 49.984 95.1843 50.176C95.1843 50.336 95.1523 50.464 95.0883 50.56C94.5123 51.616 93.9043 52.672 93.2643 53.728C92.6243 54.784 91.8403 55.776 90.9123 56.704C90.4963 57.12 90.0003 57.488 89.4243 57.808C88.8803 58.128 88.2563 58.288 87.5523 58.288ZM93.4083 39.424C93.0563 39.424 92.7523 39.296 92.4963 39.04C92.2723 38.784 92.1603 38.48 92.1603 38.128C92.1603 37.68 92.3363 37.28 92.6883 36.928C93.0723 36.576 93.4883 36.368 93.9363 36.304C94.2883 36.304 94.5763 36.432 94.8003 36.688C95.0563 36.912 95.1843 37.216 95.1843 37.6C95.1843 38.016 95.0083 38.432 94.6562 38.848C94.3043 39.232 93.8883 39.424 93.4083 39.424ZM96.3783 58.336C95.5783 58.336 94.8583 58.112 94.2183 57.664C93.6103 57.184 93.3063 56.416 93.3063 55.36C93.3063 54.24 93.5783 53.008 94.1223 51.664C94.6663 50.32 95.1783 49.12 95.6583 48.064C95.9143 47.552 96.2503 46.864 96.6663 46C97.1143 45.104 97.5943 44.224 98.1063 43.36H95.8503C95.7543 43.36 95.7063 43.28 95.7063 43.12C95.7063 42.992 95.7543 42.864 95.8503 42.736C95.9463 42.576 96.0583 42.496 96.1863 42.496C97.0823 42.496 97.7543 42.416 98.2023 42.256C98.6503 42.096 99.0343 41.872 99.3543 41.584C99.8663 41.136 100.362 40.56 100.842 39.856C101.354 39.152 101.85 38.544 102.33 38.032C102.682 37.584 103.114 37.248 103.626 37.024C104.17 36.8 104.522 36.72 104.682 36.784C104.522 37.008 104.266 37.392 103.914 37.936C103.562 38.48 103.194 39.072 102.81 39.712C102.426 40.352 102.074 40.944 101.754 41.488C101.434 42.032 101.226 42.4 101.13 42.592H104.298C104.394 42.592 104.442 42.624 104.442 42.688C104.442 42.816 104.362 42.96 104.202 43.12C104.074 43.28 103.946 43.36 103.818 43.36H100.698C100.122 44.352 99.4343 45.648 98.6343 47.248C97.8663 48.816 97.1783 50.336 96.5703 51.808C96.4423 52.096 96.2183 52.672 95.8983 53.536C95.6103 54.4 95.4663 55.2 95.4663 55.936C95.4663 56.416 95.5623 56.816 95.7543 57.136C95.9783 57.456 96.3463 57.616 96.8583 57.616C97.4023 57.616 97.9943 57.424 98.6343 57.04C99.2743 56.624 99.7703 56.208 100.122 55.792C100.858 54.992 101.53 54.112 102.138 53.152C102.746 52.192 103.354 51.168 103.962 50.08C104.058 49.952 104.154 49.888 104.25 49.888C104.378 49.888 104.442 49.984 104.442 50.176C104.442 50.336 104.41 50.464 104.346 50.56C103.77 51.616 103.146 52.672 102.474 53.728C101.834 54.784 101.05 55.776 100.122 56.704C99.7063 57.12 99.1463 57.504 98.4423 57.856C97.7383 58.176 97.0503 58.336 96.3783 58.336ZM105.181 71.536C104.669 71.664 104.157 71.728 103.645 71.728C102.717 71.728 102.013 71.504 101.533 71.056C101.053 70.608 100.813 70.048 100.813 69.376C100.813 68.8 101.005 68.176 101.389 67.504C101.773 66.864 102.349 66.288 103.117 65.776C104.109 65.104 105.005 64.56 105.805 64.144C106.637 63.728 107.533 63.312 108.493 62.896C109.453 62.512 110.653 61.984 112.093 61.312C112.253 60.96 112.429 60.544 112.621 60.064C112.813 59.584 113.133 58.784 113.581 57.664C114.029 56.544 114.685 54.88 115.549 52.672C114.845 53.536 114.141 54.336 113.437 55.072C112.733 55.808 112.157 56.384 111.709 56.8C111.069 57.28 110.445 57.664 109.837 57.952C109.261 58.208 108.685 58.336 108.109 58.336C107.341 58.336 106.797 58.112 106.477 57.664C106.189 57.216 106.045 56.688 106.045 56.08C106.045 55.568 106.109 55.04 106.237 54.496C106.397 53.952 106.573 53.44 106.765 52.96C107.213 51.84 107.693 50.784 108.205 49.792C108.749 48.768 109.277 47.712 109.789 46.624C109.917 46.368 110.093 45.952 110.317 45.376C110.573 44.8 110.701 44.272 110.701 43.792C110.701 43.248 110.461 42.976 109.981 42.976C109.533 42.976 109.069 43.2 108.589 43.648C108.141 44.064 107.741 44.544 107.389 45.088C107.037 45.632 106.765 46.064 106.573 46.384C106.573 46.384 106.413 46.688 106.093 47.296C105.805 47.904 105.421 48.656 104.941 49.552C104.493 50.416 104.029 51.232 103.549 52C103.453 52.16 103.325 52.24 103.165 52.24C103.037 52.24 102.973 52.176 102.973 52.048C102.973 51.984 103.053 51.792 103.213 51.472C103.917 50.224 104.461 49.184 104.845 48.352C105.261 47.52 105.725 46.656 106.237 45.76C106.749 44.832 107.341 43.952 108.013 43.12C108.461 42.64 108.941 42.288 109.453 42.064C109.997 41.808 110.525 41.68 111.037 41.68C111.933 41.68 112.541 41.888 112.861 42.304C113.213 42.688 113.389 43.168 113.389 43.744C113.389 44.352 113.261 44.976 113.005 45.616C112.749 46.256 112.493 46.816 112.237 47.296C111.437 48.704 110.781 49.936 110.269 50.992C109.757 52.016 109.309 53.008 108.925 53.968C108.637 54.672 108.493 55.248 108.493 55.696C108.493 56.528 108.845 56.944 109.549 56.944C110.125 56.944 110.717 56.688 111.325 56.176C113.021 54.8 114.397 53.184 115.453 51.328C116.509 49.472 117.517 47.536 118.477 45.52C118.797 44.88 119.197 44.192 119.677 43.456C120.157 42.688 120.749 42.048 121.453 41.536C122.157 40.992 122.973 40.752 123.901 40.816C123.453 41.232 122.909 42 122.269 43.12C121.661 44.24 121.005 45.552 120.301 47.056C119.629 48.56 118.957 50.128 118.285 51.76C117.613 53.392 116.973 54.96 116.365 56.464C115.789 57.936 115.293 59.184 114.877 60.208C115.741 59.856 116.749 59.312 117.901 58.576C119.085 57.872 120.189 56.944 121.213 55.792C121.949 55.024 122.605 54.16 123.181 53.2C123.789 52.208 124.397 51.168 125.005 50.08C125.101 49.952 125.197 49.888 125.293 49.888C125.421 49.888 125.485 49.984 125.485 50.176C125.485 50.336 125.453 50.464 125.389 50.56C124.813 51.616 124.205 52.672 123.565 53.728C122.925 54.784 122.141 55.776 121.213 56.704C120.061 57.792 118.893 58.72 117.709 59.488C116.557 60.288 115.469 60.864 114.445 61.216C113.677 62.944 112.861 64.528 111.997 65.968C111.165 67.408 110.205 68.608 109.117 69.568C108.029 70.528 106.717 71.184 105.181 71.536ZM104.893 70.576C106.045 70.224 107.037 69.6 107.869 68.704C108.701 67.84 109.421 66.832 110.029 65.68C110.669 64.528 111.213 63.376 111.661 62.224C110.637 62.768 109.357 63.328 107.821 63.904C106.285 64.512 104.829 65.328 103.453 66.352C102.845 66.832 102.381 67.328 102.061 67.84C101.741 68.352 101.581 68.832 101.581 69.28C101.581 69.728 101.741 70.096 102.061 70.384C102.381 70.672 102.845 70.816 103.453 70.816C103.645 70.816 103.853 70.8 104.077 70.768C104.333 70.736 104.605 70.672 104.893 70.576ZM137.168 58.528C135.504 58.528 134.32 58.032 133.616 57.04C132.912 56.016 132.56 54.816 132.56 53.44C132.56 51.936 132.88 50.416 133.52 48.88C134 47.728 134.624 46.656 135.392 45.664C136.16 44.64 137.072 43.808 138.128 43.168C139.216 42.528 140.4 42.208 141.68 42.208C142.64 42.208 143.376 42.432 143.888 42.88C144.432 43.328 144.704 43.952 144.704 44.752C144.704 45.008 144.672 45.28 144.608 45.568C144.576 45.856 144.48 46.176 144.32 46.528C144.096 47.104 143.808 47.616 143.456 48.064C143.104 48.512 142.704 48.864 142.256 49.12C142.032 49.248 141.776 49.312 141.488 49.312C141.264 49.312 141.056 49.248 140.864 49.12C140.672 48.992 140.576 48.784 140.576 48.496C140.576 47.984 140.848 47.44 141.392 46.864C141.968 46.256 142.704 45.936 143.6 45.904C143.76 45.488 143.84 45.12 143.84 44.8C143.84 44.288 143.68 43.856 143.36 43.504C143.04 43.12 142.544 42.928 141.872 42.928C141.04 42.928 140.224 43.248 139.424 43.888C138.624 44.496 137.904 45.312 137.264 46.336C136.656 47.328 136.16 48.384 135.776 49.504C135.584 50.016 135.408 50.672 135.248 51.472C135.088 52.24 135.008 53.008 135.008 53.776C135.008 54.768 135.216 55.664 135.632 56.464C136.08 57.232 136.912 57.616 138.128 57.616C138.992 57.616 139.808 57.376 140.576 56.896C141.344 56.384 142.032 55.76 142.64 55.024C143.28 54.288 143.84 53.536 144.32 52.768C144.832 51.968 145.248 51.264 145.568 50.656C145.6 50.528 145.68 50.464 145.808 50.464C145.968 50.464 146.048 50.592 146.048 50.848C146.048 50.976 146 51.12 145.904 51.28C145.232 52.464 144.512 53.616 143.744 54.736C142.976 55.824 142.064 56.736 141.008 57.472C139.952 58.176 138.672 58.528 137.168 58.528ZM155.823 58.336C154.799 58.336 154.095 58.016 153.711 57.376C153.327 56.704 153.135 55.968 153.135 55.168C153.135 55.008 153.151 54.736 153.183 54.352C153.247 53.936 153.311 53.552 153.375 53.2C152.927 53.808 152.383 54.48 151.743 55.216C151.135 55.952 150.511 56.576 149.871 57.088C148.847 57.92 147.919 58.336 147.087 58.336C146.287 58.336 145.663 58 145.215 57.328C144.799 56.656 144.591 55.808 144.591 54.784C144.591 53.472 144.879 52.144 145.455 50.8C146.031 49.456 146.783 48.192 147.711 47.008C148.671 45.792 149.727 44.752 150.879 43.888C151.551 43.408 152.367 43.024 153.327 42.736C154.319 42.416 155.311 42.256 156.303 42.256C157.423 42.256 158.399 42.432 159.231 42.784C160.095 43.104 160.687 43.568 161.007 44.176C160.335 45.04 159.647 46.112 158.943 47.392C158.239 48.64 157.631 49.776 157.119 50.8C156.767 51.504 156.383 52.384 155.967 53.44C155.551 54.464 155.343 55.344 155.343 56.08C155.343 56.4 155.423 56.72 155.583 57.04C155.743 57.36 156.047 57.52 156.495 57.52C157.007 57.52 157.503 57.328 157.983 56.944C158.463 56.56 158.863 56.176 159.183 55.792C159.919 54.992 160.591 54.112 161.199 53.152C161.807 52.192 162.415 51.168 163.023 50.08C163.119 49.952 163.215 49.888 163.311 49.888C163.439 49.888 163.503 49.984 163.503 50.176C163.503 50.336 163.471 50.464 163.407 50.56C162.863 51.616 162.255 52.672 161.583 53.728C160.911 54.784 160.111 55.776 159.183 56.704C158.735 57.152 158.207 57.536 157.599 57.856C156.991 58.176 156.399 58.336 155.823 58.336ZM148.143 56.848C148.751 56.848 149.407 56.528 150.111 55.888C150.847 55.216 151.551 54.416 152.223 53.488C152.927 52.528 153.551 51.616 154.095 50.752C154.671 49.856 155.119 49.168 155.439 48.688C156.111 47.632 156.735 46.752 157.311 46.048C157.887 45.344 158.783 44.8 159.999 44.416C160.063 44.416 160.111 44.416 160.143 44.416C160.207 44.384 160.271 44.368 160.335 44.368C160.047 43.92 159.567 43.584 158.895 43.36C158.223 43.136 157.567 43.024 156.927 43.024C155.935 43.024 154.975 43.296 154.047 43.84C153.119 44.384 152.271 45.072 151.503 45.904C150.767 46.768 150.047 47.712 149.343 48.736C148.639 49.76 148.063 50.8 147.615 51.856C147.199 52.912 146.991 53.92 146.991 54.88C146.991 55.392 147.071 55.856 147.231 56.272C147.423 56.656 147.727 56.848 148.143 56.848ZM164.963 58.288C163.907 58.288 163.171 57.952 162.755 57.28C162.339 56.608 162.131 55.776 162.131 54.784C162.131 53.728 162.291 52.576 162.611 51.328C162.963 50.08 163.379 48.864 163.859 47.68C164.339 46.464 164.787 45.408 165.203 44.512C165.619 43.616 165.907 42.992 166.067 42.64C166.643 41.424 167.363 40.048 168.227 38.512C169.091 36.976 170.051 35.408 171.107 33.808C172.163 32.208 173.299 30.688 174.515 29.248C175.731 27.808 176.979 26.56 178.259 25.504C179.539 24.448 180.819 23.728 182.099 23.344C182.451 23.248 182.771 23.2 183.059 23.2C183.603 23.2 184.051 23.36 184.403 23.68C184.787 23.968 184.979 24.48 184.979 25.216C184.979 25.728 184.851 26.368 184.595 27.136C184.179 28.256 183.475 29.504 182.483 30.88C181.491 32.224 180.323 33.632 178.979 35.104C177.635 36.544 176.211 37.968 174.707 39.376C173.235 40.784 171.795 42.096 170.387 43.312C168.979 44.528 167.731 45.568 166.643 46.432C166.355 47.04 166.083 47.632 165.827 48.208C165.603 48.784 165.395 49.344 165.203 49.888C165.107 50.176 164.963 50.608 164.771 51.184C164.579 51.76 164.403 52.4 164.243 53.104C164.083 53.808 164.003 54.48 164.003 55.12C164.003 55.76 164.131 56.32 164.387 56.8C164.643 57.248 165.107 57.472 165.779 57.472C166.323 57.472 166.979 57.184 167.747 56.608C168.547 56 169.363 55.216 170.195 54.256C171.059 53.296 171.891 52.288 172.691 51.232C173.523 50.144 174.275 49.104 174.947 48.112C175.619 47.12 176.131 46.304 176.483 45.664C176.771 44.96 177.043 44.336 177.299 43.792C177.555 43.248 177.747 42.864 177.875 42.64C178.451 41.424 179.171 40.048 180.035 38.512C180.899 36.976 181.859 35.408 182.915 33.808C183.971 32.208 185.107 30.688 186.323 29.248C187.539 27.808 188.787 26.56 190.067 25.504C191.347 24.448 192.627 23.728 193.907 23.344C194.259 23.248 194.579 23.2 194.867 23.2C195.411 23.2 195.859 23.36 196.211 23.68C196.595 23.968 196.787 24.48 196.787 25.216C196.787 25.728 196.659 26.368 196.403 27.136C195.987 28.256 195.283 29.504 194.291 30.88C193.299 32.224 192.131 33.632 190.787 35.104C189.443 36.544 188.019 37.968 186.515 39.376C185.043 40.784 183.603 42.096 182.195 43.312C180.787 44.528 179.539 45.568 178.451 46.432C178.163 47.04 177.891 47.632 177.635 48.208C177.411 48.784 177.203 49.344 177.011 49.888C176.915 50.176 176.771 50.608 176.579 51.184C176.387 51.76 176.211 52.4 176.051 53.104C175.891 53.808 175.811 54.48 175.811 55.12C175.811 55.76 175.939 56.32 176.195 56.8C176.451 57.248 176.915 57.472 177.587 57.472C178.131 57.472 178.643 57.296 179.123 56.944C179.603 56.592 180.019 56.208 180.371 55.792C181.107 54.992 181.747 54.176 182.291 53.344C182.867 52.48 183.427 51.52 183.971 50.464C184.099 50.24 184.195 50.128 184.259 50.128C184.323 50.128 184.355 50.224 184.355 50.416C184.355 50.704 184.291 51.008 184.163 51.328C183.555 52.448 182.995 53.392 182.483 54.16C182.003 54.928 181.299 55.776 180.371 56.704C179.955 57.12 179.475 57.488 178.931 57.808C178.387 58.128 177.763 58.288 177.059 58.288C175.907 58.288 175.091 57.952 174.611 57.28C174.163 56.608 173.939 55.76 173.939 54.736C173.939 53.872 174.067 52.928 174.323 51.904C174.579 50.848 174.883 49.824 175.235 48.832C174.563 49.824 173.811 50.88 172.979 52C172.147 53.088 171.267 54.112 170.339 55.072C169.411 56.032 168.483 56.816 167.555 57.424C166.659 58 165.795 58.288 164.963 58.288ZM167.171 45.328C168.163 44.464 169.315 43.44 170.627 42.256C171.939 41.04 173.283 39.744 174.659 38.368C176.035 36.992 177.331 35.616 178.547 34.24C179.795 32.864 180.867 31.568 181.763 30.352C182.691 29.136 183.315 28.08 183.635 27.184C183.923 26.352 184.067 25.712 184.067 25.264C184.067 24.432 183.699 24.016 182.963 24.016C182.547 24.016 182.051 24.176 181.475 24.496C180.899 24.784 180.371 25.168 179.891 25.648C179.123 26.416 178.195 27.52 177.107 28.96C176.019 30.368 174.883 31.984 173.699 33.808C172.515 35.632 171.347 37.536 170.195 39.52C169.075 41.504 168.067 43.44 167.171 45.328ZM178.979 45.328C180.003 44.464 181.155 43.44 182.435 42.256C183.747 41.04 185.091 39.744 186.467 38.368C187.843 36.992 189.139 35.616 190.355 34.24C191.603 32.864 192.675 31.568 193.571 30.352C194.499 29.136 195.123 28.08 195.443 27.184C195.731 26.352 195.875 25.712 195.875 25.264C195.875 24.432 195.507 24.016 194.771 24.016C194.355 24.016 193.859 24.176 193.283 24.496C192.707 24.784 192.179 25.168 191.699 25.648C190.931 26.416 190.003 27.52 188.915 28.96C187.827 30.368 186.691 31.984 185.507 33.808C184.323 35.632 183.155 37.536 182.003 39.52C180.883 41.504 179.875 43.44 178.979 45.328ZM186.583 49.552V48.64H195.223V49.552H186.583ZM203.449 58.528C201.785 58.528 200.601 58.032 199.897 57.04C199.193 56.016 198.841 54.816 198.841 53.44C198.841 51.936 199.161 50.416 199.801 48.88C200.281 47.728 200.905 46.656 201.673 45.664C202.441 44.64 203.353 43.808 204.409 43.168C205.497 42.528 206.681 42.208 207.961 42.208C208.921 42.208 209.657 42.432 210.169 42.88C210.713 43.328 210.985 43.952 210.985 44.752C210.985 45.008 210.953 45.28 210.889 45.568C210.857 45.856 210.761 46.176 210.601 46.528C210.377 47.104 210.089 47.616 209.737 48.064C209.385 48.512 208.985 48.864 208.537 49.12C208.313 49.248 208.057 49.312 207.769 49.312C207.545 49.312 207.337 49.248 207.145 49.12C206.953 48.992 206.857 48.784 206.857 48.496C206.857 47.984 207.129 47.44 207.673 46.864C208.249 46.256 208.985 45.936 209.881 45.904C210.041 45.488 210.121 45.12 210.121 44.8C210.121 44.288 209.961 43.856 209.641 43.504C209.321 43.12 208.825 42.928 208.153 42.928C207.321 42.928 206.505 43.248 205.705 43.888C204.905 44.496 204.185 45.312 203.545 46.336C202.937 47.328 202.441 48.384 202.057 49.504C201.865 50.016 201.689 50.672 201.529 51.472C201.369 52.24 201.289 53.008 201.289 53.776C201.289 54.768 201.497 55.664 201.913 56.464C202.361 57.232 203.193 57.616 204.409 57.616C205.273 57.616 206.089 57.376 206.857 56.896C207.625 56.384 208.313 55.76 208.921 55.024C209.561 54.288 210.121 53.536 210.601 52.768C211.113 51.968 211.529 51.264 211.849 50.656C211.881 50.528 211.961 50.464 212.089 50.464C212.249 50.464 212.329 50.592 212.329 50.848C212.329 50.976 212.281 51.12 212.185 51.28C211.513 52.464 210.793 53.616 210.025 54.736C209.257 55.824 208.345 56.736 207.289 57.472C206.233 58.176 204.953 58.528 203.449 58.528ZM216.488 58.384C214.632 58.384 213.32 57.904 212.552 56.944C212.168 56.528 211.896 56.032 211.736 55.456C211.576 54.88 211.496 54.288 211.496 53.68C211.496 52.912 211.592 52.144 211.784 51.376C211.976 50.576 212.216 49.84 212.504 49.168C212.952 48.112 213.544 47.056 214.28 46C215.016 44.912 215.896 44 216.92 43.264C217.976 42.528 219.128 42.16 220.376 42.16C221.208 42.16 221.864 42.368 222.344 42.784C222.824 43.2 223.064 43.84 223.064 44.704C223.064 45.696 222.76 46.704 222.152 47.728C221.544 48.72 220.776 49.552 219.848 50.224C218.92 50.896 217.96 51.232 216.968 51.232C216.072 51.232 215.288 50.912 214.616 50.272C214.424 50.784 214.264 51.36 214.136 52C214.008 52.608 213.944 53.232 213.944 53.872C213.944 54.864 214.136 55.728 214.52 56.464C214.936 57.2 215.672 57.568 216.728 57.568C217.496 57.568 218.232 57.376 218.936 56.992C219.672 56.576 220.328 56.08 220.904 55.504C221.544 54.832 222.152 54.112 222.728 53.344C223.304 52.576 223.864 51.68 224.408 50.656C224.472 50.56 224.52 50.512 224.552 50.512C224.68 50.512 224.744 50.656 224.744 50.944C224.744 51.136 224.68 51.344 224.552 51.568C224.072 52.432 223.512 53.312 222.872 54.208C222.232 55.072 221.576 55.824 220.904 56.464C220.296 57.04 219.64 57.504 218.936 57.856C218.232 58.208 217.416 58.384 216.488 58.384ZM214.856 49.552C215.08 49.872 215.336 50.112 215.624 50.272C215.944 50.4 216.264 50.464 216.584 50.464C217.352 50.464 218.152 50.176 218.984 49.6C219.816 48.992 220.488 48.288 221 47.488C221.224 47.136 221.416 46.672 221.576 46.096C221.768 45.52 221.864 44.976 221.864 44.464C221.864 44.016 221.768 43.632 221.576 43.312C221.416 42.96 221.08 42.784 220.568 42.784C219.992 42.784 219.304 43.136 218.504 43.84C217.736 44.544 217 45.456 216.296 46.576C216.072 46.96 215.816 47.408 215.528 47.92C215.272 48.432 215.048 48.976 214.856 49.552ZM233.275 58.288C232.347 58.288 231.611 58 231.067 57.424C230.555 56.848 230.299 56.128 230.299 55.264C230.299 54.848 230.379 54.368 230.539 53.824C230.987 52.416 231.691 51.024 232.651 49.648C233.643 48.24 234.459 46.848 235.099 45.472C235.323 45.024 235.435 44.624 235.435 44.272C235.435 43.92 235.323 43.664 235.099 43.504C234.907 43.312 234.667 43.216 234.379 43.216C233.963 43.216 233.435 43.392 232.795 43.744C232.187 44.064 231.483 44.688 230.683 45.616C230.203 46.192 229.659 46.896 229.051 47.728C228.443 48.56 227.947 49.312 227.563 49.984C226.923 51.072 226.347 52.176 225.835 53.296C225.323 54.384 224.875 55.392 224.491 56.32C224.171 57.056 223.787 57.536 223.339 57.76C222.891 57.952 222.459 58.032 222.043 58C221.627 57.968 221.307 57.968 221.083 58C221.979 56.24 222.859 54.384 223.723 52.432C224.587 50.48 225.323 48.528 225.931 46.576C226.219 45.68 226.459 44.816 226.651 43.984C226.843 43.12 226.923 42.56 226.891 42.304V42.208C226.891 41.952 227.019 41.888 227.275 42.016C227.691 42.24 227.979 42.576 228.139 43.024C228.299 43.44 228.379 43.92 228.379 44.464C228.379 45.072 228.299 45.728 228.139 46.432C227.979 47.104 227.787 47.712 227.563 48.256C227.979 47.68 228.427 47.104 228.907 46.528C229.387 45.92 229.915 45.344 230.491 44.8C231.163 44.128 231.883 43.552 232.651 43.072C233.419 42.56 234.251 42.304 235.147 42.304C236.011 42.304 236.635 42.496 237.019 42.88C237.435 43.264 237.643 43.776 237.643 44.416C237.643 45.088 237.451 45.856 237.067 46.72C236.651 47.712 236.139 48.704 235.531 49.696C234.955 50.688 234.427 51.648 233.947 52.576C233.851 52.768 233.691 53.072 233.467 53.488C233.275 53.872 233.099 54.304 232.939 54.784C232.875 55.008 232.811 55.248 232.747 55.504C232.683 55.728 232.651 55.968 232.651 56.224C232.651 56.544 232.715 56.848 232.843 57.136C233.003 57.392 233.291 57.52 233.707 57.52C234.251 57.52 234.763 57.344 235.243 56.992C235.755 56.608 236.187 56.208 236.539 55.792C237.275 54.992 237.947 54.112 238.555 53.152C239.195 52.16 239.819 51.12 240.427 50.032C240.523 49.904 240.587 49.84 240.619 49.84C240.747 49.84 240.811 49.984 240.811 50.272C240.811 50.464 240.779 50.608 240.715 50.704C240.139 51.76 239.531 52.8 238.891 53.824C238.251 54.816 237.467 55.776 236.539 56.704C236.123 57.12 235.643 57.488 235.099 57.808C234.555 58.128 233.947 58.288 233.275 58.288ZM242.019 58.336C241.219 58.336 240.499 58.112 239.859 57.664C239.251 57.184 238.947 56.416 238.947 55.36C238.947 54.24 239.219 53.008 239.763 51.664C240.307 50.32 240.819 49.12 241.299 48.064C241.555 47.552 241.891 46.864 242.307 46C242.755 45.104 243.235 44.224 243.747 43.36H241.491C241.395 43.36 241.347 43.28 241.347 43.12C241.347 42.992 241.395 42.864 241.491 42.736C241.587 42.576 241.699 42.496 241.827 42.496C242.723 42.496 243.395 42.416 243.843 42.256C244.291 42.096 244.675 41.872 244.995 41.584C245.507 41.136 246.003 40.56 246.483 39.856C246.995 39.152 247.491 38.544 247.971 38.032C248.323 37.584 248.755 37.248 249.267 37.024C249.811 36.8 250.163 36.72 250.323 36.784C250.163 37.008 249.907 37.392 249.555 37.936C249.203 38.48 248.835 39.072 248.451 39.712C248.067 40.352 247.715 40.944 247.395 41.488C247.075 42.032 246.867 42.4 246.771 42.592H249.939C250.035 42.592 250.083 42.624 250.083 42.688C250.083 42.816 250.003 42.96 249.843 43.12C249.715 43.28 249.587 43.36 249.459 43.36H246.339C245.763 44.352 245.075 45.648 244.275 47.248C243.507 48.816 242.819 50.336 242.211 51.808C242.083 52.096 241.859 52.672 241.539 53.536C241.251 54.4 241.107 55.2 241.107 55.936C241.107 56.416 241.203 56.816 241.395 57.136C241.619 57.456 241.987 57.616 242.499 57.616C243.043 57.616 243.635 57.424 244.275 57.04C244.915 56.624 245.411 56.208 245.763 55.792C246.499 54.992 247.171 54.112 247.779 53.152C248.387 52.192 248.995 51.168 249.603 50.08C249.699 49.952 249.795 49.888 249.891 49.888C250.019 49.888 250.083 49.984 250.083 50.176C250.083 50.336 250.051 50.464 249.987 50.56C249.411 51.616 248.787 52.672 248.115 53.728C247.475 54.784 246.691 55.776 245.763 56.704C245.347 57.12 244.787 57.504 244.083 57.856C243.379 58.176 242.691 58.336 242.019 58.336ZM253.941 58.384C252.085 58.384 250.773 57.904 250.005 56.944C249.621 56.528 249.349 56.032 249.189 55.456C249.029 54.88 248.949 54.288 248.949 53.68C248.949 52.912 249.045 52.144 249.237 51.376C249.429 50.576 249.669 49.84 249.957 49.168C250.405 48.112 250.997 47.056 251.733 46C252.469 44.912 253.349 44 254.373 43.264C255.429 42.528 256.581 42.16 257.829 42.16C258.661 42.16 259.317 42.368 259.797 42.784C260.277 43.2 260.517 43.84 260.517 44.704C260.517 45.696 260.213 46.704 259.605 47.728C258.997 48.72 258.229 49.552 257.301 50.224C256.373 50.896 255.413 51.232 254.421 51.232C253.525 51.232 252.741 50.912 252.069 50.272C251.877 50.784 251.717 51.36 251.589 52C251.461 52.608 251.397 53.232 251.397 53.872C251.397 54.864 251.589 55.728 251.973 56.464C252.389 57.2 253.125 57.568 254.181 57.568C254.949 57.568 255.685 57.376 256.389 56.992C257.125 56.576 257.781 56.08 258.357 55.504C258.997 54.832 259.605 54.112 260.181 53.344C260.757 52.576 261.317 51.68 261.861 50.656C261.925 50.56 261.973 50.512 262.005 50.512C262.133 50.512 262.197 50.656 262.197 50.944C262.197 51.136 262.133 51.344 262.005 51.568C261.525 52.432 260.965 53.312 260.325 54.208C259.685 55.072 259.029 55.824 258.357 56.464C257.749 57.04 257.093 57.504 256.389 57.856C255.685 58.208 254.869 58.384 253.941 58.384ZM252.309 49.552C252.533 49.872 252.789 50.112 253.077 50.272C253.397 50.4 253.717 50.464 254.037 50.464C254.805 50.464 255.605 50.176 256.437 49.6C257.269 48.992 257.941 48.288 258.453 47.488C258.677 47.136 258.869 46.672 259.029 46.096C259.221 45.52 259.317 44.976 259.317 44.464C259.317 44.016 259.221 43.632 259.029 43.312C258.869 42.96 258.533 42.784 258.021 42.784C257.445 42.784 256.757 43.136 255.957 43.84C255.189 44.544 254.453 45.456 253.749 46.576C253.525 46.96 253.269 47.408 252.981 47.92C252.725 48.432 252.501 48.976 252.309 49.552ZM271.208 57.136C270.664 57.584 270.12 57.904 269.576 58.096C269.064 58.32 268.584 58.432 268.136 58.432C267.336 58.432 266.664 58.16 266.12 57.616C265.608 57.04 265.352 56.288 265.352 55.36C265.352 54.816 265.48 54.16 265.736 53.392C266.152 52.24 266.776 51.136 267.608 50.08C268.44 49.024 269.24 47.952 270.008 46.864C270.488 46.224 270.728 45.6 270.728 44.992C270.728 44.672 270.632 44.4 270.44 44.176C270.28 43.952 269.976 43.824 269.528 43.792C269.272 43.728 268.984 43.696 268.664 43.696C268.344 43.696 268.024 43.696 267.704 43.696H266.36C266.168 43.696 265.992 43.696 265.832 43.696C265.672 43.696 265.528 43.68 265.4 43.648C265.272 44.448 265 45.344 264.584 46.336C264.2 47.328 263.752 48.32 263.24 49.312C262.728 50.304 262.232 51.2 261.752 52C261.624 52.192 261.512 52.288 261.416 52.288C261.32 52.288 261.272 52.192 261.272 52C261.272 51.776 261.32 51.6 261.416 51.472C262.088 50.16 262.728 48.88 263.336 47.632C263.976 46.352 264.408 45.024 264.632 43.648C263.896 43.232 263.4 42.512 263.144 41.488C263.112 41.328 263.08 41.184 263.048 41.056C263.048 40.896 263.048 40.752 263.048 40.624C263.048 40.048 263.16 39.568 263.384 39.184C263.64 38.768 263.928 38.56 264.248 38.56C264.696 38.56 265.064 38.992 265.352 39.856C265.416 40.08 265.464 40.336 265.496 40.624C265.528 40.88 265.544 41.136 265.544 41.392C265.544 41.68 265.528 41.952 265.496 42.208C265.496 42.432 265.48 42.624 265.448 42.784C265.672 42.848 265.96 42.896 266.312 42.928C266.696 42.96 267.112 42.976 267.56 42.976C268.232 42.976 268.936 42.96 269.672 42.928C270.408 42.864 271.032 42.832 271.544 42.832C272.152 42.832 272.568 42.96 272.792 43.216C273.016 43.472 273.128 43.792 273.128 44.176C273.128 44.656 273 45.184 272.744 45.76C272.52 46.304 272.296 46.768 272.072 47.152C271.656 47.92 271.256 48.608 270.872 49.216C270.52 49.792 270.12 50.416 269.672 51.088C269 52.112 268.504 53.056 268.184 53.92C267.896 54.752 267.752 55.456 267.752 56.032C267.752 57.024 268.12 57.52 268.856 57.52C269.464 57.52 270.248 57.088 271.208 56.224C271.816 55.68 272.376 55.04 272.888 54.304C273.432 53.536 273.912 52.768 274.328 52C274.776 51.2 275.144 50.544 275.432 50.032C275.496 49.936 275.56 49.888 275.624 49.888C275.752 49.888 275.816 50.016 275.816 50.272C275.816 50.464 275.768 50.64 275.672 50.8C275.128 51.792 274.504 52.88 273.8 54.064C273.096 55.248 272.232 56.272 271.208 57.136Z" fill="#B87F0D"/>
<g clip-path="url(#clip0_96_57)">
<path d="M311.146 41.5678C316.255 40.1719 321.769 38.8369 326.944 40.7701C326.966 41.1412 327.077 41.6121 326.889 41.9223C326.755 42.1494 322.88 44.282 322.252 44.5534C317.565 46.5807 312.263 47.0737 307.382 45.5172L300.318 52.3636C306.749 50.6963 313.084 49.8433 319.448 52.3969C319.47 52.7569 319.587 53.2278 319.392 53.549C319.181 53.9091 313.667 56.7839 312.801 57.1384C308.381 58.9331 303.217 59.9025 298.447 59.4261C296.665 59.2489 293.855 57.8862 292.306 58.2629C290.995 58.5841 282.833 65.3087 281.994 64.4114L282.066 62.8216L288.269 59.1602C286.786 52.9729 285.709 46.0711 286.142 39.6844C286.248 38.1224 287.708 28.6892 289.285 28.7002C291.728 34.4887 292.805 42.0995 292.406 48.4197C292.217 51.4164 291.267 54.391 290.951 57.3544L300.707 49.6217C296.981 44.0382 296.32 37.7734 298.753 31.4975C300.696 26.479 301.501 26.7504 303.25 31.7966C304.944 36.6877 304.694 40.8089 303.95 45.8219C303.867 46.3702 303.173 46.6472 304.272 46.553L311.913 38.3883C314.506 30.9436 316.66 22.3136 323.435 17.5C325.734 21.0118 324.179 27.3487 322.33 30.9214C319.453 36.4717 314.8 37.1032 311.146 41.5678ZM314.478 36.1726C320.603 33.8406 323.407 26.623 322.802 20.3915C319.975 21.0395 313.734 35.4027 314.478 36.1726ZM301.979 47.8049C303.161 42.2214 304.139 35.8624 300.94 30.783C297.981 35.7572 297.659 43.6173 301.979 47.8049ZM289.49 32.4336C288.413 32.3173 288.83 32.4336 288.646 33.043C287.353 37.3358 287.447 44.3097 287.88 48.7909C287.958 49.5774 288.907 56.1192 289.285 56.1192C291.656 48.4197 290.873 40.2328 289.49 32.4336ZM324.468 41.5788C320.792 40.5264 316.549 41.5345 313.012 42.8141C312.029 43.1686 310.458 43.5508 309.897 44.4758C313.978 45.5227 318.571 44.7639 322.38 43.019C322.963 42.7532 324.257 42.1992 324.468 41.5788ZM294.91 56.939C302.301 59.4981 310.569 57.5594 316.971 53.4105C317.01 52.1587 308.27 52.3193 307.243 52.4246C306.149 52.5354 294.005 55.7869 294.91 56.939Z" fill="#B87F0D"/>
</g>
<defs>
<clipPath id="clip0_96_57">
<rect width="45" height="47" fill="white" transform="translate(282 17.5)"/>
</clipPath>
</defs>
</svg>
