<svg width="884" height="218" viewBox="0 0 884 218" fill="none" xmlns="http://www.w3.org/2000/svg">
<path d="M86.507 166.032C85.8243 166.117 85.099 166.16 84.331 166.16C83.6483 166.16 82.9657 166.16 82.283 166.16C77.675 166.16 72.8537 165.691 67.819 164.752C62.7843 163.899 57.7923 162.747 52.843 161.296C47.979 159.845 43.4137 158.267 39.147 156.56L28.395 152.208C27.5417 152.635 26.6883 153.019 25.835 153.36C25.067 153.701 24.2137 154.043 23.275 154.384C20.459 155.323 17.1737 155.792 13.419 155.792C12.0537 155.792 10.731 155.664 9.451 155.408C8.171 155.237 7.10433 154.939 6.251 154.512C5.31233 154 4.54433 153.275 3.947 152.336C3.435 151.312 3.179 150.331 3.179 149.392C3.179 148.453 3.435 147.685 3.947 147.088C4.28833 146.747 4.62967 146.576 4.971 146.576C5.31233 146.491 5.39767 146.661 5.227 147.088C4.971 148.453 5.52567 149.691 6.891 150.8C8.34167 151.824 9.66433 152.507 10.859 152.848C11.9683 153.189 13.3337 153.36 14.955 153.36C17.3443 153.36 19.6057 152.933 21.739 152.08L24.683 150.8C22.7203 149.947 20.715 149.179 18.667 148.496C16.619 147.728 14.7417 147.045 13.035 146.448C11.755 146.021 10.091 145.595 8.043 145.168C6.08033 144.656 4.50167 144.528 3.307 144.784H3.179C2.923 144.784 2.75233 144.656 2.667 144.4C2.58167 144.144 2.70967 143.888 3.051 143.632C3.47767 143.291 4.331 143.12 5.611 143.12C6.97633 143.12 8.46967 143.333 10.091 143.76C11.7123 144.101 12.907 144.357 13.675 144.528L28.011 148.496C30.059 146.789 32.0643 144.784 34.027 142.48C35.9897 140.176 37.8243 137.701 39.531 135.056C42.603 130.363 45.5897 124.987 48.491 118.928C51.4777 112.784 54.5497 106.555 57.707 100.24C60.9497 93.84 64.491 88.0373 68.331 82.832C70.2937 80.1013 72.5977 77.4133 75.243 74.768C77.8883 72.1227 80.7897 69.9893 83.947 68.368C85.8243 67.4293 87.7443 66.6613 89.707 66.064C91.6697 65.4667 93.7177 65.168 95.851 65.168C100.288 65.168 103.659 66.32 105.963 68.624C108.267 70.928 109.419 73.8293 109.419 77.328C109.419 78.1813 109.334 79.0773 109.163 80.016C109.078 80.9547 108.864 81.8933 108.523 82.832C107.243 87.0133 104.896 90.5973 101.483 93.584C98.0697 96.4853 94.315 98.6613 90.219 100.112C89.707 100.283 89.4083 100.368 89.323 100.368C88.8963 100.368 88.683 100.197 88.683 99.856C88.683 99.344 89.0243 98.96 89.707 98.704C93.547 97.2533 97.003 94.992 100.075 91.92C103.232 88.848 105.195 85.2213 105.963 81.04C106.048 80.528 106.091 80.0587 106.091 79.632C106.176 79.12 106.219 78.6933 106.219 78.352C106.219 74.8533 104.982 72.2933 102.507 70.672C100.118 68.9653 97.3443 68.112 94.187 68.112C90.9443 68.112 87.9577 68.88 85.227 70.416C82.2403 72.1227 79.2963 74.9813 76.395 78.992C73.579 82.9173 70.8057 87.4827 68.075 92.688C65.4297 97.808 62.827 103.099 60.267 108.56C57.7923 113.936 55.3603 119.013 52.971 123.792C50.667 128.571 48.4057 132.539 46.187 135.696C44.3097 138.427 42.219 140.987 39.915 143.376C37.611 145.765 35.1363 147.899 32.491 149.776L40.555 152.08C46.5283 153.787 53.0137 155.408 60.011 156.944C67.0083 158.565 73.6643 159.376 79.979 159.376C82.8803 159.376 85.6537 159.163 88.299 158.736C90.9443 158.309 93.3337 157.584 95.467 156.56C98.9657 154.939 101.782 152.72 103.915 149.904C106.048 147.088 107.115 144.101 107.115 140.944C107.115 138.725 106.518 136.549 105.323 134.416C104.214 132.283 102.422 130.277 99.947 128.4C98.5817 127.376 97.1737 126.48 95.723 125.712C94.2723 124.859 92.9497 124.219 91.755 123.792C91.1577 123.536 90.859 123.28 90.859 123.024C90.859 122.853 90.987 122.725 91.243 122.64C91.5843 122.555 91.7977 122.512 91.883 122.512C94.7843 123.195 97.6857 124.517 100.587 126.48C105.024 129.637 108.011 133.307 109.547 137.488C110.4 139.707 110.827 142.011 110.827 144.4C110.827 147.813 109.974 151.056 108.267 154.128C106.56 157.2 104.214 159.675 101.227 161.552C96.9603 164.112 92.0537 165.605 86.507 166.032ZM144.236 154.896C141.505 154.896 139.628 154.043 138.604 152.336C137.58 150.544 137.068 148.581 137.068 146.448C137.068 146.021 137.111 145.296 137.196 144.272C137.367 143.163 137.537 142.139 137.708 141.2C136.513 142.821 135.063 144.613 133.356 146.576C131.735 148.539 130.071 150.203 128.364 151.568C125.633 153.787 123.159 154.896 120.94 154.896C118.807 154.896 117.143 154 115.948 152.208C114.839 150.416 114.284 148.155 114.284 145.424C114.284 141.925 115.052 138.384 116.588 134.8C118.124 131.216 120.129 127.845 122.604 124.688C125.164 121.445 127.98 118.672 131.052 116.368C132.844 115.088 135.02 114.064 137.58 113.296C140.225 112.443 142.871 112.016 145.516 112.016C148.503 112.016 151.105 112.485 153.324 113.424C155.628 114.277 157.207 115.515 158.06 117.136C156.268 119.44 154.433 122.299 152.556 125.712C150.679 129.04 149.057 132.069 147.692 134.8C146.753 136.677 145.729 139.024 144.62 141.84C143.511 144.571 142.956 146.917 142.956 148.88C142.956 149.733 143.169 150.587 143.596 151.44C144.023 152.293 144.833 152.72 146.028 152.72C147.393 152.72 148.716 152.208 149.996 151.184C151.276 150.16 152.343 149.136 153.196 148.112C155.159 145.979 156.951 143.632 158.572 141.072C160.193 138.512 161.815 135.781 163.436 132.88C163.692 132.539 163.948 132.368 164.204 132.368C164.545 132.368 164.716 132.624 164.716 133.136C164.716 133.563 164.631 133.904 164.46 134.16C163.009 136.976 161.388 139.792 159.596 142.608C157.804 145.424 155.671 148.069 153.196 150.544C152.001 151.739 150.593 152.763 148.972 153.616C147.351 154.469 145.772 154.896 144.236 154.896ZM123.756 150.928C125.377 150.928 127.127 150.075 129.004 148.368C130.967 146.576 132.844 144.443 134.636 141.968C136.513 139.408 138.177 136.976 139.628 134.672C141.164 132.283 142.359 130.448 143.212 129.168C145.004 126.352 146.668 124.005 148.204 122.128C149.74 120.251 152.129 118.8 155.372 117.776C155.543 117.776 155.671 117.776 155.756 117.776C155.927 117.691 156.097 117.648 156.268 117.648C155.5 116.453 154.22 115.557 152.428 114.96C150.636 114.363 148.887 114.064 147.18 114.064C144.535 114.064 141.975 114.789 139.5 116.24C137.025 117.691 134.764 119.525 132.716 121.744C130.753 124.048 128.833 126.565 126.956 129.296C125.079 132.027 123.543 134.8 122.348 137.616C121.239 140.432 120.684 143.12 120.684 145.68C120.684 147.045 120.897 148.283 121.324 149.392C121.836 150.416 122.647 150.928 123.756 150.928ZM192.29 154.896C189.901 154.896 187.81 154 186.018 152.208C184.311 150.416 183.458 147.813 183.458 144.4C183.458 143.12 183.586 141.797 183.842 140.432C182.989 142.053 181.837 143.803 180.386 145.68C178.935 147.472 177.485 149.093 176.034 150.544C174.669 151.909 173.047 153.019 171.17 153.872C169.378 154.64 167.586 154.939 165.794 154.768C163.405 154.512 161.698 153.659 160.674 152.208C159.735 150.757 159.266 148.965 159.266 146.832C159.266 144.016 159.821 140.944 160.93 137.616C162.125 134.288 163.49 131.131 165.026 128.144C166.562 125.072 167.799 122.683 168.738 120.976C170.615 117.819 172.493 115.856 174.37 115.088C176.333 114.32 178.722 113.936 181.538 113.936C180.685 114.192 179.575 115.216 178.21 117.008C176.845 118.715 175.394 120.848 173.858 123.408C172.407 125.968 170.999 128.741 169.634 131.728C168.354 134.629 167.287 137.488 166.434 140.304C165.666 143.035 165.282 145.381 165.282 147.344C165.282 148.795 165.538 149.989 166.05 150.928C166.647 151.867 167.543 152.336 168.738 152.336C169.762 152.336 170.957 151.952 172.322 151.184C173.687 150.331 174.925 149.307 176.034 148.112C179.789 143.931 182.818 139.365 185.122 134.416C187.511 129.381 190.157 124.389 193.058 119.44C194.935 116.283 196.813 114.32 198.69 113.552C200.653 112.784 203.042 112.4 205.858 112.4C205.09 112.656 203.981 113.68 202.53 115.472C201.165 117.179 199.671 119.355 198.05 122C196.514 124.645 195.021 127.461 193.57 130.448C192.205 133.435 191.053 136.293 190.114 139.024C189.261 141.755 188.834 144.059 188.834 145.936C188.834 148.496 189.517 150.203 190.882 151.056C192.247 151.824 193.485 152.208 194.594 152.208C196.813 152.208 198.903 151.483 200.866 150.032C202.914 148.581 204.749 146.747 206.37 144.528C208.077 142.309 209.527 140.048 210.722 137.744C212.002 135.355 212.983 133.307 213.666 131.6C213.325 130.235 213.154 127.803 213.154 124.304C213.154 122.171 213.282 119.995 213.538 117.776C213.794 115.557 214.221 113.637 214.818 112.016C215.671 109.883 216.994 108.816 218.786 108.816C219.469 108.816 220.066 109.157 220.578 109.84C221.175 110.523 221.474 111.675 221.474 113.296C221.474 115.685 221.09 118.16 220.322 120.72C219.639 123.195 219.085 124.901 218.658 125.84C218.317 126.693 217.89 127.76 217.378 129.04C216.866 130.235 216.269 131.557 215.586 133.008C215.501 135.653 215.927 137.829 216.866 139.536C217.89 141.157 219.127 141.968 220.578 141.968C222.199 141.968 223.607 141.499 224.802 140.56C226.082 139.536 227.149 138.341 228.002 136.976C228.941 135.525 229.709 134.203 230.306 133.008C230.562 132.496 230.903 132.24 231.33 132.24C231.671 132.24 231.842 132.453 231.842 132.88C231.842 133.136 231.714 133.52 231.458 134.032C230.434 136.336 228.983 138.512 227.106 140.56C225.229 142.608 222.925 143.632 220.194 143.632C218.829 143.632 217.463 143.077 216.098 141.968C214.818 140.859 214.05 139.109 213.794 136.72C212.343 139.28 210.594 141.968 208.546 144.784C206.583 147.6 204.279 149.989 201.634 151.952C198.989 153.915 195.874 154.896 192.29 154.896ZM233.306 154.768C230.917 154.768 229.167 154 228.058 152.464C226.949 150.843 226.394 148.88 226.394 146.576C226.394 145.893 226.437 145.211 226.522 144.528C226.693 143.76 226.863 142.992 227.034 142.224C227.973 138.811 229.423 135.013 231.386 130.832C233.434 126.565 235.397 122.768 237.274 119.44C238.383 117.563 239.407 116.24 240.346 115.472C241.285 114.619 242.309 114.021 243.418 113.68C244.527 113.253 245.85 112.784 247.386 112.272C247.813 112.101 248.239 111.973 248.666 111.888C249.093 111.803 249.562 111.717 250.074 111.632C248.367 113.339 246.618 115.387 244.826 117.776C243.119 120.165 241.242 123.451 239.194 127.632C238.085 129.851 236.975 132.325 235.866 135.056C234.842 137.787 233.946 140.347 233.178 142.736C232.41 145.125 231.983 147.003 231.898 148.368C231.813 149.989 232.026 151.141 232.538 151.824C233.05 152.507 233.733 152.848 234.586 152.848C236.037 152.848 237.402 152.336 238.682 151.312C240.047 150.288 241.242 149.221 242.266 148.112C244.143 145.979 245.893 143.632 247.514 141.072C249.221 138.512 250.885 135.781 252.506 132.88C252.762 132.539 252.975 132.368 253.146 132.368C253.487 132.368 253.658 132.624 253.658 133.136C253.658 133.563 253.573 133.904 253.402 134.16C251.866 136.976 250.245 139.792 248.538 142.608C246.831 145.424 244.741 148.069 242.266 150.544C241.157 151.653 239.834 152.635 238.298 153.488C236.847 154.341 235.183 154.768 233.306 154.768ZM248.922 104.464C247.983 104.464 247.173 104.123 246.49 103.44C245.893 102.757 245.594 101.947 245.594 101.008C245.594 99.8133 246.063 98.7467 247.002 97.808C248.026 96.8693 249.135 96.3147 250.33 96.144C251.269 96.144 252.037 96.4853 252.634 97.168C253.317 97.7653 253.658 98.576 253.658 99.6C253.658 100.709 253.189 101.819 252.25 102.928C251.311 103.952 250.202 104.464 248.922 104.464ZM256.842 154.896C254.709 154.896 252.789 154.299 251.082 153.104C249.461 151.824 248.65 149.776 248.65 146.96C248.65 143.973 249.375 140.688 250.826 137.104C252.277 133.52 253.642 130.32 254.922 127.504C255.605 126.139 256.501 124.304 257.61 122C258.805 119.611 260.085 117.264 261.45 114.96H255.434C255.178 114.96 255.05 114.747 255.05 114.32C255.05 113.979 255.178 113.637 255.434 113.296C255.69 112.869 255.989 112.656 256.33 112.656C258.719 112.656 260.511 112.443 261.706 112.016C262.901 111.589 263.925 110.992 264.778 110.224C266.143 109.029 267.466 107.493 268.746 105.616C270.111 103.739 271.434 102.117 272.714 100.752C273.653 99.5573 274.805 98.6613 276.17 98.064C277.621 97.4667 278.559 97.2533 278.986 97.424C278.559 98.0213 277.877 99.0453 276.938 100.496C275.999 101.947 275.018 103.525 273.994 105.232C272.97 106.939 272.031 108.517 271.178 109.968C270.325 111.419 269.77 112.4 269.514 112.912H277.962C278.218 112.912 278.346 112.997 278.346 113.168C278.346 113.509 278.133 113.893 277.706 114.32C277.365 114.747 277.023 114.96 276.682 114.96H268.362C266.826 117.605 264.991 121.061 262.858 125.328C260.81 129.509 258.975 133.563 257.354 137.488C257.013 138.256 256.415 139.792 255.562 142.096C254.794 144.4 254.41 146.533 254.41 148.496C254.41 149.776 254.666 150.843 255.178 151.696C255.775 152.549 256.757 152.976 258.122 152.976C259.573 152.976 261.151 152.464 262.858 151.44C264.565 150.331 265.887 149.221 266.826 148.112C268.789 145.979 270.581 143.632 272.202 141.072C273.823 138.512 275.445 135.781 277.066 132.88C277.322 132.539 277.578 132.368 277.834 132.368C278.175 132.368 278.346 132.624 278.346 133.136C278.346 133.563 278.261 133.904 278.09 134.16C276.554 136.976 274.89 139.792 273.098 142.608C271.391 145.424 269.301 148.069 266.826 150.544C265.717 151.653 264.223 152.677 262.346 153.616C260.469 154.469 258.634 154.896 256.842 154.896ZM280.315 190.096C278.95 190.437 277.584 190.608 276.219 190.608C273.744 190.608 271.867 190.011 270.587 188.816C269.307 187.621 268.667 186.128 268.667 184.336C268.667 182.8 269.179 181.136 270.203 179.344C271.227 177.637 272.763 176.101 274.811 174.736C277.456 172.944 279.846 171.493 281.979 170.384C284.198 169.275 286.587 168.165 289.147 167.056C291.707 166.032 294.907 164.624 298.747 162.832C299.174 161.893 299.643 160.784 300.155 159.504C300.667 158.224 301.52 156.091 302.715 153.104C303.91 150.117 305.659 145.68 307.963 139.792C306.086 142.096 304.208 144.229 302.331 146.192C300.454 148.155 298.918 149.691 297.723 150.8C296.016 152.08 294.352 153.104 292.731 153.872C291.195 154.555 289.659 154.896 288.123 154.896C286.075 154.896 284.624 154.299 283.771 153.104C283.003 151.909 282.619 150.501 282.619 148.88C282.619 147.515 282.79 146.107 283.131 144.656C283.558 143.205 284.027 141.84 284.539 140.56C285.734 137.573 287.014 134.757 288.379 132.112C289.83 129.381 291.238 126.565 292.603 123.664C292.944 122.981 293.414 121.872 294.011 120.336C294.694 118.8 295.035 117.392 295.035 116.112C295.035 114.661 294.395 113.936 293.115 113.936C291.92 113.936 290.683 114.533 289.403 115.728C288.208 116.837 287.142 118.117 286.203 119.568C285.264 121.019 284.539 122.171 284.027 123.024C284.027 123.024 283.6 123.835 282.747 125.456C281.979 127.077 280.955 129.083 279.675 131.472C278.48 133.776 277.243 135.952 275.963 138C275.707 138.427 275.366 138.64 274.939 138.64C274.598 138.64 274.427 138.469 274.427 138.128C274.427 137.957 274.64 137.445 275.067 136.592C276.944 133.264 278.395 130.491 279.419 128.272C280.528 126.053 281.766 123.749 283.131 121.36C284.496 118.885 286.075 116.539 287.867 114.32C289.062 113.04 290.342 112.101 291.707 111.504C293.158 110.821 294.566 110.48 295.931 110.48C298.32 110.48 299.942 111.035 300.795 112.144C301.734 113.168 302.203 114.448 302.203 115.984C302.203 117.605 301.862 119.269 301.179 120.976C300.496 122.683 299.814 124.176 299.131 125.456C296.998 129.211 295.248 132.496 293.883 135.312C292.518 138.043 291.323 140.688 290.299 143.248C289.531 145.125 289.147 146.661 289.147 147.856C289.147 150.075 290.086 151.184 291.963 151.184C293.499 151.184 295.078 150.501 296.699 149.136C301.222 145.467 304.891 141.157 307.707 136.208C310.523 131.259 313.211 126.096 315.771 120.72C316.624 119.013 317.691 117.179 318.971 115.216C320.251 113.168 321.83 111.461 323.707 110.096C325.584 108.645 327.76 108.005 330.235 108.176C329.04 109.285 327.59 111.333 325.883 114.32C324.262 117.307 322.512 120.805 320.635 124.816C318.843 128.827 317.051 133.008 315.259 137.36C313.467 141.712 311.76 145.893 310.139 149.904C308.603 153.829 307.28 157.157 306.171 159.888C308.475 158.949 311.163 157.499 314.235 155.536C317.392 153.659 320.336 151.184 323.067 148.112C325.03 146.064 326.779 143.76 328.315 141.2C329.936 138.555 331.558 135.781 333.179 132.88C333.435 132.539 333.691 132.368 333.947 132.368C334.288 132.368 334.459 132.624 334.459 133.136C334.459 133.563 334.374 133.904 334.203 134.16C332.667 136.976 331.046 139.792 329.339 142.608C327.632 145.424 325.542 148.069 323.067 150.544C319.995 153.445 316.88 155.92 313.723 157.968C310.651 160.101 307.75 161.637 305.019 162.576C302.971 167.184 300.795 171.408 298.491 175.248C296.272 179.088 293.712 182.288 290.811 184.848C287.91 187.408 284.411 189.157 280.315 190.096ZM279.547 187.536C282.619 186.597 285.264 184.933 287.483 182.544C289.702 180.24 291.622 177.552 293.243 174.48C294.95 171.408 296.4 168.336 297.595 165.264C294.864 166.715 291.451 168.208 287.355 169.744C283.259 171.365 279.376 173.541 275.707 176.272C274.086 177.552 272.848 178.875 271.995 180.24C271.142 181.605 270.715 182.885 270.715 184.08C270.715 185.275 271.142 186.256 271.995 187.024C272.848 187.792 274.086 188.176 275.707 188.176C276.219 188.176 276.774 188.133 277.371 188.048C278.054 187.963 278.779 187.792 279.547 187.536ZM365.614 155.408C361.177 155.408 358.019 154.085 356.142 151.44C354.265 148.709 353.326 145.509 353.326 141.84C353.326 137.829 354.179 133.776 355.886 129.68C357.166 126.608 358.83 123.749 360.878 121.104C362.926 118.373 365.358 116.155 368.174 114.448C371.075 112.741 374.233 111.888 377.646 111.888C380.206 111.888 382.169 112.485 383.534 113.68C384.985 114.875 385.71 116.539 385.71 118.672C385.71 119.355 385.625 120.08 385.454 120.848C385.369 121.616 385.113 122.469 384.686 123.408C384.089 124.944 383.321 126.309 382.382 127.504C381.443 128.699 380.377 129.637 379.182 130.32C378.585 130.661 377.902 130.832 377.134 130.832C376.537 130.832 375.982 130.661 375.47 130.32C374.958 129.979 374.702 129.424 374.702 128.656C374.702 127.291 375.427 125.84 376.878 124.304C378.414 122.683 380.377 121.829 382.766 121.744C383.193 120.635 383.406 119.653 383.406 118.8C383.406 117.435 382.979 116.283 382.126 115.344C381.273 114.32 379.95 113.808 378.158 113.808C375.939 113.808 373.763 114.661 371.63 116.368C369.497 117.989 367.577 120.165 365.87 122.896C364.249 125.541 362.926 128.357 361.902 131.344C361.39 132.709 360.921 134.459 360.494 136.592C360.067 138.64 359.854 140.688 359.854 142.736C359.854 145.381 360.409 147.771 361.518 149.904C362.713 151.952 364.931 152.976 368.174 152.976C370.478 152.976 372.654 152.336 374.702 151.056C376.75 149.691 378.585 148.027 380.206 146.064C381.913 144.101 383.406 142.096 384.686 140.048C386.051 137.915 387.161 136.037 388.014 134.416C388.099 134.075 388.313 133.904 388.654 133.904C389.081 133.904 389.294 134.245 389.294 134.928C389.294 135.269 389.166 135.653 388.91 136.08C387.118 139.237 385.198 142.309 383.15 145.296C381.102 148.197 378.67 150.629 375.854 152.592C373.038 154.469 369.625 155.408 365.614 155.408ZM415.361 154.896C412.63 154.896 410.753 154.043 409.729 152.336C408.705 150.544 408.193 148.581 408.193 146.448C408.193 146.021 408.236 145.296 408.321 144.272C408.492 143.163 408.662 142.139 408.833 141.2C407.638 142.821 406.188 144.613 404.481 146.576C402.86 148.539 401.196 150.203 399.489 151.568C396.758 153.787 394.284 154.896 392.065 154.896C389.932 154.896 388.268 154 387.073 152.208C385.964 150.416 385.409 148.155 385.409 145.424C385.409 141.925 386.177 138.384 387.713 134.8C389.249 131.216 391.254 127.845 393.729 124.688C396.289 121.445 399.105 118.672 402.177 116.368C403.969 115.088 406.145 114.064 408.705 113.296C411.35 112.443 413.996 112.016 416.641 112.016C419.628 112.016 422.23 112.485 424.449 113.424C426.753 114.277 428.332 115.515 429.185 117.136C427.393 119.44 425.558 122.299 423.681 125.712C421.804 129.04 420.182 132.069 418.817 134.8C417.878 136.677 416.854 139.024 415.745 141.84C414.636 144.571 414.081 146.917 414.081 148.88C414.081 149.733 414.294 150.587 414.721 151.44C415.148 152.293 415.958 152.72 417.153 152.72C418.518 152.72 419.841 152.208 421.121 151.184C422.401 150.16 423.468 149.136 424.321 148.112C426.284 145.979 428.076 143.632 429.697 141.072C431.318 138.512 432.94 135.781 434.561 132.88C434.817 132.539 435.073 132.368 435.329 132.368C435.67 132.368 435.841 132.624 435.841 133.136C435.841 133.563 435.756 133.904 435.585 134.16C434.134 136.976 432.513 139.792 430.721 142.608C428.929 145.424 426.796 148.069 424.321 150.544C423.126 151.739 421.718 152.763 420.097 153.616C418.476 154.469 416.897 154.896 415.361 154.896ZM394.881 150.928C396.502 150.928 398.252 150.075 400.129 148.368C402.092 146.576 403.969 144.443 405.761 141.968C407.638 139.408 409.302 136.976 410.753 134.672C412.289 132.283 413.484 130.448 414.337 129.168C416.129 126.352 417.793 124.005 419.329 122.128C420.865 120.251 423.254 118.8 426.497 117.776C426.668 117.776 426.796 117.776 426.881 117.776C427.052 117.691 427.222 117.648 427.393 117.648C426.625 116.453 425.345 115.557 423.553 114.96C421.761 114.363 420.012 114.064 418.305 114.064C415.66 114.064 413.1 114.789 410.625 116.24C408.15 117.691 405.889 119.525 403.841 121.744C401.878 124.048 399.958 126.565 398.081 129.296C396.204 132.027 394.668 134.8 393.473 137.616C392.364 140.432 391.809 143.12 391.809 145.68C391.809 147.045 392.022 148.283 392.449 149.392C392.961 150.416 393.772 150.928 394.881 150.928ZM439.735 154.768C436.919 154.768 434.956 153.872 433.847 152.08C432.738 150.288 432.183 148.069 432.183 145.424C432.183 142.608 432.61 139.536 433.463 136.208C434.402 132.88 435.511 129.637 436.791 126.48C438.071 123.237 439.266 120.421 440.375 118.032C441.484 115.643 442.252 113.979 442.679 113.04C444.215 109.797 446.135 106.128 448.439 102.032C450.743 97.936 453.303 93.7547 456.119 89.488C458.935 85.2213 461.964 81.168 465.207 77.328C468.45 73.488 471.778 70.16 475.191 67.344C478.604 64.528 482.018 62.608 485.431 61.584C486.37 61.328 487.223 61.2 487.991 61.2C489.442 61.2 490.636 61.6267 491.575 62.48C492.599 63.248 493.111 64.6133 493.111 66.576C493.111 67.9413 492.77 69.648 492.087 71.696C490.978 74.6827 489.1 78.0107 486.455 81.68C483.81 85.264 480.695 89.0187 477.111 92.944C473.527 96.784 469.73 100.581 465.719 104.336C461.794 108.091 457.954 111.589 454.199 114.832C450.444 118.075 447.116 120.848 444.215 123.152C443.447 124.773 442.722 126.352 442.039 127.888C441.442 129.424 440.887 130.917 440.375 132.368C440.119 133.136 439.735 134.288 439.223 135.824C438.711 137.36 438.242 139.067 437.815 140.944C437.388 142.821 437.175 144.613 437.175 146.32C437.175 148.027 437.516 149.52 438.199 150.8C438.882 151.995 440.119 152.592 441.911 152.592C443.362 152.592 445.111 151.824 447.159 150.288C449.292 148.667 451.468 146.576 453.687 144.016C455.991 141.456 458.21 138.768 460.343 135.952C462.562 133.051 464.567 130.277 466.359 127.632C468.151 124.987 469.516 122.811 470.455 121.104C471.223 119.227 471.948 117.563 472.631 116.112C473.314 114.661 473.826 113.637 474.167 113.04C475.703 109.797 477.623 106.128 479.927 102.032C482.231 97.936 484.791 93.7547 487.607 89.488C490.423 85.2213 493.452 81.168 496.695 77.328C499.938 73.488 503.266 70.16 506.679 67.344C510.092 64.528 513.506 62.608 516.919 61.584C517.858 61.328 518.711 61.2 519.479 61.2C520.93 61.2 522.124 61.6267 523.063 62.48C524.087 63.248 524.599 64.6133 524.599 66.576C524.599 67.9413 524.258 69.648 523.575 71.696C522.466 74.6827 520.588 78.0107 517.943 81.68C515.298 85.264 512.183 89.0187 508.599 92.944C505.015 96.784 501.218 100.581 497.207 104.336C493.282 108.091 489.442 111.589 485.687 114.832C481.932 118.075 478.604 120.848 475.703 123.152C474.935 124.773 474.21 126.352 473.527 127.888C472.93 129.424 472.375 130.917 471.863 132.368C471.607 133.136 471.223 134.288 470.711 135.824C470.199 137.36 469.73 139.067 469.303 140.944C468.876 142.821 468.663 144.613 468.663 146.32C468.663 148.027 469.004 149.52 469.687 150.8C470.37 151.995 471.607 152.592 473.399 152.592C474.85 152.592 476.215 152.123 477.495 151.184C478.775 150.245 479.884 149.221 480.823 148.112C482.786 145.979 484.492 143.803 485.943 141.584C487.479 139.28 488.972 136.72 490.423 133.904C490.764 133.307 491.02 133.008 491.191 133.008C491.362 133.008 491.447 133.264 491.447 133.776C491.447 134.544 491.276 135.355 490.935 136.208C489.314 139.195 487.82 141.712 486.455 143.76C485.175 145.808 483.298 148.069 480.823 150.544C479.714 151.653 478.434 152.635 476.983 153.488C475.532 154.341 473.868 154.768 471.991 154.768C468.919 154.768 466.743 153.872 465.463 152.08C464.268 150.288 463.671 148.027 463.671 145.296C463.671 142.992 464.012 140.475 464.695 137.744C465.378 134.928 466.188 132.197 467.127 129.552C465.335 132.197 463.33 135.013 461.111 138C458.892 140.901 456.546 143.632 454.071 146.192C451.596 148.752 449.122 150.843 446.647 152.464C444.258 154 441.954 154.768 439.735 154.768ZM445.623 120.208C448.268 117.904 451.34 115.173 454.839 112.016C458.338 108.773 461.922 105.317 465.591 101.648C469.26 97.9787 472.716 94.3093 475.959 90.64C479.287 86.9707 482.146 83.5147 484.535 80.272C487.01 77.0293 488.674 74.2133 489.527 71.824C490.295 69.6053 490.679 67.8987 490.679 66.704C490.679 64.4853 489.698 63.376 487.735 63.376C486.626 63.376 485.303 63.8027 483.767 64.656C482.231 65.424 480.823 66.448 479.543 67.728C477.495 69.776 475.02 72.72 472.119 76.56C469.218 80.3147 466.188 84.624 463.031 89.488C459.874 94.352 456.759 99.4293 453.687 104.72C450.7 110.011 448.012 115.173 445.623 120.208ZM477.111 120.208C479.842 117.904 482.914 115.173 486.327 112.016C489.826 108.773 493.41 105.317 497.079 101.648C500.748 97.9787 504.204 94.3093 507.447 90.64C510.775 86.9707 513.634 83.5147 516.023 80.272C518.498 77.0293 520.162 74.2133 521.015 71.824C521.783 69.6053 522.167 67.8987 522.167 66.704C522.167 64.4853 521.186 63.376 519.223 63.376C518.114 63.376 516.791 63.8027 515.255 64.656C513.719 65.424 512.311 66.448 511.031 67.728C508.983 69.776 506.508 72.72 503.607 76.56C500.706 80.3147 497.676 84.624 494.519 89.488C491.362 94.352 488.247 99.4293 485.175 104.72C482.188 110.011 479.5 115.173 477.111 120.208ZM497.387 131.472V129.04H520.427V131.472H497.387ZM542.364 155.408C537.927 155.408 534.769 154.085 532.892 151.44C531.015 148.709 530.076 145.509 530.076 141.84C530.076 137.829 530.929 133.776 532.636 129.68C533.916 126.608 535.58 123.749 537.628 121.104C539.676 118.373 542.108 116.155 544.924 114.448C547.825 112.741 550.983 111.888 554.396 111.888C556.956 111.888 558.919 112.485 560.284 113.68C561.735 114.875 562.46 116.539 562.46 118.672C562.46 119.355 562.375 120.08 562.204 120.848C562.119 121.616 561.863 122.469 561.436 123.408C560.839 124.944 560.071 126.309 559.132 127.504C558.193 128.699 557.127 129.637 555.932 130.32C555.335 130.661 554.652 130.832 553.884 130.832C553.287 130.832 552.732 130.661 552.22 130.32C551.708 129.979 551.452 129.424 551.452 128.656C551.452 127.291 552.177 125.84 553.628 124.304C555.164 122.683 557.127 121.829 559.516 121.744C559.943 120.635 560.156 119.653 560.156 118.8C560.156 117.435 559.729 116.283 558.876 115.344C558.023 114.32 556.7 113.808 554.908 113.808C552.689 113.808 550.513 114.661 548.38 116.368C546.247 117.989 544.327 120.165 542.62 122.896C540.999 125.541 539.676 128.357 538.652 131.344C538.14 132.709 537.671 134.459 537.244 136.592C536.817 138.64 536.604 140.688 536.604 142.736C536.604 145.381 537.159 147.771 538.268 149.904C539.463 151.952 541.681 152.976 544.924 152.976C547.228 152.976 549.404 152.336 551.452 151.056C553.5 149.691 555.335 148.027 556.956 146.064C558.663 144.101 560.156 142.096 561.436 140.048C562.801 137.915 563.911 136.037 564.764 134.416C564.849 134.075 565.063 133.904 565.404 133.904C565.831 133.904 566.044 134.245 566.044 134.928C566.044 135.269 565.916 135.653 565.66 136.08C563.868 139.237 561.948 142.309 559.9 145.296C557.852 148.197 555.42 150.629 552.604 152.592C549.788 154.469 546.375 155.408 542.364 155.408ZM577.135 155.024C572.186 155.024 568.687 153.744 566.639 151.184C565.615 150.075 564.89 148.752 564.463 147.216C564.036 145.68 563.823 144.101 563.823 142.48C563.823 140.432 564.079 138.384 564.591 136.336C565.103 134.203 565.743 132.24 566.511 130.448C567.706 127.632 569.284 124.816 571.247 122C573.21 119.099 575.556 116.667 578.287 114.704C581.103 112.741 584.175 111.76 587.503 111.76C589.722 111.76 591.471 112.315 592.751 113.424C594.031 114.533 594.671 116.24 594.671 118.544C594.671 121.189 593.86 123.877 592.239 126.608C590.618 129.253 588.57 131.472 586.095 133.264C583.62 135.056 581.06 135.952 578.415 135.952C576.026 135.952 573.935 135.099 572.143 133.392C571.631 134.757 571.204 136.293 570.863 138C570.522 139.621 570.351 141.285 570.351 142.992C570.351 145.637 570.863 147.941 571.887 149.904C572.996 151.867 574.959 152.848 577.775 152.848C579.823 152.848 581.786 152.336 583.663 151.312C585.626 150.203 587.375 148.88 588.911 147.344C590.618 145.552 592.239 143.632 593.775 141.584C595.311 139.536 596.804 137.147 598.255 134.416C598.426 134.16 598.554 134.032 598.639 134.032C598.98 134.032 599.151 134.416 599.151 135.184C599.151 135.696 598.98 136.251 598.639 136.848C597.359 139.152 595.866 141.499 594.159 143.888C592.452 146.192 590.703 148.197 588.911 149.904C587.29 151.44 585.54 152.677 583.663 153.616C581.786 154.555 579.61 155.024 577.135 155.024ZM572.783 131.472C573.38 132.325 574.063 132.965 574.831 133.392C575.684 133.733 576.538 133.904 577.391 133.904C579.439 133.904 581.572 133.136 583.791 131.6C586.01 129.979 587.802 128.101 589.167 125.968C589.764 125.029 590.276 123.792 590.703 122.256C591.215 120.72 591.471 119.269 591.471 117.904C591.471 116.709 591.215 115.685 590.703 114.832C590.276 113.893 589.38 113.424 588.015 113.424C586.479 113.424 584.644 114.363 582.511 116.24C580.463 118.117 578.5 120.549 576.623 123.536C576.026 124.56 575.343 125.755 574.575 127.12C573.892 128.485 573.295 129.936 572.783 131.472ZM621.899 154.768C619.424 154.768 617.462 154 616.011 152.464C614.646 150.928 613.963 149.008 613.963 146.704C613.963 145.595 614.176 144.315 614.603 142.864C615.798 139.109 617.675 135.397 620.235 131.728C622.88 127.973 625.056 124.261 626.763 120.592C627.36 119.397 627.659 118.331 627.659 117.392C627.659 116.453 627.36 115.771 626.763 115.344C626.251 114.832 625.611 114.576 624.843 114.576C623.734 114.576 622.326 115.045 620.619 115.984C618.998 116.837 617.12 118.501 614.987 120.976C613.707 122.512 612.256 124.389 610.635 126.608C609.014 128.827 607.691 130.832 606.667 132.624C604.96 135.525 603.424 138.469 602.059 141.456C600.694 144.357 599.499 147.045 598.475 149.52C597.622 151.483 596.598 152.763 595.403 153.36C594.208 153.872 593.056 154.085 591.947 154C590.838 153.915 589.984 153.915 589.387 154C591.776 149.307 594.123 144.357 596.427 139.152C598.731 133.947 600.694 128.741 602.315 123.536C603.083 121.147 603.723 118.843 604.235 116.624C604.747 114.32 604.96 112.827 604.875 112.144V111.888C604.875 111.205 605.216 111.035 605.899 111.376C607.008 111.973 607.776 112.869 608.203 114.064C608.63 115.173 608.843 116.453 608.843 117.904C608.843 119.525 608.63 121.275 608.203 123.152C607.776 124.944 607.264 126.565 606.667 128.016C607.776 126.48 608.971 124.944 610.251 123.408C611.531 121.787 612.939 120.251 614.475 118.8C616.267 117.008 618.187 115.472 620.235 114.192C622.283 112.827 624.502 112.144 626.891 112.144C629.195 112.144 630.859 112.656 631.883 113.68C632.992 114.704 633.547 116.069 633.547 117.776C633.547 119.568 633.035 121.616 632.011 123.92C630.902 126.565 629.536 129.211 627.915 131.856C626.379 134.501 624.971 137.061 623.691 139.536C623.435 140.048 623.008 140.859 622.411 141.968C621.899 142.992 621.43 144.144 621.003 145.424C620.832 146.021 620.662 146.661 620.491 147.344C620.32 147.941 620.235 148.581 620.235 149.264C620.235 150.117 620.406 150.928 620.747 151.696C621.174 152.379 621.942 152.72 623.051 152.72C624.502 152.72 625.867 152.251 627.147 151.312C628.512 150.288 629.664 149.221 630.603 148.112C632.566 145.979 634.358 143.632 635.979 141.072C637.686 138.427 639.35 135.653 640.971 132.752C641.227 132.411 641.398 132.24 641.483 132.24C641.824 132.24 641.995 132.624 641.995 133.392C641.995 133.904 641.91 134.288 641.739 134.544C640.203 137.36 638.582 140.133 636.875 142.864C635.168 145.509 633.078 148.069 630.603 150.544C629.494 151.653 628.214 152.635 626.763 153.488C625.312 154.341 623.691 154.768 621.899 154.768ZM645.217 154.896C643.084 154.896 641.164 154.299 639.457 153.104C637.836 151.824 637.025 149.776 637.025 146.96C637.025 143.973 637.75 140.688 639.201 137.104C640.652 133.52 642.017 130.32 643.297 127.504C643.98 126.139 644.876 124.304 645.985 122C647.18 119.611 648.46 117.264 649.825 114.96H643.809C643.553 114.96 643.425 114.747 643.425 114.32C643.425 113.979 643.553 113.637 643.809 113.296C644.065 112.869 644.364 112.656 644.705 112.656C647.094 112.656 648.886 112.443 650.081 112.016C651.276 111.589 652.3 110.992 653.153 110.224C654.518 109.029 655.841 107.493 657.121 105.616C658.486 103.739 659.809 102.117 661.089 100.752C662.028 99.5573 663.18 98.6613 664.545 98.064C665.996 97.4667 666.934 97.2533 667.361 97.424C666.934 98.0213 666.252 99.0453 665.313 100.496C664.374 101.947 663.393 103.525 662.369 105.232C661.345 106.939 660.406 108.517 659.553 109.968C658.7 111.419 658.145 112.4 657.889 112.912H666.337C666.593 112.912 666.721 112.997 666.721 113.168C666.721 113.509 666.508 113.893 666.081 114.32C665.74 114.747 665.398 114.96 665.057 114.96H656.737C655.201 117.605 653.366 121.061 651.233 125.328C649.185 129.509 647.35 133.563 645.729 137.488C645.388 138.256 644.79 139.792 643.937 142.096C643.169 144.4 642.785 146.533 642.785 148.496C642.785 149.776 643.041 150.843 643.553 151.696C644.15 152.549 645.132 152.976 646.497 152.976C647.948 152.976 649.526 152.464 651.233 151.44C652.94 150.331 654.262 149.221 655.201 148.112C657.164 145.979 658.956 143.632 660.577 141.072C662.198 138.512 663.82 135.781 665.441 132.88C665.697 132.539 665.953 132.368 666.209 132.368C666.55 132.368 666.721 132.624 666.721 133.136C666.721 133.563 666.636 133.904 666.465 134.16C664.929 136.976 663.265 139.792 661.473 142.608C659.766 145.424 657.676 148.069 655.201 150.544C654.092 151.653 652.598 152.677 650.721 153.616C648.844 154.469 647.009 154.896 645.217 154.896ZM677.01 155.024C672.061 155.024 668.562 153.744 666.514 151.184C665.49 150.075 664.765 148.752 664.338 147.216C663.911 145.68 663.698 144.101 663.698 142.48C663.698 140.432 663.954 138.384 664.466 136.336C664.978 134.203 665.618 132.24 666.386 130.448C667.581 127.632 669.159 124.816 671.122 122C673.085 119.099 675.431 116.667 678.162 114.704C680.978 112.741 684.05 111.76 687.378 111.76C689.597 111.76 691.346 112.315 692.626 113.424C693.906 114.533 694.546 116.24 694.546 118.544C694.546 121.189 693.735 123.877 692.114 126.608C690.493 129.253 688.445 131.472 685.97 133.264C683.495 135.056 680.935 135.952 678.29 135.952C675.901 135.952 673.81 135.099 672.018 133.392C671.506 134.757 671.079 136.293 670.738 138C670.397 139.621 670.226 141.285 670.226 142.992C670.226 145.637 670.738 147.941 671.762 149.904C672.871 151.867 674.834 152.848 677.65 152.848C679.698 152.848 681.661 152.336 683.538 151.312C685.501 150.203 687.25 148.88 688.786 147.344C690.493 145.552 692.114 143.632 693.65 141.584C695.186 139.536 696.679 137.147 698.13 134.416C698.301 134.16 698.429 134.032 698.514 134.032C698.855 134.032 699.026 134.416 699.026 135.184C699.026 135.696 698.855 136.251 698.514 136.848C697.234 139.152 695.741 141.499 694.034 143.888C692.327 146.192 690.578 148.197 688.786 149.904C687.165 151.44 685.415 152.677 683.538 153.616C681.661 154.555 679.485 155.024 677.01 155.024ZM672.658 131.472C673.255 132.325 673.938 132.965 674.706 133.392C675.559 133.733 676.413 133.904 677.266 133.904C679.314 133.904 681.447 133.136 683.666 131.6C685.885 129.979 687.677 128.101 689.042 125.968C689.639 125.029 690.151 123.792 690.578 122.256C691.09 120.72 691.346 119.269 691.346 117.904C691.346 116.709 691.09 115.685 690.578 114.832C690.151 113.893 689.255 113.424 687.89 113.424C686.354 113.424 684.519 114.363 682.386 116.24C680.338 118.117 678.375 120.549 676.498 123.536C675.901 124.56 675.218 125.755 674.45 127.12C673.767 128.485 673.17 129.936 672.658 131.472ZM723.054 151.696C721.603 152.891 720.153 153.744 718.702 154.256C717.337 154.853 716.057 155.152 714.862 155.152C712.729 155.152 710.937 154.427 709.486 152.976C708.121 151.44 707.438 149.435 707.438 146.96C707.438 145.509 707.779 143.76 708.462 141.712C709.571 138.64 711.235 135.696 713.454 132.88C715.673 130.064 717.806 127.205 719.854 124.304C721.134 122.597 721.774 120.933 721.774 119.312C721.774 118.459 721.518 117.733 721.006 117.136C720.579 116.539 719.769 116.197 718.574 116.112C717.891 115.941 717.123 115.856 716.27 115.856C715.417 115.856 714.563 115.856 713.71 115.856H710.126C709.614 115.856 709.145 115.856 708.718 115.856C708.291 115.856 707.907 115.813 707.566 115.728C707.225 117.861 706.499 120.251 705.39 122.896C704.366 125.541 703.171 128.187 701.806 130.832C700.441 133.477 699.118 135.867 697.838 138C697.497 138.512 697.198 138.768 696.942 138.768C696.686 138.768 696.558 138.512 696.558 138C696.558 137.403 696.686 136.933 696.942 136.592C698.734 133.093 700.441 129.68 702.062 126.352C703.769 122.939 704.921 119.397 705.518 115.728C703.555 114.619 702.233 112.699 701.55 109.968C701.465 109.541 701.379 109.157 701.294 108.816C701.294 108.389 701.294 108.005 701.294 107.664C701.294 106.128 701.593 104.848 702.19 103.824C702.873 102.715 703.641 102.16 704.494 102.16C705.689 102.16 706.67 103.312 707.438 105.616C707.609 106.213 707.737 106.896 707.822 107.664C707.907 108.347 707.95 109.029 707.95 109.712C707.95 110.48 707.907 111.205 707.822 111.888C707.822 112.485 707.779 112.997 707.694 113.424C708.291 113.595 709.059 113.723 709.998 113.808C711.022 113.893 712.131 113.936 713.326 113.936C715.118 113.936 716.995 113.893 718.958 113.808C720.921 113.637 722.585 113.552 723.95 113.552C725.571 113.552 726.681 113.893 727.278 114.576C727.875 115.259 728.174 116.112 728.174 117.136C728.174 118.416 727.833 119.824 727.15 121.36C726.553 122.811 725.955 124.048 725.358 125.072C724.249 127.12 723.182 128.955 722.158 130.576C721.219 132.112 720.153 133.776 718.958 135.568C717.166 138.299 715.843 140.816 714.99 143.12C714.222 145.339 713.838 147.216 713.838 148.752C713.838 151.397 714.819 152.72 716.782 152.72C718.403 152.72 720.494 151.568 723.054 149.264C724.675 147.813 726.169 146.107 727.534 144.144C728.985 142.096 730.265 140.048 731.374 138C732.569 135.867 733.55 134.117 734.318 132.752C734.489 132.496 734.659 132.368 734.83 132.368C735.171 132.368 735.342 132.709 735.342 133.392C735.342 133.904 735.214 134.373 734.958 134.8C733.507 137.445 731.843 140.347 729.966 143.504C728.089 146.661 725.785 149.392 723.054 151.696Z" fill="#B87F0D"/>
<g clip-path="url(#clip0_96_344)">
<path d="M831.008 110.872C847.923 106.269 866.18 101.867 883.316 108.242C883.39 109.466 883.757 111.019 883.132 112.042C882.691 112.791 869.857 119.824 867.78 120.719C852.262 127.405 834.703 129.03 818.542 123.897L795.155 146.476C816.446 140.977 837.425 138.164 858.495 146.585C858.568 147.773 858.955 149.326 858.311 150.385C857.612 151.572 839.355 161.053 836.487 162.222C821.852 168.141 804.753 171.338 788.959 169.767C783.057 169.182 773.754 164.689 768.624 165.931C764.285 166.99 737.258 189.167 734.481 186.208L734.72 180.965L755.258 168.89C750.349 148.485 746.782 125.724 748.216 104.661C748.565 99.51 753.401 68.4004 758.622 68.4369C766.712 87.5265 770.279 112.626 768.955 133.469C768.33 143.352 765.186 153.162 764.138 162.935L796.442 137.433C784.105 119.02 781.917 98.3592 789.97 77.662C796.405 61.1117 799.071 62.0068 804.863 78.6485C810.471 94.7787 809.643 108.37 807.18 124.902C806.904 126.71 804.606 127.624 808.246 127.313L833.545 100.387C842.131 75.8353 849.265 47.3745 871.696 31.5C879.308 43.0816 874.16 63.9797 868.037 75.7622C858.513 94.0663 843.106 96.1488 831.008 110.872ZM842.039 93.0798C862.319 85.3892 871.604 61.5866 869.6 41.0357C860.242 43.173 839.576 90.5407 842.039 93.0798ZM800.653 131.442C804.569 113.028 807.805 92.0569 797.214 75.3055C787.415 91.7098 786.348 117.631 800.653 131.442ZM759.303 80.7493C755.736 80.3656 757.115 80.7493 756.508 82.7587C752.224 96.916 752.536 119.915 753.971 134.693C754.228 137.287 757.372 158.861 758.622 158.861C766.473 133.469 763.881 106.47 759.303 80.7493ZM875.116 110.909C862.944 107.438 848.897 110.763 837.186 114.983C833.931 116.152 828.728 117.412 826.871 120.463C840.385 123.915 855.59 121.413 868.203 115.659C870.133 114.782 874.417 112.955 875.116 110.909ZM777.247 161.565C801.719 170.004 829.096 163.611 850.295 149.928C850.423 145.8 821.484 146.33 818.082 146.677C814.46 147.042 774.25 157.765 777.247 161.565Z" fill="#B87F0D"/>
</g>
<defs>
<clipPath id="clip0_96_344">
<rect width="149" height="155" fill="white" transform="translate(734.5 31.5)"/>
</clipPath>
</defs>
</svg>
