<svg width="125" height="48" viewBox="0 0 125 48" fill="none" xmlns="http://www.w3.org/2000/svg">
<path opacity="0.1" d="M31.6901 38.512C31.4341 38.544 31.1621 38.56 30.8741 38.56C30.6181 38.56 30.3621 38.56 30.1061 38.56C28.3781 38.56 26.5701 38.384 24.6821 38.032C22.7941 37.712 20.9221 37.28 19.0661 36.736C17.2421 36.192 15.5301 35.6 13.9301 34.96L9.89813 33.328C9.57813 33.488 9.25813 33.632 8.93813 33.76C8.65013 33.888 8.33013 34.016 7.97813 34.144C6.92213 34.496 5.69013 34.672 4.28213 34.672C3.77013 34.672 3.27413 34.624 2.79413 34.528C2.31413 34.464 1.91413 34.352 1.59413 34.192C1.24213 34 0.954125 33.728 0.730125 33.376C0.538125 32.992 0.442125 32.624 0.442125 32.272C0.442125 31.92 0.538125 31.632 0.730125 31.408C0.858125 31.28 0.986125 31.216 1.11413 31.216C1.24213 31.184 1.27413 31.248 1.21013 31.408C1.11413 31.92 1.32213 32.384 1.83413 32.8C2.37813 33.184 2.87413 33.44 3.32213 33.568C3.73813 33.696 4.25013 33.76 4.85813 33.76C5.75413 33.76 6.60213 33.6 7.40213 33.28L8.50613 32.8C7.77013 32.48 7.01813 32.192 6.25013 31.936C5.48213 31.648 4.77813 31.392 4.13813 31.168C3.65813 31.008 3.03413 30.848 2.26613 30.688C1.53013 30.496 0.938125 30.448 0.490125 30.544H0.442125C0.346125 30.544 0.282125 30.496 0.250125 30.4C0.218125 30.304 0.266125 30.208 0.394125 30.112C0.554125 29.984 0.874125 29.92 1.35413 29.92C1.86613 29.92 2.42613 30 3.03413 30.16C3.64213 30.288 4.09013 30.384 4.37813 30.448L9.75413 31.936C10.5221 31.296 11.2741 30.544 12.0101 29.68C12.7461 28.816 13.4341 27.888 14.0741 26.896C15.2261 25.136 16.3461 23.12 17.4341 20.848C18.5541 18.544 19.7061 16.208 20.8901 13.84C22.1061 11.44 23.4341 9.264 24.8741 7.312C25.6101 6.288 26.4741 5.28 27.4661 4.288C28.4581 3.296 29.5461 2.496 30.7301 1.888C31.4341 1.536 32.1541 1.248 32.8901 1.024C33.6261 0.799999 34.3941 0.688 35.1941 0.688C36.8581 0.688 38.1221 1.12 38.9861 1.984C39.8501 2.848 40.2821 3.936 40.2821 5.248C40.2821 5.568 40.2501 5.904 40.1861 6.256C40.1541 6.608 40.0741 6.96 39.9461 7.312C39.4661 8.88 38.5861 10.224 37.3061 11.344C36.0261 12.432 34.6181 13.248 33.0821 13.792C32.8901 13.856 32.7781 13.888 32.7461 13.888C32.5861 13.888 32.5061 13.824 32.5061 13.696C32.5061 13.504 32.6341 13.36 32.8901 13.264C34.3301 12.72 35.6261 11.872 36.7781 10.72C37.9621 9.568 38.6981 8.208 38.9861 6.64C39.0181 6.448 39.0341 6.272 39.0341 6.112C39.0661 5.92 39.0821 5.76 39.0821 5.632C39.0821 4.32 38.6181 3.36 37.6901 2.752C36.7941 2.112 35.7541 1.792 34.5701 1.792C33.3541 1.792 32.2341 2.08 31.2101 2.656C30.0901 3.296 28.9861 4.368 27.8981 5.872C26.8421 7.344 25.8021 9.056 24.7781 11.008C23.7861 12.928 22.8101 14.912 21.8501 16.96C20.9221 18.976 20.0101 20.88 19.1141 22.672C18.2501 24.464 17.4021 25.952 16.5701 27.136C15.8661 28.16 15.0821 29.12 14.2181 30.016C13.3541 30.912 12.4261 31.712 11.4341 32.416L14.4581 33.28C16.6981 33.92 19.1301 34.528 21.7541 35.104C24.3781 35.712 26.8741 36.016 29.2421 36.016C30.3301 36.016 31.3701 35.936 32.3621 35.776C33.3541 35.616 34.2501 35.344 35.0501 34.96C36.3621 34.352 37.4181 33.52 38.2181 32.464C39.0181 31.408 39.4181 30.288 39.4181 29.104C39.4181 28.272 39.1941 27.456 38.7461 26.656C38.3301 25.856 37.6581 25.104 36.7301 24.4C36.2181 24.016 35.6901 23.68 35.1461 23.392C34.6021 23.072 34.1061 22.832 33.6581 22.672C33.4341 22.576 33.3221 22.48 33.3221 22.384C33.3221 22.32 33.3701 22.272 33.4661 22.24C33.5941 22.208 33.6741 22.192 33.7061 22.192C34.7941 22.448 35.8821 22.944 36.9701 23.68C38.6341 24.864 39.7541 26.24 40.3301 27.808C40.6501 28.64 40.8101 29.504 40.8101 30.4C40.8101 31.68 40.4901 32.896 39.8501 34.048C39.2101 35.2 38.3301 36.128 37.2101 36.832C35.6101 37.792 33.7701 38.352 31.6901 38.512ZM53.3385 34.336C52.3145 34.336 51.6105 34.016 51.2265 33.376C50.8425 32.704 50.6505 31.968 50.6505 31.168C50.6505 31.008 50.6665 30.736 50.6985 30.352C50.7625 29.936 50.8265 29.552 50.8905 29.2C50.4425 29.808 49.8985 30.48 49.2585 31.216C48.6505 31.952 48.0265 32.576 47.3865 33.088C46.3625 33.92 45.4345 34.336 44.6025 34.336C43.8025 34.336 43.1785 34 42.7305 33.328C42.3145 32.656 42.1065 31.808 42.1065 30.784C42.1065 29.472 42.3945 28.144 42.9705 26.8C43.5465 25.456 44.2985 24.192 45.2265 23.008C46.1865 21.792 47.2425 20.752 48.3945 19.888C49.0665 19.408 49.8825 19.024 50.8425 18.736C51.8345 18.416 52.8265 18.256 53.8185 18.256C54.9385 18.256 55.9145 18.432 56.7465 18.784C57.6105 19.104 58.2025 19.568 58.5225 20.176C57.8505 21.04 57.1625 22.112 56.4585 23.392C55.7545 24.64 55.1465 25.776 54.6345 26.8C54.2825 27.504 53.8985 28.384 53.4825 29.44C53.0665 30.464 52.8585 31.344 52.8585 32.08C52.8585 32.4 52.9385 32.72 53.0985 33.04C53.2585 33.36 53.5625 33.52 54.0105 33.52C54.5225 33.52 55.0185 33.328 55.4985 32.944C55.9785 32.56 56.3785 32.176 56.6985 31.792C57.4345 30.992 58.1065 30.112 58.7145 29.152C59.3225 28.192 59.9305 27.168 60.5385 26.08C60.6345 25.952 60.7305 25.888 60.8265 25.888C60.9545 25.888 61.0185 25.984 61.0185 26.176C61.0185 26.336 60.9865 26.464 60.9225 26.56C60.3785 27.616 59.7705 28.672 59.0985 29.728C58.4265 30.784 57.6265 31.776 56.6985 32.704C56.2505 33.152 55.7225 33.536 55.1145 33.856C54.5065 34.176 53.9145 34.336 53.3385 34.336ZM45.6585 32.848C46.2665 32.848 46.9225 32.528 47.6265 31.888C48.3625 31.216 49.0665 30.416 49.7385 29.488C50.4425 28.528 51.0665 27.616 51.6105 26.752C52.1865 25.856 52.6345 25.168 52.9545 24.688C53.6265 23.632 54.2505 22.752 54.8265 22.048C55.4025 21.344 56.2985 20.8 57.5145 20.416C57.5785 20.416 57.6265 20.416 57.6585 20.416C57.7225 20.384 57.7865 20.368 57.8505 20.368C57.5625 19.92 57.0825 19.584 56.4105 19.36C55.7385 19.136 55.0825 19.024 54.4425 19.024C53.4505 19.024 52.4905 19.296 51.5625 19.84C50.6345 20.384 49.7865 21.072 49.0185 21.904C48.2825 22.768 47.5625 23.712 46.8585 24.736C46.1545 25.76 45.5785 26.8 45.1305 27.856C44.7145 28.912 44.5065 29.92 44.5065 30.88C44.5065 31.392 44.5865 31.856 44.7465 32.272C44.9385 32.656 45.2425 32.848 45.6585 32.848ZM71.3588 34.336C70.4628 34.336 69.6788 34 69.0068 33.328C68.3668 32.656 68.0468 31.68 68.0468 30.4C68.0468 29.92 68.0948 29.424 68.1908 28.912C67.8708 29.52 67.4388 30.176 66.8948 30.88C66.3508 31.552 65.8068 32.16 65.2628 32.704C64.7508 33.216 64.1428 33.632 63.4388 33.952C62.7668 34.24 62.0948 34.352 61.4228 34.288C60.5268 34.192 59.8868 33.872 59.5028 33.328C59.1508 32.784 58.9748 32.112 58.9748 31.312C58.9748 30.256 59.1828 29.104 59.5988 27.856C60.0468 26.608 60.5588 25.424 61.1348 24.304C61.7108 23.152 62.1748 22.256 62.5268 21.616C63.2308 20.432 63.9348 19.696 64.6388 19.408C65.3748 19.12 66.2708 18.976 67.3268 18.976C67.0068 19.072 66.5908 19.456 66.0788 20.128C65.5668 20.768 65.0228 21.568 64.4468 22.528C63.9028 23.488 63.3748 24.528 62.8628 25.648C62.3828 26.736 61.9828 27.808 61.6628 28.864C61.3748 29.888 61.2308 30.768 61.2308 31.504C61.2308 32.048 61.3268 32.496 61.5188 32.848C61.7428 33.2 62.0788 33.376 62.5268 33.376C62.9108 33.376 63.3588 33.232 63.8708 32.944C64.3828 32.624 64.8468 32.24 65.2628 31.792C66.6708 30.224 67.8068 28.512 68.6708 26.656C69.5668 24.768 70.5588 22.896 71.6468 21.04C72.3508 19.856 73.0548 19.12 73.7588 18.832C74.4948 18.544 75.3908 18.4 76.4468 18.4C76.1588 18.496 75.7428 18.88 75.1988 19.552C74.6868 20.192 74.1268 21.008 73.5188 22C72.9428 22.992 72.3828 24.048 71.8388 25.168C71.3268 26.288 70.8948 27.36 70.5428 28.384C70.2228 29.408 70.0628 30.272 70.0628 30.976C70.0628 31.936 70.3188 32.576 70.8307 32.896C71.3428 33.184 71.8068 33.328 72.2228 33.328C73.0548 33.328 73.8388 33.056 74.5748 32.512C75.3428 31.968 76.0308 31.28 76.6388 30.448C77.2788 29.616 77.8228 28.768 78.2708 27.904C78.7508 27.008 79.1188 26.24 79.3748 25.6C79.2468 25.088 79.1828 24.176 79.1828 22.864C79.1828 22.064 79.2308 21.248 79.3268 20.416C79.4228 19.584 79.5828 18.864 79.8068 18.256C80.1268 17.456 80.6228 17.056 81.2948 17.056C81.5508 17.056 81.7748 17.184 81.9668 17.44C82.1908 17.696 82.3028 18.128 82.3028 18.736C82.3028 19.632 82.1588 20.56 81.8708 21.52C81.6148 22.448 81.4068 23.088 81.2468 23.44C81.1188 23.76 80.9588 24.16 80.7668 24.64C80.5748 25.088 80.3508 25.584 80.0948 26.128C80.0628 27.12 80.2228 27.936 80.5748 28.576C80.9588 29.184 81.4228 29.488 81.9668 29.488C82.5748 29.488 83.1028 29.312 83.5508 28.96C84.0308 28.576 84.4308 28.128 84.7508 27.616C85.1028 27.072 85.3908 26.576 85.6148 26.128C85.7108 25.936 85.8388 25.84 85.9988 25.84C86.1268 25.84 86.1908 25.92 86.1908 26.08C86.1908 26.176 86.1428 26.32 86.0468 26.512C85.6628 27.376 85.1188 28.192 84.4148 28.96C83.7108 29.728 82.8468 30.112 81.8228 30.112C81.3108 30.112 80.7988 29.904 80.2868 29.488C79.8068 29.072 79.5188 28.416 79.4228 27.52C78.8788 28.48 78.2228 29.488 77.4548 30.544C76.7188 31.6 75.8548 32.496 74.8628 33.232C73.8708 33.968 72.7028 34.336 71.3588 34.336ZM86.7398 34.288C85.8438 34.288 85.1878 34 84.7718 33.424C84.3558 32.816 84.1478 32.08 84.1478 31.216C84.1478 30.96 84.1638 30.704 84.1958 30.448C84.2598 30.16 84.3238 29.872 84.3878 29.584C84.7398 28.304 85.2838 26.88 86.0198 25.312C86.7878 23.712 87.5238 22.288 88.2278 21.04C88.6438 20.336 89.0278 19.84 89.3798 19.552C89.7318 19.232 90.1158 19.008 90.5318 18.88C90.9478 18.72 91.4438 18.544 92.0198 18.352C92.1798 18.288 92.3398 18.24 92.4998 18.208C92.6598 18.176 92.8358 18.144 93.0278 18.112C92.3878 18.752 91.7318 19.52 91.0598 20.416C90.4198 21.312 89.7158 22.544 88.9478 24.112C88.5318 24.944 88.1158 25.872 87.6998 26.896C87.3158 27.92 86.9798 28.88 86.6918 29.776C86.4038 30.672 86.2438 31.376 86.2118 31.888C86.1798 32.496 86.2598 32.928 86.4518 33.184C86.6438 33.44 86.8998 33.568 87.2198 33.568C87.7638 33.568 88.2758 33.376 88.7558 32.992C89.2678 32.608 89.7158 32.208 90.0998 31.792C90.8038 30.992 91.4598 30.112 92.0678 29.152C92.7078 28.192 93.3318 27.168 93.9398 26.08C94.0358 25.952 94.1158 25.888 94.1797 25.888C94.3078 25.888 94.3718 25.984 94.3718 26.176C94.3718 26.336 94.3398 26.464 94.2758 26.56C93.6998 27.616 93.0918 28.672 92.4518 29.728C91.8118 30.784 91.0278 31.776 90.0998 32.704C89.6838 33.12 89.1878 33.488 88.6118 33.808C88.0678 34.128 87.4438 34.288 86.7398 34.288ZM92.5958 15.424C92.2438 15.424 91.9398 15.296 91.6838 15.04C91.4598 14.784 91.3478 14.48 91.3478 14.128C91.3478 13.68 91.5238 13.28 91.8758 12.928C92.2598 12.576 92.6758 12.368 93.1238 12.304C93.4758 12.304 93.7638 12.432 93.9878 12.688C94.2438 12.912 94.3718 13.216 94.3718 13.6C94.3718 14.016 94.1958 14.432 93.8438 14.848C93.4918 15.232 93.0758 15.424 92.5958 15.424ZM95.5658 34.336C94.7658 34.336 94.0458 34.112 93.4058 33.664C92.7978 33.184 92.4938 32.416 92.4938 31.36C92.4938 30.24 92.7658 29.008 93.3098 27.664C93.8538 26.32 94.3658 25.12 94.8458 24.064C95.1018 23.552 95.4378 22.864 95.8538 22C96.3018 21.104 96.7818 20.224 97.2938 19.36H95.0378C94.9418 19.36 94.8938 19.28 94.8938 19.12C94.8938 18.992 94.9418 18.864 95.0378 18.736C95.1338 18.576 95.2458 18.496 95.3738 18.496C96.2698 18.496 96.9418 18.416 97.3898 18.256C97.8378 18.096 98.2218 17.872 98.5418 17.584C99.0538 17.136 99.5498 16.56 100.03 15.856C100.542 15.152 101.038 14.544 101.518 14.032C101.87 13.584 102.302 13.248 102.814 13.024C103.358 12.8 103.71 12.72 103.87 12.784C103.71 13.008 103.454 13.392 103.102 13.936C102.75 14.48 102.382 15.072 101.998 15.712C101.614 16.352 101.262 16.944 100.942 17.488C100.622 18.032 100.414 18.4 100.318 18.592H103.486C103.582 18.592 103.63 18.624 103.63 18.688C103.63 18.816 103.55 18.96 103.39 19.12C103.262 19.28 103.134 19.36 103.006 19.36H99.8858C99.3098 20.352 98.6218 21.648 97.8218 23.248C97.0538 24.816 96.3658 26.336 95.7578 27.808C95.6298 28.096 95.4058 28.672 95.0858 29.536C94.7978 30.4 94.6538 31.2 94.6538 31.936C94.6538 32.416 94.7498 32.816 94.9418 33.136C95.1658 33.456 95.5338 33.616 96.0458 33.616C96.5898 33.616 97.1818 33.424 97.8218 33.04C98.4618 32.624 98.9578 32.208 99.3098 31.792C100.046 30.992 100.718 30.112 101.326 29.152C101.934 28.192 102.542 27.168 103.15 26.08C103.246 25.952 103.342 25.888 103.438 25.888C103.566 25.888 103.63 25.984 103.63 26.176C103.63 26.336 103.598 26.464 103.534 26.56C102.958 27.616 102.334 28.672 101.662 29.728C101.022 30.784 100.238 31.776 99.3098 32.704C98.8938 33.12 98.3338 33.504 97.6298 33.856C96.9258 34.176 96.2378 34.336 95.5658 34.336ZM104.368 47.536C103.856 47.664 103.344 47.728 102.832 47.728C101.904 47.728 101.2 47.504 100.72 47.056C100.24 46.608 100 46.048 100 45.376C100 44.8 100.192 44.176 100.576 43.504C100.96 42.864 101.536 42.288 102.304 41.776C103.296 41.104 104.192 40.56 104.992 40.144C105.824 39.728 106.72 39.312 107.68 38.896C108.64 38.512 109.84 37.984 111.28 37.312C111.44 36.96 111.616 36.544 111.808 36.064C112 35.584 112.32 34.784 112.768 33.664C113.216 32.544 113.872 30.88 114.736 28.672C114.032 29.536 113.328 30.336 112.624 31.072C111.92 31.808 111.344 32.384 110.896 32.8C110.256 33.28 109.632 33.664 109.024 33.952C108.448 34.208 107.872 34.336 107.296 34.336C106.528 34.336 105.984 34.112 105.664 33.664C105.376 33.216 105.232 32.688 105.232 32.08C105.232 31.568 105.296 31.04 105.424 30.496C105.584 29.952 105.76 29.44 105.952 28.96C106.4 27.84 106.88 26.784 107.392 25.792C107.936 24.768 108.464 23.712 108.976 22.624C109.104 22.368 109.28 21.952 109.504 21.376C109.76 20.8 109.888 20.272 109.888 19.792C109.888 19.248 109.648 18.976 109.168 18.976C108.72 18.976 108.256 19.2 107.776 19.648C107.328 20.064 106.928 20.544 106.576 21.088C106.224 21.632 105.952 22.064 105.76 22.384C105.76 22.384 105.6 22.688 105.28 23.296C104.992 23.904 104.608 24.656 104.128 25.552C103.68 26.416 103.216 27.232 102.736 28C102.64 28.16 102.512 28.24 102.352 28.24C102.224 28.24 102.16 28.176 102.16 28.048C102.16 27.984 102.24 27.792 102.4 27.472C103.104 26.224 103.648 25.184 104.032 24.352C104.448 23.52 104.912 22.656 105.424 21.76C105.936 20.832 106.528 19.952 107.2 19.12C107.648 18.64 108.128 18.288 108.64 18.064C109.184 17.808 109.712 17.68 110.224 17.68C111.12 17.68 111.728 17.888 112.048 18.304C112.4 18.688 112.576 19.168 112.576 19.744C112.576 20.352 112.448 20.976 112.192 21.616C111.936 22.256 111.68 22.816 111.424 23.296C110.624 24.704 109.968 25.936 109.456 26.992C108.944 28.016 108.496 29.008 108.112 29.968C107.824 30.672 107.68 31.248 107.68 31.696C107.68 32.528 108.032 32.944 108.736 32.944C109.312 32.944 109.904 32.688 110.512 32.176C112.208 30.8 113.584 29.184 114.64 27.328C115.696 25.472 116.704 23.536 117.664 21.52C117.984 20.88 118.384 20.192 118.864 19.456C119.344 18.688 119.936 18.048 120.64 17.536C121.344 16.992 122.16 16.752 123.088 16.816C122.64 17.232 122.096 18 121.456 19.12C120.848 20.24 120.192 21.552 119.488 23.056C118.816 24.56 118.144 26.128 117.472 27.76C116.8 29.392 116.16 30.96 115.552 32.464C114.976 33.936 114.48 35.184 114.064 36.208C114.928 35.856 115.936 35.312 117.088 34.576C118.272 33.872 119.376 32.944 120.4 31.792C121.136 31.024 121.792 30.16 122.368 29.2C122.976 28.208 123.584 27.168 124.192 26.08C124.288 25.952 124.384 25.888 124.48 25.888C124.608 25.888 124.672 25.984 124.672 26.176C124.672 26.336 124.64 26.464 124.576 26.56C124 27.616 123.392 28.672 122.752 29.728C122.112 30.784 121.328 31.776 120.4 32.704C119.248 33.792 118.08 34.72 116.896 35.488C115.744 36.288 114.656 36.864 113.632 37.216C112.864 38.944 112.048 40.528 111.184 41.968C110.352 43.408 109.392 44.608 108.304 45.568C107.216 46.528 105.904 47.184 104.368 47.536ZM104.08 46.576C105.232 46.224 106.224 45.6 107.056 44.704C107.888 43.84 108.608 42.832 109.216 41.68C109.856 40.528 110.4 39.376 110.848 38.224C109.824 38.768 108.544 39.328 107.008 39.904C105.472 40.512 104.016 41.328 102.64 42.352C102.032 42.832 101.568 43.328 101.248 43.84C100.928 44.352 100.768 44.832 100.768 45.28C100.768 45.728 100.928 46.096 101.248 46.384C101.568 46.672 102.032 46.816 102.64 46.816C102.832 46.816 103.04 46.8 103.264 46.768C103.52 46.736 103.792 46.672 104.08 46.576Z" fill="white"/>
</svg>
