<svg width="1003" height="365" viewBox="0 0 1003 365" fill="none" xmlns="http://www.w3.org/2000/svg">
<path opacity="0.1" d="M263.084 315.6C260.951 315.867 258.684 316 256.284 316C254.151 316 252.018 316 249.884 316C235.484 316 220.418 314.533 204.684 311.6C188.951 308.933 173.351 305.333 157.884 300.8C142.684 296.267 128.418 291.333 115.084 286L81.4844 272.4C78.8177 273.733 76.151 274.933 73.4844 276C71.0844 277.067 68.4177 278.133 65.4844 279.2C56.6844 282.133 46.4177 283.6 34.6844 283.6C30.4177 283.6 26.2844 283.2 22.2844 282.4C18.2844 281.867 14.951 280.933 12.2844 279.6C9.35104 278 6.95104 275.733 5.08438 272.8C3.48438 269.6 2.68438 266.533 2.68438 263.6C2.68438 260.667 3.48438 258.267 5.08438 256.4C6.15104 255.333 7.21771 254.8 8.28438 254.8C9.35104 254.533 9.61771 255.067 9.08438 256.4C8.28438 260.667 10.0177 264.533 14.2844 268C18.8177 271.2 22.951 273.333 26.6844 274.4C30.151 275.467 34.4177 276 39.4844 276C46.951 276 54.0177 274.667 60.6844 272L69.8844 268C63.751 265.333 57.4844 262.933 51.0844 260.8C44.6844 258.4 38.8177 256.267 33.4844 254.4C29.4844 253.067 24.2844 251.733 17.8844 250.4C11.751 248.8 6.81771 248.4 3.08438 249.2H2.68438C1.88438 249.2 1.35104 248.8 1.08438 248C0.817708 247.2 1.21771 246.4 2.28438 245.6C3.61771 244.533 6.28438 244 10.2844 244C14.551 244 19.2177 244.667 24.2844 246C29.351 247.067 33.0844 247.867 35.4844 248.4L80.2844 260.8C86.6844 255.467 92.951 249.2 99.0844 242C105.218 234.8 110.951 227.067 116.284 218.8C125.884 204.133 135.218 187.333 144.284 168.4C153.618 149.2 163.218 129.733 173.084 110C183.218 90 194.284 71.8667 206.284 55.6C212.418 47.0667 219.618 38.6667 227.884 30.4C236.151 22.1333 245.218 15.4667 255.084 10.4C260.951 7.46666 266.951 5.06666 273.084 3.19999C279.218 1.33333 285.618 0.399998 292.284 0.399998C306.151 0.399998 316.684 3.99999 323.884 11.2C331.084 18.4 334.684 27.4666 334.684 38.4C334.684 41.0666 334.418 43.8667 333.884 46.8C333.618 49.7333 332.951 52.6667 331.884 55.6C327.884 68.6667 320.551 79.8667 309.884 89.2C299.218 98.2667 287.484 105.067 274.684 109.6C273.084 110.133 272.151 110.4 271.884 110.4C270.551 110.4 269.884 109.867 269.884 108.8C269.884 107.2 270.951 106 273.084 105.2C285.084 100.667 295.884 93.6 305.484 84C315.351 74.4 321.484 63.0667 323.884 50C324.151 48.4 324.284 46.9333 324.284 45.6C324.551 44 324.684 42.6667 324.684 41.6C324.684 30.6667 320.818 22.6667 313.084 17.6C305.618 12.2667 296.951 9.6 287.084 9.6C276.951 9.6 267.618 12 259.084 16.8C249.751 22.1333 240.551 31.0667 231.484 43.6C222.684 55.8667 214.018 70.1333 205.484 86.4C197.218 102.4 189.084 118.933 181.084 136C173.351 152.8 165.751 168.667 158.284 183.6C151.084 198.533 144.018 210.933 137.084 220.8C131.218 229.333 124.684 237.333 117.484 244.8C110.284 252.267 102.551 258.933 94.2844 264.8L119.484 272C138.151 277.333 158.418 282.4 180.284 287.2C202.151 292.267 222.951 294.8 242.684 294.8C251.751 294.8 260.418 294.133 268.684 292.8C276.951 291.467 284.418 289.2 291.084 286C302.018 280.933 310.818 274 317.484 265.2C324.151 256.4 327.484 247.067 327.484 237.2C327.484 230.267 325.618 223.467 321.884 216.8C318.418 210.133 312.818 203.867 305.084 198C300.818 194.8 296.418 192 291.884 189.6C287.351 186.933 283.218 184.933 279.484 183.6C277.618 182.8 276.684 182 276.684 181.2C276.684 180.667 277.084 180.267 277.884 180C278.951 179.733 279.618 179.6 279.884 179.6C288.951 181.733 298.018 185.867 307.084 192C320.951 201.867 330.284 213.333 335.084 226.4C337.751 233.333 339.084 240.533 339.084 248C339.084 258.667 336.418 268.8 331.084 278.4C325.751 288 318.418 295.733 309.084 301.6C295.751 309.6 280.418 314.267 263.084 315.6ZM443.488 280.8C434.954 280.8 429.088 278.133 425.888 272.8C422.688 267.2 421.088 261.067 421.088 254.4C421.088 253.067 421.221 250.8 421.488 247.6C422.021 244.133 422.554 240.933 423.088 238C419.354 243.067 414.821 248.667 409.488 254.8C404.421 260.933 399.221 266.133 393.888 270.4C385.354 277.333 377.621 280.8 370.688 280.8C364.021 280.8 358.821 278 355.087 272.4C351.621 266.8 349.888 259.733 349.888 251.2C349.888 240.267 352.288 229.2 357.088 218C361.888 206.8 368.154 196.267 375.888 186.4C383.888 176.267 392.688 167.6 402.288 160.4C407.888 156.4 414.688 153.2 422.688 150.8C430.954 148.133 439.221 146.8 447.488 146.8C456.821 146.8 464.954 148.267 471.888 151.2C479.088 153.867 484.021 157.733 486.688 162.8C481.088 170 475.354 178.933 469.488 189.6C463.621 200 458.554 209.467 454.288 218C451.354 223.867 448.154 231.2 444.688 240C441.221 248.533 439.488 255.867 439.488 262C439.488 264.667 440.154 267.333 441.488 270C442.821 272.667 445.354 274 449.088 274C453.354 274 457.488 272.4 461.488 269.2C465.488 266 468.821 262.8 471.488 259.6C477.621 252.933 483.221 245.6 488.288 237.6C493.354 229.6 498.421 221.067 503.488 212C504.288 210.933 505.088 210.4 505.888 210.4C506.954 210.4 507.488 211.2 507.488 212.8C507.488 214.133 507.221 215.2 506.688 216C502.154 224.8 497.088 233.6 491.488 242.4C485.888 251.2 479.221 259.467 471.488 267.2C467.754 270.933 463.354 274.133 458.288 276.8C453.221 279.467 448.288 280.8 443.488 280.8ZM379.488 268.4C384.554 268.4 390.021 265.733 395.888 260.4C402.021 254.8 407.888 248.133 413.488 240.4C419.354 232.4 424.554 224.8 429.088 217.6C433.888 210.133 437.621 204.4 440.288 200.4C445.888 191.6 451.088 184.267 455.888 178.4C460.688 172.533 468.154 168 478.288 164.8C478.821 164.8 479.221 164.8 479.488 164.8C480.021 164.533 480.554 164.4 481.088 164.4C478.688 160.667 474.688 157.867 469.088 156C463.488 154.133 458.021 153.2 452.688 153.2C444.421 153.2 436.421 155.467 428.688 160C420.954 164.533 413.888 170.267 407.488 177.2C401.354 184.4 395.354 192.267 389.488 200.8C383.621 209.333 378.821 218 375.088 226.8C371.621 235.6 369.888 244 369.888 252C369.888 256.267 370.554 260.133 371.888 263.6C373.488 266.8 376.021 268.4 379.488 268.4ZM593.656 280.8C586.19 280.8 579.656 278 574.056 272.4C568.723 266.8 566.056 258.667 566.056 248C566.056 244 566.456 239.867 567.256 235.6C564.59 240.667 560.99 246.133 556.456 252C551.923 257.6 547.39 262.667 542.856 267.2C538.59 271.467 533.523 274.933 527.656 277.6C522.056 280 516.456 280.933 510.856 280.4C503.39 279.6 498.056 276.933 494.856 272.4C491.923 267.867 490.456 262.267 490.456 255.6C490.456 246.8 492.19 237.2 495.656 226.8C499.39 216.4 503.656 206.533 508.456 197.2C513.256 187.6 517.123 180.133 520.056 174.8C525.923 164.933 531.79 158.8 537.656 156.4C543.79 154 551.256 152.8 560.056 152.8C557.39 153.6 553.923 156.8 549.656 162.4C545.39 167.733 540.856 174.4 536.056 182.4C531.523 190.4 527.123 199.067 522.856 208.4C518.856 217.467 515.523 226.4 512.856 235.2C510.456 243.733 509.256 251.067 509.256 257.2C509.256 261.733 510.056 265.467 511.656 268.4C513.523 271.333 516.323 272.8 520.056 272.8C523.256 272.8 526.99 271.6 531.256 269.2C535.523 266.533 539.39 263.333 542.856 259.6C554.59 246.533 564.056 232.267 571.256 216.8C578.723 201.067 586.99 185.467 596.056 170C601.923 160.133 607.79 154 613.656 151.6C619.79 149.2 627.256 148 636.056 148C633.656 148.8 630.19 152 625.656 157.6C621.39 162.933 616.723 169.733 611.656 178C606.856 186.267 602.19 195.067 597.656 204.4C593.39 213.733 589.79 222.667 586.856 231.2C584.19 239.733 582.856 246.933 582.856 252.8C582.856 260.8 584.99 266.133 589.256 268.8C593.523 271.2 597.39 272.4 600.856 272.4C607.79 272.4 614.323 270.133 620.456 265.6C626.856 261.067 632.59 255.333 637.656 248.4C642.99 241.467 647.523 234.4 651.256 227.2C655.256 219.733 658.323 213.333 660.456 208C659.39 203.733 658.856 196.133 658.856 185.2C658.856 178.533 659.256 171.733 660.056 164.8C660.856 157.867 662.19 151.867 664.056 146.8C666.723 140.133 670.856 136.8 676.456 136.8C678.59 136.8 680.456 137.867 682.056 140C683.923 142.133 684.856 145.733 684.856 150.8C684.856 158.267 683.656 166 681.256 174C679.123 181.733 677.39 187.067 676.056 190C674.99 192.667 673.656 196 672.056 200C670.456 203.733 668.59 207.867 666.456 212.4C666.19 220.667 667.523 227.467 670.456 232.8C673.656 237.867 677.523 240.4 682.056 240.4C687.123 240.4 691.523 238.933 695.256 236C699.256 232.8 702.59 229.067 705.256 224.8C708.19 220.267 710.59 216.133 712.456 212.4C713.256 210.8 714.323 210 715.656 210C716.723 210 717.256 210.667 717.256 212C717.256 212.8 716.856 214 716.056 215.6C712.856 222.8 708.323 229.6 702.456 236C696.59 242.4 689.39 245.6 680.856 245.6C676.59 245.6 672.323 243.867 668.056 240.4C664.056 236.933 661.656 231.467 660.856 224C656.323 232 650.856 240.4 644.456 249.2C638.323 258 631.123 265.467 622.856 271.6C614.59 277.733 604.856 280.8 593.656 280.8ZM721.831 280.4C714.365 280.4 708.898 278 705.431 273.2C701.965 268.133 700.231 262 700.231 254.8C700.231 252.667 700.365 250.533 700.631 248.4C701.165 246 701.698 243.6 702.231 241.2C705.165 230.533 709.698 218.667 715.831 205.6C722.231 192.267 728.365 180.4 734.231 170C737.698 164.133 740.898 160 743.831 157.6C746.765 154.933 749.965 153.067 753.431 152C756.898 150.667 761.031 149.2 765.831 147.6C767.165 147.067 768.498 146.667 769.831 146.4C771.165 146.133 772.631 145.867 774.231 145.6C768.898 150.933 763.431 157.333 757.831 164.8C752.498 172.267 746.631 182.533 740.231 195.6C736.765 202.533 733.298 210.267 729.831 218.8C726.631 227.333 723.831 235.333 721.431 242.8C719.031 250.267 717.698 256.133 717.431 260.4C717.165 265.467 717.831 269.067 719.431 271.2C721.031 273.333 723.165 274.4 725.831 274.4C730.365 274.4 734.631 272.8 738.631 269.6C742.898 266.4 746.631 263.067 749.831 259.6C755.698 252.933 761.165 245.6 766.231 237.6C771.565 229.6 776.765 221.067 781.831 212C782.631 210.933 783.298 210.4 783.831 210.4C784.898 210.4 785.431 211.2 785.431 212.8C785.431 214.133 785.165 215.2 784.631 216C779.831 224.8 774.765 233.6 769.431 242.4C764.098 251.2 757.565 259.467 749.831 267.2C746.365 270.667 742.231 273.733 737.431 276.4C732.898 279.067 727.698 280.4 721.831 280.4ZM770.631 123.2C767.698 123.2 765.165 122.133 763.031 120C761.165 117.867 760.231 115.333 760.231 112.4C760.231 108.667 761.698 105.333 764.631 102.4C767.831 99.4667 771.298 97.7333 775.031 97.2C777.965 97.2 780.365 98.2667 782.231 100.4C784.365 102.267 785.431 104.8 785.431 108C785.431 111.467 783.965 114.933 781.031 118.4C778.098 121.6 774.631 123.2 770.631 123.2ZM795.381 280.8C788.715 280.8 782.715 278.933 777.381 275.2C772.315 271.2 769.781 264.8 769.781 256C769.781 246.667 772.048 236.4 776.581 225.2C781.115 214 785.381 204 789.381 195.2C791.515 190.933 794.315 185.2 797.781 178C801.515 170.533 805.515 163.2 809.781 156H790.981C790.181 156 789.781 155.333 789.781 154C789.781 152.933 790.181 151.867 790.981 150.8C791.781 149.467 792.715 148.8 793.781 148.8C801.248 148.8 806.848 148.133 810.581 146.8C814.315 145.467 817.515 143.6 820.181 141.2C824.448 137.467 828.581 132.667 832.581 126.8C836.848 120.933 840.981 115.867 844.981 111.6C847.915 107.867 851.515 105.067 855.781 103.2C860.315 101.333 863.248 100.667 864.581 101.2C863.248 103.067 861.115 106.267 858.181 110.8C855.248 115.333 852.181 120.267 848.981 125.6C845.781 130.933 842.848 135.867 840.181 140.4C837.515 144.933 835.781 148 834.981 149.6H861.381C862.181 149.6 862.581 149.867 862.581 150.4C862.581 151.467 861.915 152.667 860.581 154C859.515 155.333 858.448 156 857.381 156H831.381C826.581 164.267 820.848 175.067 814.181 188.4C807.781 201.467 802.048 214.133 796.981 226.4C795.915 228.8 794.048 233.6 791.381 240.8C788.981 248 787.781 254.667 787.781 260.8C787.781 264.8 788.581 268.133 790.181 270.8C792.048 273.467 795.115 274.8 799.381 274.8C803.915 274.8 808.848 273.2 814.181 270C819.515 266.533 823.648 263.067 826.581 259.6C832.715 252.933 838.315 245.6 843.381 237.6C848.448 229.6 853.515 221.067 858.581 212C859.381 210.933 860.181 210.4 860.981 210.4C862.048 210.4 862.581 211.2 862.581 212.8C862.581 214.133 862.315 215.2 861.781 216C856.981 224.8 851.781 233.6 846.181 242.4C840.848 251.2 834.315 259.467 826.581 267.2C823.115 270.667 818.448 273.867 812.581 276.8C806.715 279.467 800.981 280.8 795.381 280.8ZM868.734 390.8C864.468 391.867 860.201 392.4 855.934 392.4C848.201 392.4 842.334 390.533 838.334 386.8C834.334 383.067 832.334 378.4 832.334 372.8C832.334 368 833.934 362.8 837.134 357.2C840.334 351.867 845.134 347.067 851.534 342.8C859.801 337.2 867.268 332.667 873.934 329.2C880.868 325.733 888.334 322.267 896.334 318.8C904.334 315.6 914.334 311.2 926.334 305.6C927.668 302.667 929.134 299.2 930.734 295.2C932.334 291.2 935.001 284.533 938.734 275.2C942.468 265.867 947.934 252 955.134 233.6C949.268 240.8 943.401 247.467 937.534 253.6C931.668 259.733 926.868 264.533 923.134 268C917.801 272 912.601 275.2 907.534 277.6C902.734 279.733 897.934 280.8 893.134 280.8C886.734 280.8 882.201 278.933 879.534 275.2C877.134 271.467 875.934 267.067 875.934 262C875.934 257.733 876.468 253.333 877.534 248.8C878.868 244.267 880.334 240 881.934 236C885.668 226.667 889.668 217.867 893.934 209.6C898.468 201.067 902.868 192.267 907.134 183.2C908.201 181.067 909.668 177.6 911.534 172.8C913.668 168 914.734 163.6 914.734 159.6C914.734 155.067 912.734 152.8 908.734 152.8C905.001 152.8 901.134 154.667 897.134 158.4C893.401 161.867 890.068 165.867 887.134 170.4C884.201 174.933 881.934 178.533 880.334 181.2C880.334 181.2 879.001 183.733 876.334 188.8C873.934 193.867 870.734 200.133 866.734 207.6C863.001 214.8 859.134 221.6 855.134 228C854.334 229.333 853.268 230 851.934 230C850.868 230 850.334 229.467 850.334 228.4C850.334 227.867 851.001 226.267 852.334 223.6C858.201 213.2 862.734 204.533 865.934 197.6C869.401 190.667 873.268 183.467 877.534 176C881.801 168.267 886.734 160.933 892.334 154C896.068 150 900.068 147.067 904.334 145.2C908.868 143.067 913.268 142 917.534 142C925.001 142 930.068 143.733 932.734 147.2C935.668 150.4 937.134 154.4 937.134 159.2C937.134 164.267 936.068 169.467 933.934 174.8C931.801 180.133 929.668 184.8 927.534 188.8C920.868 200.533 915.401 210.8 911.134 219.6C906.868 228.133 903.134 236.4 899.934 244.4C897.534 250.267 896.334 255.067 896.334 258.8C896.334 265.733 899.268 269.2 905.134 269.2C909.934 269.2 914.868 267.067 919.934 262.8C934.068 251.333 945.534 237.867 954.334 222.4C963.134 206.933 971.534 190.8 979.534 174C982.201 168.667 985.534 162.933 989.534 156.8C993.534 150.4 998.468 145.067 1004.33 140.8C1010.2 136.267 1017 134.267 1024.73 134.8C1021 138.267 1016.47 144.667 1011.13 154C1006.07 163.333 1000.6 174.267 994.734 186.8C989.134 199.333 983.534 212.4 977.934 226C972.334 239.6 967.001 252.667 961.934 265.2C957.134 277.467 953.001 287.867 949.534 296.4C956.734 293.467 965.134 288.933 974.734 282.8C984.601 276.933 993.801 269.2 1002.33 259.6C1008.47 253.2 1013.93 246 1018.73 238C1023.8 229.733 1028.87 221.067 1033.93 212C1034.73 210.933 1035.53 210.4 1036.33 210.4C1037.4 210.4 1037.93 211.2 1037.93 212.8C1037.93 214.133 1037.67 215.2 1037.13 216C1032.33 224.8 1027.27 233.6 1021.93 242.4C1016.6 251.2 1010.07 259.467 1002.33 267.2C992.734 276.267 983.001 284 973.134 290.4C963.534 297.067 954.468 301.867 945.934 304.8C939.534 319.2 932.734 332.4 925.534 344.4C918.601 356.4 910.601 366.4 901.534 374.4C892.468 382.4 881.534 387.867 868.734 390.8ZM866.334 382.8C875.934 379.867 884.201 374.667 891.134 367.2C898.068 360 904.068 351.6 909.134 342C914.468 332.4 919.001 322.8 922.734 313.2C914.201 317.733 903.534 322.4 890.734 327.2C877.934 332.267 865.801 339.067 854.334 347.6C849.268 351.6 845.401 355.733 842.734 360C840.068 364.267 838.734 368.267 838.734 372C838.734 375.733 840.068 378.8 842.734 381.2C845.401 383.6 849.268 384.8 854.334 384.8C855.934 384.8 857.668 384.667 859.534 384.4C861.668 384.133 863.934 383.6 866.334 382.8Z" fill="#B87F0D"/>
</svg>
