<svg width="884" height="219" viewBox="0 0 884 219" fill="none" xmlns="http://www.w3.org/2000/svg">
<g opacity="0.15">
<path d="M86.507 166.99C85.8243 167.076 85.099 167.118 84.331 167.118C83.6483 167.118 82.9657 167.118 82.283 167.118C77.675 167.118 72.8537 166.649 67.819 165.71C62.7843 164.857 57.7923 163.705 52.843 162.254C47.979 160.804 43.4137 159.225 39.147 157.518L28.395 153.166C27.5417 153.593 26.6883 153.977 25.835 154.318C25.067 154.66 24.2137 155.001 23.275 155.342C20.459 156.281 17.1737 156.75 13.419 156.75C12.0537 156.75 10.731 156.622 9.451 156.366C8.171 156.196 7.10433 155.897 6.251 155.47C5.31233 154.958 4.54433 154.233 3.947 153.294C3.435 152.27 3.179 151.289 3.179 150.35C3.179 149.412 3.435 148.644 3.947 148.046C4.28833 147.705 4.62967 147.534 4.971 147.534C5.31233 147.449 5.39767 147.62 5.227 148.046C4.971 149.412 5.52567 150.649 6.891 151.758C8.34167 152.782 9.66433 153.465 10.859 153.806C11.9683 154.148 13.3337 154.318 14.955 154.318C17.3443 154.318 19.6057 153.892 21.739 153.038L24.683 151.758C22.7203 150.905 20.715 150.137 18.667 149.454C16.619 148.686 14.7417 148.004 13.035 147.406C11.755 146.98 10.091 146.553 8.043 146.126C6.08033 145.614 4.50167 145.486 3.307 145.742H3.179C2.923 145.742 2.75233 145.614 2.667 145.358C2.58167 145.102 2.70967 144.846 3.051 144.59C3.47767 144.249 4.331 144.078 5.611 144.078C6.97633 144.078 8.46967 144.292 10.091 144.718C11.7123 145.06 12.907 145.316 13.675 145.486L28.011 149.454C30.059 147.748 32.0643 145.742 34.027 143.438C35.9897 141.134 37.8243 138.66 39.531 136.014C42.603 131.321 45.5897 125.945 48.491 119.886C51.4777 113.742 54.5497 107.513 57.707 101.198C60.9497 94.7985 64.491 88.9958 68.331 83.7905C70.2937 81.0598 72.5977 78.3718 75.243 75.7265C77.8883 73.0812 80.7897 70.9478 83.947 69.3265C85.8243 68.3878 87.7443 67.6198 89.707 67.0225C91.6697 66.4252 93.7177 66.1265 95.851 66.1265C100.288 66.1265 103.659 67.2785 105.963 69.5825C108.267 71.8865 109.419 74.7878 109.419 78.2865C109.419 79.1398 109.334 80.0358 109.163 80.9745C109.078 81.9132 108.864 82.8518 108.523 83.7905C107.243 87.9718 104.896 91.5558 101.483 94.5425C98.0697 97.4438 94.315 99.6198 90.219 101.07C89.707 101.241 89.4083 101.326 89.323 101.326C88.8963 101.326 88.683 101.156 88.683 100.814C88.683 100.302 89.0243 99.9185 89.707 99.6625C93.547 98.2118 97.003 95.9505 100.075 92.8785C103.232 89.8065 105.195 86.1798 105.963 81.9985C106.048 81.4865 106.091 81.0172 106.091 80.5905C106.176 80.0785 106.219 79.6518 106.219 79.3105C106.219 75.8118 104.982 73.2518 102.507 71.6305C100.118 69.9238 97.3443 69.0705 94.187 69.0705C90.9443 69.0705 87.9577 69.8385 85.227 71.3745C82.2403 73.0812 79.2963 75.9398 76.395 79.9505C73.579 83.8758 70.8057 88.4412 68.075 93.6465C65.4297 98.7665 62.827 104.057 60.267 109.518C57.7923 114.894 55.3603 119.972 52.971 124.75C50.667 129.529 48.4057 133.497 46.187 136.654C44.3097 139.385 42.219 141.945 39.915 144.334C37.611 146.724 35.1363 148.857 32.491 150.734L40.555 153.038C46.5283 154.745 53.0137 156.366 60.011 157.902C67.0083 159.524 73.6643 160.334 79.979 160.334C82.8803 160.334 85.6537 160.121 88.299 159.694C90.9443 159.268 93.3337 158.542 95.467 157.518C98.9657 155.897 101.782 153.678 103.915 150.862C106.048 148.046 107.115 145.06 107.115 141.902C107.115 139.684 106.518 137.508 105.323 135.374C104.214 133.241 102.422 131.236 99.947 129.358C98.5817 128.334 97.1737 127.438 95.723 126.67C94.2723 125.817 92.9497 125.177 91.755 124.75C91.1577 124.494 90.859 124.238 90.859 123.982C90.859 123.812 90.987 123.684 91.243 123.598C91.5843 123.513 91.7977 123.47 91.883 123.47C94.7843 124.153 97.6857 125.476 100.587 127.438C105.024 130.596 108.011 134.265 109.547 138.446C110.4 140.665 110.827 142.969 110.827 145.358C110.827 148.772 109.974 152.014 108.267 155.086C106.56 158.158 104.214 160.633 101.227 162.51C96.9603 165.07 92.0537 166.564 86.507 166.99ZM144.236 155.854C141.505 155.854 139.628 155.001 138.604 153.294C137.58 151.502 137.068 149.54 137.068 147.406C137.068 146.98 137.111 146.254 137.196 145.23C137.367 144.121 137.537 143.097 137.708 142.158C136.513 143.78 135.063 145.572 133.356 147.534C131.735 149.497 130.071 151.161 128.364 152.526C125.633 154.745 123.159 155.854 120.94 155.854C118.807 155.854 117.143 154.958 115.948 153.166C114.839 151.374 114.284 149.113 114.284 146.382C114.284 142.884 115.052 139.342 116.588 135.758C118.124 132.174 120.129 128.804 122.604 125.646C125.164 122.404 127.98 119.63 131.052 117.326C132.844 116.046 135.02 115.022 137.58 114.254C140.225 113.401 142.871 112.974 145.516 112.974C148.503 112.974 151.105 113.444 153.324 114.382C155.628 115.236 157.207 116.473 158.06 118.094C156.268 120.398 154.433 123.257 152.556 126.67C150.679 129.998 149.057 133.028 147.692 135.758C146.753 137.636 145.729 139.982 144.62 142.798C143.511 145.529 142.956 147.876 142.956 149.838C142.956 150.692 143.169 151.545 143.596 152.398C144.023 153.252 144.833 153.678 146.028 153.678C147.393 153.678 148.716 153.166 149.996 152.142C151.276 151.118 152.343 150.094 153.196 149.07C155.159 146.937 156.951 144.59 158.572 142.03C160.193 139.47 161.815 136.74 163.436 133.838C163.692 133.497 163.948 133.326 164.204 133.326C164.545 133.326 164.716 133.582 164.716 134.094C164.716 134.521 164.631 134.862 164.46 135.118C163.009 137.934 161.388 140.75 159.596 143.566C157.804 146.382 155.671 149.028 153.196 151.502C152.001 152.697 150.593 153.721 148.972 154.574C147.351 155.428 145.772 155.854 144.236 155.854ZM123.756 151.886C125.377 151.886 127.127 151.033 129.004 149.326C130.967 147.534 132.844 145.401 134.636 142.926C136.513 140.366 138.177 137.934 139.628 135.63C141.164 133.241 142.359 131.406 143.212 130.126C145.004 127.31 146.668 124.964 148.204 123.086C149.74 121.209 152.129 119.758 155.372 118.734C155.543 118.734 155.671 118.734 155.756 118.734C155.927 118.649 156.097 118.606 156.268 118.606C155.5 117.412 154.22 116.516 152.428 115.918C150.636 115.321 148.887 115.022 147.18 115.022C144.535 115.022 141.975 115.748 139.5 117.198C137.025 118.649 134.764 120.484 132.716 122.702C130.753 125.006 128.833 127.524 126.956 130.254C125.079 132.985 123.543 135.758 122.348 138.574C121.239 141.39 120.684 144.078 120.684 146.638C120.684 148.004 120.897 149.241 121.324 150.35C121.836 151.374 122.647 151.886 123.756 151.886ZM192.29 155.854C189.901 155.854 187.81 154.958 186.018 153.166C184.311 151.374 183.458 148.772 183.458 145.358C183.458 144.078 183.586 142.756 183.842 141.39C182.989 143.012 181.837 144.761 180.386 146.638C178.935 148.43 177.485 150.052 176.034 151.502C174.669 152.868 173.047 153.977 171.17 154.83C169.378 155.598 167.586 155.897 165.794 155.726C163.405 155.47 161.698 154.617 160.674 153.166C159.735 151.716 159.266 149.924 159.266 147.79C159.266 144.974 159.821 141.902 160.93 138.574C162.125 135.246 163.49 132.089 165.026 129.102C166.562 126.03 167.799 123.641 168.738 121.934C170.615 118.777 172.493 116.814 174.37 116.046C176.333 115.278 178.722 114.894 181.538 114.894C180.685 115.15 179.575 116.174 178.21 117.966C176.845 119.673 175.394 121.806 173.858 124.366C172.407 126.926 170.999 129.7 169.634 132.686C168.354 135.588 167.287 138.446 166.434 141.262C165.666 143.993 165.282 146.34 165.282 148.302C165.282 149.753 165.538 150.948 166.05 151.886C166.647 152.825 167.543 153.294 168.738 153.294C169.762 153.294 170.957 152.91 172.322 152.142C173.687 151.289 174.925 150.265 176.034 149.07C179.789 144.889 182.818 140.324 185.122 135.374C187.511 130.34 190.157 125.348 193.058 120.398C194.935 117.241 196.813 115.278 198.69 114.51C200.653 113.742 203.042 113.358 205.858 113.358C205.09 113.614 203.981 114.638 202.53 116.43C201.165 118.137 199.671 120.313 198.05 122.958C196.514 125.604 195.021 128.42 193.57 131.406C192.205 134.393 191.053 137.252 190.114 139.982C189.261 142.713 188.834 145.017 188.834 146.894C188.834 149.454 189.517 151.161 190.882 152.014C192.247 152.782 193.485 153.166 194.594 153.166C196.813 153.166 198.903 152.441 200.866 150.99C202.914 149.54 204.749 147.705 206.37 145.486C208.077 143.268 209.527 141.006 210.722 138.702C212.002 136.313 212.983 134.265 213.666 132.558C213.325 131.193 213.154 128.761 213.154 125.262C213.154 123.129 213.282 120.953 213.538 118.734C213.794 116.516 214.221 114.596 214.818 112.974C215.671 110.841 216.994 109.774 218.786 109.774C219.469 109.774 220.066 110.116 220.578 110.798C221.175 111.481 221.474 112.633 221.474 114.254C221.474 116.644 221.09 119.118 220.322 121.678C219.639 124.153 219.085 125.86 218.658 126.798C218.317 127.652 217.89 128.718 217.378 129.998C216.866 131.193 216.269 132.516 215.586 133.966C215.501 136.612 215.927 138.788 216.866 140.494C217.89 142.116 219.127 142.926 220.578 142.926C222.199 142.926 223.607 142.457 224.802 141.518C226.082 140.494 227.149 139.3 228.002 137.934C228.941 136.484 229.709 135.161 230.306 133.966C230.562 133.454 230.903 133.198 231.33 133.198C231.671 133.198 231.842 133.412 231.842 133.838C231.842 134.094 231.714 134.478 231.458 134.99C230.434 137.294 228.983 139.47 227.106 141.518C225.229 143.566 222.925 144.59 220.194 144.59C218.829 144.59 217.463 144.036 216.098 142.926C214.818 141.817 214.05 140.068 213.794 137.678C212.343 140.238 210.594 142.926 208.546 145.742C206.583 148.558 204.279 150.948 201.634 152.91C198.989 154.873 195.874 155.854 192.29 155.854ZM233.306 155.726C230.917 155.726 229.167 154.958 228.058 153.422C226.949 151.801 226.394 149.838 226.394 147.534C226.394 146.852 226.437 146.169 226.522 145.486C226.693 144.718 226.863 143.95 227.034 143.182C227.973 139.769 229.423 135.972 231.386 131.79C233.434 127.524 235.397 123.726 237.274 120.398C238.383 118.521 239.407 117.198 240.346 116.43C241.285 115.577 242.309 114.98 243.418 114.638C244.527 114.212 245.85 113.742 247.386 113.23C247.813 113.06 248.239 112.932 248.666 112.846C249.093 112.761 249.562 112.676 250.074 112.59C248.367 114.297 246.618 116.345 244.826 118.734C243.119 121.124 241.242 124.409 239.194 128.59C238.085 130.809 236.975 133.284 235.866 136.014C234.842 138.745 233.946 141.305 233.178 143.694C232.41 146.084 231.983 147.961 231.898 149.326C231.813 150.948 232.026 152.1 232.538 152.782C233.05 153.465 233.733 153.806 234.586 153.806C236.037 153.806 237.402 153.294 238.682 152.27C240.047 151.246 241.242 150.18 242.266 149.07C244.143 146.937 245.893 144.59 247.514 142.03C249.221 139.47 250.885 136.74 252.506 133.838C252.762 133.497 252.975 133.326 253.146 133.326C253.487 133.326 253.658 133.582 253.658 134.094C253.658 134.521 253.573 134.862 253.402 135.118C251.866 137.934 250.245 140.75 248.538 143.566C246.831 146.382 244.741 149.028 242.266 151.502C241.157 152.612 239.834 153.593 238.298 154.446C236.847 155.3 235.183 155.726 233.306 155.726ZM248.922 105.422C247.983 105.422 247.173 105.081 246.49 104.398C245.893 103.716 245.594 102.905 245.594 101.966C245.594 100.772 246.063 99.7052 247.002 98.7665C248.026 97.8278 249.135 97.2732 250.33 97.1025C251.269 97.1025 252.037 97.4438 252.634 98.1265C253.317 98.7238 253.658 99.5345 253.658 100.558C253.658 101.668 253.189 102.777 252.25 103.886C251.311 104.91 250.202 105.422 248.922 105.422ZM256.842 155.854C254.709 155.854 252.789 155.257 251.082 154.062C249.461 152.782 248.65 150.734 248.65 147.918C248.65 144.932 249.375 141.646 250.826 138.062C252.277 134.478 253.642 131.278 254.922 128.462C255.605 127.097 256.501 125.262 257.61 122.958C258.805 120.569 260.085 118.222 261.45 115.918H255.434C255.178 115.918 255.05 115.705 255.05 115.278C255.05 114.937 255.178 114.596 255.434 114.254C255.69 113.828 255.989 113.614 256.33 113.614C258.719 113.614 260.511 113.401 261.706 112.974C262.901 112.548 263.925 111.95 264.778 111.182C266.143 109.988 267.466 108.452 268.746 106.574C270.111 104.697 271.434 103.076 272.714 101.71C273.653 100.516 274.805 99.6198 276.17 99.0225C277.621 98.4252 278.559 98.2118 278.986 98.3825C278.559 98.9798 277.877 100.004 276.938 101.454C275.999 102.905 275.018 104.484 273.994 106.19C272.97 107.897 272.031 109.476 271.178 110.926C270.325 112.377 269.77 113.358 269.514 113.87H277.962C278.218 113.87 278.346 113.956 278.346 114.126C278.346 114.468 278.133 114.852 277.706 115.278C277.365 115.705 277.023 115.918 276.682 115.918H268.362C266.826 118.564 264.991 122.02 262.858 126.286C260.81 130.468 258.975 134.521 257.354 138.446C257.013 139.214 256.415 140.75 255.562 143.054C254.794 145.358 254.41 147.492 254.41 149.454C254.41 150.734 254.666 151.801 255.178 152.654C255.775 153.508 256.757 153.934 258.122 153.934C259.573 153.934 261.151 153.422 262.858 152.398C264.565 151.289 265.887 150.18 266.826 149.07C268.789 146.937 270.581 144.59 272.202 142.03C273.823 139.47 275.445 136.74 277.066 133.838C277.322 133.497 277.578 133.326 277.834 133.326C278.175 133.326 278.346 133.582 278.346 134.094C278.346 134.521 278.261 134.862 278.09 135.118C276.554 137.934 274.89 140.75 273.098 143.566C271.391 146.382 269.301 149.028 266.826 151.502C265.717 152.612 264.223 153.636 262.346 154.574C260.469 155.428 258.634 155.854 256.842 155.854ZM280.315 191.054C278.95 191.396 277.584 191.566 276.219 191.566C273.744 191.566 271.867 190.969 270.587 189.774C269.307 188.58 268.667 187.086 268.667 185.294C268.667 183.758 269.179 182.094 270.203 180.302C271.227 178.596 272.763 177.06 274.811 175.694C277.456 173.902 279.846 172.452 281.979 171.342C284.198 170.233 286.587 169.124 289.147 168.014C291.707 166.99 294.907 165.582 298.747 163.79C299.174 162.852 299.643 161.742 300.155 160.462C300.667 159.182 301.52 157.049 302.715 154.062C303.91 151.076 305.659 146.638 307.963 140.75C306.086 143.054 304.208 145.188 302.331 147.15C300.454 149.113 298.918 150.649 297.723 151.758C296.016 153.038 294.352 154.062 292.731 154.83C291.195 155.513 289.659 155.854 288.123 155.854C286.075 155.854 284.624 155.257 283.771 154.062C283.003 152.868 282.619 151.46 282.619 149.838C282.619 148.473 282.79 147.065 283.131 145.614C283.558 144.164 284.027 142.798 284.539 141.518C285.734 138.532 287.014 135.716 288.379 133.07C289.83 130.34 291.238 127.524 292.603 124.622C292.944 123.94 293.414 122.83 294.011 121.294C294.694 119.758 295.035 118.35 295.035 117.07C295.035 115.62 294.395 114.894 293.115 114.894C291.92 114.894 290.683 115.492 289.403 116.686C288.208 117.796 287.142 119.076 286.203 120.526C285.264 121.977 284.539 123.129 284.027 123.982C284.027 123.982 283.6 124.793 282.747 126.414C281.979 128.036 280.955 130.041 279.675 132.43C278.48 134.734 277.243 136.91 275.963 138.958C275.707 139.385 275.366 139.598 274.939 139.598C274.598 139.598 274.427 139.428 274.427 139.086C274.427 138.916 274.64 138.404 275.067 137.55C276.944 134.222 278.395 131.449 279.419 129.23C280.528 127.012 281.766 124.708 283.131 122.318C284.496 119.844 286.075 117.497 287.867 115.278C289.062 113.998 290.342 113.06 291.707 112.462C293.158 111.78 294.566 111.438 295.931 111.438C298.32 111.438 299.942 111.993 300.795 113.102C301.734 114.126 302.203 115.406 302.203 116.942C302.203 118.564 301.862 120.228 301.179 121.934C300.496 123.641 299.814 125.134 299.131 126.414C296.998 130.169 295.248 133.454 293.883 136.27C292.518 139.001 291.323 141.646 290.299 144.206C289.531 146.084 289.147 147.62 289.147 148.814C289.147 151.033 290.086 152.142 291.963 152.142C293.499 152.142 295.078 151.46 296.699 150.094C301.222 146.425 304.891 142.116 307.707 137.166C310.523 132.217 313.211 127.054 315.771 121.678C316.624 119.972 317.691 118.137 318.971 116.174C320.251 114.126 321.83 112.42 323.707 111.054C325.584 109.604 327.76 108.964 330.235 109.134C329.04 110.244 327.59 112.292 325.883 115.278C324.262 118.265 322.512 121.764 320.635 125.774C318.843 129.785 317.051 133.966 315.259 138.318C313.467 142.67 311.76 146.852 310.139 150.862C308.603 154.788 307.28 158.116 306.171 160.846C308.475 159.908 311.163 158.457 314.235 156.494C317.392 154.617 320.336 152.142 323.067 149.07C325.03 147.022 326.779 144.718 328.315 142.158C329.936 139.513 331.558 136.74 333.179 133.838C333.435 133.497 333.691 133.326 333.947 133.326C334.288 133.326 334.459 133.582 334.459 134.094C334.459 134.521 334.374 134.862 334.203 135.118C332.667 137.934 331.046 140.75 329.339 143.566C327.632 146.382 325.542 149.028 323.067 151.502C319.995 154.404 316.88 156.878 313.723 158.926C310.651 161.06 307.75 162.596 305.019 163.534C302.971 168.142 300.795 172.366 298.491 176.206C296.272 180.046 293.712 183.246 290.811 185.806C287.91 188.366 284.411 190.116 280.315 191.054ZM279.547 188.494C282.619 187.556 285.264 185.892 287.483 183.502C289.702 181.198 291.622 178.51 293.243 175.438C294.95 172.366 296.4 169.294 297.595 166.222C294.864 167.673 291.451 169.166 287.355 170.702C283.259 172.324 279.376 174.5 275.707 177.23C274.086 178.51 272.848 179.833 271.995 181.198C271.142 182.564 270.715 183.844 270.715 185.038C270.715 186.233 271.142 187.214 271.995 187.982C272.848 188.75 274.086 189.134 275.707 189.134C276.219 189.134 276.774 189.092 277.371 189.006C278.054 188.921 278.779 188.75 279.547 188.494ZM365.614 156.366C361.177 156.366 358.019 155.044 356.142 152.398C354.265 149.668 353.326 146.468 353.326 142.798C353.326 138.788 354.179 134.734 355.886 130.638C357.166 127.566 358.83 124.708 360.878 122.062C362.926 119.332 365.358 117.113 368.174 115.406C371.075 113.7 374.233 112.846 377.646 112.846C380.206 112.846 382.169 113.444 383.534 114.638C384.985 115.833 385.71 117.497 385.71 119.63C385.71 120.313 385.625 121.038 385.454 121.806C385.369 122.574 385.113 123.428 384.686 124.366C384.089 125.902 383.321 127.268 382.382 128.462C381.443 129.657 380.377 130.596 379.182 131.278C378.585 131.62 377.902 131.79 377.134 131.79C376.537 131.79 375.982 131.62 375.47 131.278C374.958 130.937 374.702 130.382 374.702 129.614C374.702 128.249 375.427 126.798 376.878 125.262C378.414 123.641 380.377 122.788 382.766 122.702C383.193 121.593 383.406 120.612 383.406 119.758C383.406 118.393 382.979 117.241 382.126 116.302C381.273 115.278 379.95 114.766 378.158 114.766C375.939 114.766 373.763 115.62 371.63 117.326C369.497 118.948 367.577 121.124 365.87 123.854C364.249 126.5 362.926 129.316 361.902 132.302C361.39 133.668 360.921 135.417 360.494 137.55C360.067 139.598 359.854 141.646 359.854 143.694C359.854 146.34 360.409 148.729 361.518 150.862C362.713 152.91 364.931 153.934 368.174 153.934C370.478 153.934 372.654 153.294 374.702 152.014C376.75 150.649 378.585 148.985 380.206 147.022C381.913 145.06 383.406 143.054 384.686 141.006C386.051 138.873 387.161 136.996 388.014 135.374C388.099 135.033 388.313 134.862 388.654 134.862C389.081 134.862 389.294 135.204 389.294 135.886C389.294 136.228 389.166 136.612 388.91 137.038C387.118 140.196 385.198 143.268 383.15 146.254C381.102 149.156 378.67 151.588 375.854 153.55C373.038 155.428 369.625 156.366 365.614 156.366ZM415.361 155.854C412.63 155.854 410.753 155.001 409.729 153.294C408.705 151.502 408.193 149.54 408.193 147.406C408.193 146.98 408.236 146.254 408.321 145.23C408.492 144.121 408.662 143.097 408.833 142.158C407.638 143.78 406.188 145.572 404.481 147.534C402.86 149.497 401.196 151.161 399.489 152.526C396.758 154.745 394.284 155.854 392.065 155.854C389.932 155.854 388.268 154.958 387.073 153.166C385.964 151.374 385.409 149.113 385.409 146.382C385.409 142.884 386.177 139.342 387.713 135.758C389.249 132.174 391.254 128.804 393.729 125.646C396.289 122.404 399.105 119.63 402.177 117.326C403.969 116.046 406.145 115.022 408.705 114.254C411.35 113.401 413.996 112.974 416.641 112.974C419.628 112.974 422.23 113.444 424.449 114.382C426.753 115.236 428.332 116.473 429.185 118.094C427.393 120.398 425.558 123.257 423.681 126.67C421.804 129.998 420.182 133.028 418.817 135.758C417.878 137.636 416.854 139.982 415.745 142.798C414.636 145.529 414.081 147.876 414.081 149.838C414.081 150.692 414.294 151.545 414.721 152.398C415.148 153.252 415.958 153.678 417.153 153.678C418.518 153.678 419.841 153.166 421.121 152.142C422.401 151.118 423.468 150.094 424.321 149.07C426.284 146.937 428.076 144.59 429.697 142.03C431.318 139.47 432.94 136.74 434.561 133.838C434.817 133.497 435.073 133.326 435.329 133.326C435.67 133.326 435.841 133.582 435.841 134.094C435.841 134.521 435.756 134.862 435.585 135.118C434.134 137.934 432.513 140.75 430.721 143.566C428.929 146.382 426.796 149.028 424.321 151.502C423.126 152.697 421.718 153.721 420.097 154.574C418.476 155.428 416.897 155.854 415.361 155.854ZM394.881 151.886C396.502 151.886 398.252 151.033 400.129 149.326C402.092 147.534 403.969 145.401 405.761 142.926C407.638 140.366 409.302 137.934 410.753 135.63C412.289 133.241 413.484 131.406 414.337 130.126C416.129 127.31 417.793 124.964 419.329 123.086C420.865 121.209 423.254 119.758 426.497 118.734C426.668 118.734 426.796 118.734 426.881 118.734C427.052 118.649 427.222 118.606 427.393 118.606C426.625 117.412 425.345 116.516 423.553 115.918C421.761 115.321 420.012 115.022 418.305 115.022C415.66 115.022 413.1 115.748 410.625 117.198C408.15 118.649 405.889 120.484 403.841 122.702C401.878 125.006 399.958 127.524 398.081 130.254C396.204 132.985 394.668 135.758 393.473 138.574C392.364 141.39 391.809 144.078 391.809 146.638C391.809 148.004 392.022 149.241 392.449 150.35C392.961 151.374 393.772 151.886 394.881 151.886ZM439.735 155.726C436.919 155.726 434.956 154.83 433.847 153.038C432.738 151.246 432.183 149.028 432.183 146.382C432.183 143.566 432.61 140.494 433.463 137.166C434.402 133.838 435.511 130.596 436.791 127.438C438.071 124.196 439.266 121.38 440.375 118.99C441.484 116.601 442.252 114.937 442.679 113.998C444.215 110.756 446.135 107.086 448.439 102.99C450.743 98.8945 453.303 94.7132 456.119 90.4465C458.935 86.1798 461.964 82.1265 465.207 78.2865C468.45 74.4465 471.778 71.1185 475.191 68.3025C478.604 65.4865 482.018 63.5665 485.431 62.5425C486.37 62.2865 487.223 62.1585 487.991 62.1585C489.442 62.1585 490.636 62.5852 491.575 63.4385C492.599 64.2065 493.111 65.5718 493.111 67.5345C493.111 68.8998 492.77 70.6065 492.087 72.6545C490.978 75.6412 489.1 78.9692 486.455 82.6385C483.81 86.2225 480.695 89.9772 477.111 93.9025C473.527 97.7425 469.73 101.54 465.719 105.294C461.794 109.049 457.954 112.548 454.199 115.79C450.444 119.033 447.116 121.806 444.215 124.11C443.447 125.732 442.722 127.31 442.039 128.846C441.442 130.382 440.887 131.876 440.375 133.326C440.119 134.094 439.735 135.246 439.223 136.782C438.711 138.318 438.242 140.025 437.815 141.902C437.388 143.78 437.175 145.572 437.175 147.278C437.175 148.985 437.516 150.478 438.199 151.758C438.882 152.953 440.119 153.55 441.911 153.55C443.362 153.55 445.111 152.782 447.159 151.246C449.292 149.625 451.468 147.534 453.687 144.974C455.991 142.414 458.21 139.726 460.343 136.91C462.562 134.009 464.567 131.236 466.359 128.59C468.151 125.945 469.516 123.769 470.455 122.062C471.223 120.185 471.948 118.521 472.631 117.07C473.314 115.62 473.826 114.596 474.167 113.998C475.703 110.756 477.623 107.086 479.927 102.99C482.231 98.8945 484.791 94.7132 487.607 90.4465C490.423 86.1798 493.452 82.1265 496.695 78.2865C499.938 74.4465 503.266 71.1185 506.679 68.3025C510.092 65.4865 513.506 63.5665 516.919 62.5425C517.858 62.2865 518.711 62.1585 519.479 62.1585C520.93 62.1585 522.124 62.5852 523.063 63.4385C524.087 64.2065 524.599 65.5718 524.599 67.5345C524.599 68.8998 524.258 70.6065 523.575 72.6545C522.466 75.6412 520.588 78.9692 517.943 82.6385C515.298 86.2225 512.183 89.9772 508.599 93.9025C505.015 97.7425 501.218 101.54 497.207 105.294C493.282 109.049 489.442 112.548 485.687 115.79C481.932 119.033 478.604 121.806 475.703 124.11C474.935 125.732 474.21 127.31 473.527 128.846C472.93 130.382 472.375 131.876 471.863 133.326C471.607 134.094 471.223 135.246 470.711 136.782C470.199 138.318 469.73 140.025 469.303 141.902C468.876 143.78 468.663 145.572 468.663 147.278C468.663 148.985 469.004 150.478 469.687 151.758C470.37 152.953 471.607 153.55 473.399 153.55C474.85 153.55 476.215 153.081 477.495 152.142C478.775 151.204 479.884 150.18 480.823 149.07C482.786 146.937 484.492 144.761 485.943 142.542C487.479 140.238 488.972 137.678 490.423 134.862C490.764 134.265 491.02 133.966 491.191 133.966C491.362 133.966 491.447 134.222 491.447 134.734C491.447 135.502 491.276 136.313 490.935 137.166C489.314 140.153 487.82 142.67 486.455 144.718C485.175 146.766 483.298 149.028 480.823 151.502C479.714 152.612 478.434 153.593 476.983 154.446C475.532 155.3 473.868 155.726 471.991 155.726C468.919 155.726 466.743 154.83 465.463 153.038C464.268 151.246 463.671 148.985 463.671 146.254C463.671 143.95 464.012 141.433 464.695 138.702C465.378 135.886 466.188 133.156 467.127 130.51C465.335 133.156 463.33 135.972 461.111 138.958C458.892 141.86 456.546 144.59 454.071 147.15C451.596 149.71 449.122 151.801 446.647 153.422C444.258 154.958 441.954 155.726 439.735 155.726ZM445.623 121.166C448.268 118.862 451.34 116.132 454.839 112.974C458.338 109.732 461.922 106.276 465.591 102.606C469.26 98.9372 472.716 95.2678 475.959 91.5985C479.287 87.9292 482.146 84.4732 484.535 81.2305C487.01 77.9878 488.674 75.1718 489.527 72.7825C490.295 70.5638 490.679 68.8572 490.679 67.6625C490.679 65.4438 489.698 64.3345 487.735 64.3345C486.626 64.3345 485.303 64.7612 483.767 65.6145C482.231 66.3825 480.823 67.4065 479.543 68.6865C477.495 70.7345 475.02 73.6785 472.119 77.5185C469.218 81.2732 466.188 85.5825 463.031 90.4465C459.874 95.3105 456.759 100.388 453.687 105.678C450.7 110.969 448.012 116.132 445.623 121.166ZM477.111 121.166C479.842 118.862 482.914 116.132 486.327 112.974C489.826 109.732 493.41 106.276 497.079 102.606C500.748 98.9372 504.204 95.2678 507.447 91.5985C510.775 87.9292 513.634 84.4732 516.023 81.2305C518.498 77.9878 520.162 75.1718 521.015 72.7825C521.783 70.5638 522.167 68.8572 522.167 67.6625C522.167 65.4438 521.186 64.3345 519.223 64.3345C518.114 64.3345 516.791 64.7612 515.255 65.6145C513.719 66.3825 512.311 67.4065 511.031 68.6865C508.983 70.7345 506.508 73.6785 503.607 77.5185C500.706 81.2732 497.676 85.5825 494.519 90.4465C491.362 95.3105 488.247 100.388 485.175 105.678C482.188 110.969 479.5 116.132 477.111 121.166ZM497.387 132.43V129.998H520.427V132.43H497.387ZM542.364 156.366C537.927 156.366 534.769 155.044 532.892 152.398C531.015 149.668 530.076 146.468 530.076 142.798C530.076 138.788 530.929 134.734 532.636 130.638C533.916 127.566 535.58 124.708 537.628 122.062C539.676 119.332 542.108 117.113 544.924 115.406C547.825 113.7 550.983 112.846 554.396 112.846C556.956 112.846 558.919 113.444 560.284 114.638C561.735 115.833 562.46 117.497 562.46 119.63C562.46 120.313 562.375 121.038 562.204 121.806C562.119 122.574 561.863 123.428 561.436 124.366C560.839 125.902 560.071 127.268 559.132 128.462C558.193 129.657 557.127 130.596 555.932 131.278C555.335 131.62 554.652 131.79 553.884 131.79C553.287 131.79 552.732 131.62 552.22 131.278C551.708 130.937 551.452 130.382 551.452 129.614C551.452 128.249 552.177 126.798 553.628 125.262C555.164 123.641 557.127 122.788 559.516 122.702C559.943 121.593 560.156 120.612 560.156 119.758C560.156 118.393 559.729 117.241 558.876 116.302C558.023 115.278 556.7 114.766 554.908 114.766C552.689 114.766 550.513 115.62 548.38 117.326C546.247 118.948 544.327 121.124 542.62 123.854C540.999 126.5 539.676 129.316 538.652 132.302C538.14 133.668 537.671 135.417 537.244 137.55C536.817 139.598 536.604 141.646 536.604 143.694C536.604 146.34 537.159 148.729 538.268 150.862C539.463 152.91 541.681 153.934 544.924 153.934C547.228 153.934 549.404 153.294 551.452 152.014C553.5 150.649 555.335 148.985 556.956 147.022C558.663 145.06 560.156 143.054 561.436 141.006C562.801 138.873 563.911 136.996 564.764 135.374C564.849 135.033 565.063 134.862 565.404 134.862C565.831 134.862 566.044 135.204 566.044 135.886C566.044 136.228 565.916 136.612 565.66 137.038C563.868 140.196 561.948 143.268 559.9 146.254C557.852 149.156 555.42 151.588 552.604 153.55C549.788 155.428 546.375 156.366 542.364 156.366ZM577.135 155.982C572.186 155.982 568.687 154.702 566.639 152.142C565.615 151.033 564.89 149.71 564.463 148.174C564.036 146.638 563.823 145.06 563.823 143.438C563.823 141.39 564.079 139.342 564.591 137.294C565.103 135.161 565.743 133.198 566.511 131.406C567.706 128.59 569.284 125.774 571.247 122.958C573.21 120.057 575.556 117.625 578.287 115.662C581.103 113.7 584.175 112.718 587.503 112.718C589.722 112.718 591.471 113.273 592.751 114.382C594.031 115.492 594.671 117.198 594.671 119.502C594.671 122.148 593.86 124.836 592.239 127.566C590.618 130.212 588.57 132.43 586.095 134.222C583.62 136.014 581.06 136.91 578.415 136.91C576.026 136.91 573.935 136.057 572.143 134.35C571.631 135.716 571.204 137.252 570.863 138.958C570.522 140.58 570.351 142.244 570.351 143.95C570.351 146.596 570.863 148.9 571.887 150.862C572.996 152.825 574.959 153.806 577.775 153.806C579.823 153.806 581.786 153.294 583.663 152.27C585.626 151.161 587.375 149.838 588.911 148.302C590.618 146.51 592.239 144.59 593.775 142.542C595.311 140.494 596.804 138.105 598.255 135.374C598.426 135.118 598.554 134.99 598.639 134.99C598.98 134.99 599.151 135.374 599.151 136.142C599.151 136.654 598.98 137.209 598.639 137.806C597.359 140.11 595.866 142.457 594.159 144.846C592.452 147.15 590.703 149.156 588.911 150.862C587.29 152.398 585.54 153.636 583.663 154.574C581.786 155.513 579.61 155.982 577.135 155.982ZM572.783 132.43C573.38 133.284 574.063 133.924 574.831 134.35C575.684 134.692 576.538 134.862 577.391 134.862C579.439 134.862 581.572 134.094 583.791 132.558C586.01 130.937 587.802 129.06 589.167 126.926C589.764 125.988 590.276 124.75 590.703 123.214C591.215 121.678 591.471 120.228 591.471 118.862C591.471 117.668 591.215 116.644 590.703 115.79C590.276 114.852 589.38 114.382 588.015 114.382C586.479 114.382 584.644 115.321 582.511 117.198C580.463 119.076 578.5 121.508 576.623 124.494C576.026 125.518 575.343 126.713 574.575 128.078C573.892 129.444 573.295 130.894 572.783 132.43ZM621.899 155.726C619.424 155.726 617.462 154.958 616.011 153.422C614.646 151.886 613.963 149.966 613.963 147.662C613.963 146.553 614.176 145.273 614.603 143.822C615.798 140.068 617.675 136.356 620.235 132.686C622.88 128.932 625.056 125.22 626.763 121.55C627.36 120.356 627.659 119.289 627.659 118.35C627.659 117.412 627.36 116.729 626.763 116.302C626.251 115.79 625.611 115.534 624.843 115.534C623.734 115.534 622.326 116.004 620.619 116.942C618.998 117.796 617.12 119.46 614.987 121.934C613.707 123.47 612.256 125.348 610.635 127.566C609.014 129.785 607.691 131.79 606.667 133.582C604.96 136.484 603.424 139.428 602.059 142.414C600.694 145.316 599.499 148.004 598.475 150.478C597.622 152.441 596.598 153.721 595.403 154.318C594.208 154.83 593.056 155.044 591.947 154.958C590.838 154.873 589.984 154.873 589.387 154.958C591.776 150.265 594.123 145.316 596.427 140.11C598.731 134.905 600.694 129.7 602.315 124.494C603.083 122.105 603.723 119.801 604.235 117.582C604.747 115.278 604.96 113.785 604.875 113.102V112.846C604.875 112.164 605.216 111.993 605.899 112.334C607.008 112.932 607.776 113.828 608.203 115.022C608.63 116.132 608.843 117.412 608.843 118.862C608.843 120.484 608.63 122.233 608.203 124.11C607.776 125.902 607.264 127.524 606.667 128.974C607.776 127.438 608.971 125.902 610.251 124.366C611.531 122.745 612.939 121.209 614.475 119.758C616.267 117.966 618.187 116.43 620.235 115.15C622.283 113.785 624.502 113.102 626.891 113.102C629.195 113.102 630.859 113.614 631.883 114.638C632.992 115.662 633.547 117.028 633.547 118.734C633.547 120.526 633.035 122.574 632.011 124.878C630.902 127.524 629.536 130.169 627.915 132.814C626.379 135.46 624.971 138.02 623.691 140.494C623.435 141.006 623.008 141.817 622.411 142.926C621.899 143.95 621.43 145.102 621.003 146.382C620.832 146.98 620.662 147.62 620.491 148.302C620.32 148.9 620.235 149.54 620.235 150.222C620.235 151.076 620.406 151.886 620.747 152.654C621.174 153.337 621.942 153.678 623.051 153.678C624.502 153.678 625.867 153.209 627.147 152.27C628.512 151.246 629.664 150.18 630.603 149.07C632.566 146.937 634.358 144.59 635.979 142.03C637.686 139.385 639.35 136.612 640.971 133.71C641.227 133.369 641.398 133.198 641.483 133.198C641.824 133.198 641.995 133.582 641.995 134.35C641.995 134.862 641.91 135.246 641.739 135.502C640.203 138.318 638.582 141.092 636.875 143.822C635.168 146.468 633.078 149.028 630.603 151.502C629.494 152.612 628.214 153.593 626.763 154.446C625.312 155.3 623.691 155.726 621.899 155.726ZM645.217 155.854C643.084 155.854 641.164 155.257 639.457 154.062C637.836 152.782 637.025 150.734 637.025 147.918C637.025 144.932 637.75 141.646 639.201 138.062C640.652 134.478 642.017 131.278 643.297 128.462C643.98 127.097 644.876 125.262 645.985 122.958C647.18 120.569 648.46 118.222 649.825 115.918H643.809C643.553 115.918 643.425 115.705 643.425 115.278C643.425 114.937 643.553 114.596 643.809 114.254C644.065 113.828 644.364 113.614 644.705 113.614C647.094 113.614 648.886 113.401 650.081 112.974C651.276 112.548 652.3 111.95 653.153 111.182C654.518 109.988 655.841 108.452 657.121 106.574C658.486 104.697 659.809 103.076 661.089 101.71C662.028 100.516 663.18 99.6198 664.545 99.0225C665.996 98.4252 666.934 98.2118 667.361 98.3825C666.934 98.9798 666.252 100.004 665.313 101.454C664.374 102.905 663.393 104.484 662.369 106.19C661.345 107.897 660.406 109.476 659.553 110.926C658.7 112.377 658.145 113.358 657.889 113.87H666.337C666.593 113.87 666.721 113.956 666.721 114.126C666.721 114.468 666.508 114.852 666.081 115.278C665.74 115.705 665.398 115.918 665.057 115.918H656.737C655.201 118.564 653.366 122.02 651.233 126.286C649.185 130.468 647.35 134.521 645.729 138.446C645.388 139.214 644.79 140.75 643.937 143.054C643.169 145.358 642.785 147.492 642.785 149.454C642.785 150.734 643.041 151.801 643.553 152.654C644.15 153.508 645.132 153.934 646.497 153.934C647.948 153.934 649.526 153.422 651.233 152.398C652.94 151.289 654.262 150.18 655.201 149.07C657.164 146.937 658.956 144.59 660.577 142.03C662.198 139.47 663.82 136.74 665.441 133.838C665.697 133.497 665.953 133.326 666.209 133.326C666.55 133.326 666.721 133.582 666.721 134.094C666.721 134.521 666.636 134.862 666.465 135.118C664.929 137.934 663.265 140.75 661.473 143.566C659.766 146.382 657.676 149.028 655.201 151.502C654.092 152.612 652.598 153.636 650.721 154.574C648.844 155.428 647.009 155.854 645.217 155.854ZM677.01 155.982C672.061 155.982 668.562 154.702 666.514 152.142C665.49 151.033 664.765 149.71 664.338 148.174C663.911 146.638 663.698 145.06 663.698 143.438C663.698 141.39 663.954 139.342 664.466 137.294C664.978 135.161 665.618 133.198 666.386 131.406C667.581 128.59 669.159 125.774 671.122 122.958C673.085 120.057 675.431 117.625 678.162 115.662C680.978 113.7 684.05 112.718 687.378 112.718C689.597 112.718 691.346 113.273 692.626 114.382C693.906 115.492 694.546 117.198 694.546 119.502C694.546 122.148 693.735 124.836 692.114 127.566C690.493 130.212 688.445 132.43 685.97 134.222C683.495 136.014 680.935 136.91 678.29 136.91C675.901 136.91 673.81 136.057 672.018 134.35C671.506 135.716 671.079 137.252 670.738 138.958C670.397 140.58 670.226 142.244 670.226 143.95C670.226 146.596 670.738 148.9 671.762 150.862C672.871 152.825 674.834 153.806 677.65 153.806C679.698 153.806 681.661 153.294 683.538 152.27C685.501 151.161 687.25 149.838 688.786 148.302C690.493 146.51 692.114 144.59 693.65 142.542C695.186 140.494 696.679 138.105 698.13 135.374C698.301 135.118 698.429 134.99 698.514 134.99C698.855 134.99 699.026 135.374 699.026 136.142C699.026 136.654 698.855 137.209 698.514 137.806C697.234 140.11 695.741 142.457 694.034 144.846C692.327 147.15 690.578 149.156 688.786 150.862C687.165 152.398 685.415 153.636 683.538 154.574C681.661 155.513 679.485 155.982 677.01 155.982ZM672.658 132.43C673.255 133.284 673.938 133.924 674.706 134.35C675.559 134.692 676.413 134.862 677.266 134.862C679.314 134.862 681.447 134.094 683.666 132.558C685.885 130.937 687.677 129.06 689.042 126.926C689.639 125.988 690.151 124.75 690.578 123.214C691.09 121.678 691.346 120.228 691.346 118.862C691.346 117.668 691.09 116.644 690.578 115.79C690.151 114.852 689.255 114.382 687.89 114.382C686.354 114.382 684.519 115.321 682.386 117.198C680.338 119.076 678.375 121.508 676.498 124.494C675.901 125.518 675.218 126.713 674.45 128.078C673.767 129.444 673.17 130.894 672.658 132.43ZM723.054 152.654C721.603 153.849 720.153 154.702 718.702 155.214C717.337 155.812 716.057 156.11 714.862 156.11C712.729 156.11 710.937 155.385 709.486 153.934C708.121 152.398 707.438 150.393 707.438 147.918C707.438 146.468 707.779 144.718 708.462 142.67C709.571 139.598 711.235 136.654 713.454 133.838C715.673 131.022 717.806 128.164 719.854 125.262C721.134 123.556 721.774 121.892 721.774 120.27C721.774 119.417 721.518 118.692 721.006 118.094C720.579 117.497 719.769 117.156 718.574 117.07C717.891 116.9 717.123 116.814 716.27 116.814C715.417 116.814 714.563 116.814 713.71 116.814H710.126C709.614 116.814 709.145 116.814 708.718 116.814C708.291 116.814 707.907 116.772 707.566 116.686C707.225 118.82 706.499 121.209 705.39 123.854C704.366 126.5 703.171 129.145 701.806 131.79C700.441 134.436 699.118 136.825 697.838 138.958C697.497 139.47 697.198 139.726 696.942 139.726C696.686 139.726 696.558 139.47 696.558 138.958C696.558 138.361 696.686 137.892 696.942 137.55C698.734 134.052 700.441 130.638 702.062 127.31C703.769 123.897 704.921 120.356 705.518 116.686C703.555 115.577 702.233 113.657 701.55 110.926C701.465 110.5 701.379 110.116 701.294 109.774C701.294 109.348 701.294 108.964 701.294 108.622C701.294 107.086 701.593 105.806 702.19 104.782C702.873 103.673 703.641 103.118 704.494 103.118C705.689 103.118 706.67 104.27 707.438 106.574C707.609 107.172 707.737 107.854 707.822 108.622C707.907 109.305 707.95 109.988 707.95 110.67C707.95 111.438 707.907 112.164 707.822 112.846C707.822 113.444 707.779 113.956 707.694 114.382C708.291 114.553 709.059 114.681 709.998 114.766C711.022 114.852 712.131 114.894 713.326 114.894C715.118 114.894 716.995 114.852 718.958 114.766C720.921 114.596 722.585 114.51 723.95 114.51C725.571 114.51 726.681 114.852 727.278 115.534C727.875 116.217 728.174 117.07 728.174 118.094C728.174 119.374 727.833 120.782 727.15 122.318C726.553 123.769 725.955 125.006 725.358 126.03C724.249 128.078 723.182 129.913 722.158 131.534C721.219 133.07 720.153 134.734 718.958 136.526C717.166 139.257 715.843 141.774 714.99 144.078C714.222 146.297 713.838 148.174 713.838 149.71C713.838 152.356 714.819 153.678 716.782 153.678C718.403 153.678 720.494 152.526 723.054 150.222C724.675 148.772 726.169 147.065 727.534 145.102C728.985 143.054 730.265 141.006 731.374 138.958C732.569 136.825 733.55 135.076 734.318 133.71C734.489 133.454 734.659 133.326 734.83 133.326C735.171 133.326 735.342 133.668 735.342 134.35C735.342 134.862 735.214 135.332 734.958 135.758C733.507 138.404 731.843 141.305 729.966 144.462C728.089 147.62 725.785 150.35 723.054 152.654Z" fill="#303030"/>
<g clip-path="url(#clip0_45_160)">
<path d="M831.008 111.831C847.923 107.228 866.18 102.825 883.316 109.2C883.389 110.424 883.757 111.977 883.132 113C882.691 113.749 869.857 120.782 867.78 121.677C852.262 128.363 834.703 129.989 818.542 124.856L795.155 147.434C816.446 141.936 837.424 139.123 858.495 147.544C858.568 148.731 858.954 150.284 858.311 151.344C857.612 152.531 839.355 162.012 836.487 163.181C821.851 169.1 804.752 172.296 788.959 170.725C783.057 170.141 773.754 165.647 768.624 166.889C764.285 167.949 737.257 190.126 734.481 187.166L734.72 181.923L755.257 169.849C750.348 149.444 746.781 126.682 748.216 105.62C748.565 100.469 753.4 69.3589 758.622 69.3954C766.712 88.485 770.279 113.585 768.955 134.428C768.33 144.311 765.186 154.12 764.138 163.893L796.442 138.392C784.105 119.978 781.917 99.3177 789.97 78.6205C796.405 62.0702 799.071 62.9653 804.863 79.607C810.47 95.7372 809.643 109.328 807.179 125.86C806.904 127.669 804.605 128.582 808.246 128.272L833.545 101.345C842.131 76.7938 849.265 48.333 871.696 32.4585C879.308 44.0401 874.16 64.9382 868.037 76.7207C858.513 95.0248 843.106 97.1073 831.008 111.831ZM842.039 94.0383C862.319 86.3477 871.604 62.5451 869.6 41.9941C860.241 44.1314 839.575 91.4992 842.039 94.0383ZM800.652 132.4C804.569 113.986 807.804 93.0154 797.214 76.264C787.414 92.6683 786.348 118.59 800.652 132.4ZM759.302 81.7078C755.735 81.3241 757.114 81.7078 756.508 83.7172C752.224 97.8745 752.536 120.873 753.97 135.652C754.228 138.246 757.372 159.82 758.622 159.82C766.473 134.428 763.88 107.428 759.302 81.7078ZM875.116 111.867C862.944 108.397 848.897 111.721 837.185 115.941C833.931 117.11 828.728 118.371 826.871 121.421C840.384 124.874 855.59 122.371 868.202 116.617C870.133 115.74 874.417 113.913 875.116 111.867ZM777.247 162.523C801.719 170.963 829.095 164.569 850.294 150.887C850.423 146.758 821.484 147.288 818.082 147.635C814.46 148.001 774.25 158.724 777.247 162.523Z" fill="#303030"/>
</g>
</g>
<defs>
<clipPath id="clip0_45_160">
<rect width="149" height="155" fill="white" transform="translate(734.5 32.4585)"/>
</clipPath>
</defs>
</svg>
