<svg width="45" height="45" viewBox="0 0 45 45" fill="none" xmlns="http://www.w3.org/2000/svg">
<path d="M1.73245 39.1798H43.2674C44.2224 39.1798 44.9999 38.4033 44.9999 37.4474C44.9999 36.4914 44.2224 35.7149 43.2674 35.7149H3.46219V16.1987C3.46219 15.2447 2.68663 14.469 1.73245 14.469C0.777488 14.469 0 15.2446 0 16.1987V37.4484C0 38.4034 0.777488 39.1798 1.73245 39.1798Z" fill="#7B448E"/>
<path d="M18.4444 18.2117C16.734 18.2117 15.3466 19.5982 15.3466 21.3095V30.3445C15.3466 32.0549 16.7331 33.4423 18.4444 33.4423H18.9053C20.6157 33.4423 22.0031 32.0558 22.0031 30.3445V21.3095C22.0031 19.5991 20.6157 18.2117 18.9053 18.2117H18.4444Z" fill="#7B448E"/>
<path d="M29.0591 13.0483H28.5982C26.8878 13.0483 25.5004 14.4358 25.5004 16.1462V30.3445C25.5004 32.0549 26.8869 33.4423 28.5982 33.4423H29.0591C30.7695 33.4423 32.1569 32.0558 32.1569 30.3445V16.1462C32.1569 14.4358 30.7704 13.0483 29.0591 13.0483Z" fill="#7B448E"/>
<path d="M39.2128 5.82031H38.7519C37.0415 5.82031 35.6541 7.20686 35.6541 8.91815V30.3444C35.6541 32.0548 37.0406 33.4422 38.7519 33.4422H39.2128C40.9232 33.4422 42.3106 32.0557 42.3106 30.3444V8.91815C42.3115 7.20777 40.9241 5.82031 39.2128 5.82031Z" fill="#7B448E"/>
<path d="M8.90241 21.9111C7.19202 21.9111 5.80457 23.2986 5.80457 25.009V30.3444C5.80457 32.0548 7.19202 33.4423 8.90241 33.4423H9.36331C11.0737 33.4423 12.4611 32.0557 12.4611 30.3444V25.009C12.4611 23.2986 11.0737 21.9111 9.36331 21.9111H8.90241Z" fill="#7B448E"/>
</svg>
