<svg width="45" height="45" viewBox="0 0 45 45" fill="none" xmlns="http://www.w3.org/2000/svg">
<path d="M16.875 26.25H22.5" stroke="#7B448E" stroke-width="3" stroke-linecap="round"/>
<path d="M18.75 22.5V15.375C18.75 15.0266 18.75 14.8524 18.7731 14.7067C18.9002 13.9044 19.5294 13.2752 20.3318 13.1481C20.4774 13.125 20.6516 13.125 21 13.125H25.3125C27.9013 13.125 30 15.2237 30 17.8125C30 20.4013 27.9013 22.5 25.3125 22.5H18.75ZM18.75 22.5V31.875M18.75 22.5H16.875" stroke="#7B448E" stroke-width="3" stroke-linecap="round"/>
<path d="M13.125 6.25841C15.8829 4.66307 19.0849 3.75 22.5 3.75C32.8552 3.75 41.25 12.1447 41.25 22.5C41.25 32.8552 32.8552 41.25 22.5 41.25C12.1447 41.25 3.75 32.8552 3.75 22.5C3.75 19.0849 4.66307 15.8829 6.25841 13.125" stroke="#7B448E" stroke-width="3" stroke-linecap="round"/>
</svg>
