<?xml version="1.0" encoding="UTF-8"?>
<svg id="OBJECTS" xmlns="http://www.w3.org/2000/svg" viewBox="0 0 750 500">
  <defs>
    <style>
      .cls-1 {
        fill: #8d63a8;
      }

      .cls-2 {
        fill: #231527;
      }

      .cls-3 {
        fill: #ea736a;
      }

      .cls-4 {
        stroke: #efeaf4;
        stroke-miterlimit: 10;
      }

      .cls-4, .cls-5, .cls-6 {
        fill: none;
      }

      .cls-7 {
        fill: #010200;
      }

      .cls-8 {
        fill: #9875bc;
      }

      .cls-9 {
        fill: #260d56;
      }

      .cls-10 {
        fill: #ffdbe2;
      }

      .cls-11 {
        fill: #fff;
      }

      .cls-12 {
        fill: #31273e;
      }

      .cls-13 {
        fill: #e0665c;
      }

      .cls-14 {
        fill: #bfb3ce;
      }

      .cls-6 {
        stroke: #221238;
        stroke-linecap: round;
        stroke-linejoin: round;
      }

      .cls-15 {
        fill: #ce8451;
      }

      .cls-16 {
        fill: #1e1223;
      }

      .cls-17 {
        fill: #e0cb96;
      }

      .cls-18 {
        fill: #af4945;
      }

      .cls-19 {
        fill: #fabc8b;
      }

      .cls-20 {
        fill: #db5b3e;
      }

      .cls-21 {
        fill: #211a2d;
      }

      .cls-22 {
        fill: #fc7b54;
      }

      .cls-23 {
        fill: #010000;
      }

      .cls-24 {
        fill: #5b3b6d;
      }

      .cls-25 {
        fill: #e89997;
      }

      .cls-26 {
        fill: #b6a9e0;
      }

      .cls-27 {
        fill: #9278d1;
      }

      .cls-28 {
        fill: #d9d1f2;
      }

      .cls-29 {
        fill: #ffb7c3;
      }

      .cls-30 {
        fill: #7255aa;
      }

      .cls-31 {
        fill: #efeaf4;
      }

      .cls-32 {
        fill: #ac8fe5;
      }

      .cls-33 {
        fill: #f2e7c2;
      }

      .cls-34 {
        fill: #eaa373;
      }

      .cls-35 {
        fill: #4e2f7f;
      }
    </style>
  </defs>
  <path class="cls-26" d="M111.94,167.9s-41.27,7.57-34.61,55.17c6.67,47.6,36,143.95,108.67,100.11,72.67-43.84,90.28,24.08,139.44,47.74,49.16,23.67,56.88,24.2,121.05-18.25,64.17-42.45,67.81-1.32,127.09,8.01,59.28,9.33,101.08,11.57,106.42-38.22,5.33-49.79-47.13-84.48-49.75-131.33-2.63-46.84,14.51-169.13-84.54-110.46-99.04,58.67-136.16,65.36-172.93,30.34-36.78-35.01-131.16-45.04-145.97-1.03-14.81,44.02-90.26-14.85-114.87,57.92Z"/>
  <g>
    <g>
      <path class="cls-35" d="M503.67,387.64c-.46-.3-1.08-.17-1.38.3-5.3,8.17-7.87,15.31-9.09,20.74-2.47-9.7-8.32-18.91-8.63-19.38-.3-.46-.92-.6-1.38-.3-.47.3-.6.92-.3,1.38.09.14,8.65,13.61,9.35,24.69-.2,2.88.03,4.57.06,4.75.07.5.5.85.99.85.05,0,.1,0,.15-.01.55-.08.92-.59.85-1.13-.02-.13-1.7-12.94,9.69-30.5.3-.46.17-1.08-.29-1.38Z"/>
      <g>
        <path class="cls-27" d="M503.1,376.02c-9.88-8.73-13.65-5.96-13.34-14.93.31-8.97-4.76-15.91-9.67-17.21-4.91-1.29-10.66-1.06-12.94-10.94-2.28-9.88-11.17-10.95-15.29-8.88-4.12,2.06-8.6,9.81-2.06,17.56,6.54,7.75,2.91,12.21,1,16.92s.6,12.93,7.97,18.06c7.37,5.13,2.89,6.49,3.95,19.63s28.48,6.47,28.48,6.47c0,0,21.78-17.95,11.9-26.67Z"/>
        <polygon class="cls-35" points="489.19 370.84 480.61 381.53 475.47 371.24 471.79 363.89 477.31 350.29 470.94 362.19 465.18 350.67 465.18 350.67 453.41 327.14 464.15 349.94 464.15 349.94 454.05 344.32 464.56 350.8 474.26 371.39 456.4 366.44 475.54 374.11 485.03 394.79 468.71 391.04 486.59 397.56 489.43 403.58 491.2 402.69 481.68 383.66 481.68 383.66 489.19 370.84"/>
      </g>
      <g>
        <path class="cls-32" d="M485.15,371.33c9.88-8.73,13.65-5.96,13.34-14.93-.31-8.97,4.76-15.91,9.67-17.21s10.66-1.06,12.94-10.94c2.28-9.88,11.17-10.95,15.29-8.88,4.12,2.06,8.6,9.81,2.06,17.56-6.54,7.75-2.91,12.21-1,16.92,1.91,4.7-.6,12.93-7.97,18.06-7.37,5.13-2.89,6.49-3.95,19.63-1.06,13.14-28.48,6.47-28.48,6.47,0,0-21.78-17.95-11.9-26.67Z"/>
        <polygon class="cls-35" points="499.06 366.16 507.63 376.85 512.78 366.55 516.45 359.21 510.94 345.61 517.31 357.51 523.07 345.99 523.07 345.99 534.84 322.46 524.1 345.25 524.1 345.25 534.2 339.64 523.69 346.12 513.99 366.71 531.84 361.75 512.71 369.43 503.22 390.1 519.54 386.36 501.66 392.88 498.82 398.9 497.05 398.01 506.57 378.98 506.57 378.98 499.06 366.16"/>
      </g>
    </g>
    <g>
      <path class="cls-11" d="M515.01,435.07c0-5.13-2.86-9.71-7.36-12.8-.06-2.23-1.87-4.02-4.11-4.02h-18.83c-2.24,0-4.06,1.79-4.11,4.02-4.5,3.08-7.36,7.67-7.36,12.8s2.86,9.71,7.36,12.8c.06,2.23,1.87,4.02,4.11,4.02h18.83c2.24,0,4.06-1.79,4.11-4.02,4.5-3.08,7.36-7.67,7.36-12.8Z"/>
      <g>
        <path class="cls-8" d="M480.59,422.77h27.06c.28,0,.5-.22.5-.5s-.22-.5-.5-.5h-27.06c-.28,0-.5.22-.5.5s.22.5.5.5Z"/>
        <path class="cls-8" d="M507.66,447.36h-27.06c-.28,0-.5.22-.5.5s.22.5.5.5h27.06c.28,0,.5-.22.5-.5s-.22-.5-.5-.5Z"/>
      </g>
    </g>
  </g>
  <g>
    <g>
      <rect class="cls-31" x="111.94" y="206.53" width="129.84" height="48"/>
      <rect class="cls-28" x="116.57" y="212.68" width="81.08" height="2.8"/>
    </g>
    <g>
      <path class="cls-31" d="M131.31,148.85v-5.19c.07-.62.14-1.24.21-1.87,1.06-9.53,4.7-17.94,11.13-25.07,6.82-7.57,15.27-12.3,25.33-14.08,1.67-.3,3.36-.46,5.03-.69h5.19c.22.05.44.13.67.14,6.93.49,13.41,2.47,19.33,6.1,11.48,7.03,18.54,17.17,21.02,30.44.31,1.66.46,3.35.69,5.03v5.19c-.07.62-.14,1.24-.21,1.87-1.06,9.53-4.7,17.94-11.13,25.07-6.82,7.57-15.27,12.3-25.33,14.08-1.67.3-3.36.46-5.03.69h-5.19c-.22-.05-.44-.13-.67-.14-6.93-.49-13.41-2.47-19.33-6.1-11.48-7.03-18.54-17.17-21.02-30.44-.31-1.66-.46-3.35-.69-5.03ZM213.03,146.27c.02-20.63-16.72-37.39-37.39-37.43-20.61-.04-37.38,16.69-37.45,37.36-.07,20.62,16.77,37.49,37.43,37.48,20.65-.01,37.39-16.76,37.41-37.41Z"/>
      <path class="cls-31" d="M172.17,136.23c0-3.37-.03-6.75,0-10.12.03-2.6,2.39-4.25,4.7-3.34,1.4.55,2.18,1.82,2.18,3.6,0,5.71.03,11.42-.03,17.13-.01,1.02.32,1.6,1.12,2.18,3.7,2.71,7.34,5.49,11.01,8.23,1.28.95,1.88,2.19,1.48,3.76-.59,2.36-3.27,3.33-5.3,1.93-1.28-.88-2.5-1.85-3.75-2.79-3.16-2.37-6.3-4.77-9.49-7.09-1.36-.99-1.98-2.21-1.96-3.89.05-3.2.01-6.4.02-9.6Z"/>
    </g>
    <g>
      <g>
        <rect class="cls-11" x="255.35" y="101.96" width="122.14" height="110.73"/>
        <path class="cls-32" d="M372.78,109.98h-112.73c-.28,0-.51.23-.51.51s.23.51.51.51h52.6v93.5c0,.28.23.51.51.51s.51-.23.51-.51v-93.5h59.11c.28,0,.51-.23.51-.51s-.23-.51-.51-.51Z"/>
      </g>
      <g>
        <g>
          <rect class="cls-28" x="267.63" y="130.71" width="15.11" height="24.41"/>
          <path class="cls-32" d="M267.63,130.71h15.11s1.42,22.82-4.98,22.82h-15.4s5.27-5.3,5.27-22.82Z"/>
        </g>
        <g>
          <rect class="cls-28" x="267.63" y="159.95" width="15.11" height="24.41"/>
          <path class="cls-32" d="M267.63,159.95h15.11s1.42,22.82-4.98,22.82h-15.4s5.27-5.3,5.27-22.82Z"/>
        </g>
        <g>
          <rect class="cls-28" x="325.44" y="159.95" width="15.11" height="24.41"/>
          <path class="cls-32" d="M325.44,159.95h15.11s1.42,22.82-4.98,22.82h-15.4s5.27-5.3,5.27-22.82Z"/>
        </g>
      </g>
    </g>
    <g>
      <rect class="cls-11" x="385.91" y="102.84" width="268.88" height="207.37" rx="9.67" ry="9.67" transform="translate(1040.7 413.06) rotate(180)"/>
      <g>
        <rect class="cls-28" x="402.56" y="202.6" width="130.83" height="3.63"/>
        <rect class="cls-28" x="403.1" y="130.25" width="17.27" height="66.68"/>
        <rect class="cls-28" x="425.78" y="139.5" width="17.27" height="57.43"/>
        <rect class="cls-28" x="449.08" y="150.47" width="17.27" height="46.46"/>
        <rect class="cls-28" x="473.94" y="157.32" width="17.27" height="39.61"/>
        <rect class="cls-28" x="498.27" y="190.32" width="35.12" height="3.19"/>
        <rect class="cls-28" x="498.27" y="182.07" width="35.12" height="3.19"/>
        <rect class="cls-28" x="498.27" y="173.28" width="35.12" height="3.19"/>
        <path class="cls-28" d="M524.08,264.44c-.08-.14-.21-.23-.37-.26-.16-.03-.32.03-.43.14l-22.74,21.74-25.9-28.84c-.1-.11-.23-.17-.38-.17h0c-.14,0-.28.06-.38.17l-19.16,20.83-45.19-36.8,8.32-1.33c.28-.05.47-.31.43-.59-.05-.28-.3-.47-.59-.43l-9.45,1.51s-.02.01-.03.01c-.08.02-.14.05-.2.1-.02.01-.03.03-.05.04-.06.06-.11.13-.13.22,0,0,0,0,0,0,0,0,0,0,0,0-.02.06-.02.12-.01.19l1.18,9.58c.03.26.25.45.51.45.02,0,.04,0,.06,0,.28-.03.48-.29.45-.57l-1.02-8.31,45.47,37.02c.21.17.52.15.7-.05l19.1-20.77,25.88,28.81c.09.1.22.16.36.17.14,0,.27-.05.37-.14l22.65-21.65,16.64,29.82c.09.17.27.26.45.26.09,0,.17-.02.25-.07.25-.14.34-.45.2-.7l-16.96-30.4Z"/>
        <rect class="cls-28" x="500.67" y="223.07" width=".69" height="37.88"/>
        <rect class="cls-28" x="453.39" y="223.07" width=".69" height="37.88"/>
        <rect class="cls-28" x="556.03" y="131.83" width="58.4" height="5.14"/>
      </g>
      <path class="cls-32" d="M394.83,102.84h251.04c4.92,0,8.92,4,8.92,8.92v1.03c0,4.92-4,8.92-8.92,8.92h-251.04c-4.92,0-8.92-4-8.92-8.92v-1.03c0-4.92,4-8.92,8.92-8.92Z" transform="translate(1040.7 224.55) rotate(180)"/>
      <path class="cls-13" d="M484.41,93.08h71.89c3.31,0,6,2.69,6,6v.7c0,3.31-2.69,6-6,6h-71.89c-3.31,0-6-2.69-6-6v-.7c0-3.31,2.69-6,6-6Z" transform="translate(1040.7 198.85) rotate(180)"/>
    </g>
  </g>
  <line class="cls-6" x1="55" y1="452.8" x2="696" y2="452.8"/>
  <g>
    <g>
      <g>
        <g>
          <path class="cls-11" d="M189.84,438.75c2.05-1.12,3.79-6.58,5.24-13.96v-57.81h13.76v57.34c1.47,7.62,3.24,13.28,5.33,14.43,7.68,4.21,29.4,3.88,29.4,13.13h-83.14c0-9.25,21.72-8.92,29.4-13.13Z"/>
          <path class="cls-8" d="M208.84,373.81s-6.38,4-13.76,3.95v-10.78h13.76v6.83Z"/>
        </g>
        <g>
          <path class="cls-11" d="M266.85,361.12s-55.89,18.87-90.46,4.23c-34.56-14.64-23.18-62.13-17.32-77.09,5.86-14.96,48.47-19.83,63.76,1.96,15.29,21.79,45.1,41.63,44.02,70.91Z"/>
          <path class="cls-8" d="M169.8,317.46c-15.78-20.27,2.79-39.33,3.03-39.58,15.51-5.07,39.36-2.82,49.99,12.34,6.03,8.59,14.31,16.88,22.07,25.56-17.86,25.2-63.43,16.66-75.1,1.68Z"/>
        </g>
      </g>
      <g>
        <g>
          <g>
            <path class="cls-34" d="M221.42,250.45s-.54,7.62,4.18,11.89c4.72,4.27,5.02,27.66-3.8,24.2-8.83-3.46-19.79-29.87-19.79-29.87,0,0,4.96-6.87,5-12.51s14.68,1.22,14.42,6.29Z"/>
            <path class="cls-15" d="M206.3,248.17c.41-1.34.69-2.7.7-4.01.04-5.64,14.68,1.22,14.42,6.29,0,0-6.18,2.45-15.12-2.28Z"/>
          </g>
          <path class="cls-3" d="M197.96,240.2c-2.95-3.25-3.92-7.17-2.16-8.77,1.76-1.6,5.57-.26,8.53,2.98.02.02.04.05.07.08,2.8,3.13,3.77,6.85,2.25,8.53-.05.06-.1.12-.15.17-1.76,1.6-5.57.26-8.53-2.98Z"/>
          <path class="cls-19" d="M228.86,226.13s-.15,5.22,1.16,9.17c1.31,3.95-1.79,11.3-5.25,14.01-3.46,2.71-12.24.23-15.75-2.17-3.52-2.4-7.09-9.62-7.93-13.04-.84-3.42,1.56-18.18,11.72-18.57s16.01,1.76,16.05,10.61Z"/>
          <path class="cls-7" d="M206.3,223.53s15.71,5.37,14.25,1.46c0,0,10,7.23,9.77,3.13,0,0,8.04-3.37,4.14-12.08-3.9-8.71-9.95-6.06-13.04-7.69-3.09-1.63-13.11-5.81-20.49.2s-5.13,22.86-5.13,22.86l3.94-.27s1.96,8.06,4.15,9.57c0,0-.9-8.41-.09-12.8.81-4.39,5.17-1.14,2.5-4.39Z"/>
        </g>
        <g>
          <g>
            <path class="cls-19" d="M247.22,422.22l-1.41,14.63s1.52,13.49,13.04,4.65l5.47-28.06-17.1,8.79Z"/>
            <path class="cls-21" d="M273.18,451.88h-34.41s1.94-20.5,7.42-18.93c5.48,1.56,6.14,6.66,12.66,3.79,4.77-2.1,13.31,3.02,17.55,8.82,1.92,2.63.03,6.32-3.22,6.32Z"/>
            <g>
              <path class="cls-11" d="M269.84,438.95c.26-.01.51.17.53.44.02.27-.17.51-.44.53-1.19.11-4.44.8-5.16,2.63-.08.19-.26.31-.45.31-.06,0-.12-.01-.18-.03-.25-.1-.37-.38-.28-.63,1.09-2.76,5.78-3.23,5.98-3.24Z"/>
              <path class="cls-11" d="M261.08,440.07c1.09-2.76,5.78-3.23,5.98-3.24.26-.02.51.17.53.44.02.27-.17.51-.44.53-1.19.11-4.44.79-5.16,2.63-.08.19-.26.31-.45.31-.06,0-.12-.01-.18-.03-.25-.1-.37-.38-.28-.63Z"/>
            </g>
            <polygon class="cls-15" points="261.6 427.37 247.22 422.22 262.15 424.56 261.6 427.37"/>
          </g>
          <g>
            <path class="cls-19" d="M217.62,422.22l-1.41,14.63s1.52,13.49,13.04,4.65l5.47-28.06-17.1,8.79Z"/>
            <path class="cls-12" d="M243.58,451.88h-34.41s1.94-20.5,7.42-18.93c5.48,1.56,6.14,6.66,12.66,3.79,4.77-2.1,13.31,3.02,17.55,8.82,1.92,2.63.03,6.32-3.22,6.32Z"/>
            <g>
              <path class="cls-11" d="M240.24,438.95c.26-.01.51.17.53.44.02.27-.17.51-.44.53-1.19.11-4.44.8-5.16,2.63-.08.19-.26.31-.45.31-.06,0-.12-.01-.18-.03-.25-.1-.37-.38-.28-.63,1.09-2.76,5.78-3.23,5.98-3.24Z"/>
              <path class="cls-11" d="M231.48,440.07c1.09-2.76,5.78-3.23,5.98-3.24.26-.02.51.17.53.44.02.27-.17.51-.44.53-1.19.11-4.44.79-5.16,2.63-.08.19-.26.31-.45.31-.06,0-.12-.01-.18-.03-.25-.1-.37-.38-.28-.63Z"/>
            </g>
            <polygon class="cls-15" points="232 427.37 217.62 422.22 232.55 424.56 232 427.37"/>
          </g>
        </g>
        <g>
          <path class="cls-35" d="M180.54,329.25h68.31s18.37,3.58,23.01,13.01c4.64,9.43-5.01,84.02-5.01,84.02l-22.88-3.67,1.63-52.05-6.83,54.97-24.91-3.9s5.22-59.04,3.75-60.5c-1.46-1.46-14.39.08-30.24-6.51-3.67-1.52-7.32-13.53-6.83-17.81.49-4.28,0-7.56,0-7.56Z"/>
          <g>
            <path class="cls-9" d="M244.09,418.79l1.51-48.23s3.12-23.34-.23-24.88c-3.35-1.55-29.16-11.06-29.16-11.06,0,0,27.39,6.51,31.36,11.06,3.42,3.92-1.72,58.19-3.21,73.14l11.02,1.53c2.39-23.44,6.58-67.95,5.45-70.34-1.16-2.46-23.07-11.78-31.42-15.17-.12-.05-.18-.19-.13-.32.05-.13.2-.19.32-.13,1.23.5,30.2,12.27,31.68,15.41,1.44,3.06-4.9,65.6-5.41,70.61l11.27,1.57c.13.02.23.14.21.28-.02.12-.12.21-.24.21-.01,0-.02,0-.03,0l-11.5-1.6s0,0,0,0c0,0,0,0,0,0l-11.26-1.56c-.21,2.1-.34,3.31-.34,3.31l.1-3.34h-.03c-.13-.02-.23-.15-.21-.28.02-.12.12-.2.25-.2Z"/>
            <path class="cls-9" d="M188.87,336.45c.12-.06.27,0,.32.12.03.07,3.09,6.46,5.44,8.72,2.49-4.05-1.2-10.12-1.23-10.18-.07-.11-.04-.26.08-.34.11-.07.26-.04.34.08.16.27,3.92,6.45,1.2,10.75,1.53.95,9.43,2.47,17.1,3.95,12.09,2.33,20.06,3.97,20.65,5.29,1.09,2.42-5.3,60.35-5.82,65.08l12.27,2.06c.13.02.22.15.2.28-.02.12-.12.2-.24.2-.01,0-.03,0-.04,0l-12.49-2.09h0s-12.52-2.1-12.52-2.1c-.13-.02-.22-.15-.2-.28.02-.13.15-.23.28-.2l12.25,2.05c1.95-17.62,6.73-62.85,5.86-64.8-.54-1.2-11.5-3.31-20.3-5.01-8.7-1.68-16.22-3.13-17.46-4.15,0,0,0,0,0,0,0,0,0,0,0,0,0,0-.01,0-.02-.01-2.45-2.12-5.64-8.8-5.78-9.09-.06-.12,0-.27.12-.32Z"/>
          </g>
        </g>
        <g>
          <path class="cls-19" d="M270.08,281.23s-4.39-3.15-2.94-12.65c1.45-9.5,2.28-5.18,2.84-2.3.55,2.88,2.33,6.2,4.98,1.59,2.64-4.61,10.4-17.61,9.02-11.94-1.39,5.67-4.23,9.59-4.23,9.59,0,0,10.35-15.2,9.04-9.7-1.31,5.5-6.14,11.38-6.14,11.38,0,0,8.41-11.18,7.94-8.04-.47,3.14-4.73,10.87-4.73,10.87,0,0,6.31-6.04,4.77-1.85-1.54,4.19-11.66,20-20.55,13.03Z"/>
          <path class="cls-22" d="M156.8,313.31c1.79-5.48,22.99-44.55,22.99-44.55l1.41-3.12,22.19-11.11s16.37,22.13,18.73,1.83c0,0,18.28,8.49,20.4,10.77s5.66,31.62,5.66,31.62l16.43-24.28,14.25,9.16-16.59,31.49s-9.84,15.11-13.09,15.76c-3.25.65-45.22.33-45.22.33l-24.07,8.78v-22.47c-.43,0-.85,0-1.3.02-21.1.98-22.56-1.87-21.79-4.23Z"/>
          <path class="cls-10" d="M203.02,255.85c.11-.07.26-.04.34.08,4.27,6.72,10.42,11.09,14.98,10.62,4.5-.46,5.26-8.36,5.27-8.44.01-.13.12-.24.26-.22.13.01.23.13.22.26-.03.34-.81,8.38-5.71,8.88-.17.02-.35.02-.52.03v50.48c0,.13-.11.24-.24.24s-.24-.11-.24-.24v-50.48c-4.59-.18-10.36-4.47-14.43-10.87-.07-.11-.04-.26.08-.34Z"/>
          <g>
            <path class="cls-20" d="M186.15,273.87s-4.64,27.57-1.95,28.79c2.68,1.22,18.95,5.77,18.95,5.77,0,0-23.83-2.36-24.07-4.31-.24-1.95,7.08-30.25,7.08-30.25Z"/>
            <polygon class="cls-20" points="195.76 317.54 193.61 317.54 197.64 307.82 195.76 317.54"/>
            <polygon class="cls-20" points="238.5 317.54 232.46 317.54 234.72 274.84 238.5 317.54"/>
            <path class="cls-20" d="M201.33,294.56c.06-.08.09-.18.09-.28v-11.3c0-.27-.22-.49-.49-.49h-10.47c-.27,0-.49.22-.49.49v11.3c0,.1.03.21.1.29.1.14,2.55,3.38,5.86,3.38,1.97,0,3.78-1.14,5.4-3.38ZM200.44,294.12c-1.4,1.89-2.91,2.85-4.51,2.85-2.48,0-4.52-2.3-4.98-2.86v-10.64h9.49v10.65Z"/>
          </g>
          <path class="cls-19" d="M203.15,308.43l-2.01,9.11h17.95s-2.28-8.13-15.94-9.11Z"/>
        </g>
      </g>
    </g>
    <path class="cls-18" d="M412.13,451.88h-36.63c-4.31,0-7.81-3.84-7.81-8.58s3.5-8.58,7.81-8.58h28.83v-100.04h-236.47v117.2h-61.9c-4.31,0-7.81-3.84-7.81-8.58v-117.2c0-4.74,3.5-8.58,7.81-8.58h306.18c3.16,0,5.87,2.06,7.1,5.02h55.01v129.32h-62.11Z"/>
    <g>
      <g>
        <g>
          <path class="cls-11" d="M323.11,438.75c2.05-1.12,3.79-6.58,5.24-13.96v-57.81h13.76v57.34c1.47,7.62,3.24,13.28,5.33,14.43,7.68,4.21,29.4,3.88,29.4,13.13h-83.14c0-9.25,21.72-8.92,29.4-13.13Z"/>
          <path class="cls-8" d="M342.12,373.81s-6.38,4-13.76,3.95v-10.78h13.76v6.83Z"/>
        </g>
        <g>
          <path class="cls-11" d="M400.13,361.12s-55.89,18.87-90.46,4.23c-34.56-14.64-23.18-62.13-17.32-77.09,5.86-14.96,48.47-19.83,63.76,1.96,15.29,21.79,45.1,41.63,44.02,70.91Z"/>
          <path class="cls-8" d="M303.08,317.46c-15.78-20.27,2.79-39.33,3.03-39.58,15.51-5.07,39.36-2.82,49.99,12.34,6.03,8.59,14.31,16.88,22.07,25.56-17.86,25.2-63.43,16.66-75.1,1.68Z"/>
        </g>
      </g>
      <g>
        <g>
          <g>
            <path class="cls-34" d="M350.16,257.44s-2.39,7.25,1.14,12.55-1.9,28.05-9.61,22.54c-7.71-5.52-11.87-33.81-11.87-33.81,0,0,6.49-5.45,7.91-10.91s13.94,4.77,12.44,9.63Z"/>
            <path class="cls-15" d="M336.06,251.53c.73-1.19,1.33-2.45,1.66-3.71,1.42-5.46,13.94,4.77,12.44,9.63,0,0-6.59.86-14.1-5.91Z"/>
          </g>
          <path class="cls-25" d="M329.92,241.75c-2.07-3.87-2.04-7.91.05-9.03,1.34-.72,3.21-.05,4.93,1.53.96.89,1.87,2.06,2.61,3.45.02.03.03.06.04.09,1.95,3.72,1.97,7.57.09,8.82-.06.04-.12.09-.19.13-.27.14-.55.23-.85.27-2.08.26-4.88-1.87-6.68-5.25Z"/>
          <path class="cls-19" d="M363.32,235.69s-1.42,5.02-1.12,9.18c.3,4.15-4.5,10.52-8.52,12.3-4.02,1.78-11.92-2.77-14.74-5.96-2.82-3.19-4.52-11.07-4.49-14.59.02-3.52,5.96-17.24,15.91-15.14,9.95,2.1,15.09,5.63,12.96,14.21Z"/>
        </g>
        <g>
          <path class="cls-10" d="M332.79,255.81s-15.13,2.2-18.06,5.61c-2.93,3.42-14.64,72.95-14.64,72.95h101.98l-6.83-24.15s-17.32-3.42-20.01-5.12c-2.68-1.71-13.91-40.5-16.35-41.72-2.44-1.22-9.25-3.66-9.25-3.66,0,0-4.45,14.14-16.85-3.91Z"/>
          <g>
            <path class="cls-29" d="M352.95,275.44s-1.45,1.19-2.76-2.23-1.07-6.42-1.07-6.42c0,0-2.34.08-3.64-1.46,0,0-7.32,2.69-10.46-.44-3.14-3.13-2.25-9.07-2.25-9.07h.02c5.91,8.61,10.01,9.88,12.69,8.87h0c2.08-.79,3.3-2.95,3.83-4.15l.24-.26.13-.54c.52.19,6.86,2.47,9.2,3.64.95.48,3.24,6.67,5.83,14.14,0,.01-1.37,4.85-6.48,1.99-5.12-2.87-5.29-4.06-5.29-4.06Z"/>
            <path class="cls-29" d="M324,275.44c6.18,4.1.16,25.83.16,25.83,8.62-.98,28.24,6.55,28.24,6.55l-30.72-4.2,2.32-28.18Z"/>
            <path class="cls-29" d="M352.4,279.5c.76-5.18,4.61,37.71,4.61,37.71l-2.91.1s-2.45-32.63-1.7-37.81Z"/>
          </g>
          <g>
            <path class="cls-11" d="M332.78,255.81l12.71,8.87s-14.74,6.62-12.71-8.87Z"/>
            <path class="cls-11" d="M345.48,264.69l4.07-4.41c2.71,9.27-4.07,4.41-4.07,4.41Z"/>
          </g>
          <g>
            <path class="cls-19" d="M351.28,307.67l-1.59,9.86h16.92s-.65-7.86-15.33-9.86Z"/>
            <path class="cls-19" d="M395.24,310.22l.24,7.32h14s.56-6.18-14.24-7.32Z"/>
          </g>
        </g>
        <g>
          <path class="cls-19" d="M348.85,444.5s-3.41-4.29-3.24-7.52c.17-3.23,8.02-20.85,8.02-20.85l-12.27-3.19-4.01,12.84s-5.1,4.12-2.4,9.86c2.71,5.75,12.05,15.58,13.9,8.87Z"/>
          <path class="cls-2" d="M337.35,425.77s-3.56,1.59-4.06,3.98c-.5,2.39.92,5.65.74,8.76-.18,3.1-1.33,9.48-1.33,9.48l1.65.43,2.58-7.51s-.11,8.16,4.37,9.32c4.48,1.17,12.84,4.85,11.82.56-1.02-4.3-4.29-6.28-4.29-6.28,0,0-6.23,2.16-8.41-4.96-2.18-7.12-5.01-11.25-3.09-13.77Z"/>
          <polygon class="cls-15" points="338.15 423.22 347.84 429.95 348.69 426.89 338.15 423.22"/>
        </g>
        <g>
          <path class="cls-19" d="M394.33,444.44s-4.38-3.3-5.03-6.47,2.51-22.2,2.51-22.2h-12.68l-.65,13.43s-3.9,5.27.16,10.15c4.07,4.88,15.58,12.04,15.68,5.08Z"/>
          <path class="cls-2" d="M378.48,429.21s-3.05,2.44-2.93,4.88c.12,2.44,2.32,5.24,2.93,8.29.61,3.05,1.1,9.51,1.1,9.51h1.71l.61-7.92s1.95,7.92,6.58,7.92,13.65,1.46,11.58-2.44c-2.07-3.9-5.73-5-5.73-5,0,0-5.48,3.66-9.38-2.68-3.9-6.34-7.68-9.63-6.46-12.55Z"/>
          <polygon class="cls-15" points="378.48 429.21 389.58 431.55 389.88 428.96 378.48 429.21"/>
        </g>
        <g>
          <path class="cls-23" d="M319.28,253.78c5.86-8.62,8.38-14.75,9.11-22.28.68-7.02,3.86-12.48,8.43-15.68-1.09-.59-1.87-1.39-2.2-2.41-1.11-3.44,3.26-7.92,9.75-10.01,6.49-2.09,12.65-1,13.76,2.44.8,2.48-1.26,5.51-4.92,7.79.78.25,1.57.53,2.36.88,13.17,5.69,9.89,25.85,8.92,31.75-.98,5.9.19,17.32,1.07,23.57.63,4.47.21,7.24-2.04,8.93-1.7,1.33-3.58.74-5.25-.47-1.93-1.06-3.47-3.05-4.69-5.34,0,0-.01-.02-.01-.02,0,0-.43,3.38-2.5.45-2.07-2.93-1.46-13.05-1.46-13.05l-.06-.05c.23-1.7.6-2.84.6-2.84,0,0,0,0,0,0,1.32.21,2.54.17,3.52-.27,4.02-1.78,8.82-8.15,8.52-12.3-.23-3.21.56-6.93.94-8.46h0s-3.26-1.53-2.87-6.21c0,0-9.44,6.59-11.14,2.24,0,0-9.67,3.93-9.02-.38l-3.44,1.45s.32,12.86-.6,11.97c-.92-.89-2.74-12.33-2.75-12.39-1.21-.68-2.4-.86-3.34-.37-2.1,1.12-2.12,5.16-.05,9.03,1.8,3.38,4.6,5.51,6.68,5.25.25.64.52,1.23.8,1.8-.07.2-.16.39-.24.59-.05.11-.09.22-.14.34-.13.28-.26.55-.41.82-.02.03-.03.06-.05.09-.16.3-.33.6-.51.89h0c-.98,1.61-2.19,3.09-3.28,4.29-.16.02-11.5,1.68-16.36,4.35.22-1.58,1.02-3.67,2.86-6.38Z"/>
          <path class="cls-11" d="M334.45,249.31c0,.83.36,1.5.81,1.5s.81-.67.81-1.5-.36-1.5-.81-1.5-.81.67-.81,1.5Z"/>
        </g>
        <g>
          <path class="cls-12" d="M306.61,334.73s1.08,25.42,15.07,25.74c13.99.33,29.4,3.31,29.4,3.31l-15.82,58.44,19.38,6.74,19.17-53.51,2.24,53.51h17.89s11.06-73.69,8.13-76.94c-2.93-3.25-38.27-17.29-38.27-17.29h-57.19Z"/>
          <path class="cls-2" d="M380.11,350.47c-2.11-1.69-28.95-12.22-36.19-15.04l-37.31-.7h57.19l2.81,1.13-21.75-.41c8.88,2.37,36.46,10.04,38.91,14.53,2.93,5.37-6.38,21.64-6.97,27.78-.59,6.13-.75,51.2-.75,51.2l-2.24-53.51s8.75-23.03,6.31-24.98Z"/>
        </g>
      </g>
    </g>
    <path class="cls-13" d="M168.59,317.54h306.18c4.31,0,7.81,3.84,7.81,8.58v117.2c0,4.74-3.5,8.58-7.81,8.58h-36.63c-4.31,0-7.81-3.84-7.81-8.58s3.5-8.58,7.81-8.58h28.83v-100.04H176.39v100.04h28.83c4.31,0,7.81,3.84,7.81,8.58s-3.5,8.58-7.81,8.58h-36.63c-4.31,0-7.81-3.84-7.81-8.58v-117.2c0-4.74,3.5-8.58,7.81-8.58Z"/>
    <g>
      <g>
        <path class="cls-24" d="M235.66,313.93l14.55-34.34c.22-.51.72-.84,1.27-.84h51.46c.99,0,1.66,1.01,1.27,1.92l-15.27,36.03c-.22.51-.72.84-1.27.84h-77.13c-.76,0-1.38-.62-1.38-1.38h0c0-.76.62-1.38,1.38-1.38h23.84c.56,0,1.06-.33,1.27-.84Z"/>
        <path class="cls-16" d="M238.5,317.54h51.46c.56,0,1.06-.33,1.27-.84l15.27-36.03c.39-.91-.28-1.92-1.27-1.92h-51.46c-.56,0-1.06.33-1.27.84l-15.27,36.03c-.39.91.28,1.92,1.27,1.92Z"/>
        <path class="cls-11" d="M266.33,307.1c1.97,2.66,6.61,2.56,10.36-.23s5.19-7.2,3.22-9.85c-1.97-2.66-6.61-2.56-10.36.23-3.75,2.78-5.19,7.2-3.22,9.85Z"/>
      </g>
      <g>
        <path class="cls-30" d="M372.1,313.93l14.55-34.34c.22-.51.72-.84,1.27-.84h51.46c.99,0,1.66,1.01,1.27,1.92l-15.27,36.03c-.22.51-.72.84-1.27.84h-77.13c-.76,0-1.38-.62-1.38-1.38h0c0-.76.62-1.38,1.38-1.38h23.84c.56,0,1.06-.33,1.27-.84Z"/>
        <path class="cls-35" d="M374.94,317.54h51.46c.56,0,1.06-.33,1.27-.84l15.27-36.03c.39-.91-.28-1.92-1.27-1.92h-51.46c-.55,0-1.06.33-1.27.84l-15.27,36.03c-.39.91.28,1.92,1.27,1.92Z"/>
        <path class="cls-11" d="M401.71,307.1c1.97,2.66,6.61,2.56,10.36-.23s5.19-7.2,3.22-9.85-6.61-2.56-10.36.23-5.19,7.2-3.22,9.85Z"/>
      </g>
    </g>
    <g>
      <g>
        <g>
          <path class="cls-19" d="M609.39,444.44s4.38-3.3,5.03-6.47-2.51-22.2-2.51-22.2h12.68l.65,13.43s3.9,5.27-.16,10.15c-4.07,4.88-15.58,12.04-15.68,5.08Z"/>
          <path class="cls-35" d="M625.24,429.21s3.05,2.44,2.92,4.88-2.32,5.24-2.92,8.29c-.61,3.05-1.1,9.51-1.1,9.51h-1.71l-.61-7.92s-1.95,7.92-6.58,7.92-13.65,1.46-11.58-2.44c2.07-3.9,5.73-5,5.73-5,0,0,5.48,3.66,9.38-2.68s7.68-9.63,6.46-12.55Z"/>
          <polygon class="cls-15" points="625.24 429.21 613.42 425.77 625.13 426.96 625.24 429.21"/>
        </g>
        <g>
          <path class="cls-19" d="M639,444.44s4.38-3.3,5.03-6.47c.65-3.17-2.51-22.2-2.51-22.2h12.68l.65,13.43s3.9,5.27-.16,10.15c-4.07,4.88-15.58,12.04-15.68,5.08Z"/>
          <path class="cls-35" d="M654.84,429.21s3.05,2.44,2.92,4.88c-.12,2.44-2.32,5.24-2.92,8.29s-1.1,9.51-1.1,9.51h-1.71l-.61-7.92s-1.95,7.92-6.58,7.92-13.65,1.46-11.58-2.44,5.73-5,5.73-5c0,0,5.48,3.66,9.38-2.68s7.68-9.63,6.46-12.55Z"/>
          <polygon class="cls-15" points="643.21 427.18 654.79 428.14 654.69 426.11 643.21 427.18"/>
        </g>
      </g>
      <polygon class="cls-35" points="663.27 290.06 658.74 369.26 666.06 425.05 632.97 428.14 634.43 366.82 635.15 313.88 633.32 359.84 630.28 427.48 599.87 424.39 609.46 368.04 607.06 290.06 663.27 290.06"/>
      <g>
        <path class="cls-25" d="M656.35,168.52c1.93,1.6,1.1,5.8-1.87,9.37-2.59,3.12-5.95,4.73-8.04,4.01-.3-.1-.58-.25-.82-.46-.06-.05-.11-.11-.17-.17-1.68-1.7-.84-5.68,1.97-9.12.02-.03.04-.06.07-.08,1.06-1.28,2.25-2.3,3.44-3.02,2.11-1.28,4.19-1.57,5.43-.54Z"/>
        <g>
          <path class="cls-34" d="M630.18,189.83s.93,8.02-3.85,12.76c-4.79,4.74-4,29.47,5.16,25.39,9.16-4.07,19.5-32.5,19.5-32.5,0,0-5.56-7.02-5.87-12.98-.31-5.96-15.45,1.98-14.93,7.33Z"/>
          <path class="cls-15" d="M646.04,186.71c-.5-1.39-.86-2.82-.93-4.2-.31-5.96-15.45,1.98-14.93,7.33,0,0,6.64,2.3,15.86-3.13Z"/>
        </g>
        <path class="cls-19" d="M621.17,164.5s.4,5.51-.79,9.74c-1.2,4.24,2.43,11.85,6.21,14.55s12.94-.34,16.54-3.04,7.03-10.5,7.76-14.16c.72-3.65-2.51-19.13-13.26-19.07-10.75.06-16.83,2.62-16.45,11.97Z"/>
        <path class="cls-5" d="M620.38,174.24c.77-2.74.88-5.99.85-7.96h0s2.23-1.34,3.19-6.34c0,0,14.31,7.32,12.04,2.93,0,0,10.73,7.81,10.25,3.09l4.21,3.11h0s0,0,0,0c.1,1.07.09,1.95-.03,2.53-.58,2.93-2.9,8.52-5.66,12.02,0-.01,0-.02,0-.03-.05-.36-.09-.72-.11-1.07-.17-3.35-5.04-2.31-9.18.2-.46.28-.91.58-1.34.89-1.3.93-2.45,1.99-3.26,3.07-.4.54-.72,1.08-.92,1.61-.07.18-.12.35-.16.53s-.07.35-.08.52c-.01.17-.01.34,0,.5-1.41-.06-2.66-.37-3.59-1.03-3.78-2.7-7.4-10.32-6.21-14.55Z"/>
        <path class="cls-23" d="M616.46,167.9c-.33-12.69,6.34-26.02,20.75-26.02s17.96,10.73,20.18,22.28c2.22,11.55,11.44,21.19,11.44,21.19-3.4,6.4-8.88,8.06-12.08,8.47-4.81-2.13-9.27-3.95-9.33-3.97-.51-.99-.99-2.05-1.38-3.14h0c-.12-.34-.24-.69-.34-1.03,0-.03-.02-.07-.03-.1-.09-.31-.18-.63-.25-.94-.03-.12-.05-.25-.07-.37-.04-.22-.09-.44-.12-.65.41-.53.82-1.1,1.21-1.71,2.1.71,5.45-.89,8.04-4.01,2.96-3.57,3.8-7.76,1.87-9.37-.99-.83-2.53-.79-4.19-.09-.02.15-1.73,11.02-4.51,11.68,0,0,3.28-9.1,1.06-12.69l-1.99-1.48c.49,4.72-10.25-3.09-10.25-3.09,2.28,4.39-12.04-2.93-12.04-2.93-.97,5-3.19,6.34-3.19,6.34h0c.02,1.97-.08,5.23-.85,7.96-1.2,4.24,2.43,11.85,6.21,14.55.93.66,2.18.97,3.59,1.03,0,0,0,0,0,0,0,0,.06.49.07,1.3,0,0-9.47,2.83-15.69,5.26-5.74-2.96-6.4-7.67-6.4-7.67,4.39-.81,8.62-8.13,8.29-20.82Z"/>
      </g>
      <g>
        <g>
          <path class="cls-19" d="M573.58,232.72s-4.25-6.51-6.35-7.93c-2.1-1.42-4.15-.64-6.26-1.6s-3.96-2.5-8.19-2.18c-4.23.32-5.82.85-8.13-.13-2.31-.98-3.02-.45-2.3.75.72,1.19,3.68,2.4,3.68,2.4,0,0-4.6-1.81-4.1-.43.56,1.54,4.6,4.88,4.6,4.88,0,0-1.65-.6-3.82-1.69-2.17-1.08-4.68-2.54-4.16-.74.52,1.8,1.72,1.94,4.35,3.34,2.63,1.4,5.73,2.44,7.34,2.02,0,0,2.49,1.51,3.43.75,0,0,2.17.77,3.21.05,0,0,1.64.06,3.09-1.09,0,0,1.98-.6,2.72-.18s4.9,7.47,4.9,7.47l5.98-5.69Z"/>
          <g>
            <path class="cls-13" d="M546.6,228.42l3.7,2.93s.05.1.02.14c-.03.03-.07.05-.11.03,0,0-.02,0-.03-.02l-3.7-2.93s-.05-.1-.02-.14c.03-.04.1-.05.14-.02Z"/>
            <path class="cls-13" d="M545.84,223.89c.96-.53,2.44-.26,3.8.69.38-.49.85-.74,1.39-.74.88,0,2.42.67,4.77,3.87.69.94,2.23,1.19,2.24,1.2.05,0,.09.06.08.11,0,.05-.06.09-.11.08-.03,0-.36-.06-.79-.21-.52-.18-1.17-.51-1.58-1.06-2.31-3.14-3.78-3.79-4.61-3.79-.48,0-.89.22-1.24.66,1,.76,2.27,2.48,3.21,3.76.43.59.81,1.09,1.06,1.38.82.94,2.85,2.3,2.87,2.31.04.03.06.09.03.14-.03.04-.09.06-.14.03-.08-.06-2.07-1.39-2.91-2.34-.26-.3-.64-.81-1.07-1.39-.96-1.3-2.27-3.07-3.25-3.78-1.3-.93-2.77-1.22-3.66-.73-.01,0-.02.02-.03.04-.08.78,4.64,5.21,7.83,7.99.04.04.05.1,0,.14-.03.03-.07.04-.11.03-.01,0-.02-.01-.03-.02-.82-.72-8.02-7.03-7.9-8.16,0-.09.05-.15.13-.2Z"/>
            <path class="cls-13" d="M562.43,230.75c2.05.41,5.89-1.58,5.92-1.6.05-.02.11,0,.13.04.03.05,0,.11-.04.13-.16.08-3.94,2.04-6.05,1.62,0,0,0,0-.01,0-.05-.02-.07-.06-.06-.11.01-.05.06-.09.12-.08Z"/>
            <path class="cls-13" d="M557.59,228.19s-.07.07-.12.05c0,0,0,0,0,0-.05-.02-.07-.08-.05-.13.31-.7,1.13-.71,1.37-.7.85-1.48,3.74-3.06,3.87-3.13.05-.03.11,0,.13.04.03.05,0,.11-.04.13-.03.02-3.04,1.66-3.82,3.11-.02.04-.06.06-.1.05,0,0-.93-.1-1.24.58Z"/>
          </g>
        </g>
        <g>
          <path class="cls-33" d="M647.42,189.85s16.06,6.53,20.17,9.42c4.12,2.88,14.46,63.16,14.46,66.25s-7.05,12.19-10.76,11.16c-3.71-1.03-8.03-1.49-8.03-1.49l1.77,12.8c.15,1.09-.7,2.07-1.8,2.07h-57.11c-1.05,0-1.89-.89-1.81-1.95l2.33-32.72s-7.18,15.84-11.92,13.78c-4.74-2.06-37.29-34.71-37.29-34.71l12.89-10.2,23.68,16.06s13.05-39.21,15.52-41.48c2.47-2.26,20.72-7.72,20.72-7.72,0,0,1,15.75,1.52,16.88s15.65-18.17,15.65-18.17Z"/>
          <g>
            <polygon class="cls-17" points="661.06 245.69 661.02 208.01 665.58 248.74 669.97 256.67 644.58 237.91 661.06 245.69"/>
            <polygon class="cls-17" points="612.07 206.29 606.65 255.39 602.45 263.09 612.07 206.29"/>
            <polygon class="cls-17" points="663.27 275.19 664.59 284.74 660.21 275.57 638.5 252.15 626.23 248.41 639.96 250.46 663.27 275.19"/>
            <path class="cls-17" d="M647.42,189.85s5.07,28.27-15.65,18.16c0,0,14.17-11.1,15.65-18.16Z"/>
            <path class="cls-17" d="M631.77,208.01s-12.21,3.34-1.52-16.88c0,0-2.12,13.08,1.52,16.88Z"/>
          </g>
          <g>
            <path class="cls-11" d="M631.77,208.01l15.65-18.16c5.41,23.55-15.65,18.16-15.65,18.16Z"/>
            <path class="cls-11" d="M630.25,191.13l1.52,16.88s-14.08-.16-1.52-16.88Z"/>
          </g>
        </g>
        <path class="cls-19" d="M629.31,238.33c-1.06-.37-4.8-1.79-8.48-4.79-4.35-3.54,9.12,1.92,13.81,3.92,4.69,2,4.13-1.57,2.89-4.1-1.24-2.53-3.11-6.31,3.5.12,1.63,1.59,2.76,3.08,3.55,4.44l-4.62,12.55c-6.12,1.26-14.69-2.11-17.13-3.68-3.6-2.31,4.72-1.35,4.72-1.35,0,0-7.74-3.46-9.92-5.58-1.74-1.71,6.19.32,9.42,1.19-2.25-.67-6.89-2.26-9.97-4.8-3.86-3.18,10,1.35,12.23,2.09Z"/>
      </g>
      <g>
        <path class="cls-9" d="M657.76,292.89s0,.02,0,.03c-1.09,9.36,4.58,13.17,4.83,13.32.23.15.29.45.14.67-.09.14-.25.22-.41.22-.09,0-.18-.02-.26-.08-.26-.17-6.42-4.26-5.27-14.23l-49.73-2.77h56.18l-.15,3.12-5.33-.3Z"/>
        <polygon class="cls-9" points="658.74 369.26 666.06 425.05 654.35 368.53 660.65 335.84 658.74 369.26"/>
      </g>
    </g>
    <g>
      <g>
        <path class="cls-1" d="M168.31,310.5h-33.52c-1.94,0-3.52,1.58-3.52,3.52h0c0,1.94,1.57,3.52,3.52,3.52h33.52c1.94,0,3.52-1.58,3.52-3.52h0c0-1.94-1.57-3.52-3.52-3.52Z"/>
        <rect class="cls-24" x="111.94" y="310.5" width="40.55" height="7.04"/>
        <rect class="cls-31" x="111.84" y="312.68" width="56.83" height="3.32"/>
        <rect class="cls-14" x="111.84" y="312.68" width="40.66" height="3.32"/>
      </g>
      <g>
        <path class="cls-10" d="M172.47,303.62h-33.52c-1.94,0-3.52,1.57-3.52,3.52h0c0,1.94,1.57,3.52,3.52,3.52h33.52c1.94,0,3.52-1.58,3.52-3.52h0c0-1.94-1.57-3.52-3.52-3.52Z"/>
        <rect class="cls-29" x="116.11" y="303.62" width="40.55" height="7.04"/>
        <rect class="cls-31" x="116" y="305.8" width="56.83" height="3.32"/>
        <rect class="cls-14" x="116" y="305.8" width="40.66" height="3.32"/>
      </g>
    </g>
  </g>
  <g>
    <path class="cls-31" d="M85.84,302.56c0,2.55-2.07,4.62-4.62,4.62s-4.62-2.07-4.62-4.62,2.07-4.62,4.62-4.62,4.62,2.07,4.62,4.62Z"/>
    <circle class="cls-4" cx="99.36" cy="137.38" r="6.67"/>
    <circle class="cls-4" cx="558.68" cy="381.21" r="10.29" transform="translate(58.83 836.84) rotate(-76.66)"/>
    <circle class="cls-31" cx="439.77" cy="87.77" r="3.27"/>
    <circle class="cls-31" cx="346.64" cy="59.53" r="5.53"/>
    <path class="cls-31" d="M679.48,147.2c0,2.94-2.38,5.33-5.33,5.33s-5.33-2.38-5.33-5.33,2.38-5.33,5.33-5.33,5.33,2.38,5.33,5.33Z"/>
    <path class="cls-31" d="M690.83,359.39c0,2.42-1.97,4.39-4.39,4.39s-4.39-1.97-4.39-4.39,1.97-4.39,4.39-4.39,4.39,1.97,4.39,4.39Z"/>
  </g>
  <g>
    <g>
      <path class="cls-35" d="M116.27,387.64c-.46-.3-1.08-.17-1.38.3-5.3,8.17-7.87,15.31-9.09,20.74-2.47-9.7-8.32-18.91-8.63-19.38-.3-.46-.92-.6-1.38-.3-.47.3-.6.92-.3,1.38.09.14,8.65,13.61,9.35,24.69-.2,2.88.03,4.57.06,4.75.07.5.5.85.99.85.05,0,.1,0,.15-.01.55-.08.92-.59.85-1.13-.02-.13-1.7-12.94,9.69-30.5.3-.46.17-1.08-.29-1.38Z"/>
      <g>
        <path class="cls-27" d="M115.71,376.02c-9.88-8.73-13.65-5.96-13.34-14.93s-4.76-15.91-9.67-17.21c-4.91-1.29-10.66-1.06-12.94-10.94-2.28-9.88-11.17-10.95-15.29-8.88s-8.6,9.81-2.06,17.56c6.54,7.75,2.91,12.21,1,16.92s.6,12.93,7.97,18.06,2.89,6.49,3.95,19.63c1.06,13.14,28.48,6.47,28.48,6.47,0,0,21.78-17.95,11.9-26.67Z"/>
        <polygon class="cls-35" points="101.79 370.84 93.22 381.53 88.07 371.24 84.4 363.89 89.91 350.29 83.54 362.19 77.78 350.67 77.78 350.67 66.01 327.14 76.75 349.94 76.75 349.94 66.66 344.32 77.16 350.8 86.86 371.39 69.01 366.44 88.14 374.11 97.63 394.79 81.31 391.04 99.19 397.56 102.03 403.58 103.8 402.69 94.28 383.66 94.28 383.66 101.79 370.84"/>
      </g>
      <g>
        <path class="cls-32" d="M97.75,371.33c9.88-8.73,13.65-5.96,13.34-14.93-.31-8.97,4.76-15.91,9.67-17.21,4.91-1.29,10.66-1.06,12.94-10.94,2.28-9.88,11.17-10.95,15.29-8.88,4.12,2.06,8.6,9.81,2.06,17.56-6.54,7.75-2.91,12.21-1,16.92s-.6,12.93-7.97,18.06c-7.37,5.13-2.89,6.49-3.95,19.63-1.06,13.14-28.48,6.47-28.48,6.47,0,0-21.78-17.95-11.9-26.67Z"/>
        <polygon class="cls-35" points="111.67 366.16 120.24 376.85 125.38 366.55 129.06 359.21 123.54 345.61 129.91 357.51 135.67 345.99 135.67 345.99 147.44 322.46 136.7 345.25 136.7 345.25 146.8 339.64 136.29 346.12 126.59 366.71 144.45 361.75 125.31 369.43 115.82 390.1 132.14 386.36 114.26 392.88 111.42 398.9 109.65 398.01 119.17 378.98 119.17 378.98 111.67 366.16"/>
      </g>
    </g>
    <g>
      <path class="cls-11" d="M127.61,435.07c0-5.13-2.86-9.71-7.36-12.8-.06-2.23-1.87-4.02-4.11-4.02h-18.83c-2.24,0-4.06,1.79-4.11,4.02-4.5,3.08-7.36,7.67-7.36,12.8s2.86,9.71,7.36,12.8c.06,2.23,1.87,4.02,4.11,4.02h18.83c2.24,0,4.06-1.79,4.11-4.02,4.5-3.08,7.36-7.67,7.36-12.8Z"/>
      <g>
        <path class="cls-8" d="M93.2,422.77h27.06c.28,0,.5-.22.5-.5s-.22-.5-.5-.5h-27.06c-.28,0-.5.22-.5.5s.22.5.5.5Z"/>
        <path class="cls-8" d="M120.26,447.36h-27.06c-.28,0-.5.22-.5.5s.22.5.5.5h27.06c.28,0,.5-.22.5-.5s-.22-.5-.5-.5Z"/>
      </g>
    </g>
  </g>
</svg>