<svg width="734" height="740" viewBox="0 0 734 740" fill="none" xmlns="http://www.w3.org/2000/svg">
<g clip-path="url(#clip0_129_36)">
<path d="M209.26 0.5H722.53C728.285 0.500198 732.95 5.16527 732.95 10.9199V348.44C732.95 354.195 728.285 358.86 722.53 358.86H209.26C203.505 358.86 198.84 354.195 198.84 348.44V10.9199C198.84 5.16518 203.505 0.500041 209.26 0.5Z" stroke="#DBDBDB"/>
<path d="M157.25 352.62C174.49 354.35 228.38 390.7 223.62 390.6C219.55 390.52 269.38 334.01 269.38 334.01C269.38 334.01 272.36 347.19 283.43 347.19C283.43 347.19 239.8 416.05 222.77 416.05C205.74 416.05 171.74 386.43 171.74 386.43C171.74 386.43 147.28 355.17 157.25 352.62Z" fill="#FFDBE2"/>
<g style="mix-blend-mode:multiply" opacity="0.15">
<path d="M39.1498 727.95C39.1498 727.95 42.8998 738.3 68.2198 738.3C93.5398 738.3 197.82 736.42 224.92 738.3C252.02 740.18 330.63 741.08 345.71 733.12C360.79 725.17 327.39 720.84 298.9 718.12C270.41 715.39 134.57 716.88 106.63 716.78C78.6997 716.69 31.3398 721.28 39.1498 727.94V727.95Z" fill="black"/>
</g>
<path d="M60.0896 718.12L55.1396 716.79L94.1197 537.07H132.88L162.86 716.94L157.85 717.98L128.71 542.19H98.0497L60.0896 718.12Z" fill="white"/>
<path d="M57.3896 725.721C60.8855 725.721 63.7196 722.887 63.7196 719.391C63.7196 715.895 60.8855 713.061 57.3896 713.061C53.8936 713.061 51.0596 715.895 51.0596 719.391C51.0596 722.887 53.8936 725.721 57.3896 725.721Z" fill="white"/>
<path d="M160.35 725.721C163.845 725.721 166.68 722.887 166.68 719.391C166.68 715.895 163.845 713.061 160.35 713.061C156.854 713.061 154.02 715.895 154.02 719.391C154.02 722.887 156.854 725.721 160.35 725.721Z" fill="white"/>
<path d="M111.57 718.12L106.63 716.79L145.6 537.07H184.36L214.34 716.94L209.33 717.98L180.19 542.19H149.53L111.57 718.12Z" fill="white"/>
<path d="M108.87 725.721C112.366 725.721 115.2 722.887 115.2 719.391C115.2 715.895 112.366 713.061 108.87 713.061C105.374 713.061 102.54 715.895 102.54 719.391C102.54 722.887 105.374 725.721 108.87 725.721Z" fill="white"/>
<path d="M211.84 725.721C215.336 725.721 218.17 722.887 218.17 719.391C218.17 715.895 215.336 713.061 211.84 713.061C208.344 713.061 205.51 715.895 205.51 719.391C205.51 722.887 208.344 725.721 211.84 725.721Z" fill="white"/>
<path d="M70.7694 417.58H161.059L164.449 481.67C165.599 503.38 176.119 523.52 193.279 536.87L215.939 554.49H104.489L92.5594 543.33C76.0694 527.89 66.2494 506.62 65.1994 484.06L62.4994 426.25C62.2794 421.54 66.0394 417.59 70.7594 417.59L70.7694 417.58Z" fill="#BBBDBE"/>
<path d="M72.4192 484.04L69.7192 426.23C69.4992 421.52 73.2592 417.57 77.9792 417.57H70.7692C66.0492 417.57 62.2892 421.51 62.5092 426.23L65.2092 484.04C66.2592 506.61 76.0792 527.87 92.5692 543.31L101.849 552.52L111.699 554.48L99.7692 543.32C83.2792 527.88 73.4592 506.61 72.4092 484.05L72.4192 484.04Z" fill="white"/>
<path d="M219.369 554.48H105.189C103.079 554.48 101.369 552.77 101.369 550.66C101.369 548.55 103.079 546.84 105.189 546.84H219.369C221.479 546.84 223.189 548.55 223.189 550.66C223.189 552.77 221.479 554.48 219.369 554.48Z" fill="#FDFFFF"/>
<path d="M82.0602 725.89H78.8802L73.4902 458.35H87.4502L82.0602 725.89Z" fill="#E0665C"/>
<path d="M87.4502 458.35H73.4902L73.7802 473.85L87.3402 464.37L87.4502 458.35Z" fill="#010000"/>
<path d="M334.84 725.89H331.66L326.27 458.35H340.23L334.84 725.89Z" fill="#E0665C"/>
<path d="M340.23 458.35H326.27L326.56 473.85L340.12 464.37L340.23 458.35Z" fill="#010000"/>
<path d="M38.4098 344.17C38.4098 344.17 46.9198 328.74 40.9298 323.29C34.9398 317.85 30.9698 318.96 30.9698 318.96C30.9698 318.96 27.8998 321.93 31.1498 323.56C34.3998 325.19 36.7698 329.49 33.3598 330.11C29.9598 330.73 27.0198 330.88 26.8598 327.33C26.7098 323.77 26.8598 320.03 26.8598 320.03C26.8598 320.03 29.6498 320.84 30.9598 318.21C32.2698 315.58 29.9698 312.18 26.7898 312.02C23.6098 311.87 20.8298 314.49 20.9798 315.89C21.1198 317.17 16.0298 309.56 9.55977 305.8C8.56977 305.23 7.31977 305.35 6.45977 306.09C5.07977 307.28 5.23977 309.48 6.78977 310.43C9.95977 312.37 14.5898 315.76 16.8098 320.03L15.5698 321.15C15.5698 321.15 8.69977 316.2 4.75977 313.78C3.44977 312.98 1.74977 313.42 0.989771 314.75L0.759771 315.16C0.0497711 316.43 0.469771 318.03 1.70977 318.78L12.9398 325.62L12.4798 327.79L3.74977 324.06C2.23977 323.41 0.509771 324.26 0.0797711 325.85H0.0897711C-0.250229 327.14 0.399771 328.49 1.62977 329.02L12.0298 333.51C12.0298 333.51 15.5698 347.27 19.2898 350.91C23.0098 354.55 36.3498 348.56 38.4198 344.16L38.4098 344.17Z" fill="#FABC8B"/>
<path d="M26.8701 320.03H24.3301L26.8701 327.33V320.03Z" fill="#EA8094"/>
<path d="M24.3301 346.02C24.0401 346.02 23.7901 345.79 23.7601 345.5C22.7001 332.53 33.1501 330.94 33.2601 330.93C33.5901 330.89 33.8601 331.11 33.9001 331.41C33.9401 331.72 33.7301 332.01 33.4201 332.05C33.0301 332.1 23.9301 333.53 24.9001 345.4C24.9201 345.71 24.6901 345.99 24.3801 346.01C24.3701 346.01 24.3501 346.01 24.3301 346.01V346.02Z" fill="#EA8094"/>
<path d="M239.41 696.01L231.72 651.61C231.72 651.61 214.84 648.94 202.27 660.78L218.94 702.35L223.28 701.01V701.35L234.3 711.02L243.49 710.79L247.57 706.52L239.42 696.01H239.41Z" fill="#FABC8B"/>
<path d="M218.94 702.35C218.94 702.35 216.98 722.26 217.88 725.86C218.78 729.46 257.46 731.03 269.6 725.86C281.74 720.69 266.9 711.69 261.28 711.69C255.66 711.69 245.95 702.34 245.95 702.34C245.95 702.34 243.63 710.34 239.42 706.29C235.2 702.24 227.21 691.2 218.95 702.34L218.94 702.35Z" fill="#010000"/>
<path d="M179.33 481.19H258.91C258.91 481.19 279.87 484.97 258.91 514.22C237.95 543.46 210.17 560.04 210.17 560.04C210.17 560.04 213.35 534.7 192.26 540.54L213.58 514.71C213.58 514.71 169.71 527.87 154.6 528.36C139.49 528.85 139.23 484.73 179.33 481.2V481.19Z" fill="#31273E"/>
<path d="M92.7297 481.19C92.7297 481.19 94.2197 515.49 105.85 532.94C117.48 550.38 168.78 584.93 168.78 584.93C168.78 584.93 198.84 648.14 202.26 660.79C202.26 660.79 215.98 651.62 231.71 651.62C231.71 651.62 208.11 574.66 204.01 568.5C199.91 562.34 170.49 512.06 170.49 512.06C170.49 512.06 181.78 496.81 175.62 481.18C169.46 465.55 92.7197 481.18 92.7197 481.18L92.7297 481.19Z" fill="#31273E"/>
<path d="M204.02 568.5C203.15 567.19 201.12 563.87 198.47 559.46C194.76 564.77 177.23 589.95 184.33 582.44C190.14 576.29 200.57 573.3 205.72 572.15C205 570.36 204.41 569.09 204.02 568.5Z" fill="#010000"/>
<path d="M121.83 350.46C121.83 350.46 93.5101 354.86 88.1801 364.99C84.1001 372.75 98.1501 413.02 104.95 431.45C107.17 437.46 107.11 444.06 104.8 450.03L92.7201 481.18C117.82 489.94 146.85 489.55 179.32 481.18C179.32 481.18 168.28 452.96 172.01 436.44C175.74 419.92 188.38 410.29 180.24 395.9C172.11 381.51 175.05 372.45 176.65 364.45C178.25 356.46 159.06 353.51 149.47 350.45C139.88 347.39 121.82 350.45 121.82 350.45L121.83 350.46Z" fill="#FFDBE2"/>
<path d="M174.91 461.32L101.52 458.51L98.6396 465.95L174.91 461.32Z" fill="#010000"/>
<path d="M115.089 352.75C115.089 352.75 107.95 363.34 132.27 365.79C156.59 368.24 157.869 354.52 157.869 354.52C157.869 354.52 157.329 348.83 148.799 347.28C138.529 345.41 128.98 348.71 126.26 347.71C123.54 346.72 117.069 349.1 115.079 352.75H115.089Z" fill="white"/>
<path d="M118.859 282.97C118.859 282.97 105.859 267.94 92.8693 276.07C79.8693 284.19 89.6193 305.31 77.0293 310.59C77.0293 310.59 93.2793 324.4 108.709 304.9C124.139 285.4 118.859 282.97 118.859 282.97Z" fill="#010000"/>
<path d="M125.66 304.37C125.66 304.37 141.2 307.84 155.23 305.83C159.49 305.22 162.52 301.4 162.2 297.11C161.64 289.75 158.24 278.91 143.79 275.05C121.1 268.99 112.76 284.52 112.76 284.52C112.76 284.52 92.8695 311.79 114.56 328.07C136.24 344.35 125.66 304.36 125.66 304.36V304.37Z" fill="#010000"/>
<path d="M157.879 303.13C157.879 303.13 159.189 318.9 155.769 325.93C152.349 332.96 145.799 331.85 146.119 337.61C146.349 341.78 148.589 346.95 149.809 349.48C150.699 351.33 150.499 353.54 149.209 355.14C147.699 357.02 144.569 358.87 138.119 359.02C133.829 359.12 130.579 358.73 128.149 358.16C124.659 357.33 122.959 353.36 124.829 350.31C127.529 345.92 130.199 339.29 125.649 334.74C118.299 327.39 112.229 321.64 115.419 316.52C118.619 311.41 123.409 315.24 123.409 315.24L125.649 304.37C125.649 304.37 155.209 305.94 157.869 303.13H157.879Z" fill="#FABC8B"/>
<path d="M88.19 364.99C88.19 364.99 71.07 379.12 67.24 396.11C63.4 413.11 39.9 343 39.9 343C39.9 343 31.87 353.65 17.71 350.92C17.71 350.92 37.3 411.62 57.6 432.87C77.9 454.12 109.13 389.35 109.13 389.35C109.13 389.35 103.62 359.5 88.2 364.98L88.19 364.99Z" fill="#FFDBE2"/>
<path d="M192.26 540.53L169.22 566.85L184.33 582.45L210.16 560.03C210.16 560.03 215.78 533.71 192.25 540.53H192.26Z" fill="#FABC8B"/>
<path d="M169.219 566.85C169.219 566.85 142.869 578.82 148.289 586.81C153.719 594.81 179.379 617.66 192.249 610.52C205.119 603.38 184.369 596.93 184.319 582.45C184.269 567.97 170.529 566.23 169.209 566.85H169.219Z" fill="#FABC8B"/>
<path d="M176.59 583.87C173.01 581.53 176.59 579.04 172.85 574.21C169.12 569.39 158.62 572.61 158.58 572.62C151.99 576.77 145.29 582.4 148.29 586.81C153.72 594.81 179.38 617.66 192.25 610.52C204.1 603.95 187.48 597.97 184.7 585.77C183 585.79 179.26 585.62 176.58 583.86L176.59 583.87Z" fill="#010000"/>
<path d="M177.059 604.89C169.119 602.24 153.539 587.14 150.429 584.95C148.969 583.93 148.089 584.14 147.569 584.65C147.599 585.39 147.829 586.11 148.299 586.81C153.139 593.94 174.089 612.9 187.689 611.83C190.399 608.89 184.959 607.52 177.059 604.88V604.89Z" fill="#4E2F7F"/>
<path d="M99.5901 411.51C99.5201 411.51 99.4501 411.5 99.3801 411.48C99.0201 411.37 98.8301 410.98 98.9401 410.63C99.0301 410.35 107.89 381.99 96.7501 366.43C96.5301 366.13 96.6001 365.7 96.9101 365.48C97.2101 365.26 97.6401 365.33 97.8601 365.64C109.4 381.76 100.62 409.86 100.24 411.05C100.15 411.34 99.8801 411.52 99.5901 411.52V411.51Z" fill="#1A1D3B"/>
<path d="M361.46 461.32H59C57.36 461.32 56.04 459.99 56.04 458.36C56.04 456.72 57.37 455.4 59 455.4H361.47C363.11 455.4 364.43 456.73 364.43 458.36C364.43 460 363.1 461.32 361.47 461.32H361.46Z" fill="#E0665C"/>
<path d="M220.909 455.39H318.759C321.299 455.39 323.359 453.33 323.359 450.79H216.319C216.319 453.33 218.379 455.39 220.919 455.39H220.909Z" fill="#CFD1D3"/>
<path d="M233.499 455.39H341.109C343.649 455.39 345.709 453.33 345.709 450.79H238.909C238.019 452.82 236.949 455.39 233.499 455.39Z" fill="#E6E5E5"/>
<path d="M255.27 454.15H251.24C250.74 454.15 250.33 453.74 250.33 453.24C250.33 452.74 250.74 452.33 251.24 452.33H255.27C255.77 452.33 256.18 452.74 256.18 453.24C256.18 453.74 255.77 454.15 255.27 454.15Z" fill="#BBBDBE"/>
<path d="M247.01 453.24C247.01 453.74 247.42 454.15 247.92 454.15C248.42 454.15 248.83 453.74 248.83 453.24C248.83 452.74 248.42 452.33 247.92 452.33C247.42 452.33 247.01 452.74 247.01 453.24Z" fill="#BBBDBE"/>
<path d="M367.409 390.6H272.449C269.449 390.6 266.719 392.32 265.419 395.02L238.659 450.79H345.699L371.479 397.07C372.919 394.07 370.729 390.6 367.409 390.6Z" fill="white"/>
<path d="M272.609 390.6H269.769C266.769 390.6 264.039 392.32 262.739 395.02L235.979 450.79H238.82L265.579 395.02C266.879 392.32 269.609 390.6 272.609 390.6Z" fill="#E6E5E5"/>
<path d="M269.38 334.01C269.38 334.01 270.23 347.19 283.43 347.19C283.43 347.19 293.87 335.52 296.47 326.79C299.06 318.05 293.59 318.73 293.59 318.73C293.59 318.73 297.53 311.43 291.57 310.67C291.57 310.67 292.72 305.87 288.79 305.87C284.86 305.87 284.66 306.35 284.66 306.35C284.66 306.35 286.1 298.19 281.49 297.33C276.88 296.47 278.9 300.69 278.9 302.9C278.9 305.11 280.05 317.3 274.87 319.99C269.69 322.68 271.32 313.56 267.29 310.97C263.26 308.38 260.57 315.67 263.74 319.9C266.91 324.12 269.38 330.89 269.38 334.03V334.01Z" fill="#FABC8B"/>
<path d="M283.49 307.19C283.49 307.19 282.18 310.29 284.19 311.15C286.2 312.02 287.45 311.53 287.45 311.53C287.45 311.53 283.34 314.87 284.35 317.67C285 319.49 289.09 319.67 291.32 317.45L290.99 318.82C290.99 318.82 288.89 319.47 287.34 321.75C285.78 324.03 288.22 327.4 290.78 327.4C293.34 327.4 294.8 326.04 294.8 326.04C294.8 326.04 293.66 328.21 290.4 328.21C287.14 328.21 285.18 324.48 286.29 321.9C287.12 319.99 287.88 319.81 287.88 319.81C287.88 319.81 284.39 320.28 283.51 318.05C282.63 315.82 284.15 313.25 285.4 312.46C285.4 312.46 283.17 312.79 282.52 311.05C281.87 309.31 283.51 307.19 283.51 307.19H283.49Z" fill="#EA8094"/>
<path d="M280.449 335.74C280.449 335.74 280.379 335.74 280.349 335.73C280.099 335.67 279.939 335.42 279.999 335.17C282.129 325.84 275.759 322.75 275.489 322.63C275.249 322.52 275.149 322.24 275.259 322C275.369 321.76 275.649 321.66 275.879 321.77C275.949 321.8 283.219 325.28 280.919 335.38C280.869 335.6 280.679 335.75 280.459 335.75L280.449 335.74Z" fill="#EA8094"/>
<path d="M722.53 0H209.26C203.23 0 198.34 4.89 198.34 10.92V38.83H733.45V10.92C733.45 4.89 728.56 0 722.53 0Z" fill="#4E2F7F"/>
<path d="M676.65 20.8798C676.65 23.6998 674.36 25.9998 671.53 25.9998C668.7 25.9998 666.41 23.7098 666.41 20.8798C666.41 18.0498 668.7 15.7598 671.53 15.7598C674.36 15.7598 676.65 18.0498 676.65 20.8798Z" fill="white"/>
<path d="M693.9 20.8798C693.9 23.6998 691.61 25.9998 688.78 25.9998C685.95 25.9998 683.66 23.7098 683.66 20.8798C683.66 18.0498 685.95 15.7598 688.78 15.7598C691.61 15.7598 693.9 18.0498 693.9 20.8798Z" fill="#AF7B98"/>
<path d="M711.16 20.8798C711.16 23.6998 708.87 25.9998 706.04 25.9998C703.21 25.9998 700.92 23.7098 700.92 20.8798C700.92 18.0498 703.21 15.7598 706.04 15.7598C708.87 15.7598 711.16 18.0498 711.16 20.8798Z" fill="#E0665C"/>
<path d="M688.79 154.75H414.25V410.83H688.79V154.75Z" fill="white"/>
<path d="M689.73 411.77H413.3V153.81H689.73V411.78V411.77ZM415.19 409.89H687.85V155.7H415.19V409.89Z" fill="#CAC2E1"/>
<path d="M526.307 228.025C529.716 207.025 515.456 187.239 494.457 183.83C473.458 180.422 453.671 194.682 450.263 215.681C446.854 236.68 461.114 256.466 482.113 259.875C503.112 263.284 522.899 249.024 526.307 228.025Z" fill="#D9D4EA"/>
<path d="M526.78 280.19H449.74V282.08H526.78V280.19Z" fill="#B6A9E0"/>
<path d="M526.78 291.08H449.74V292.97H526.78V291.08Z" fill="#B6A9E0"/>
<path d="M526.78 301.96H449.74V303.85H526.78V301.96Z" fill="#B6A9E0"/>
<path d="M526.78 312.85H449.74V314.74H526.78V312.85Z" fill="#B6A9E0"/>
<path d="M526.78 323.73H449.74V325.62H526.78V323.73Z" fill="#B6A9E0"/>
<path d="M526.78 334.62H449.74V336.51H526.78V334.62Z" fill="#B6A9E0"/>
<path d="M688.789 154.75H545.939V410.83H688.789V154.75Z" fill="#D9D4EA"/>
<path d="M672.48 224H562.45V190.8H672.48V224ZM564.34 222.11H670.6V192.68H564.34V222.11Z" fill="#B6A9E0"/>
<path d="M672.48 267.5H562.45V234.3H672.48V267.5ZM564.34 265.62H670.6V236.19H564.34V265.62Z" fill="#B6A9E0"/>
<path d="M672.48 311.01H562.45V277.81H672.48V311.01ZM564.34 309.12H670.6V279.69H564.34V309.12Z" fill="#B6A9E0"/>
<path d="M672.48 354.52H562.45V321.32H672.48V354.52ZM564.34 352.63H670.6V323.2H564.34V352.63Z" fill="#B6A9E0"/>
<path d="M672.48 398.02H562.45V364.82H672.48V398.02ZM564.34 396.14H670.6V366.71H564.34V396.14Z" fill="#B6A9E0"/>
<path d="M697.813 163.633C703.592 157.853 703.592 148.482 697.813 142.702C692.033 136.923 682.662 136.923 676.882 142.702C671.102 148.482 671.102 157.853 676.882 163.633C682.662 169.412 692.033 169.412 697.813 163.633Z" fill="#FFDBE2"/>
<path d="M694.854 148.544L692.252 145.942L680.387 157.807L682.989 160.409L694.854 148.544Z" fill="white"/>
<path d="M692.256 160.394L694.858 157.792L682.993 145.927L680.391 148.529L692.256 160.394Z" fill="white"/>
<path d="M465.9 57.9302H174.98V127.16H465.9V57.9302Z" fill="#D9D4EA"/>
<path d="M231.761 72.6504H192.091V112.32H231.761V72.6504Z" fill="white"/>
<path d="M232.7 113.26H191.15V71.7002H232.7V113.26ZM193.03 111.37H230.81V73.5902H193.03V111.37Z" fill="#B6A9E0"/>
<path d="M442.6 77.48H252.19V79.37H442.6V77.48Z" fill="#B6A9E0"/>
<path d="M442.6 89.5303H252.19V91.4203H442.6V89.5303Z" fill="#B6A9E0"/>
<path d="M348.26 101.57H252.19V103.46H348.26V101.57Z" fill="#B6A9E0"/>
<path d="M385.42 161.16H269.84V266.5H385.42V161.16Z" fill="#4E2F7F"/>
<path d="M300.029 181.304C300.318 176.098 296.331 171.644 291.126 171.356C285.92 171.068 281.467 175.054 281.178 180.26C280.89 185.465 284.876 189.919 290.082 190.207C295.287 190.495 299.741 186.509 300.029 181.304Z" fill="#EC6951"/>
<path d="M334.99 174.49H308.55V176.38H334.99V174.49Z" fill="white"/>
<path d="M354.82 182.37H308.55V184.26H354.82V182.37Z" fill="white"/>
<path d="M374.34 200.61H281.16V256.33H374.34V200.61Z" fill="#B6A9E0"/>
<path d="M230.27 197.62H119.68V246.05H230.27V197.62Z" fill="#E0665C"/>
<path d="M145.68 234.1C138.9 234.1 133.41 228.61 133.41 221.83C133.41 215.05 138.9 209.56 145.68 209.56C152.46 209.56 157.95 215.05 157.95 221.83C157.95 228.61 152.46 234.1 145.68 234.1Z" fill="white"/>
<path d="M215.9 211.8H168.69V213.69H215.9V211.8Z" fill="white"/>
<path d="M215.9 217.2H168.69V219.09H215.9V217.2Z" fill="white"/>
<path d="M215.9 222.6H168.69V224.49H215.9V222.6Z" fill="white"/>
<path d="M215.9 227.99H168.69V229.88H215.9V227.99Z" fill="white"/>
</g>
<defs>
<clipPath id="clip0_129_36">
<rect width="733.45" height="739.59" fill="white"/>
</clipPath>
</defs>
</svg>
