<svg width="500" height="500" viewBox="0 0 500 500" fill="none" xmlns="http://www.w3.org/2000/svg">
<path d="M107.004 219.501L124.521 199.421L130.278 226.183L151.263 225.894L136.225 249.619L158.246 263.105L130.971 262.352L123.144 285.756L103.844 266.274L81.333 281.257L83.424 257.543L59.311 253.248L76.435 241.515L67.555 221.629L87.136 225.706L90.124 199.613L107.004 219.501Z" fill="white"/>
<path d="M107.004 219.501C107.004 219.501 106.625 219.078 105.886 218.22C105.138 217.349 104.041 216.072 102.607 214.403C99.7132 211.019 95.4681 206.056 90.0271 199.695L90.2521 199.627C89.4391 206.839 88.4451 215.661 87.3111 225.725L87.2892 225.916L87.1011 225.877C81.1401 224.644 74.5371 223.278 67.5151 221.825L67.7391 221.547C70.5291 227.778 73.5121 234.441 76.6381 241.424L76.7131 241.592L76.5611 241.696C71.1481 245.411 65.3961 249.358 59.4461 253.441L59.3541 253.015C67.0141 254.375 75.1192 255.814 83.4692 257.297L83.6931 257.337L83.6731 257.564C83.0111 265.101 82.3081 273.101 81.5901 281.279L81.1931 281.043C88.3921 276.25 95.9771 271.199 103.701 266.056L103.879 265.937L104.03 266.089C106.043 268.121 108.208 270.306 110.385 272.504C114.751 276.912 119.07 281.272 123.328 285.571L122.898 285.671C125.563 277.706 128.178 269.895 130.73 262.269L130.79 262.09L130.978 262.095C140.357 262.358 149.464 262.613 158.253 262.859L158.119 263.31C150.469 258.618 143.126 254.115 136.107 249.811L135.909 249.69L136.033 249.495C141.375 241.084 146.408 233.158 151.092 225.784L151.266 226.096C143.684 226.191 136.724 226.278 130.281 226.359L130.135 226.361L130.105 226.219C127.878 215.774 125.971 206.835 124.396 199.447L124.618 199.504C118.921 205.985 114.516 210.996 111.527 214.397C110.046 216.075 108.917 217.354 108.149 218.223C107.39 219.081 107.004 219.501 107.004 219.501C107.004 219.501 107.391 219.035 108.146 218.156C108.908 217.272 110.029 215.972 111.499 214.266C114.451 210.856 118.799 205.833 124.424 199.336L124.592 199.142L124.647 199.393C126.249 206.775 128.187 215.708 130.452 226.144L130.276 226.004C136.718 225.908 143.679 225.803 151.26 225.69L151.635 225.684L151.434 226.002C146.763 233.385 141.744 241.319 136.417 249.74L136.343 249.424C143.367 253.72 150.716 258.214 158.372 262.897L159.151 263.373L158.238 263.348C149.45 263.109 140.342 262.861 130.963 262.605L131.211 262.432C128.662 270.059 126.051 277.872 123.389 285.837L123.255 286.237L122.958 285.938C118.699 281.639 114.379 277.279 110.013 272.872C107.836 270.674 105.671 268.489 103.658 266.457L103.987 266.491C96.2611 271.632 88.6741 276.68 81.4741 281.471L81.0301 281.766L81.0772 281.235C81.8012 273.058 82.5092 265.058 83.1752 257.521L83.3791 257.787C75.0311 256.296 66.9271 254.848 59.2691 253.48L58.7021 253.379L59.1771 253.054C65.1331 248.98 70.8911 245.04 76.3091 241.333L76.2322 241.605C73.1192 234.616 70.1492 227.948 67.3702 221.711L67.2101 221.353L67.5932 221.433C74.6122 222.903 81.2111 224.286 87.1691 225.534L86.9591 225.686C88.1291 215.627 89.1552 206.808 89.9942 199.599L90.0281 199.304L90.2192 199.531C95.5882 205.907 99.7772 210.882 102.633 214.273C104.056 215.97 105.145 217.268 105.887 218.153C106.625 219.032 107.004 219.501 107.004 219.501Z" fill="#E0E0E0"/>
<path d="M100.31 231.177L100.851 243.73C100.895 244.757 101.698 245.589 102.722 245.671C103.802 245.757 104.76 244.981 104.901 243.907L106.547 231.335C106.672 230.383 105.934 229.537 104.974 229.531L101.915 229.512C101.002 229.506 100.271 230.265 100.31 231.177Z" fill="#E0E0E0"/>
<path d="M105.904 252.79C105.339 254.383 103.59 255.217 101.997 254.652C100.404 254.087 99.5703 252.338 100.135 250.745C100.7 249.152 102.449 248.318 104.042 248.883C105.635 249.447 106.468 251.196 105.904 252.79Z" fill="#E0E0E0"/>
<path d="M110.872 231.39L111.413 243.943C111.457 244.97 112.26 245.802 113.284 245.884C114.364 245.97 115.323 245.194 115.463 244.12L117.108 231.548C117.233 230.596 116.495 229.75 115.535 229.744L112.476 229.725C111.564 229.719 110.832 230.478 110.872 231.39Z" fill="#E0E0E0"/>
<path d="M116.466 253.002C115.901 254.595 114.152 255.429 112.559 254.864C110.966 254.299 110.132 252.55 110.697 250.957C111.262 249.364 113.011 248.53 114.604 249.095C116.196 249.66 117.03 251.409 116.466 253.002Z" fill="#E0E0E0"/>
<path d="M408.849 201.399L398.375 187.075L393.025 204.502L379.119 203.11L387.74 219.711L372.359 227.399L390.498 228.459L394.353 244.434L408.271 232.612L422.35 243.84L422.319 227.987L438.562 226.516L427.872 217.753L434.901 205.067L421.676 206.652L421.186 189.169L408.849 201.399Z" fill="white"/>
<path d="M408.849 201.4C408.849 201.4 409.128 201.102 409.666 200.557C410.215 200.003 411.009 199.202 412.043 198.158C414.133 196.062 417.185 193.001 421.095 189.079L421.304 188.869L421.313 189.166C421.462 193.999 421.643 199.908 421.851 206.647L421.655 206.478C425.68 205.988 430.137 205.445 434.877 204.868L435.266 204.821L435.076 205.164C432.878 209.144 430.528 213.399 428.065 217.859L428.012 217.581C431.396 220.349 434.992 223.291 438.711 226.333L439.157 226.698L438.583 226.75C433.424 227.221 427.965 227.719 422.341 228.233L422.567 227.985C422.579 233.023 422.593 238.372 422.606 243.838L422.607 244.371L422.19 244.039C417.686 240.449 412.941 236.666 408.109 232.814L408.439 232.809C406.987 234.042 405.426 235.368 403.856 236.702C400.707 239.376 397.592 242.022 394.52 244.63L394.199 244.903L394.1 244.493C392.79 239.056 391.505 233.723 390.25 228.517L390.482 228.711C384.244 228.343 378.188 227.986 372.343 227.641L371.431 227.587L372.248 227.18C377.596 224.513 382.729 221.953 387.636 219.506L387.536 219.815C384.486 213.922 381.612 208.37 378.937 203.203L378.764 202.869L379.137 202.907C384.16 203.419 388.771 203.889 393.04 204.324L392.853 204.448C394.958 197.657 396.76 191.844 398.25 187.036L398.326 186.79L398.476 186.998C401.82 191.627 404.407 195.206 406.169 197.646C407.041 198.861 407.707 199.788 408.166 200.429C408.62 201.06 408.849 201.4 408.849 201.4C408.849 201.4 408.616 201.107 408.161 200.499C407.695 199.873 407.019 198.965 406.134 197.777C404.333 195.342 401.689 191.77 398.272 187.151L398.498 187.113C397.034 191.929 395.263 197.752 393.195 204.554L393.153 204.693L393.008 204.679C388.737 204.26 384.124 203.807 379.099 203.313L379.299 203.017C381.987 208.177 384.876 213.721 387.942 219.606L388.049 219.811L387.842 219.915C382.94 222.371 377.811 224.941 372.468 227.617L372.373 227.156C378.218 227.494 384.275 227.844 390.513 228.205L390.701 228.216L390.745 228.399C392.003 233.604 393.291 238.936 394.605 244.373L394.185 244.236C397.256 241.627 400.371 238.981 403.52 236.306C405.09 234.973 406.652 233.646 408.103 232.413L408.266 232.274L408.433 232.408C413.263 236.262 418.007 240.047 422.509 243.639L422.093 243.84C422.085 238.373 422.077 233.025 422.07 227.987V227.76L422.296 227.74C427.921 227.235 433.38 226.745 438.54 226.282L438.412 226.699C434.699 223.649 431.11 220.7 427.731 217.924L427.588 217.807L427.677 217.646C430.153 213.193 432.514 208.944 434.724 204.97L434.923 205.266C430.181 205.825 425.722 206.351 421.695 206.826L421.504 206.849L421.499 206.657C421.328 199.917 421.178 194.007 421.056 189.173L421.274 189.26C417.294 193.161 414.186 196.206 412.059 198.291C411.016 199.307 410.215 200.086 409.662 200.625C409.124 201.148 408.849 201.4 408.849 201.4Z" fill="#E0E0E0"/>
<path d="M412.623 209.529L411.546 217.827C411.458 218.506 410.878 219.012 410.194 219.008C409.472 219.003 408.881 218.434 408.849 217.713L408.476 209.278C408.448 208.639 408.986 208.12 409.623 208.171L411.654 208.333C412.259 208.38 412.701 208.926 412.623 209.529Z" fill="#E0E0E0"/>
<path d="M407.676 223.548C407.96 224.637 409.073 225.29 410.162 225.007C411.251 224.724 411.905 223.611 411.621 222.521C411.338 221.432 410.225 220.779 409.135 221.062C408.046 221.346 407.392 222.459 407.676 223.548Z" fill="#E0E0E0"/>
<path d="M405.603 209.066L404.526 217.364C404.438 218.043 403.858 218.549 403.174 218.545C402.452 218.54 401.861 217.971 401.829 217.25L401.456 208.815C401.428 208.176 401.966 207.657 402.603 207.708L404.634 207.87C405.24 207.918 405.682 208.463 405.603 209.066Z" fill="#E0E0E0"/>
<path d="M400.656 223.085C400.94 224.174 402.053 224.827 403.142 224.544C404.231 224.26 404.885 223.148 404.601 222.058C404.317 220.969 403.204 220.316 402.115 220.599C401.026 220.883 400.373 221.996 400.656 223.085Z" fill="#E0E0E0"/>
<path d="M262.009 483.293C333.267 483.293 391.033 480.001 391.033 475.94C391.033 471.879 333.267 468.587 262.009 468.587C190.751 468.587 132.985 471.879 132.985 475.94C132.985 480.001 190.751 483.293 262.009 483.293Z" fill="#E0E0E0"/>
<path d="M258.928 33.7438L245.862 33.7595L245.887 54.2835L258.953 54.2678L258.928 33.7438Z" fill="#E0E0E0"/>
<path d="M265.941 39.883L239.028 39.914L239.002 17.792C248.421 15.445 257.419 15.291 265.915 17.761L265.941 39.883Z" fill="#EBEBEB"/>
<path d="M266.232 17.854C266.245 17.883 265.891 18.058 265.24 18.351C264.592 18.652 263.624 19.019 262.407 19.404C261.191 19.798 259.709 20.1581 258.044 20.4511C256.375 20.7201 254.521 20.906 252.569 20.927C250.616 20.93 248.759 20.765 247.087 20.5171C245.418 20.2441 243.932 19.9021 242.711 19.5231C241.489 19.1521 240.517 18.797 239.866 18.504C239.211 18.22 238.856 18.049 238.868 18.019C238.9 17.938 240.354 18.551 242.799 19.209C244.019 19.545 245.496 19.85 247.149 20.097C248.805 20.319 250.638 20.469 252.566 20.466C254.494 20.446 256.324 20.274 257.977 20.032C259.626 19.766 261.099 19.443 262.315 19.092C264.752 18.404 266.199 17.774 266.232 17.854Z" fill="#E0E0E0"/>
<path d="M247.918 39.843C247.791 39.843 247.684 35.596 247.678 30.359C247.672 25.12 247.77 20.873 247.897 20.873C248.024 20.873 248.131 25.119 248.138 30.358C248.143 35.596 248.045 39.842 247.918 39.843Z" fill="#E0E0E0"/>
<path d="M253.039 39.9649C252.912 39.9649 252.804 35.6989 252.798 30.4379C252.792 25.1749 252.89 20.9089 253.017 20.9089C253.144 20.9089 253.251 25.1739 253.258 30.4369C253.264 35.6989 253.166 39.9649 253.039 39.9649Z" fill="#E0E0E0"/>
<path d="M258.16 39.8741C258.033 39.8741 257.926 35.6081 257.919 30.3471C257.913 25.0841 258.011 20.8191 258.138 20.8181C258.265 20.8181 258.372 25.0831 258.379 30.3461C258.384 35.6071 258.287 39.8741 258.16 39.8741Z" fill="#E0E0E0"/>
<path d="M262.424 39.869C262.297 39.869 262.189 35.258 262.182 29.571C262.175 23.882 262.273 19.272 262.4 19.272C262.527 19.272 262.635 23.882 262.642 29.571C262.648 35.257 262.551 39.869 262.424 39.869Z" fill="#E0E0E0"/>
<path d="M243.077 39.7601C242.95 39.7601 242.842 35.1491 242.835 29.4621C242.828 23.7731 242.926 19.1631 243.053 19.1631C243.18 19.1631 243.288 23.7731 243.294 29.4621C243.301 35.1481 243.203 39.7591 243.077 39.7601Z" fill="#E0E0E0"/>
<path d="M322.718 77.2121L316.182 70.3441L326.831 60.0781L333.367 66.9461L322.718 77.2121Z" fill="#E0E0E0"/>
<path d="M333.687 73.6991L320.225 59.5521L331.703 48.4861C337.628 52.2701 342.203 56.9281 345.165 62.6331L333.687 73.6991Z" fill="#EBEBEB"/>
<path d="M178.496 77.2542L171.419 83.5542L161.649 72.4372L168.727 66.1362L178.496 77.2542Z" fill="#E0E0E0"/>
<path d="M175.443 66.0821L160.865 79.0601L150.335 67.0771C154.326 61.2681 159.133 56.8521 164.913 54.0991L175.443 66.0821Z" fill="#EBEBEB"/>
<path d="M250.138 261.621C309.627 261.55 357.795 212.953 357.723 153.077C357.651 93.2007 309.367 44.7195 249.878 44.7909C190.388 44.8623 142.221 93.4592 142.293 153.335C142.365 213.211 190.648 261.692 250.138 261.621Z" fill="#EBEBEB"/>
<path d="M250.112 252.817C304.765 252.757 349.022 208.115 348.961 153.106C348.901 98.0976 304.546 53.553 249.893 53.6131C195.239 53.6732 150.983 98.3153 151.043 153.324C151.104 208.333 195.458 252.877 250.112 252.817Z" fill="white"/>
<path d="M250.116 253.16C195.363 253.224 150.767 208.442 150.703 153.334C150.639 98.2259 195.131 53.3399 249.884 53.2769C304.636 53.2129 349.233 97.9949 349.297 153.103C349.361 208.211 304.869 253.096 250.116 253.16ZM249.885 53.9569C195.505 54.0199 151.316 98.5999 151.38 153.333C151.444 208.066 195.736 252.543 250.116 252.479C304.495 252.416 348.684 207.836 348.621 153.103C348.557 98.3709 304.264 53.8939 249.885 53.9569Z" fill="#E0E0E0"/>
<path d="M242.958 155.02L198.404 120.268L250.561 144.399L252.105 153.592L242.958 155.02Z" fill="#EBEBEB"/>
<path d="M198.404 120.268L244.918 147.723L250.561 144.399L198.404 120.268Z" fill="#E0E0E0"/>
<path d="M252.118 144.42C257.234 144.414 261.386 148.583 261.392 153.732C261.398 158.881 257.256 163.06 252.14 163.066C247.024 163.072 242.873 158.903 242.867 153.754C242.86 148.605 247.002 144.426 252.118 144.42Z" fill="#FAFAFA"/>
<path d="M252.118 144.42C252.123 144.481 251.292 144.431 249.878 144.801C248.492 145.167 246.457 146.107 244.887 148.209C244.121 149.251 243.471 150.56 243.213 152.068C242.965 153.565 243.017 155.253 243.629 156.857C243.91 157.664 244.334 158.442 244.868 159.157C245.392 159.88 246.041 160.536 246.793 161.076C248.275 162.193 250.177 162.82 252.137 162.837C254.097 162.817 255.999 162.185 257.478 161.065C258.229 160.523 258.877 159.865 259.399 159.141C259.932 158.425 260.353 157.646 260.633 156.838C261.241 155.233 261.29 153.544 261.038 152.048C260.777 150.541 260.124 149.233 259.355 148.193C257.781 146.094 255.744 145.16 254.357 144.797C252.944 144.429 252.114 144.481 252.118 144.42C252.118 144.42 252.945 144.303 254.401 144.622C255.827 144.938 257.948 145.848 259.612 147.994C260.425 149.057 261.121 150.408 261.41 151.975C261.69 153.531 261.653 155.294 261.029 156.979C260.741 157.827 260.305 158.646 259.75 159.399C259.206 160.16 258.53 160.853 257.744 161.424C256.196 162.604 254.196 163.274 252.138 163.293C250.081 163.278 248.081 162.612 246.53 161.436C245.743 160.866 245.065 160.176 244.52 159.416C243.964 158.664 243.525 157.846 243.236 156.999C242.608 155.315 242.567 153.553 242.843 151.996C243.128 150.428 243.821 149.076 244.632 148.01C246.291 145.859 248.41 144.945 249.836 144.625C251.29 144.305 252.118 144.42 252.118 144.42Z" fill="#E0E0E0"/>
<path d="M252.121 146.804C255.928 146.8 259.019 149.902 259.023 153.735C259.027 157.567 255.944 160.677 252.137 160.682C248.33 160.686 245.239 157.584 245.235 153.751C245.231 149.919 248.313 146.809 252.121 146.804Z" fill="#E0E0E0"/>
<path d="M251.671 151.009C251.671 151.009 249.703 90.9811 252.446 78.3171C252.446 78.3171 257.103 114.703 251.671 151.009Z" fill="#E0E0E0"/>
<path d="M246.387 245.298L246.268 245.293L246.525 237.809L246.736 237.818L246.387 245.298ZM283.511 239.186L280.724 232.243L280.931 232.16L283.611 239.148L283.511 239.186ZM209.859 235.698L209.747 235.641L213.049 228.93L213.232 229.023L209.859 235.698ZM315.031 218.351L309.719 213.107L309.858 212.966L315.125 218.255L315.031 218.351ZM180.404 211.991L180.292 211.854L186.054 207.115L186.152 207.235L180.404 211.991ZM335.469 186.411L328.491 183.809L328.564 183.614L335.513 186.295L335.469 186.411ZM163.041 178.272L162.989 178.08L170.179 176.15L170.214 176.278L163.041 178.272ZM333.762 149.29L333.755 149.17L341.182 148.711L341.194 148.923L333.762 149.29ZM333.756 149.155L333.746 148.99L341.173 148.531L341.183 148.698L333.756 149.155ZM168.169 141.47L160.811 140.357L160.836 140.189L168.193 141.309L168.169 141.47ZM324.611 115.513L324.54 115.375L331.146 111.928L331.226 112.084L324.611 115.513ZM180.369 108.845L174.105 104.802L174.188 104.672L180.465 108.694L180.369 108.845ZM302.651 88.566L302.522 88.462L307.163 82.608L307.292 82.712L302.651 88.566ZM204.684 84.013L200.601 77.752L200.713 77.678L204.848 83.905L204.684 84.013ZM271.695 72.882L271.556 72.846L273.414 65.594L273.596 65.642L271.695 72.882ZM236.94 71.29L235.723 63.902L235.889 63.874L237.099 71.263L236.94 71.29Z" fill="#E0E0E0"/>
<path d="M246.387 245.548C246.384 245.548 246.38 245.548 246.377 245.548L246.258 245.543C246.121 245.537 246.014 245.422 246.018 245.284L246.275 237.8C246.277 237.734 246.306 237.671 246.355 237.625C246.404 237.58 246.48 237.562 246.536 237.559L246.747 237.569C246.813 237.571 246.876 237.601 246.921 237.65C246.966 237.699 246.989 237.764 246.986 237.83L246.637 245.31C246.63 245.443 246.52 245.548 246.387 245.548ZM283.511 239.436C283.411 239.436 283.318 239.376 283.279 239.279L280.493 232.335C280.469 232.273 280.47 232.204 280.496 232.143C280.522 232.082 280.571 232.034 280.633 232.009L280.84 231.926C280.904 231.902 280.972 231.903 281.033 231.929C281.093 231.956 281.141 232.006 281.166 232.069L283.846 239.056C283.896 239.184 283.831 239.328 283.703 239.378L283.602 239.417C283.572 239.43 283.542 239.436 283.511 239.436ZM209.858 235.948C209.819 235.948 209.78 235.939 209.744 235.921L209.632 235.864C209.511 235.802 209.461 235.654 209.522 235.531L212.824 228.82C212.853 228.76 212.906 228.715 212.969 228.693C213.033 228.673 213.102 228.678 213.161 228.707L213.344 228.8C213.467 228.863 213.516 229.013 213.454 229.136L210.081 235.811C210.051 235.87 209.998 235.916 209.935 235.936C209.911 235.944 209.884 235.948 209.858 235.948ZM315.031 218.601C314.966 218.601 314.902 218.575 314.855 218.529L309.542 213.285C309.444 213.188 309.442 213.03 309.54 212.931L309.679 212.791C309.726 212.743 309.789 212.716 309.856 212.716H309.857C309.923 212.716 309.987 212.742 310.034 212.79L315.302 218.079C315.399 218.176 315.4 218.333 315.303 218.431L315.209 218.526C315.162 218.574 315.099 218.6 315.031 218.601ZM180.404 212.241C180.396 212.241 180.388 212.24 180.38 212.24C180.314 212.233 180.253 212.2 180.211 212.149L180.1 212.012C180.013 211.906 180.029 211.749 180.135 211.661L185.896 206.922C185.948 206.88 186.015 206.861 186.08 206.866C186.146 206.872 186.207 206.905 186.249 206.956L186.347 207.076C186.434 207.182 186.418 207.339 186.312 207.427L180.564 212.183C180.518 212.221 180.462 212.241 180.404 212.241ZM335.469 186.661C335.44 186.661 335.41 186.656 335.382 186.645L328.404 184.043C328.274 183.995 328.209 183.851 328.257 183.722L328.329 183.527C328.352 183.464 328.399 183.414 328.461 183.386C328.521 183.359 328.589 183.356 328.653 183.381L335.602 186.062C335.73 186.112 335.794 186.255 335.746 186.384L335.702 186.5C335.666 186.6 335.57 186.661 335.469 186.661ZM163.041 178.522C162.998 178.522 162.955 178.511 162.917 178.489C162.859 178.456 162.817 178.402 162.799 178.337L162.747 178.145C162.729 178.081 162.738 178.013 162.771 177.955C162.804 177.897 162.859 177.855 162.923 177.838L170.113 175.909C170.248 175.873 170.384 175.952 170.419 176.085L170.454 176.213C170.49 176.345 170.412 176.482 170.28 176.519L163.108 178.513C163.086 178.519 163.064 178.522 163.041 178.522ZM333.762 149.54C333.63 149.54 333.52 149.437 333.512 149.304L333.505 149.184C333.505 149.177 333.505 149.17 333.505 149.163L333.495 149.004C333.487 148.867 333.592 148.748 333.729 148.74L341.156 148.281C341.316 148.271 341.413 148.377 341.421 148.514L341.432 148.682C341.433 148.689 341.433 148.696 341.433 148.703L341.445 148.909C341.448 148.975 341.425 149.04 341.38 149.09C341.336 149.139 341.274 149.169 341.207 149.172L333.774 149.539C333.77 149.54 333.766 149.54 333.762 149.54ZM168.169 141.72C168.157 141.72 168.144 141.719 168.131 141.717L160.773 140.604C160.708 140.594 160.648 140.559 160.609 140.505C160.57 140.451 160.553 140.385 160.563 140.319L160.588 140.152C160.598 140.087 160.633 140.028 160.687 139.988C160.74 139.948 160.807 139.931 160.873 139.942L168.23 141.062C168.366 141.083 168.46 141.21 168.44 141.346L168.416 141.507C168.406 141.573 168.371 141.632 168.317 141.672C168.275 141.703 168.222 141.72 168.169 141.72ZM324.611 115.763C324.586 115.763 324.56 115.759 324.536 115.751C324.472 115.731 324.42 115.687 324.389 115.628L324.318 115.49C324.254 115.368 324.302 115.218 324.425 115.154L331.031 111.707C331.089 111.678 331.157 111.671 331.222 111.69C331.286 111.711 331.338 111.755 331.369 111.815L331.449 111.971C331.512 112.093 331.464 112.243 331.342 112.307L324.727 115.736C324.69 115.754 324.651 115.763 324.611 115.763ZM180.369 109.095C180.321 109.095 180.274 109.081 180.233 109.055L173.969 105.013C173.854 104.938 173.82 104.784 173.894 104.669L173.977 104.54C174.013 104.484 174.069 104.444 174.134 104.43C174.197 104.416 174.266 104.428 174.322 104.464L180.599 108.486C180.715 108.56 180.749 108.715 180.675 108.831L180.579 108.981C180.543 109.037 180.486 109.076 180.421 109.09C180.404 109.093 180.386 109.095 180.369 109.095ZM302.651 88.816C302.594 88.816 302.539 88.797 302.495 88.761L302.366 88.657C302.258 88.571 302.241 88.414 302.326 88.307L306.968 82.453C307.01 82.401 307.071 82.367 307.136 82.36C307.208 82.352 307.27 82.372 307.321 82.414L307.45 82.518C307.557 82.604 307.575 82.761 307.49 82.868L302.848 88.722C302.806 88.774 302.745 88.808 302.68 88.815C302.67 88.815 302.66 88.816 302.651 88.816ZM204.684 84.263C204.667 84.263 204.65 84.261 204.634 84.258C204.569 84.245 204.512 84.206 204.475 84.15L200.392 77.889C200.317 77.774 200.349 77.62 200.464 77.544L200.576 77.47C200.691 77.393 200.846 77.425 200.922 77.54L205.057 83.767C205.133 83.882 205.102 84.037 204.987 84.113L204.824 84.221C204.781 84.249 204.733 84.263 204.684 84.263ZM271.695 73.133C271.674 73.133 271.653 73.131 271.631 73.125L271.491 73.088C271.358 73.053 271.278 72.918 271.312 72.784L273.17 65.532C273.187 65.468 273.228 65.412 273.285 65.379C273.343 65.344 273.409 65.334 273.475 65.353L273.657 65.4C273.721 65.417 273.776 65.458 273.809 65.515C273.842 65.573 273.852 65.641 273.835 65.705L271.935 72.946C271.907 73.058 271.806 73.133 271.695 73.133ZM236.94 71.539C236.888 71.539 236.837 71.523 236.794 71.492C236.74 71.453 236.704 71.395 236.693 71.329L235.476 63.941C235.465 63.876 235.481 63.809 235.52 63.755C235.558 63.701 235.617 63.665 235.683 63.654L235.849 63.627C235.914 63.615 235.981 63.631 236.036 63.67C236.09 63.709 236.126 63.767 236.137 63.833L237.347 71.222C237.369 71.358 237.277 71.487 237.141 71.509L236.982 71.535C236.967 71.538 236.954 71.539 236.94 71.539Z" fill="#E0E0E0"/>
<path d="M467.184 461.749C467.184 461.893 369.94 462.009 250.01 462.009C130.039 462.009 32.8159 461.892 32.8159 461.749C32.8159 461.606 130.04 461.489 250.01 461.489C369.94 461.489 467.184 461.605 467.184 461.749Z" fill="#263238"/>
<path d="M383.713 436.418C383.64 431.764 386.91 427.483 391.092 425.441C395.274 423.399 400.187 423.317 404.754 424.209C405.01 424.259 405.299 424.337 405.413 424.571C405.516 424.781 405.433 425.031 405.345 425.247C403.729 429.228 400.58 432.564 396.699 434.407C392.818 436.251 387.819 437.682 383.713 436.418Z" fill="#455A64"/>
<path d="M396.836 428.063C396.83 428.046 396.681 428.082 396.403 428.166C396.127 428.256 395.711 428.37 395.197 428.573C394.157 428.95 392.682 429.588 390.95 430.552C387.494 432.453 383.038 435.907 379.637 440.959C376.233 446.012 374.709 451.441 374.248 455.358C374.006 457.325 373.97 458.932 374.011 460.037C374.016 460.59 374.067 461.018 374.088 461.308C374.115 461.598 374.137 461.749 374.155 461.748C374.197 461.746 374.191 461.135 374.214 460.037C374.235 458.938 374.327 457.348 374.613 455.409C375.162 451.545 376.72 446.222 380.069 441.25C383.415 436.279 387.76 432.833 391.134 430.871C392.824 429.877 394.262 429.193 395.273 428.761C396.281 428.326 396.85 428.103 396.836 428.063Z" fill="#263238"/>
<path d="M381.072 444.848C382.818 441.415 386.866 439.546 390.716 439.669C394.566 439.792 398.192 441.631 401.19 444.05C401.358 444.185 401.539 444.354 401.532 444.57C401.526 444.763 401.369 444.914 401.221 445.038C398.499 447.326 394.905 448.55 391.353 448.398C387.8 448.246 383.589 447.361 381.072 444.848Z" fill="#455A64"/>
<path d="M375.515 443.573C372.759 441.626 371.65 437.882 372.242 434.56C372.834 431.238 374.886 428.327 377.361 426.033C377.499 425.905 377.669 425.769 377.855 425.802C378.022 425.832 378.132 425.987 378.222 426.131C379.862 428.779 380.469 432.049 379.89 435.109C379.309 438.17 378.01 441.709 375.515 443.573Z" fill="#455A64"/>
<path d="M391.052 443.464C391.061 443.406 390.202 443.187 388.775 443.104C387.352 443.021 385.349 443.133 383.237 443.729C381.126 444.332 379.364 445.29 378.197 446.11C377.026 446.932 376.411 447.57 376.45 447.614C376.549 447.773 379.242 445.391 383.379 444.23C387.508 443.042 391.051 443.651 391.052 443.464Z" fill="#263238"/>
<path d="M376.095 434.172C376.029 434.161 375.818 434.984 375.611 436.339C375.404 437.694 375.22 439.584 375.197 441.678C375.177 443.773 375.322 445.667 375.502 447.025C375.681 448.385 375.875 449.211 375.941 449.202C376.097 449.181 375.665 445.831 375.717 441.683C375.751 437.537 376.251 434.197 376.095 434.172Z" fill="#263238"/>
<path d="M439.856 274.755C439.856 274.899 425.956 275.015 408.814 275.015C391.666 275.015 377.77 274.898 377.77 274.755C377.77 274.612 391.666 274.495 408.814 274.495C425.956 274.494 439.856 274.611 439.856 274.755Z" fill="#263238"/>
<path d="M427.426 285.741C427.426 285.885 413.526 286.001 396.384 286.001C379.236 286.001 365.34 285.884 365.34 285.741C365.34 285.597 379.236 285.481 396.384 285.481C413.526 285.481 427.426 285.598 427.426 285.741Z" fill="#263238"/>
<path d="M268.202 407.703C268.202 407.847 253.461 407.963 235.281 407.963C217.095 407.963 202.357 407.846 202.357 407.703C202.357 407.56 217.095 407.443 235.281 407.443C253.461 407.443 268.202 407.56 268.202 407.703Z" fill="#263238"/>
<path d="M255.019 419.355C255.019 419.499 240.278 419.615 222.098 419.615C203.912 419.615 189.174 419.498 189.174 419.355C189.174 419.212 203.912 419.095 222.098 419.095C240.278 419.095 255.019 419.212 255.019 419.355Z" fill="#263238"/>
<path d="M373.925 111.25L359.404 91.4399L352.027 115.57L332.777 113.666L344.736 136.63L323.459 147.296L348.568 148.734L353.929 170.84L373.175 154.454L392.68 169.972L392.611 148.029L415.092 145.968L400.281 133.855L409.99 116.285L391.687 118.5L390.98 94.3019L373.925 111.25Z" fill="white"/>
<path d="M373.925 111.25C373.925 111.25 374.309 110.847 375.053 110.095C375.805 109.338 376.906 108.23 378.343 106.783C381.231 103.889 385.464 99.6471 390.889 94.2111L391.098 94.0011L391.107 94.298C391.315 100.985 391.57 109.164 391.861 118.494L391.665 118.325C397.234 117.643 403.404 116.888 409.964 116.085L410.353 116.037L410.164 116.38C407.126 121.891 403.878 127.784 400.473 133.96L400.42 133.682C405.107 137.509 410.088 141.577 415.24 145.783L415.686 146.147L415.112 146.2C407.972 146.859 400.416 147.556 392.633 148.274L392.858 148.026C392.882 154.999 392.908 162.402 392.934 169.969L392.936 170.502L392.519 170.17C386.28 165.208 379.706 159.979 373.012 154.655L373.342 154.65C371.335 156.359 369.176 158.198 367.005 160.046C362.651 163.753 358.343 167.42 354.096 171.035L353.775 171.308L353.676 170.898C351.853 163.374 350.065 155.995 348.32 148.791L348.552 148.985C339.918 148.487 331.534 148.003 323.444 147.537L322.532 147.485L323.348 147.076C330.745 143.374 337.845 139.82 344.632 136.423L344.532 136.732C340.298 128.582 336.308 120.903 332.595 113.757L332.422 113.424L332.795 113.461C339.749 114.158 346.133 114.797 352.043 115.39L351.856 115.515C354.752 106.107 357.231 98.0551 359.28 91.4001L359.356 91.1541L359.507 91.3621C364.162 97.7671 367.761 102.72 370.205 106.084C371.421 107.765 372.348 109.047 372.98 109.921C373.606 110.79 373.925 111.25 373.925 111.25C373.925 111.25 373.603 110.836 372.973 109.991C372.334 109.131 371.397 107.87 370.168 106.215C367.685 102.857 364.029 97.9111 359.301 91.5161L359.527 91.4781C357.504 98.1411 355.057 106.203 352.197 115.621L352.155 115.76L352.01 115.746C346.099 115.17 339.713 114.547 332.757 113.868L332.957 113.572C336.683 120.71 340.688 128.382 344.938 136.524L345.045 136.729L344.838 136.833C338.056 140.239 330.96 143.802 323.568 147.514L323.473 147.053C331.564 147.513 339.948 147.989 348.582 148.48L348.77 148.491L348.814 148.674C350.563 155.877 352.354 163.255 354.18 170.778L353.76 170.642C358.007 167.026 362.314 163.358 366.668 159.651C368.839 157.803 370.998 155.965 373.006 154.256L373.169 154.117L373.337 154.25C380.029 159.576 386.602 164.807 392.839 169.772L392.424 169.973C392.403 162.406 392.383 155.004 392.363 148.03L392.362 147.803L392.588 147.782C400.373 147.073 407.929 146.384 415.07 145.733L414.942 146.15C409.797 141.935 404.822 137.86 400.141 134.026L399.998 133.909L400.087 133.748C403.504 127.579 406.764 121.693 409.813 116.188L410.012 116.484C403.449 117.269 397.278 118.007 391.707 118.674L391.516 118.697L391.511 118.505C391.257 109.174 391.033 100.994 390.851 94.3061L391.069 94.3931C385.574 99.8091 381.285 104.034 378.36 106.917C376.913 108.336 375.806 109.422 375.05 110.164C374.306 110.893 373.925 111.25 373.925 111.25Z" fill="#263238"/>
<path d="M379.161 122.496L377.684 133.983C377.563 134.922 376.761 135.624 375.814 135.619C374.815 135.614 373.996 134.826 373.95 133.829L373.42 122.154C373.38 121.27 374.124 120.551 375.006 120.62L377.817 120.841C378.656 120.908 379.268 121.662 379.161 122.496Z" fill="#263238"/>
<path d="M372.336 141.909C372.73 143.416 374.272 144.319 375.779 143.924C377.286 143.53 378.189 141.988 377.794 140.481C377.4 138.974 375.858 138.071 374.351 138.466C372.844 138.86 371.942 140.402 372.336 141.909Z" fill="#263238"/>
<path d="M369.444 121.867L367.967 133.354C367.846 134.293 367.044 134.995 366.097 134.99C365.098 134.985 364.279 134.197 364.233 133.2L363.704 121.525C363.664 120.641 364.408 119.921 365.29 119.991L368.101 120.212C368.939 120.278 369.552 121.033 369.444 121.867Z" fill="#263238"/>
<path d="M362.619 141.279C363.014 142.786 364.555 143.688 366.062 143.294C367.569 142.9 368.472 141.358 368.077 139.851C367.683 138.344 366.141 137.442 364.634 137.836C363.128 138.231 362.225 139.772 362.619 141.279Z" fill="#263238"/>
<path d="M282.043 191.16L290.242 143.01C292.671 131.099 287.765 119.757 275.791 117.658L274.673 117.528C263.423 116.227 253.056 123.778 250.855 134.887C248.806 145.223 246.676 156.669 246.097 162.274C244.9 173.878 256.28 177.021 256.28 177.021C256.306 177.025 255.246 184.036 254.707 187.417L260.594 194.077L282.043 191.16Z" fill="#FFBF9D"/>
<path d="M256.28 177.021C256.28 177.021 263.534 178.295 271.883 174.306C271.883 174.306 267.246 182.597 255.804 180.216L256.28 177.021Z" fill="#FF9A6C"/>
<path d="M253.032 146.065C252.9 146.935 253.528 147.765 254.434 147.919C255.339 148.073 256.18 147.495 256.312 146.624C256.444 145.754 255.817 144.923 254.912 144.769C254.006 144.615 253.164 145.195 253.032 146.065Z" fill="#263238"/>
<path d="M252.726 140.289C252.906 140.529 254.267 139.746 256.047 139.957C257.828 140.142 259.029 141.209 259.247 141.013C259.353 140.928 259.189 140.514 258.668 140.033C258.155 139.556 257.247 139.044 256.137 138.92C255.027 138.798 254.047 139.098 253.462 139.454C252.867 139.812 252.636 140.181 252.726 140.289Z" fill="#263238"/>
<path d="M269.001 147.665C268.869 148.535 269.497 149.364 270.404 149.519C271.309 149.673 272.15 149.095 272.282 148.225C272.414 147.355 271.786 146.524 270.881 146.37C269.975 146.214 269.133 146.794 269.001 147.665Z" fill="#263238"/>
<path d="M270.133 142.721C270.314 142.961 271.676 142.179 273.455 142.389C275.236 142.574 276.437 143.641 276.656 143.445C276.762 143.359 276.6 142.946 276.077 142.466C275.565 141.988 274.656 141.477 273.546 141.353C272.436 141.231 271.456 141.532 270.871 141.887C270.275 142.245 270.044 142.613 270.133 142.721Z" fill="#263238"/>
<path d="M262.162 155.665C262.182 155.565 261.097 155.245 259.33 154.808C258.881 154.709 258.46 154.569 258.42 154.249C258.351 153.908 258.598 153.44 258.879 152.936C259.434 151.885 260.015 150.783 260.624 149.629C263.062 144.915 264.883 141.019 264.692 140.922C264.501 140.826 262.37 144.568 259.933 149.281C259.343 150.445 258.779 151.554 258.242 152.615C258.01 153.112 257.647 153.664 257.8 154.372C257.883 154.726 258.189 155.011 258.471 155.123C258.752 155.246 259.008 155.28 259.231 155.32C261.025 155.628 262.144 155.765 262.162 155.665Z" fill="#263238"/>
<path d="M271.364 136.998C271.541 137.485 273.331 137.252 275.434 137.503C277.543 137.712 279.239 138.325 279.518 137.888C279.642 137.678 279.346 137.22 278.66 136.749C277.98 136.279 276.895 135.832 275.632 135.693C274.37 135.557 273.214 135.758 272.448 136.071C271.676 136.383 271.287 136.766 271.364 136.998Z" fill="#263238"/>
<path d="M253.425 134.583C253.73 135.043 255.238 134.85 256.975 135.102C258.719 135.302 260.135 135.873 260.539 135.505C260.719 135.324 260.551 134.885 259.969 134.404C259.396 133.926 258.387 133.45 257.191 133.295C255.995 133.141 254.905 133.344 254.238 133.662C253.559 133.979 253.293 134.361 253.425 134.583Z" fill="#263238"/>
<path d="M288.303 151.48C288.51 151.417 296.537 150.046 295.367 157.939C294.197 165.832 286.515 163.029 286.535 162.801C286.555 162.573 288.303 151.48 288.303 151.48Z" fill="#FFBF9D"/>
<path d="M289.389 160.168C289.427 160.148 289.512 160.284 289.729 160.426C289.94 160.563 290.319 160.692 290.754 160.599C291.633 160.417 292.531 159.197 292.78 157.78C292.907 157.065 292.857 156.358 292.687 155.755C292.531 155.142 292.218 154.683 291.809 154.546C291.405 154.388 291.071 154.595 290.942 154.803C290.804 155.008 290.83 155.173 290.786 155.18C290.761 155.196 290.636 155.022 290.748 154.706C290.804 154.554 290.924 154.381 291.132 154.257C291.344 154.131 291.634 154.093 291.922 154.169C292.524 154.301 292.989 154.942 293.177 155.606C293.398 156.277 293.47 157.073 293.328 157.876C293.042 159.459 292.007 160.827 290.817 160.987C290.24 161.05 289.802 160.814 289.59 160.592C289.375 160.361 289.359 160.179 289.389 160.168Z" fill="#FF9A6C"/>
<path d="M236.583 122.009C236.777 121.562 237.171 121.229 237.621 121.045C238.604 120.643 239.635 120.866 240.644 120.997C243.155 121.323 245.734 121.045 248.133 120.238C247.412 119.73 246.755 119.144 246.227 118.437C245.137 116.977 244.688 114.921 245.522 113.301C245.678 112.997 245.914 112.689 246.252 112.637C246.788 112.555 247.163 113.124 247.462 113.575C248.446 115.061 249.449 115.783 251.229 115.862C252.335 115.911 253.425 115.821 254.36 115.413C254.399 115.382 254.436 115.348 254.475 115.317C254.947 114.953 255.407 114.607 255.859 114.273L255.862 114.27L255.861 114.272C259.262 111.76 262.114 110.092 264.899 109.418C268.98 108.429 275.518 108.743 279.383 110.384C283.248 112.026 286.381 115.814 286.338 120.013C288.87 118.437 292.252 118.947 294.835 120.452L294.908 120.432C297.806 121.968 299.071 125.452 299.517 128.702C299.541 128.88 299.559 129.059 299.58 129.237C300.374 131.027 301.574 132.636 303.107 133.856C303.378 134.071 303.685 134.331 303.672 134.677C303.659 135.019 303.333 135.257 303.029 135.414C302.219 135.832 301.315 136.052 300.405 136.081C300.576 136.863 300.799 137.631 301.104 138.377C301.364 139.012 301.671 139.772 301.281 140.336C300.979 140.772 300.353 140.878 299.845 140.727C299.337 140.575 298.918 140.22 298.516 139.875C298.738 140.741 298.959 141.607 299.181 142.474C298.047 142.505 296.915 142.249 295.888 141.766C294.812 144.587 293.535 149.915 292.496 151.781C290.395 151.511 289.919 151.209 288.811 151.405C287.378 151.659 287.546 154.155 285.867 153.208C285.012 152.725 284.124 149.09 283.955 148.123C282.839 141.707 283.129 135.052 284.792 128.756C283.723 127.221 282.356 125.895 280.789 124.873L280.908 125.016C277.844 123.423 274.353 121.787 271.069 122.854C268.522 123.683 266.765 125.944 264.701 127.651C260.79 130.887 256.688 132.321 251.638 131.803C250.676 135.222 249.709 140.903 249.063 144.13L247.237 137.214L247.231 137.24C247.062 136.826 246.933 136.414 246.81 136.003L246.766 135.877L246.768 135.862C246.574 135.202 246.394 134.542 246.124 133.878C246.112 133.886 246.101 133.893 246.089 133.901C244.1 135.198 241.85 132.442 243.517 130.75C243.847 130.414 244.226 130.128 244.644 129.906C243.728 130.544 242.474 130.731 241.466 130.252C240.457 129.773 239.794 128.585 240.047 127.497C240.22 126.755 240.855 126.161 241.577 125.963C240.138 125.864 238.727 125.342 237.59 124.453C236.845 123.872 236.158 122.992 236.583 122.009Z" fill="#263238"/>
<path d="M282.508 120.81C282.48 120.837 282.947 121.186 283.512 122.039C284.071 122.888 284.63 124.304 284.725 126.134C284.777 127.044 284.747 128.05 284.591 129.114C284.44 130.179 284.188 131.306 283.931 132.495C283.678 133.684 283.407 134.941 283.291 136.271C283.233 136.935 283.215 137.617 283.26 138.308C283.309 138.987 283.377 139.727 283.792 140.366C284.12 140.885 284.752 141.187 285.342 141.152C285.934 141.134 286.493 140.902 286.93 140.537C287.8 139.778 288.146 138.705 288.473 137.762L288.226 137.756C288.495 138.686 288.776 139.606 289.278 140.382C289.77 141.16 290.524 141.738 291.347 141.935C291.757 142.033 292.186 142.028 292.569 141.9C292.959 141.776 293.267 141.513 293.495 141.221C293.715 140.922 293.858 140.579 293.89 140.233C293.92 139.887 293.834 139.542 293.65 139.28L293.511 139.371C294.254 140.516 295.115 141.199 295.721 141.596C296.027 141.795 296.277 141.924 296.446 142.007C296.618 142.086 296.708 142.122 296.712 142.115C296.716 142.108 296.631 142.058 296.468 141.966C296.306 141.87 296.066 141.73 295.771 141.521C295.187 141.106 294.358 140.413 293.651 139.281L293.512 139.372C293.84 139.841 293.757 140.567 293.338 141.1C293.127 141.362 292.846 141.595 292.503 141.699C292.162 141.808 291.772 141.811 291.398 141.717C290.643 141.529 289.94 140.988 289.482 140.249C289.01 139.509 288.738 138.613 288.474 137.683L288.362 137.288L288.227 137.677C287.901 138.618 287.549 139.646 286.757 140.329C286.365 140.655 285.854 140.864 285.336 140.878C284.815 140.902 284.305 140.657 284.018 140.211C283.655 139.658 283.577 138.955 283.53 138.287C283.486 137.613 283.502 136.945 283.557 136.292C283.667 134.983 283.931 133.734 284.177 132.545C284.427 131.355 284.672 130.222 284.815 129.143C284.963 128.064 284.983 127.044 284.917 126.119C284.796 124.262 284.196 122.822 283.6 121.978C282.998 121.13 282.508 120.81 282.508 120.81Z" fill="#455A64"/>
<path d="M245.121 126.829C245.118 126.832 245.145 126.863 245.202 126.921C245.272 126.989 245.356 127.072 245.46 127.174C245.572 127.287 245.717 127.421 245.904 127.559C246.087 127.703 246.294 127.875 246.553 128.032C247.552 128.699 249.199 129.457 251.369 129.645C253.518 129.836 256.186 129.455 258.719 128.089C261.27 126.766 263.653 124.617 265.719 122.059C266.764 120.783 267.658 119.448 268.607 118.234C269.551 117.018 270.558 115.914 271.703 115.094C272.837 114.267 274.093 113.716 275.328 113.56C275.945 113.47 276.547 113.518 277.113 113.614C277.679 113.727 278.202 113.922 278.675 114.158C279.622 114.638 280.345 115.306 280.872 115.96C281.4 116.62 281.722 117.284 281.929 117.842C282.299 118.981 282.229 119.667 282.272 119.662C282.277 119.662 282.28 119.621 282.281 119.54C282.28 119.442 282.279 119.323 282.278 119.178C282.267 118.861 282.199 118.393 282.03 117.809C281.836 117.235 281.521 116.551 280.992 115.866C280.465 115.187 279.734 114.492 278.763 113.986C278.278 113.737 277.739 113.531 277.154 113.408C276.568 113.302 275.937 113.248 275.299 113.335C274.018 113.487 272.719 114.049 271.556 114.89C270.379 115.724 269.35 116.847 268.396 118.07C267.437 119.292 266.542 120.623 265.507 121.887C263.457 124.426 261.107 126.552 258.602 127.866C256.114 129.224 253.505 129.615 251.385 129.453C249.247 129.293 247.616 128.575 246.611 127.943C245.598 127.303 245.147 126.799 245.121 126.829Z" fill="#455A64"/>
<path d="M244.811 121.598C244.799 121.613 244.932 121.736 245.183 121.947C245.431 122.163 245.819 122.441 246.319 122.749C246.818 123.062 247.446 123.378 248.169 123.671C248.896 123.951 249.719 124.2 250.605 124.364C251.493 124.518 252.352 124.57 253.131 124.56C253.91 124.536 254.609 124.457 255.186 124.337C255.762 124.221 256.223 124.095 256.53 123.978C256.839 123.867 257.006 123.798 257 123.78C256.984 123.731 256.298 123.966 255.153 124.147C254.581 124.242 253.893 124.299 253.128 124.309C252.364 124.305 251.523 124.247 250.653 124.096C249.786 123.936 248.977 123.699 248.259 123.437C247.546 123.162 246.92 122.87 246.416 122.583C245.405 122.016 244.843 121.558 244.811 121.598Z" fill="#455A64"/>
<path d="M264.02 158.434C265.217 158.453 266.301 159.521 266.339 160.718C266.376 161.915 265.36 163.048 264.167 163.142C262.973 163.235 261.793 162.274 261.644 161.086C261.494 159.898 262.399 158.674 263.579 158.469" fill="#FF9A6C"/>
<path d="M263.225 162.799C263.244 162.741 263.722 163.138 264.58 163.014C264.995 162.952 265.476 162.732 265.804 162.286C266.134 161.852 266.314 161.218 266.188 160.598C266.058 159.977 265.651 159.465 265.192 159.16C264.731 158.847 264.215 158.746 263.789 158.747C262.923 158.759 262.439 159.089 262.417 159.034C262.407 159.018 262.512 158.923 262.739 158.805C262.964 158.689 263.319 158.556 263.782 158.526C264.239 158.495 264.82 158.58 265.348 158.918C265.871 159.246 266.342 159.816 266.493 160.535C266.638 161.256 266.421 161.973 266.03 162.462C265.639 162.966 265.067 163.196 264.606 163.233C263.644 163.306 263.188 162.802 263.225 162.799Z" fill="#263238"/>
<path d="M123.573 404.885L116.233 432.167C116.233 432.167 86.037 433.869 84.189 438.778L136.577 454.91L149.758 412.87L123.573 404.885Z" fill="#455A64"/>
<path d="M133.131 434.886C134.06 435.475 134.409 436.831 133.858 437.783C133.308 438.735 131.932 439.102 130.993 438.529C130.055 437.956 129.585 436.342 130.239 435.457C130.893 434.573 132.531 434.23 133.305 435.012" fill="#E0E0E0"/>
<path d="M136.577 454.911L137.74 450.622L87.076 436.759C87.076 436.759 84.432 437.056 84.189 438.78L136.577 454.911Z" fill="#263238"/>
<path d="M115.466 431.64C115.396 431.898 116.639 432.408 117.644 433.618C118.681 434.802 118.989 436.11 119.256 436.081C119.507 436.104 119.596 434.457 118.353 433.014C117.123 431.559 115.483 431.388 115.466 431.64Z" fill="white"/>
<path d="M109.272 432.22C109.137 432.45 110.111 433.226 110.647 434.576C111.222 435.91 111.081 437.147 111.339 437.214C111.567 437.329 112.205 435.885 111.507 434.22C110.824 432.549 109.352 431.978 109.272 432.22Z" fill="white"/>
<path d="M104.126 437.836C104.341 437.962 105.091 436.793 104.866 435.19C104.652 433.585 103.616 432.661 103.442 432.841C103.233 433.007 103.778 433.997 103.943 435.317C104.138 436.631 103.879 437.732 104.126 437.836Z" fill="white"/>
<path d="M117.829 425.608C117.864 425.874 119.147 425.883 120.562 426.426C121.989 426.941 122.965 427.772 123.166 427.594C123.371 427.455 122.564 426.169 120.888 425.553C119.216 424.923 117.765 425.368 117.829 425.608Z" fill="white"/>
<path d="M366.86 363.048L384.159 342.804C384.159 342.804 410.292 353.652 413.849 350.223L376.285 315.151L348.053 345.584L366.86 363.048Z" fill="#455A64"/>
<path d="M371.03 333.607C370.488 332.727 370.746 331.43 371.597 330.844C372.449 330.258 373.757 330.505 374.315 331.376C374.872 332.246 374.61 333.812 373.699 334.299C372.788 334.786 371.268 334.41 370.934 333.43" fill="#E0E0E0"/>
<path d="M376.285 315.15L373.558 318.329L410.594 350.767C410.594 350.767 412.943 351.591 413.849 350.222L376.285 315.15Z" fill="#263238"/>
<path d="M384.59 343.565C384.754 343.374 383.915 342.433 383.561 340.993C383.169 339.562 383.443 338.323 383.207 338.239C383.005 338.117 382.259 339.483 382.718 341.219C383.161 342.959 384.473 343.773 384.59 343.565Z" fill="white"/>
<path d="M390.045 345.594C390.252 345.453 389.748 344.396 389.846 343.028C389.905 341.658 390.528 340.662 390.337 340.499C390.192 340.308 389.066 341.278 388.975 342.981C388.871 344.682 389.879 345.767 390.045 345.594Z" fill="white"/>
<path d="M396.668 342.907C396.538 342.712 395.43 343.402 394.967 344.859C394.493 346.313 394.99 347.522 395.209 347.439C395.453 347.383 395.397 346.317 395.796 345.127C396.167 343.928 396.834 343.096 396.668 342.907Z" fill="white"/>
<path d="M380.142 347.74C380.221 347.499 379.144 346.969 378.173 345.93C377.181 344.911 376.697 343.805 376.455 343.875C376.225 343.91 376.382 345.333 377.543 346.541C378.695 347.758 380.098 347.97 380.142 347.74Z" fill="white"/>
<path d="M227.966 326.347C227.966 326.347 295.608 408.229 309.225 411.451C331.519 416.726 379.92 351.99 379.92 351.99L358.351 329.369L314.88 367.077L279.27 309.137L227.966 326.347Z" fill="#263238"/>
<path d="M311.328 388.476C311.293 388.483 311.202 388.187 311.068 387.642C310.927 387.099 310.781 386.298 310.655 385.301C310.398 383.31 310.327 380.504 310.804 377.464C311.29 374.424 312.223 371.777 313.082 369.962C313.509 369.053 313.895 368.336 314.197 367.863C314.493 367.386 314.671 367.132 314.702 367.15C314.779 367.194 314.18 368.276 313.42 370.11C312.657 371.941 311.797 374.557 311.319 377.545C310.851 380.534 310.862 383.287 311.022 385.264C311.178 387.243 311.414 388.458 311.328 388.476Z" fill="#455A64"/>
<path d="M115.691 415.975C115.691 415.975 144.652 320.687 152.405 306.388C157.702 296.62 197.326 296.538 197.326 296.538L280.625 296.62C280.625 296.62 287.048 308.888 283.912 324.037C281.534 335.526 270.605 343.742 260.517 345.968C252.455 347.747 245.181 346.406 245.181 346.406L180.436 337.787C180.436 337.787 179.873 343.944 176.495 353.794C173.117 363.644 147.457 430.751 147.457 430.751L115.691 415.975Z" fill="#263238"/>
<g opacity="0.3">
<path d="M284.82 318.505C283.621 325.364 279.777 332.499 274.624 337.182C269.471 341.865 261.749 345.241 254.807 345.779L246.143 345.292C247.474 346.014 249.26 347.742 250.591 348.464C259.172 354.29 271.712 353.424 279.385 346.437C287.11 339.403 289.946 327.608 284.82 318.505Z" fill="black"/>
</g>
<path d="M285.299 316.796C285.317 316.797 285.315 316.998 285.295 317.381C285.263 317.762 285.262 318.332 285.154 319.053C284.995 320.502 284.602 322.589 283.783 325.071C282.97 327.553 281.653 330.407 279.698 333.266C277.751 336.123 275.117 338.947 271.87 341.287C268.597 343.593 265.067 345.161 261.73 346.068C258.389 346.983 255.261 347.295 252.65 347.253C250.037 347.217 247.935 346.907 246.515 346.584C245.798 346.451 245.26 346.266 244.889 346.171C244.521 346.065 244.33 346.002 244.334 345.984C244.346 345.938 245.128 346.129 246.553 346.385C247.977 346.645 250.066 346.896 252.65 346.885C255.232 346.88 258.315 346.533 261.601 345.606C264.884 344.686 268.35 343.13 271.568 340.863C274.76 338.562 277.363 335.795 279.304 332.993C281.253 330.19 282.588 327.39 283.436 324.951C284.29 322.512 284.736 320.455 284.955 319.025C285.177 317.594 285.251 316.792 285.299 316.796Z" fill="#455A64"/>
<path d="M171.708 321.703C171.754 321.66 172.543 322.398 173.659 323.741C174.775 325.08 176.185 327.051 177.452 329.399C178.715 331.75 179.584 334.012 180.088 335.681C180.594 337.351 180.776 338.417 180.715 338.431C180.636 338.451 180.329 337.422 179.739 335.798C179.15 334.174 178.24 331.965 176.994 329.646C175.744 327.33 174.402 325.354 173.37 323.968C172.338 322.58 171.647 321.757 171.708 321.703Z" fill="#455A64"/>
<path d="M328.688 275.208C328.688 275.208 327.073 281.65 325.479 282.937C325.479 282.937 313.328 294.256 312.75 294.723C312.172 295.189 310.313 295.915 309.455 295.296C308.597 294.677 308.62 293.227 308.62 293.227C308.62 293.227 305.612 294.82 304.449 293.97C303.286 293.12 303.803 291.987 303.803 291.987C303.803 291.987 301.531 292.867 300.3 291.415C299.069 289.964 299.553 287.904 299.553 287.904C299.553 287.904 297.573 289.145 296.589 287.852C295.605 286.559 295.574 284.378 295.574 284.378L297.439 281.739C297.439 281.739 302.53 276.078 304.082 274.527C305.633 272.977 311.818 271.404 314.316 270.879L320.593 263.384L328.688 275.208Z" fill="#FFBF9D"/>
<path d="M325.478 282.937L318.03 266.875C318.03 266.875 326.777 255.23 330.989 247.606C335.201 239.982 333.544 240.514 333.544 240.514C333.544 240.514 328.347 237.228 320.986 234.531C313.625 231.834 304.646 226.15 304.646 226.15C304.646 226.15 291.927 219.908 289.81 215.858C287.692 211.808 286.975 202.597 291.579 199.264C292.73 198.431 294.188 197.83 295.728 197.396C300.913 195.937 306.474 196.727 311.211 199.29C318.706 203.345 331.398 210.203 333.227 211.14C333.227 211.14 354.495 224.075 356.833 226.203C362.535 231.395 364.443 237.604 358.232 246.865C352.324 255.673 325.478 282.937 325.478 282.937Z" fill="#FFBF9D"/>
<path d="M333.437 242.259C333.378 242.243 333.513 241.443 334.027 240.242C334.536 239.044 335.485 237.473 336.895 236.052C338.311 234.635 339.879 233.68 341.075 233.167C342.274 232.648 343.073 232.51 343.089 232.569C343.168 232.732 340.017 233.65 337.283 236.439C334.506 239.183 333.6 242.337 333.437 242.259Z" fill="#FF9A6C"/>
<path d="M245.997 186.746C244.76 187.392 230.111 208.892 227.681 212.682C225.251 216.472 217.997 279.294 217.997 279.294L216.465 297.15L286.737 301.123C289.486 301.443 291.66 298.836 290.85 296.189L286.378 281.568C285.004 277.077 284.96 272.285 286.249 267.77L298.357 225.362L312.081 216.964L291.924 189.916L282.535 188.454L245.997 186.746Z" fill="#FF725E"/>
<path d="M328.787 205.312L309.066 232.169C309.066 232.169 280.508 215.147 279.486 208.578C279.362 207.783 279.266 206.958 279.191 206.12C278.4 197.225 285.457 189.423 294.379 189.797C294.459 189.8 294.538 189.804 294.618 189.808C302.594 190.227 328.787 205.312 328.787 205.312Z" fill="#FF725E"/>
<path d="M210.428 226.982L204.425 196.669C204.425 196.669 236.349 185.909 243.652 186.48C250.955 187.051 255.968 189.784 255.968 189.784L233.535 220.235L210.428 226.982Z" fill="#FF725E"/>
<path d="M230.144 198.474C230.153 198.474 230.151 198.546 230.14 198.688C230.121 198.862 230.098 199.069 230.071 199.32C229.98 199.915 229.859 200.715 229.706 201.721C229.352 203.851 228.855 206.847 228.243 210.528C226.991 217.961 225.269 228.23 223.493 239.59C221.707 250.953 220.269 261.265 219.327 268.742C218.876 272.482 218.5 275.509 218.282 277.604C218.163 278.614 218.068 279.417 217.997 280.014C217.926 280.565 217.88 280.853 217.862 280.851C217.844 280.849 217.855 280.558 217.892 280.004C217.939 279.404 218.001 278.597 218.08 277.583C218.236 275.48 218.556 272.446 218.961 268.697C219.81 261.204 221.192 250.877 222.979 239.509C224.755 228.144 226.535 217.881 227.881 210.464C228.561 206.795 229.114 203.809 229.507 201.686C229.7 200.688 229.854 199.894 229.968 199.303C230.069 198.761 230.125 198.474 230.144 198.474Z" fill="#263238"/>
<path d="M304.409 218.897C304.379 218.991 303.304 218.617 301.508 218.401C300.612 218.285 299.534 218.255 298.345 218.32C297.158 218.412 295.86 218.615 294.537 218.99C293.219 219.384 292.015 219.909 290.963 220.468C289.925 221.051 289.031 221.655 288.337 222.234C286.938 223.379 286.231 224.272 286.156 224.209C286.128 224.187 286.286 223.951 286.6 223.542C286.904 223.125 287.415 222.575 288.099 221.954C288.778 221.325 289.673 220.673 290.729 220.05C291.797 219.451 293.034 218.895 294.392 218.49C295.755 218.103 297.096 217.908 298.319 217.841C299.544 217.8 300.65 217.87 301.56 218.036C302.47 218.193 303.196 218.383 303.677 218.571C304.161 218.749 304.421 218.863 304.409 218.897Z" fill="#263238"/>
<path d="M281.47 218.165C281.441 218.18 281.179 217.759 280.766 216.966C280.353 216.173 279.79 215.004 279.214 213.507C278.648 212.008 278.071 210.172 277.748 208.063C277.418 205.96 277.388 203.574 277.887 201.151C278.396 198.733 279.415 196.533 280.783 194.87C282.145 193.2 283.773 192.071 285.244 191.399C286.726 190.734 288.037 190.502 288.935 190.459C289.386 190.442 289.735 190.444 289.971 190.474C290.207 190.495 290.329 190.514 290.328 190.532C290.355 190.663 288.265 190.344 285.401 191.731C283.996 192.424 282.447 193.546 281.157 195.169C279.862 196.784 278.89 198.911 278.396 201.256C277.404 206.003 278.535 210.419 279.559 213.379C280.085 214.876 280.593 216.061 280.948 216.877C281.304 217.695 281.504 218.147 281.47 218.165Z" fill="#263238"/>
<path d="M266.728 264.317C266.745 264.349 266.208 264.667 265.223 265.216C264.239 265.766 262.801 266.539 261.015 267.474C257.444 269.346 252.465 271.848 246.896 274.464C241.324 277.079 236.219 279.312 232.498 280.865C230.638 281.642 229.125 282.254 228.073 282.66C227.022 283.067 226.434 283.277 226.42 283.244C226.406 283.211 226.968 282.938 227.995 282.474C229.103 281.979 230.572 281.323 232.352 280.528C236.033 278.89 241.109 276.606 246.675 273.994C252.238 271.381 257.237 268.934 260.848 267.147C262.597 266.285 264.041 265.573 265.129 265.037C266.143 264.543 266.711 264.285 266.728 264.317Z" fill="#263238"/>
<path d="M177.363 172.472C177.363 172.472 157.797 214.985 159.119 222.111C160.549 229.826 165.219 232.139 174.343 230.902C183.467 229.665 209.402 221.797 209.402 221.797L204.644 197.771L181.063 204.613L191.473 173.243L177.363 172.472Z" fill="#FFBF9D"/>
<path d="M179.12 222.406C178.933 222.332 180.799 218.663 181.358 213.72C181.971 208.782 181.013 204.794 181.213 204.764C181.282 204.746 181.613 205.713 181.87 207.345C182.129 208.973 182.259 211.274 181.964 213.789C181.662 216.303 180.997 218.514 180.364 220.04C179.732 221.571 179.184 222.439 179.12 222.406Z" fill="#FF9A6C"/>
<path d="M208.469 142.581C208.402 142.746 206.098 141.955 203.322 140.814C200.544 139.673 198.348 138.615 198.415 138.45C198.481 138.286 200.785 139.077 203.563 140.218C206.339 141.358 208.536 142.416 208.469 142.581Z" fill="#455A64"/>
<path d="M198.331 158.076C197.003 157.933 193.639 159.664 190.806 163.097C190.758 163.15 190.709 163.193 190.662 163.247C188.655 165.547 187.369 158.515 187.224 155.919C187.13 154.235 185.404 153.09 183.742 153.586L174.894 157.063L173.515 157.019C172.22 157.406 171.426 160.117 171.673 161.41L173.957 173.462C174.633 176.147 175.938 177.029 177.766 179.097L190.661 175.688C190.988 174.625 192.264 169.446 192.817 168.023C193.314 166.744 194.034 165.543 194.947 164.502C195.904 163.411 197.198 162.039 198.259 161.29C198.355 161.237 198.463 161.158 198.553 161.117C198.769 161.017 198.932 160.876 199.071 160.722C200.002 159.833 199.627 158.215 198.331 158.076Z" fill="#FFBF9D"/>
<path d="M191.905 130.429C191.905 130.429 183.213 129.134 170.362 118.278C157.512 107.422 150.784 92.2549 149.315 92.4379C147.846 92.6209 141.2 90.0619 130.8 117.926C120.401 145.791 125.653 151.704 128.087 151.477C130.52 151.249 146.747 145.378 157.164 145.817C167.58 146.256 181.238 150.745 181.238 150.745L191.905 130.429Z" fill="#FF725E"/>
<path d="M209.848 144.576L207.464 150.047L206.396 152.498C204.931 155.86 201.112 157.478 197.706 156.181L179.989 151.341L188.443 127.449L206.369 135.498C209.808 137.042 211.364 141.099 209.848 144.576Z" fill="#263238"/>
<path d="M202.372 151.204L195.795 162.336L192.933 161.329L172.886 175.689L168.247 164.844C168.247 164.844 179.813 160.697 182.156 156.79C184.498 152.883 182.154 151.808 182.154 151.808L187.842 146.091L202.372 151.204Z" fill="#263238"/>
<path d="M131.759 118.619C126.276 133.575 124.474 146.683 127.734 147.896C130.994 149.109 138.081 137.968 143.564 123.012C149.046 108.056 150.848 94.949 147.588 93.736C144.329 92.522 137.242 103.663 131.759 118.619Z" fill="#263238"/>
<path d="M207.189 146.189C207.128 146.356 204.586 145.563 201.514 144.419C198.439 143.274 195.998 142.211 196.059 142.045C196.12 141.879 198.66 142.671 201.735 143.816C204.808 144.96 207.249 146.023 207.189 146.189Z" fill="#455A64"/>
<path d="M205.522 149.998C205.502 150.085 204.904 149.99 203.944 149.765C203.465 149.652 202.896 149.507 202.266 149.337C201.639 149.157 200.983 148.879 200.281 148.617C197.481 147.542 195.324 146.447 195.382 146.295C195.45 146.115 197.732 146.95 200.506 148.015C201.201 148.275 201.85 148.569 202.456 148.775C203.064 148.974 203.611 149.161 204.067 149.327C204.982 149.661 205.542 149.912 205.522 149.998Z" fill="#455A64"/>
<path d="M144.774 114.452C144.774 114.452 137.036 110.347 133.684 120.732C130.332 131.118 138.25 132.222 138.25 132.222C141.094 127.005 143.288 121.102 144.774 114.452Z" fill="#FAFAFA"/>
<path d="M151.82 101.857C151.864 101.861 151.806 102.554 151.664 103.807C151.516 105.057 151.309 106.872 150.987 109.105C150.749 110.21 150.489 111.417 150.21 112.711C150.069 113.36 149.922 114.03 149.771 114.72C149.695 115.065 149.618 115.415 149.54 115.77C149.453 116.123 149.332 116.471 149.228 116.829C148.791 118.256 148.333 119.753 147.857 121.305C147.737 121.693 147.617 122.084 147.495 122.479C147.378 122.875 147.199 123.253 147.053 123.645C146.743 124.424 146.429 125.214 146.111 126.014C145.792 126.814 145.476 127.603 145.165 128.382C145.002 128.768 144.871 129.165 144.685 129.533C144.502 129.903 144.32 130.27 144.14 130.633C143.419 132.085 142.722 133.486 142.058 134.822C141.888 135.153 141.736 135.489 141.556 135.805C141.368 136.116 141.184 136.424 141.001 136.726C140.635 137.331 140.281 137.918 139.937 138.486C139.249 139.616 138.608 140.67 138.021 141.636C136.724 143.469 135.631 144.919 134.88 145.925C134.124 146.928 133.689 147.469 133.653 147.444C133.617 147.418 133.984 146.827 134.677 145.78C135.398 144.712 136.409 143.214 137.652 141.373C138.214 140.402 138.828 139.342 139.487 138.205C139.818 137.637 140.161 137.049 140.514 136.445C140.691 136.143 140.87 135.836 141.052 135.526C141.226 135.211 141.374 134.874 141.539 134.544C142.188 133.212 142.868 131.814 143.574 130.366C143.751 130.004 143.929 129.639 144.11 129.271C144.294 128.905 144.422 128.51 144.583 128.126C144.891 127.352 145.203 126.567 145.519 125.773C145.836 124.979 146.149 124.195 146.457 123.422C146.604 123.033 146.783 122.658 146.9 122.266C147.022 121.875 147.144 121.487 147.264 121.102C147.748 119.565 148.216 118.082 148.661 116.668C148.769 116.314 148.893 115.969 148.983 115.619C149.065 115.267 149.146 114.921 149.226 114.579C149.386 113.896 149.542 113.232 149.693 112.59C149.998 111.309 150.281 110.114 150.542 109.02C150.907 106.829 151.204 105.046 151.416 103.775C151.635 102.536 151.776 101.852 151.82 101.857Z" fill="#263238"/>
<path d="M181.458 150.477C180.456 150.837 179.899 151.962 180.196 153.028C180.765 155.069 181.69 158.274 182.413 160.227C182.646 160.856 182.899 161.497 183.341 161.986C183.783 162.475 184.46 162.785 185.077 162.594C185.729 162.392 186.149 161.684 186.244 160.977C186.339 160.269 186.174 159.556 186.002 158.867C185.527 156.962 184.681 154.104 183.95 151.775C183.607 150.687 182.491 150.106 181.458 150.477Z" fill="#FFBF9D"/>
<path d="M178.455 153.972C177.453 154.332 176.896 155.457 177.193 156.523C177.762 158.564 178.688 161.77 179.41 163.722C179.643 164.351 179.896 164.992 180.337 165.481C180.779 165.97 181.456 166.28 182.074 166.089C182.726 165.888 183.146 165.179 183.241 164.472C183.337 163.765 183.171 163.051 182.999 162.362C182.524 160.457 181.678 157.599 180.947 155.27C180.605 154.182 179.489 153.601 178.455 153.972Z" fill="#FFBF9D"/>
<path d="M175.638 156.129C174.732 156.438 174.231 157.411 174.503 158.335C175.023 160.105 175.868 162.883 176.526 164.575C176.738 165.121 176.969 165.676 177.37 166.101C177.771 166.525 178.384 166.796 178.942 166.632C179.531 166.459 179.909 165.847 179.994 165.234C180.079 164.622 179.927 164.003 179.769 163.406C179.335 161.755 178.562 159.277 177.895 157.259C177.583 156.317 176.572 155.811 175.638 156.129Z" fill="#FFBF9D"/>
<path d="M172.08 156.682C171.17 156.992 170.667 157.97 170.939 158.898C171.461 160.676 172.311 163.467 172.972 165.168C173.185 165.716 173.417 166.274 173.82 166.701C174.223 167.127 174.839 167.399 175.4 167.234C175.992 167.06 176.372 166.445 176.457 165.83C176.542 165.215 176.389 164.594 176.231 163.993C175.795 162.334 175.019 159.845 174.348 157.817C174.034 156.87 173.018 156.362 172.08 156.682Z" fill="#FFBF9D"/>
<path d="M183.151 162.053C182.958 162.12 182.233 160.5 181.531 158.436C180.829 156.372 180.416 154.645 180.608 154.578C180.801 154.512 181.526 156.131 182.228 158.195C182.93 160.259 183.343 161.986 183.151 162.053Z" fill="#FF9A6C"/>
<path d="M179.933 164.907C179.739 164.968 178.97 163.104 178.216 160.745C177.462 158.385 177.007 156.418 177.199 156.351C177.391 156.284 178.16 158.147 178.916 160.514C179.673 162.878 180.128 164.846 179.933 164.907Z" fill="#FF9A6C"/>
<path d="M176.761 165.103C176.579 165.186 175.7 163.606 174.989 161.502C174.273 159.399 174.009 157.608 174.204 157.561C174.405 157.511 174.983 159.194 175.687 161.262C176.386 163.331 176.951 165.018 176.761 165.103Z" fill="#FF9A6C"/>
<path d="M110.689 138.241C110.721 138.381 103.766 140.102 95.156 142.085C86.543 144.068 79.537 145.562 79.505 145.422C79.473 145.282 86.426 143.561 95.039 141.578C103.649 139.595 110.657 138.101 110.689 138.241Z" fill="#263238"/>
<path d="M116.454 122.451C116.453 122.595 104.736 122.647 90.2852 122.568C75.8302 122.489 64.1162 122.309 64.1172 122.165C64.1182 122.021 75.8332 121.969 90.2882 122.048C104.739 122.127 116.455 122.307 116.454 122.451Z" fill="#263238"/>
<path d="M120.096 113.515C120.033 113.644 111.311 109.503 100.617 104.267C89.9191 99.029 81.3021 94.6791 81.3651 94.5501C81.4281 94.4211 90.1491 98.5611 100.846 103.799C111.54 109.036 120.159 113.386 120.096 113.515Z" fill="#263238"/>
<path d="M128.879 104.874C128.759 104.953 122.601 95.815 115.127 84.467C107.65 73.115 101.688 63.851 101.809 63.772C101.929 63.693 108.086 72.829 115.562 84.181C123.036 95.529 128.999 104.795 128.879 104.874Z" fill="#263238"/>
</svg>
