<svg width="745" height="638" viewBox="0 0 745 638" fill="none" xmlns="http://www.w3.org/2000/svg">
<g clip-path="url(#clip0_130_374)">
<path d="M446.53 0H21.8701V411.34H446.53V0Z" fill="#D2CDFA"/>
<path d="M122.95 96.27H49.8203V169.4H122.95V96.27Z" fill="#ECEAFD"/>
<path d="M319.21 96.27H246.08V169.4H319.21V96.27Z" fill="#ECEAFD"/>
<path d="M417.34 96.27H344.21V169.4H417.34V96.27Z" fill="#ECEAFD"/>
<path d="M122.95 197.77H49.8203V270.9H122.95V197.77Z" fill="#ECEAFD"/>
<path d="M221.08 197.77H147.95V270.9H221.08V197.77Z" fill="#ECEAFD"/>
<path d="M319.21 197.77H246.08V270.9H319.21V197.77Z" fill="#ECEAFD"/>
<path d="M417.34 197.77H344.21V270.9H417.34V197.77Z" fill="#ECEAFD"/>
<path d="M122.95 299.27H49.8203V372.4H122.95V299.27Z" fill="#ECEAFD"/>
<path d="M221.08 299.27H147.95V372.4H221.08V299.27Z" fill="#ECEAFD"/>
<path d="M319.21 299.27H246.08V372.4H319.21V299.27Z" fill="#ECEAFD"/>
<path d="M417.34 299.27H344.21V372.4H417.34V299.27Z" fill="#ECEAFD"/>
<path d="M744.31 82.1802H319.65V506.84H744.31V82.1802Z" fill="white"/>
<path d="M416.74 72.9498H366.84V23.0498H416.74V72.9498ZM368.53 71.2598H415.05V24.7398H368.53V71.2598Z" fill="#8585E9"/>
<path d="M415.299 23.3041L367.089 71.5146L368.277 72.7026L416.487 24.4921L415.299 23.3041Z" fill="#8585E9"/>
<path d="M368.277 23.3043L367.089 24.4922L415.299 72.7027L416.487 71.5148L368.277 23.3043Z" fill="#8585E9"/>
<path d="M66.6501 47.9998C66.6501 52.6498 62.8801 56.4098 58.2401 56.4098C53.6001 56.4098 49.8301 52.6398 49.8301 47.9998C49.8301 43.3598 53.6001 39.5898 58.2401 39.5898C62.8801 39.5898 66.6501 43.3598 66.6501 47.9998Z" fill="#4835EA"/>
<path d="M94.8405 47.9998C94.8405 52.6498 91.0705 56.4098 86.4305 56.4098C81.7905 56.4098 78.0205 52.6398 78.0205 47.9998C78.0205 43.3598 81.7905 39.5898 86.4305 39.5898C91.0705 39.5898 94.8405 43.3598 94.8405 47.9998Z" fill="white"/>
<path d="M715.85 158.29H665.95V108.4H715.85V158.29ZM667.65 156.6H714.17V110.08H667.65V156.6Z" fill="#8585E9"/>
<path d="M714.415 108.639L666.204 156.85L667.392 158.038L715.603 109.827L714.415 108.639Z" fill="#8585E9"/>
<path d="M667.395 108.656L666.207 109.844L714.418 158.055L715.605 156.867L667.395 108.656Z" fill="#8585E9"/>
<path d="M365.76 133.34C365.76 137.99 361.99 141.75 357.35 141.75C352.71 141.75 348.94 137.98 348.94 133.34C348.94 128.7 352.71 124.93 357.35 124.93C361.99 124.93 365.76 128.7 365.76 133.34Z" fill="#4835EA"/>
<path d="M393.829 134.684C394.575 130.099 391.463 125.778 386.879 125.032C382.294 124.287 377.973 127.398 377.227 131.983C376.482 136.567 379.593 140.888 384.178 141.634C388.762 142.38 393.083 139.268 393.829 134.684Z" fill="#D2CDFA"/>
<path d="M593.96 144.26C568.98 90.3601 525.14 47.8901 470.5 24.6701L471.16 23.1201C526.18 46.5101 570.34 89.2801 595.49 143.56L593.96 144.27V144.26Z" fill="#8585E9"/>
<path d="M600.02 140.48L587.97 146.74L600.02 154.77V140.48Z" fill="#8585E9"/>
<path d="M298.47 471.09C243.45 447.7 199.29 404.93 174.14 350.65L175.67 349.94C200.65 403.84 244.5 446.31 299.14 469.53L298.48 471.08L298.47 471.09Z" fill="#8585E9"/>
<path d="M169.6 353.73L181.65 347.47L169.6 339.44V353.73Z" fill="#8585E9"/>
<path d="M711.24 210.39H348.94V256.4H711.24V210.39Z" fill="#8585E9"/>
<path d="M712.08 327.03H348.09V279.33H712.08V327.03ZM349.78 325.34H710.4V281.02H349.78V325.34Z" fill="#8585E9"/>
<path d="M712.08 396.8H348.09V349.1H712.08V396.8ZM349.78 395.12H710.4V350.8H349.78V395.12Z" fill="#8585E9"/>
<path d="M712.08 466.58H348.09V418.88H712.08V466.58ZM349.78 464.9H710.4V420.58H349.78V464.9Z" fill="#8585E9"/>
<path d="M643.83 227.05H402.25V228.74H643.83V227.05Z" fill="white"/>
<path d="M572.9 237.51H402.25V239.2H572.9V237.51Z" fill="white"/>
<path d="M374.31 244.74C380.987 244.74 386.4 239.327 386.4 232.65C386.4 225.973 380.987 220.56 374.31 220.56C367.633 220.56 362.22 225.973 362.22 232.65C362.22 239.327 367.633 244.74 374.31 244.74Z" fill="white"/>
<path d="M643.83 297.41H402.25V299.1H643.83V297.41Z" fill="#8585E9"/>
<path d="M572.9 307.87H402.25V309.56H572.9V307.87Z" fill="#8585E9"/>
<path d="M374.31 315.94C367.18 315.94 361.38 310.14 361.38 303.01C361.38 295.88 367.18 290.08 374.31 290.08C381.44 290.08 387.24 295.88 387.24 303.01C387.24 310.14 381.44 315.94 374.31 315.94ZM374.31 291.76C368.11 291.76 363.07 296.8 363.07 303.01C363.07 309.22 368.11 314.26 374.31 314.26C380.51 314.26 385.56 309.22 385.56 303.01C385.56 296.8 380.52 291.76 374.31 291.76Z" fill="#8585E9"/>
<path d="M643.83 367.36H402.25V369.05H643.83V367.36Z" fill="#8585E9"/>
<path d="M572.9 377.82H402.25V379.51H572.9V377.82Z" fill="#8585E9"/>
<path d="M374.31 385.89C367.18 385.89 361.38 380.09 361.38 372.96C361.38 365.83 367.18 360.03 374.31 360.03C381.44 360.03 387.24 365.83 387.24 372.96C387.24 380.09 381.44 385.89 374.31 385.89ZM374.31 361.71C368.11 361.71 363.07 366.75 363.07 372.96C363.07 379.17 368.11 384.2 374.31 384.2C380.51 384.2 385.56 379.16 385.56 372.96C385.56 366.76 380.52 361.71 374.31 361.71Z" fill="#8585E9"/>
<path d="M643.83 437.14H402.25V438.83H643.83V437.14Z" fill="#8585E9"/>
<path d="M572.9 447.6H402.25V449.29H572.9V447.6Z" fill="#8585E9"/>
<path d="M374.31 455.66C367.18 455.66 361.38 449.86 361.38 442.73C361.38 435.6 367.18 429.8 374.31 429.8C381.44 429.8 387.24 435.6 387.24 442.73C387.24 449.86 381.44 455.66 374.31 455.66ZM374.31 431.49C368.11 431.49 363.07 436.53 363.07 442.73C363.07 448.93 368.11 453.98 374.31 453.98C380.51 453.98 385.56 448.94 385.56 442.73C385.56 436.52 380.52 431.49 374.31 431.49Z" fill="#8585E9"/>
<path d="M559.88 319.65C560.22 318.74 555.27 268.13 555.27 268.13L566.27 266.82L581.44 324.46L559.87 319.65H559.88Z" fill="#FEBAC7"/>
<g style="mix-blend-mode:multiply" opacity="0.1">
<path d="M679.62 627.68C679.62 637.35 657.85 637.35 631 637.35C604.15 637.35 582.38 637.35 582.38 627.68C582.38 618.01 604.15 618.01 631 618.01C657.85 618.01 679.62 618.01 679.62 627.68Z" fill="black"/>
</g>
<path d="M602.76 235.37C602.76 235.37 601.66 250.44 608.51 255.23C615.36 260.02 612.62 270.03 610.57 272.08C608.51 274.14 606.6 285.09 617.56 287.83C628.52 290.57 635.64 276.87 633.73 273.03C631.81 269.19 625.51 261.66 629.21 254.54C632.91 247.42 634.04 248.65 634.04 238.24C634.04 227.83 631.26 220.7 624.96 218.38C618.66 216.05 604.82 216.32 602.77 235.37H602.76Z" fill="#FEBAC7"/>
<path d="M582.84 425.58C582.84 448.36 599.8 511.66 599.8 511.66L614.46 598.2H628.97L627.52 500.65L624.51 430.35H628.97L632.69 501.65L637.21 598.2H651.65C651.65 598.2 655.75 514.39 655.75 511.89C655.75 509.39 666.35 463.81 666.35 423.02C666.35 397.01 655.11 378.81 655.11 378.81H588.44C588.44 378.81 582.83 402.8 582.83 425.58H582.84Z" fill="#12126E"/>
<path d="M661.2 322.16L672.71 342.13C672.71 342.13 675.56 362.35 678.76 374.11C681.8 385.3 684.04 395.66 684.04 395.66C684.04 395.66 683.09 402.17 683.88 406.38C684.68 410.59 687.9 416.09 687.9 416.09C687.9 416.09 690.13 416.32 689.61 413.58C689.09 410.84 688.38 405.83 688.88 405.74C689.38 405.65 691.75 414.8 691.14 417.68C690.53 420.57 690.24 422.81 691.13 423.42C692.02 424.03 693.32 421.01 694.24 417.74C694.24 417.74 695.27 417.74 696.03 416.63C696.79 415.52 696.62 413.3 696.62 413.3C696.62 413.3 696.77 413.24 697.3 412.46C697.83 411.68 698.56 402.75 696.26 398.1C693.96 393.45 692.53 391.98 692.53 391.98C692.53 391.98 690.23 352.9 687.86 340.35C685.49 327.8 679.78 314.79 679.78 314.79L661.21 322.15L661.2 322.16Z" fill="#FEBAC7"/>
<path d="M609.2 273.62C609.2 273.62 574.68 267.48 564.08 307.09L559.88 314.37C559.88 314.37 571.65 324.46 581.45 324.46L584.95 318.41C585.39 317.65 586.56 318.1 586.36 318.96C585.2 324.01 587.09 327.76 589.02 334.82C591.84 345.14 588.46 378.8 588.46 378.8C588.46 378.8 615.07 388.32 655.13 378.8C655.13 378.8 650.25 345.19 650.93 335.66C651.57 326.73 657.37 324.73 655.13 314.93L661.19 327.75C661.19 327.75 675.99 326.3 684.94 318.1L679.5 310.17C679.5 310.17 679.27 280.19 661.01 275.71C642.73 271.23 633.04 272.7 633.04 272.7L609.2 273.61V273.62Z" fill="#E0665C"/>
<path d="M616.42 203.92C616.42 203.92 614.65 205.04 608.44 206.74C602.78 208.29 595.07 214.72 595.07 225.75C595.07 236.78 595.28 245.38 602.7 252.8C610.12 260.22 609.85 260.48 614.08 264.7C618.3 268.92 629.68 262.24 635.2 256.72C640.71 251.21 644.82 245.22 643.41 236.31C642 227.39 643.18 222.7 638.95 214.02C634.73 205.34 621.38 198.97 616.42 203.93V203.92Z" fill="#12126E"/>
<path d="M606.129 245.16C606.129 245.16 588.769 247.87 592.289 267.05C595.809 286.23 598.859 298.19 594.869 305.47C594.869 305.47 592.29 314.39 602.14 314.39C611.99 314.39 619.93 307.88 617.95 291.19C615.98 274.5 625.359 289.28 625.359 270.98C625.359 252.68 614.569 236.72 606.119 245.17L606.129 245.16Z" fill="#12126E"/>
<path d="M628.97 598.2C628.97 598.2 635.93 627.06 630.99 627.68C626.05 628.3 614.47 627.68 611.02 627.68C601.26 627.68 599.05 618.68 605.44 618.42C611.83 618.17 614.46 606.85 614.45 598.19H628.96L628.97 598.2Z" fill="#1957C2"/>
<path d="M637.26 598.2C637.26 598.2 630.3 627.06 635.24 627.68C640.18 628.3 651.76 627.68 655.21 627.68C664.97 627.68 667.18 618.68 660.79 618.42C654.4 618.17 651.77 606.85 651.78 598.19H637.27L637.26 598.2Z" fill="#1957C2"/>
<path d="M566.28 266.82C566.28 266.82 569.63 256.95 569.52 253.49C569.46 251.68 570.48 246.9 570.5 244.85C570.52 242.99 569.52 243.76 569.52 243.76C568.32 244.7 567.44 245.99 567.03 247.45L566.24 250.21L564.66 234.32C564.6 233.55 563.93 232.98 563.17 233.05C562.46 233.11 561.91 233.71 561.91 234.42L562.58 247.67L561.83 247.87L560.78 233.36C560.76 232.73 560.21 232.25 559.59 232.32L559.13 232.37C558.6 232.43 558.19 232.87 558.17 233.4L558.32 248.25H557.57L557.16 235.89C557.17 235.18 556.51 234.65 555.82 234.82L555.42 234.92C554.96 235.03 554.63 235.43 554.61 235.9L554.57 248.24C554.57 248.24 553.83 248.53 553.83 248.36C553.83 248.24 553.53 243.82 553.74 241.14C553.81 240.31 552.94 239.72 552.19 240.09C551.86 240.25 551.63 240.57 551.6 240.94C551.37 243.12 551.38 249.65 551.43 249.85C551.61 250.51 555.29 268.11 555.29 268.11L566.29 266.8L566.28 266.82Z" fill="#FEBAC7"/>
<g style="mix-blend-mode:multiply" opacity="0.15">
<path d="M30.0399 534.87C49.4299 534.82 78.5199 534.87 78.5199 534.87C78.5199 534.87 133.66 533.15 142.15 539.82C150.63 546.49 139.78 553.16 100.06 551.49C60.3399 549.82 36.2299 551.49 22.5299 549.27C8.8399 547.05 10.6499 534.93 30.0499 534.87H30.0399Z" fill="black"/>
</g>
<path d="M24.4 508.42L21.79 525.39C22.38 535.82 29.08 534.77 36.78 531.81L44.12 517.74L24.4 508.42Z" fill="#FEBAC7"/>
<path d="M21.7903 525.38L19.0503 539.72C18.5903 542.12 20.4303 544.34 22.8703 544.34H63.0003C63.0003 544.34 63.1203 533.94 57.9203 531.8C52.7203 529.66 40.6403 531.29 40.1303 525.38H32.9603C32.9603 525.38 33.4803 533.28 28.2803 531.8C23.0803 530.33 21.8003 525.38 21.8003 525.38H21.7903Z" fill="#12126E"/>
<path d="M94.6504 508.42L97.4704 525.39C98.0604 535.82 104.76 534.77 112.46 531.81L114.84 515.03L94.6604 508.42H94.6504Z" fill="#FEBAC7"/>
<path d="M114.23 310.99L117.45 351.32L121.45 414.65C121.81 420.35 124.39 427.93 121.51 432.85L117.19 522.08L95.23 520.11C95.23 520.11 78.94 438.82 89.56 413.4L76.04 349.76L79.08 335.71L114.24 310.97L114.23 310.99Z" fill="#4D2448"/>
<path d="M139.58 228.42L145.68 244.9L164.97 196.97L175.59 201.38C175.59 201.38 161.6 268.98 150.72 275.59C139.84 282.19 113.83 233.13 113.83 233.13L139.57 228.42H139.58Z" fill="#FEBAC7"/>
<path d="M82.15 187.11C82.15 187.11 28.69 184.39 25.71 187.11C22.73 189.83 0 233.38 0 233.38C0 233.38 5.03 239.48 12.47 241.4C19.91 243.31 40.64 244.03 40.64 244.03L35.29 308.59C35.17 310.06 36.33 311.32 37.81 311.32L114.23 310.99C115.6 310.99 116.72 309.9 116.77 308.53L119.45 237.45L142.2 227.25C142.2 227.25 128.17 193.87 125.19 192.39C122.21 190.9 82.14 187.12 82.14 187.12L82.15 187.11Z" fill="#6252ED"/>
<path d="M14.84 241.9C13.96 241.74 13.16 241.58 12.47 241.4C5.03 239.49 0 233.38 0 233.38C0 233.38 4.75 236.87 11.43 237.06C13.7 237.12 14.62 239.19 14.84 241.9Z" fill="#12126E"/>
<path d="M103.68 149.54C103.68 149.54 102.07 156.6 101.66 161.65C101.26 166.7 100.45 172.55 93.5896 174.77C86.7296 176.99 87.7396 176.38 87.7396 176.38C87.5096 181.25 90.2096 183.96 92.1496 188.02C85.7796 192.8 77.1196 193.16 70.3796 188.92L66.3496 186.39C66.3496 186.39 73.5796 173.27 70.9496 167.21C68.3296 161.15 68.9396 148.27 68.9396 148.27C68.9396 148.27 71.0696 143.05 79.6496 141.34C87.3596 139.81 106.32 134.38 103.68 149.52V149.54Z" fill="#FEBAC7"/>
<path d="M41.8099 240.64C41.8099 240.64 41.7598 240.64 41.7298 240.64C41.4498 240.6 41.2599 240.34 41.3099 240.06C46.0899 209.37 38.7499 197.45 38.6799 197.33C38.5299 197.1 38.5999 196.78 38.8299 196.63C39.0599 196.48 39.3798 196.55 39.5298 196.78C39.8398 197.27 47.1599 209.07 42.3099 240.21C42.2699 240.46 42.0499 240.64 41.8099 240.64Z" fill="#000D41"/>
<path d="M119.3 233.05C119.3 233.05 119.27 233.05 119.26 233.05C118.98 233.03 118.78 232.78 118.8 232.5L121.51 201.34C121.53 201.06 121.78 200.85 122.06 200.88C122.34 200.9 122.54 201.15 122.52 201.43L119.81 232.59C119.79 232.85 119.57 233.05 119.31 233.05H119.3Z" fill="#000D41"/>
<path d="M100.9 288.43C100.9 288.43 35.3797 301.77 33.4597 297.44C17.9197 262.4 11.4297 237.07 11.4297 237.07C39.4797 230.8 40.6797 243.03 40.6797 243.03L47.6697 282.21L97.9697 277.92C97.9697 277.92 97.6397 272.79 101.13 270.43L105.17 262.67C105.31 261.66 106.19 260.92 107.21 260.96C108.23 261 109.05 261.8 109.12 262.81L106.83 268.72L116.48 264.1L125.55 264.43C126.54 264.47 127.34 265.24 127.42 266.22C127.51 267.31 126.68 268.26 125.58 268.31L119.31 268.63L117.14 270.25L118.17 270.48C119.6 270.8 120.51 272.22 120.21 273.65C119.94 274.93 118.79 275.83 117.48 275.78L116.16 275.73L116.19 276.41L117.6 276.94C118.43 277.26 118.89 278.15 118.66 279.01L118.59 279.29C118.36 280.14 117.53 280.69 116.65 280.55L114.15 280.17L113.82 280.93L114.55 281.19C115.67 281.58 116.07 282.97 115.34 283.9C114.92 284.43 114.24 284.67 113.59 284.52L111.32 284C111.32 284 104.68 288.56 100.92 288.4L100.9 288.43Z" fill="#FEBAC7"/>
<path d="M66.3396 131.34C73.8896 128.28 93.4696 127.87 95.0996 119.92C95.0996 119.92 106.52 124.2 107.13 133.18C107.44 137.77 106.63 141.18 104.93 143.31C106.75 148.18 102.65 154.63 102.65 154.63C103.17 151.19 101.99 147.83 100.99 145.73C100.01 145.94 98.9296 145.97 97.7496 145.82C91.4296 145 82.4596 141.33 82.4596 141.33L84.7496 145.59C86.6396 149.1 85.3496 153.49 81.8496 155.4L81.0296 165.51C81.0296 165.51 79.5896 155.72 74.7096 157.23C69.8296 158.74 70.4296 165.59 73.4896 167.22H70.9496C64.7496 160.72 60.7996 153.07 60.8496 143.36C60.8496 143.36 58.7996 134.39 66.3496 131.33L66.3396 131.34Z" fill="#12126E"/>
<path d="M91.4296 183.9C91.4296 183.9 81.4896 190.89 66.3396 181.9L63.8896 186.49C63.8896 186.49 68.3897 193.09 80.4397 193.32C89.7197 193.49 94.2696 188.31 94.2696 188.31L91.4296 183.9Z" fill="#2C4B80"/>
<path d="M165.16 197.86C165.16 197.86 160.32 189.37 160.32 184.44V173.41C160.32 172.32 161.2 171.44 162.29 171.44C163.27 171.44 164.11 172.17 164.24 173.14L164.99 178.56C165.09 179.25 165.68 179.76 166.37 179.76C167.05 179.76 167.63 179.27 167.74 178.61L170.84 160.93C171.07 159.63 172.36 158.81 173.63 159.15C174.69 159.43 175.4 160.44 175.29 161.54L174.26 172.14C174.26 172.14 178.13 172.14 178.72 172.44C179.11 172.64 179.77 174.34 180.17 175.46C180.39 176.08 180.92 176.53 181.56 176.65L181.73 176.68C182.43 176.81 182.99 177.34 183.17 178.03L183.72 180.14C183.85 180.64 184.18 181.06 184.63 181.3C185.36 181.69 185.73 182.52 185.55 183.32L184.51 187.98L175.46 201.69L165.14 197.85L165.16 197.86Z" fill="#FEBAC7"/>
<path d="M171.93 190.7C172.82 188.86 173.94 185.18 170.38 182.75C169.65 182.25 169.39 181.3 169.8 180.51L174.27 172.15L170.99 180.02C170.44 181.35 171.47 182.84 172.91 182.72C172.93 182.72 172.95 182.72 172.97 182.72C174.39 182.57 176.03 179.68 176.76 178.24C176.93 177.91 177.39 177.91 177.57 178.23C177.67 178.42 177.63 178.65 177.47 178.79C176.61 179.53 174.5 182.39 174.61 183.28C174.71 184.17 175.41 185.58 179.21 183.03C178.33 183.71 177.43 184.5 177.16 185.09C176.57 186.38 176.76 187.47 179.34 186.97C181.92 186.47 184.2 183.99 184.2 183.99L185.12 185.4L184.55 187.98C184.55 187.98 175.13 186.02 171.95 190.69L171.93 190.7Z" fill="#EB8195"/>
<path d="M37.81 311.32L34.78 336.75C34.3 340.74 34.27 344.77 34.69 348.77L41.27 412.22C41.27 412.22 27.88 443.65 21.79 515.93L44.84 523.74L73.43 427.86C75.8 424.67 77.2 420.86 77.46 416.89L82.03 345.65C100.45 340.13 111.2 328.6 114.23 310.99L37.81 311.32Z" fill="#5C2B57"/>
<path d="M97.4602 525.38L94.7202 539.72C94.2602 542.12 96.1002 544.34 98.5402 544.34H138.67C138.67 544.34 138.79 533.94 133.59 531.8C128.39 529.66 116.31 531.29 115.8 525.38H108.63C108.63 525.38 109.15 533.28 103.95 531.8C98.7502 530.33 97.4702 525.38 97.4702 525.38H97.4602Z" fill="#12126E"/>
<path d="M213.092 108.978L140.061 105.176L136.259 178.207L209.29 182.009L213.092 108.978Z" fill="#8585E9"/>
<path d="M172.96 163.19C184.382 163.19 193.64 153.931 193.64 142.51C193.64 131.089 184.382 121.83 172.96 121.83C161.539 121.83 152.28 131.089 152.28 142.51C152.28 153.931 161.539 163.19 172.96 163.19Z" fill="#ECEAFD"/>
<path d="M175.48 201.7L165.16 197.86C165.16 197.86 160.32 189.37 160.32 184.44V173.41C160.32 172.32 161.2 171.44 162.29 171.44C163.27 171.44 164.11 172.17 164.24 173.14L164.99 178.56C165.09 179.25 165.68 179.76 166.37 179.76C166.37 179.76 171.36 199.26 175.48 201.69V201.7Z" fill="#FEBAC7"/>
</g>
<defs>
<clipPath id="clip0_130_374">
<rect width="744.3" height="637.35" fill="white"/>
</clipPath>
</defs>
</svg>
