<svg width="500" height="500" viewBox="0 0 500 500" fill="none" xmlns="http://www.w3.org/2000/svg">
<path d="M370.132 171.149C373.429 169.157 376.939 167.646 380.559 166.618L382.707 156.297L400.145 155.991L402.654 166.229C406.308 167.129 409.869 168.516 413.234 170.391L422.047 164.614L434.594 176.728L429.132 185.736C431.125 189.034 432.636 192.545 433.663 196.165L443.983 198.313L444.289 215.75L434.051 218.26C433.151 221.913 431.764 225.474 429.889 228.839L435.665 237.653L423.552 250.2L414.542 244.737C411.244 246.73 407.734 248.24 404.114 249.268L401.966 259.589L384.529 259.895L382.019 249.656C378.365 248.755 374.805 247.369 371.439 245.494L362.626 251.271L350.079 239.157L355.542 230.148C353.549 226.85 352.038 223.34 351.01 219.72L340.69 217.572L340.384 200.135L350.623 197.625C351.523 193.972 352.911 190.411 354.785 187.046L349.009 178.233L361.122 165.686L370.132 171.149Z" fill="white"/>
<path d="M370.132 171.149C370.132 171.149 369.937 171.045 369.551 170.819C369.155 170.584 368.582 170.245 367.828 169.799C366.293 168.88 364.031 167.526 361.077 165.757L361.18 165.744C358.101 168.951 354.031 173.191 349.103 178.325L349.118 178.161C350.872 180.826 352.823 183.79 354.911 186.963L354.962 187.04L354.917 187.121C353.192 190.232 351.741 193.775 350.788 197.667L350.763 197.767L350.662 197.792C347.473 198.579 344.02 199.43 340.427 200.317L340.568 200.134C340.67 205.624 340.779 211.451 340.894 217.57L340.731 217.373C343.926 218.035 347.445 218.764 351.053 219.511L351.181 219.537L351.217 219.663C352.177 223.048 353.68 226.649 355.734 230.034L355.804 230.15L355.733 230.267C354.042 233.061 352.177 236.142 350.277 239.28L350.24 238.993C354.183 242.795 358.435 246.896 362.794 251.099L362.493 251.071C365.237 249.271 368.25 247.293 371.303 245.29L371.428 245.208L371.559 245.281C374.653 247.008 378.269 248.482 382.078 249.415L382.226 249.451L382.262 249.599C383.049 252.806 383.908 256.303 384.775 259.837L384.523 259.643C390.043 259.545 395.961 259.44 401.96 259.333L401.711 259.539C402.389 256.279 403.121 252.761 403.858 249.218L403.89 249.064L404.041 249.021C407.497 248.044 411.077 246.533 414.396 244.523L414.405 244.517L414.541 244.436L414.675 244.517C417.697 246.35 420.701 248.171 423.684 249.98L423.362 250.022C427.452 245.787 431.493 241.601 435.476 237.477L435.446 237.797C433.502 234.83 431.578 231.891 429.673 228.982L429.588 228.852L429.663 228.717C431.526 225.377 432.91 221.826 433.804 218.202L433.841 218.054L433.989 218.018C437.452 217.17 440.861 216.336 444.228 215.512L444.039 215.757C443.937 209.804 443.838 203.989 443.741 198.32L443.932 198.55C440.431 197.819 436.992 197.101 433.614 196.396L433.475 196.367L433.436 196.231C432.383 192.513 430.847 189.021 428.937 185.855L428.867 185.738L428.938 185.622C430.814 182.534 432.632 179.541 434.408 176.618L434.443 176.886C430.033 172.619 425.87 168.592 421.909 164.759L422.157 164.782C419.055 166.81 416.144 168.713 413.337 170.548L413.242 170.61L413.143 170.555C409.612 168.585 406.073 167.257 402.613 166.396L402.512 166.371L402.488 166.271C401.582 162.548 400.766 159.195 399.995 156.029L400.147 156.146C393.385 156.25 387.628 156.339 382.709 156.414L382.821 156.321C381.948 160.45 381.234 163.83 380.641 166.635L380.63 166.685L380.581 166.699C376.887 167.744 374.294 168.964 372.611 169.811C371.768 170.237 371.156 170.585 370.745 170.811C370.332 171.046 370.132 171.149 370.132 171.149C370.132 171.149 370.331 171.015 370.724 170.773C371.127 170.535 371.734 170.174 372.572 169.734C374.245 168.861 376.835 167.612 380.536 166.537L380.477 166.6C381.052 163.792 381.746 160.407 382.593 156.273L382.612 156.182L382.706 156.18C387.625 156.083 393.381 155.97 400.142 155.837L400.265 155.835L400.295 155.955C401.076 159.118 401.903 162.468 402.821 166.189L402.696 166.064C406.187 166.922 409.76 168.251 413.326 170.229L413.133 170.236C415.935 168.394 418.841 166.484 421.939 164.449L422.072 164.361L422.187 164.472C426.156 168.297 430.327 172.316 434.745 176.574L434.869 176.694L434.779 176.842C433.008 179.768 431.195 182.764 429.324 185.855V185.622C431.259 188.819 432.817 192.347 433.887 196.104L433.71 195.939C437.089 196.64 440.529 197.354 444.031 198.08L444.219 198.119L444.223 198.311C444.325 203.98 444.43 209.795 444.538 215.748L444.542 215.946L444.349 215.993C440.983 216.82 437.574 217.657 434.112 218.507L434.297 218.323C433.395 221.99 431.997 225.585 430.113 228.966L430.103 228.702C432.01 231.61 433.936 234.548 435.881 237.514L435.994 237.686L435.851 237.834C431.869 241.96 427.829 246.146 423.74 250.382L423.596 250.532L423.418 250.424C420.435 248.615 417.431 246.794 414.408 244.962H414.678L414.669 244.968C411.309 247.003 407.684 248.532 404.187 249.52L404.37 249.323C403.632 252.866 402.899 256.384 402.221 259.644L402.179 259.846L401.972 259.85C395.973 259.954 390.056 260.057 384.535 260.152L384.331 260.156L384.283 259.958C383.418 256.424 382.561 252.926 381.776 249.719L381.96 249.903C378.106 248.957 374.449 247.462 371.32 245.712L371.576 245.703C368.521 247.703 365.506 249.678 362.761 251.475L362.599 251.581L362.46 251.447C358.106 247.239 353.859 243.133 349.921 239.326L349.787 239.197L349.883 239.039C351.787 235.904 353.657 232.825 355.352 230.034V230.266C353.281 226.842 351.769 223.201 350.806 219.78L350.969 219.932C347.363 219.178 343.845 218.442 340.651 217.774L340.49 217.74L340.487 217.576C340.386 211.456 340.291 205.629 340.201 200.139L340.198 199.99L340.342 199.955C343.937 199.079 347.393 198.236 350.584 197.458L350.459 197.583C351.432 193.663 352.906 190.098 354.654 186.971L354.66 187.129C352.584 183.948 350.645 180.977 348.901 178.305L348.843 178.216L348.916 178.14C353.874 173.034 357.967 168.817 361.064 165.627L361.111 165.579L361.167 165.614C364.088 167.407 366.325 168.781 367.844 169.713C368.593 170.177 369.163 170.531 369.556 170.775C369.936 171.016 370.132 171.149 370.132 171.149Z" fill="#E0E0E0"/>
<path d="M150.645 196.659C154.177 194.525 157.937 192.906 161.815 191.804L164.116 180.747L182.798 180.419L185.486 191.387C189.401 192.352 193.216 193.837 196.821 195.846L206.263 189.657L219.705 202.636L213.853 212.287C215.988 215.82 217.607 219.582 218.707 223.46L229.763 225.761L230.091 244.442L219.122 247.131C218.157 251.045 216.672 254.86 214.663 258.465L220.851 267.907L207.874 281.349L198.222 275.496C194.689 277.631 190.928 279.249 187.049 280.35L184.748 291.407L166.067 291.735L163.378 280.766C159.464 279.801 155.649 278.315 152.044 276.307L142.602 282.496L129.16 269.518L135.012 259.866C132.877 256.333 131.258 252.573 130.157 248.694L119.1 246.393L118.772 227.712L129.741 225.022C130.706 221.108 132.192 217.293 134.2 213.688L128.012 204.246L140.989 190.804L150.645 196.659Z" fill="white"/>
<path d="M150.645 196.659C150.645 196.659 150.436 196.547 150.023 196.304C149.6 196.053 148.986 195.689 148.178 195.209C146.535 194.224 144.112 192.773 140.948 190.877L141.051 190.864C137.753 194.298 133.391 198.84 128.109 204.34L128.125 204.176C130.004 207.031 132.094 210.207 134.33 213.606L134.381 213.683L134.336 213.764C132.487 217.097 130.932 220.894 129.91 225.064L129.885 225.164L129.784 225.189C126.367 226.031 122.667 226.944 118.819 227.893L118.96 227.71C119.069 233.592 119.185 239.834 119.307 246.391L119.144 246.194C122.567 246.903 126.337 247.684 130.202 248.485L130.33 248.512L130.366 248.637C131.395 252.265 133.005 256.124 135.206 259.752L135.276 259.868L135.205 259.985C133.393 262.978 131.395 266.279 129.359 269.641L129.322 269.354C133.546 273.428 138.102 277.821 142.771 282.325L142.47 282.297C145.409 280.368 148.638 278.25 151.909 276.104L152.034 276.022L152.165 276.095C155.481 277.946 159.356 279.526 163.439 280.526L163.587 280.562L163.623 280.71C164.466 284.145 165.386 287.893 166.315 291.678L166.063 291.484C171.977 291.379 178.317 291.267 184.744 291.153L184.495 291.359C185.221 287.867 186.006 284.098 186.795 280.302L186.827 280.148L186.978 280.105C190.682 279.057 194.519 277.438 198.077 275.284L198.087 275.278L198.223 275.197L198.357 275.278C201.595 277.242 204.813 279.193 208.009 281.131L207.687 281.173C212.069 276.635 216.398 272.152 220.665 267.733L220.635 268.053C218.553 264.874 216.491 261.726 214.449 258.609L214.364 258.479L214.439 258.344C216.436 254.765 217.919 250.958 218.876 247.074L218.912 246.926L219.06 246.89C222.77 245.982 226.423 245.088 230.029 244.205L229.84 244.45C229.731 238.072 229.624 231.843 229.52 225.769L229.711 225.999C225.96 225.216 222.276 224.447 218.656 223.692L218.517 223.663L218.479 223.527C217.35 219.542 215.704 215.8 213.656 212.407L213.585 212.29L213.656 212.173C215.665 208.865 217.613 205.658 219.515 202.526L219.55 202.794C214.825 198.223 210.365 193.909 206.12 189.803L206.368 189.826C203.045 191.999 199.926 194.038 196.92 196.004L196.825 196.066L196.726 196.011C192.942 193.9 189.149 192.477 185.441 191.555L185.34 191.53L185.316 191.43C184.345 187.441 183.47 183.849 182.644 180.458L182.796 180.575C175.551 180.688 169.384 180.783 164.114 180.865L164.226 180.772C163.292 185.196 162.527 188.818 161.893 191.822L161.882 191.872L161.833 191.886C157.875 193.007 155.097 194.315 153.295 195.223C152.392 195.68 151.737 196.053 151.297 196.296C150.859 196.548 150.645 196.659 150.645 196.659C150.645 196.659 150.859 196.516 151.28 196.257C151.712 196.002 152.362 195.616 153.26 195.146C155.053 194.211 157.827 192.874 161.792 191.724L161.733 191.788C162.35 188.78 163.094 185.153 164.002 180.724L164.021 180.633L164.115 180.631C169.385 180.528 175.551 180.408 182.796 180.266L182.919 180.264L182.949 180.384C183.785 183.773 184.671 187.362 185.654 191.348L185.529 191.223C189.268 192.142 193.094 193.566 196.914 195.685L196.721 195.692C199.723 193.719 202.837 191.673 206.156 189.493L206.289 189.406L206.404 189.517C210.656 193.615 215.124 197.921 219.857 202.483L219.981 202.603L219.891 202.751C217.994 205.886 216.051 209.095 214.046 212.407V212.174C216.118 215.598 217.787 219.376 218.932 223.4L218.755 223.235C222.375 223.986 226.06 224.751 229.812 225.53L230 225.569L230.003 225.761C230.112 231.835 230.225 238.064 230.34 244.442L230.344 244.64L230.151 244.687C226.545 245.572 222.893 246.469 219.184 247.38L219.369 247.195C218.403 251.122 216.906 254.972 214.888 258.593L214.879 258.329C216.922 261.445 218.985 264.592 221.069 267.77L221.182 267.942L221.039 268.09C216.773 272.51 212.445 276.995 208.064 281.533L207.92 281.683L207.742 281.575C204.546 279.637 201.328 277.686 198.09 275.723H198.36L198.35 275.729C194.752 277.908 190.87 279.545 187.124 280.604L187.307 280.407C186.517 284.203 185.732 287.972 185.004 291.464L184.962 291.667L184.755 291.671C178.328 291.782 171.989 291.892 166.074 291.995L165.87 291.999L165.822 291.801C164.895 288.015 163.977 284.267 163.136 280.831L163.32 281.016C159.193 280.003 155.276 278.402 151.926 276.528L152.182 276.519C148.909 278.662 145.679 280.778 142.738 282.704L142.576 282.81L142.437 282.675C137.773 278.167 133.222 273.768 129.002 269.689L128.869 269.56L128.965 269.401C131.005 266.042 133.008 262.744 134.824 259.753V259.985C132.606 256.318 130.986 252.419 129.954 248.755L130.117 248.907C126.253 248.099 122.484 247.311 119.063 246.596L118.902 246.563L118.899 246.399C118.791 239.843 118.688 233.6 118.591 227.718L118.589 227.57L118.733 227.535C122.584 226.596 126.286 225.693 129.705 224.86L129.58 224.985C130.622 220.787 132.199 216.967 134.072 213.618L134.078 213.776C131.854 210.369 129.775 207.185 127.907 204.323L127.849 204.234L127.922 204.158C133.233 198.686 137.618 194.167 140.934 190.75L140.981 190.702L141.038 190.737C144.17 192.658 146.567 194.129 148.194 195.127C148.997 195.624 149.608 196.003 150.029 196.263C150.436 196.518 150.645 196.659 150.645 196.659Z" fill="#E0E0E0"/>
<path d="M195.769 229.547C195.758 217.764 186.196 208.22 174.412 208.232C162.629 208.243 153.085 217.805 153.097 229.588C153.105 238.119 158.121 245.473 165.36 248.88C165.362 251.408 165.365 254.263 165.365 254.263L184.065 254.245C184.065 254.245 184.175 251.224 184.214 248.527C191.082 244.977 195.777 237.811 195.769 229.547Z" fill="#F5F5F5"/>
<path d="M177.303 254.163C177.303 254.163 177.306 254.073 177.324 253.9C177.345 253.716 177.373 253.46 177.411 253.13C177.493 252.454 177.612 251.457 177.799 250.177C177.988 248.898 178.238 247.333 178.643 245.538C179.057 243.748 179.621 241.716 180.573 239.599C181.05 238.541 181.602 237.457 182.325 236.405C182.697 235.89 183.161 235.388 183.782 235.093C184.402 234.796 185.179 234.795 185.808 235.157C186.119 235.337 186.384 235.639 186.484 236.001C186.597 236.357 186.561 236.762 186.396 237.096C186.067 237.771 185.438 238.242 184.749 238.518C183.34 239.013 181.717 238.89 180.313 238.209C178.905 237.528 177.779 236.216 177.297 234.652C177.066 233.875 176.94 233.024 177.169 232.191C177.369 231.363 178.174 230.622 179.106 230.706C179.568 230.74 179.988 231.055 180.193 231.457C180.407 231.857 180.462 232.331 180.366 232.772C180.161 233.663 179.52 234.329 178.868 234.894C177.525 236.007 175.694 236.626 173.896 236.342C172.111 236.059 170.507 234.88 169.767 233.27C169.379 232.479 169.286 231.518 169.62 230.686C169.788 230.275 170.113 229.892 170.555 229.742C170.99 229.574 171.481 229.653 171.869 229.861C172.261 230.067 172.58 230.408 172.77 230.796C172.968 231.183 173.06 231.608 173.097 232.025C173.158 232.861 173.04 233.692 172.775 234.464C172.256 236.011 171.153 237.318 169.771 238.045C168.395 238.781 166.796 238.977 165.356 238.656C164.645 238.5 163.917 238.216 163.434 237.639C162.961 237.076 162.827 236.183 163.314 235.584C163.556 235.296 163.919 235.142 164.272 235.114C164.627 235.089 164.979 235.16 165.29 235.311C165.924 235.623 166.311 236.21 166.597 236.774C167.134 237.931 167.566 239.055 168.003 240.128C169.713 244.427 170.927 247.969 171.74 250.423C172.146 251.651 172.446 252.609 172.648 253.259C172.743 253.577 172.818 253.824 172.871 254.001C172.92 254.169 172.938 254.256 172.938 254.256C172.938 254.256 172.902 254.174 172.845 254.009C172.786 253.834 172.704 253.59 172.597 253.275C172.375 252.62 172.054 251.671 171.643 250.455C170.801 248.012 169.561 244.481 167.83 240.197C167.391 239.132 166.946 237.995 166.416 236.865C166.138 236.319 165.761 235.772 165.198 235.5C164.652 235.232 163.888 235.235 163.479 235.722C163.078 236.207 163.183 237.002 163.605 237.495C164.036 238.01 164.716 238.282 165.404 238.43C166.789 238.735 168.333 238.542 169.655 237.831C170.98 237.13 172.039 235.873 172.536 234.383C172.79 233.642 172.901 232.839 172.842 232.046C172.784 231.267 172.457 230.451 171.747 230.087C171.407 229.906 170.998 229.844 170.642 229.983C170.28 230.107 170.009 230.42 169.858 230.785C169.561 231.532 169.635 232.416 170.003 233.16C170.701 234.682 172.238 235.814 173.936 236.081C175.646 236.353 177.409 235.761 178.7 234.692C179.331 234.15 179.935 233.503 180.111 232.716C180.196 232.332 180.146 231.918 179.964 231.577C179.787 231.235 179.455 230.988 179.079 230.959C178.705 230.922 178.316 231.063 178.019 231.302C177.717 231.538 177.518 231.885 177.412 232.258C177.201 233.011 177.314 233.831 177.536 234.575C177.995 236.074 179.073 237.336 180.419 237.989C181.758 238.647 183.338 238.764 184.665 238.301C185.311 238.048 185.902 237.597 186.192 237C186.5 236.407 186.26 235.65 185.696 235.342C185.145 235.019 184.429 235.013 183.871 235.281C183.297 235.55 182.851 236.021 182.488 236.521C181.778 237.546 181.218 238.628 180.742 239.673C179.786 241.77 179.211 243.789 178.785 245.569C178.367 247.355 178.103 248.914 177.899 250.19C177.711 251.46 177.564 252.45 177.462 253.135C177.414 253.464 177.376 253.718 177.35 253.901C177.324 254.076 177.303 254.163 177.303 254.163Z" fill="#E0E0E0"/>
<path d="M182.63 257.709L166.574 257.724C165.908 257.725 165.368 257.186 165.368 256.52C165.367 255.854 165.906 255.315 166.572 255.314L182.628 255.298C183.294 255.297 183.834 255.836 183.834 256.502C183.834 257.168 183.295 257.708 182.63 257.709Z" fill="#E0E0E0"/>
<path d="M182.631 258.761L166.575 258.776C165.91 258.777 165.371 259.317 165.371 259.982C165.372 260.647 165.912 261.186 166.577 261.186L168.339 261.184L170.682 265.632C170.95 266.141 171.478 266.459 172.053 266.459L177.79 266.453C178.371 266.452 178.902 266.127 179.167 265.609L181.435 261.171L182.633 261.17C183.298 261.169 183.838 260.629 183.837 259.964C183.836 259.299 183.296 258.76 182.631 258.761Z" fill="#E0E0E0"/>
<path d="M168.27 212.183C167.463 212.265 166.317 212.551 164.983 213.142C163.649 213.729 162.147 214.66 160.713 215.986C159.112 217.548 157.787 219.224 156.971 221.11C156.023 223.184 155.563 225.332 155.484 227.279C155.4 229.23 155.662 230.978 156.078 232.375C156.491 233.775 157.014 234.834 157.474 235.502C157.932 236.172 158.288 236.473 158.443 236.392C158.798 236.212 158.192 234.607 157.894 232.004C157.579 229.427 157.723 225.74 159.35 222.211C160.988 218.688 163.706 216.193 165.875 214.766C168.053 213.308 169.67 212.733 169.577 212.345C169.537 212.176 169.077 212.098 168.27 212.183Z" fill="#FAFAFA"/>
<path d="M176.732 211.153C176.249 210.853 175.526 210.644 174.718 210.64C173.91 210.637 173.185 210.84 172.7 211.136C172.212 211.432 171.962 211.811 172.022 212.165C172.161 212.881 173.355 213.25 174.707 213.261C175.835 213.294 177.044 212.984 177.401 212.187C177.464 211.834 177.218 211.453 176.732 211.153Z" fill="#FAFAFA"/>
<path d="M178.868 265.991C178.849 266.031 178.445 265.847 177.765 265.652C177.086 265.456 176.118 265.282 175.041 265.311C173.964 265.345 173.008 265.578 172.342 265.814C171.674 266.049 171.282 266.257 171.261 266.218C171.246 266.194 171.609 265.927 172.276 265.641C172.94 265.355 173.922 265.085 175.034 265.049C176.145 265.018 177.142 265.229 177.822 265.475C178.504 265.721 178.882 265.966 178.868 265.991Z" fill="#EBEBEB"/>
<path d="M181.469 261.227C181.469 261.3 178.566 261.361 174.986 261.364C171.405 261.367 168.503 261.312 168.503 261.239C168.503 261.167 171.405 261.105 174.986 261.102C178.566 261.098 181.469 261.154 181.469 261.227Z" fill="#EBEBEB"/>
<path d="M180.466 263.132C180.468 263.167 179.864 263.232 178.885 263.294C177.906 263.357 176.552 263.414 175.056 263.437C173.559 263.459 172.204 263.443 171.224 263.41C170.244 263.377 169.638 263.331 169.639 263.295C169.64 263.258 170.246 263.239 171.226 263.224C172.284 263.21 173.599 263.193 175.052 263.174C176.505 263.149 177.819 263.126 178.877 263.108C179.858 263.094 180.464 263.095 180.466 263.132Z" fill="#EBEBEB"/>
<path d="M296.326 231.539C298.999 230.28 301.796 229.406 304.638 228.908L307.093 221.205L320.419 222.352L321.523 230.36C324.239 231.336 326.846 232.676 329.265 234.373L336.445 230.664L345.057 240.898L340.177 247.338C341.436 250.011 342.311 252.809 342.808 255.652L350.51 258.107L349.363 271.433L341.354 272.537C340.378 275.253 339.038 277.859 337.342 280.278L341.05 287.458L330.817 296.07L324.377 291.19C321.704 292.449 318.906 293.323 316.063 293.821L313.607 301.524L300.282 300.377L299.178 292.368C296.462 291.392 293.856 290.052 291.437 288.355L284.257 292.064L275.645 281.83L280.525 275.39C279.266 272.717 278.391 269.92 277.893 267.076L270.19 264.621L271.337 251.295L279.346 250.19C280.322 247.474 281.662 244.868 283.358 242.449L279.65 235.269L289.883 226.657L296.326 231.539Z" fill="#F5F5F5"/>
<path d="M70.7489 144.461C73.4009 142.924 76.2149 141.774 79.1089 141.009L80.9679 132.831L94.8429 132.842L96.6899 141.022C99.5839 141.792 102.396 142.946 105.046 144.487L112.141 140.02L121.944 149.84L117.467 156.926C119.004 159.578 120.154 162.394 120.919 165.288L129.097 167.147L129.086 181.022L120.905 182.869C120.135 185.762 118.981 188.574 117.44 191.224L121.906 198.319L112.088 208.123L105 203.647C102.348 205.184 99.5329 206.334 96.6379 207.099L94.7789 215.277L80.9039 215.266L79.0569 207.085C76.1639 206.315 73.3519 205.16 70.7019 203.62L63.6069 208.086L53.8029 198.267L58.2799 191.18C56.7429 188.528 55.5919 185.714 54.8269 182.818L46.6489 180.959L46.6599 167.084L54.8409 165.236C55.6109 162.343 56.7659 159.531 58.3059 156.881L53.8399 149.786L63.6579 139.982L70.7489 144.461Z" fill="#F5F5F5"/>
<path d="M299.019 166.902C300.633 165.927 302.35 165.188 304.122 164.684L305.173 159.633L313.707 159.483L314.935 164.493C316.723 164.934 318.466 165.612 320.113 166.53L324.426 163.703L330.566 169.632L327.893 174.041C328.868 175.655 329.608 177.373 330.111 179.145L335.161 180.196L335.311 188.73L330.3 189.959C329.859 191.747 329.181 193.489 328.263 195.136L331.09 199.449L325.162 205.589L320.753 202.915C319.139 203.89 317.421 204.629 315.649 205.132L314.598 210.183L306.064 210.333L304.836 205.322C303.048 204.881 301.305 204.203 299.658 203.285L295.345 206.112L289.205 200.183L291.878 195.774C290.903 194.16 290.163 192.443 289.66 190.67L284.609 189.619L284.459 181.086L289.47 179.857C289.911 178.069 290.59 176.326 291.507 174.68L288.68 170.367L294.608 164.227L299.019 166.902ZM303.568 178.27C300.055 181.908 300.157 187.704 303.796 191.217C307.434 194.729 313.23 194.627 316.742 190.989C320.254 187.351 320.152 181.555 316.514 178.043C312.876 174.531 307.081 174.632 303.568 178.27Z" fill="#F5F5F5"/>
<path d="M144.115 117.582C145.844 116.537 147.684 115.745 149.582 115.206L150.708 109.795L159.851 109.635L161.167 115.003C163.083 115.475 164.95 116.202 166.714 117.186L171.335 114.157L177.913 120.509L175.049 125.232C176.094 126.961 176.886 128.802 177.425 130.7L182.836 131.826L182.997 140.968L177.629 142.284C177.157 144.199 176.43 146.066 175.447 147.831L178.475 152.452L172.124 159.031L167.4 156.167C165.671 157.212 163.831 158.004 161.932 158.543L160.806 163.954L151.664 164.114L150.348 158.746C148.432 158.274 146.565 157.547 144.801 156.564L140.18 159.593L133.601 153.242L136.465 148.518C135.42 146.789 134.628 144.949 134.089 143.05L128.678 141.924L128.518 132.782L133.886 131.466C134.358 129.551 135.086 127.684 136.068 125.919L133.039 121.298L139.39 114.72L144.115 117.582ZM148.989 129.761C145.226 133.659 145.335 139.868 149.233 143.631C153.13 147.394 159.34 147.284 163.103 143.387C166.865 139.49 166.757 133.28 162.859 129.517C158.962 125.755 152.752 125.864 148.989 129.761Z" fill="#F5F5F5"/>
<path d="M402.459 238.3C416.95 232.417 423.928 215.9 418.044 201.409C412.161 186.918 395.644 179.94 381.153 185.823C366.662 191.706 359.684 208.223 365.567 222.714C371.451 237.205 387.968 244.183 402.459 238.3Z" fill="#E0E0E0"/>
<path d="M402.459 235.173C416.95 229.289 423.928 212.773 418.044 198.281C412.161 183.79 395.644 176.812 381.153 182.696C366.662 188.579 359.684 205.096 365.567 219.587C371.451 234.078 387.968 241.056 402.459 235.173Z" fill="#EBEBEB"/>
<path d="M397.757 226.917C407.696 223.612 413.075 212.875 409.77 202.935C406.465 192.995 395.728 187.617 385.788 190.922C375.848 194.227 370.47 204.964 373.775 214.904C377.08 224.843 387.817 230.222 397.757 226.917Z" fill="white"/>
<path d="M401.062 208.941C401.062 214.067 396.906 218.223 391.78 218.223C386.654 218.223 382.498 214.067 382.498 208.941C382.498 203.815 386.654 199.659 391.78 199.659C396.906 199.659 401.062 203.814 401.062 208.941Z" fill="#EBEBEB"/>
<path d="M410.858 188.618L410.089 182.577L416.238 175.995L416.681 182.515L410.858 188.618Z" fill="#EBEBEB"/>
<path d="M424.057 183.811L417.819 183.303L411.565 189.319L417.82 189.987L424.057 183.811Z" fill="#EBEBEB"/>
<path d="M416.514 182.118C413.696 184.96 410.878 187.802 408.06 190.644C403.589 195.152 399.119 199.661 394.648 204.169C393.62 205.205 392.593 206.242 391.565 207.278C390.588 208.263 392.114 209.784 393.092 208.797C395.91 205.955 398.728 203.113 401.546 200.271C406.017 195.763 410.487 191.254 414.958 186.746C415.986 185.71 417.013 184.673 418.041 183.637C419.018 182.653 417.492 181.132 416.514 182.118Z" fill="#E0E0E0"/>
<path d="M330.341 427.104L276.396 426.91L276.318 448.633L330.263 448.827L330.341 427.104Z" fill="#EBEBEB"/>
<path d="M343.456 437.237L336.091 445.68L328.725 454.123L328.786 437.184L328.848 420.245L336.152 428.741L343.456 437.237Z" fill="#EBEBEB"/>
<path d="M131.906 55.1189L72.9658 54.9067L72.8804 78.6407L131.82 78.8529L131.906 55.1189Z" fill="#F5F5F5"/>
<path d="M146.236 66.192L138.189 75.417L130.142 84.642L130.209 66.135L130.275 47.627L138.256 56.91L146.236 66.192Z" fill="#F5F5F5"/>
<path d="M394.064 405.096L368.328 405.003L368.291 415.366L394.027 415.459L394.064 405.096Z" fill="#EBEBEB"/>
<path d="M400.317 409.93L396.803 413.958L393.289 417.986L393.319 409.905L393.348 401.824L396.832 405.877L400.317 409.93Z" fill="#EBEBEB"/>
<path d="M75.6971 380.829L42.7661 380.71L42.7184 393.971L75.6494 394.09L75.6971 380.829Z" fill="#EBEBEB"/>
<path d="M83.702 387.013L79.206 392.167L74.71 397.321L74.747 386.981L74.785 376.64L79.244 381.827L83.702 387.013Z" fill="#EBEBEB"/>
<path d="M346.079 119.95L313.148 119.831L313.101 133.092L346.032 133.211L346.079 119.95Z" fill="#EBEBEB"/>
<path d="M354.084 126.136L349.588 131.29L345.092 136.445L345.129 126.104L345.166 115.764L349.625 120.95L354.084 126.136Z" fill="#EBEBEB"/>
<path d="M432.482 85.8766L377.499 85.4807L377.339 107.622L432.322 108.018L432.482 85.8766Z" fill="#F5F5F5"/>
<path d="M445.802 96.256L438.264 104.834L430.726 113.412L430.85 96.148L430.975 78.884L438.388 87.57L445.802 96.256Z" fill="#F5F5F5"/>
<path d="M459.332 316.28L351.266 315.891L351.109 359.407L459.175 359.796L459.332 316.28Z" fill="#FF725E"/>
<path d="M485.604 336.582L470.85 353.495L456.095 370.408L456.218 336.476L456.34 302.543L470.972 319.562L485.604 336.582Z" fill="#FF725E"/>
<path d="M123.302 316.813L15.2358 316.424L15.0792 359.94L123.145 360.329L123.302 316.813Z" fill="#FF725E"/>
<path d="M149.575 337.113L134.821 354.027L120.066 370.94L120.189 337.008L120.311 303.075L134.943 320.094L149.575 337.113Z" fill="#FF725E"/>
<path d="M295.231 85.66L296.361 78.574C293.523 73.953 292.018 68.426 292.391 62.525C293.271 48.609 304.815 37.442 318.752 36.994C334.855 36.476 347.951 49.894 346.915 66.092C346.036 79.844 334.757 90.927 320.993 91.585C314.162 91.912 307.857 89.722 302.906 85.874L302.915 85.886L295.231 85.66Z" fill="white"/>
<path d="M295.231 85.6601C295.231 85.6601 295.386 85.6771 295.71 85.6941C296.061 85.7101 296.545 85.7331 297.17 85.7611C298.501 85.8151 300.426 85.8921 302.911 85.9921C302.969 85.9941 303.018 85.9491 303.02 85.8911C303.021 85.8661 303.012 85.8411 302.998 85.8231C302.998 85.8231 302.992 85.8151 302.989 85.8111L302.84 85.9581C305.51 88.0511 309.531 90.4191 314.892 91.3711C317.557 91.8541 320.519 91.9421 323.629 91.5231C326.732 91.0791 329.962 90.0451 333.036 88.3381C336.099 86.6191 338.986 84.2081 341.355 81.1821C343.714 78.1611 345.606 74.5251 346.496 70.4881C347.418 66.4681 347.437 62.1101 346.448 57.8661C345.485 53.6111 343.349 49.5381 340.354 46.1311C338.879 44.3651 337.098 42.9191 335.286 41.5881C334.334 40.9901 333.39 40.3781 332.405 39.8621L330.9 39.1461L330.149 38.7941L329.369 38.5181C325.241 36.9661 320.862 36.4931 316.722 36.9101C312.564 37.3071 308.696 38.7861 305.394 40.7951C302.086 42.8201 299.346 45.4401 297.279 48.3121C295.22 51.1951 293.825 54.3101 293.032 57.3591C292.871 58.1301 292.712 58.8881 292.555 59.6341C292.417 60.3821 292.376 61.1331 292.284 61.8611C292.124 63.3211 292.147 64.7411 292.23 66.0931C292.596 71.5351 294.505 75.7801 296.273 78.6301L296.259 78.5601C295.921 80.8451 295.657 82.6251 295.475 83.8591C295.393 84.4371 295.329 84.8861 295.283 85.2141C295.242 85.5141 295.224 85.6651 295.231 85.6601C295.231 85.6601 295.27 85.4911 295.327 85.1801C295.386 84.8481 295.466 84.3931 295.57 83.8081C295.778 82.5931 296.078 80.8411 296.463 78.5911C296.467 78.5671 296.461 78.5411 296.449 78.5211C294.733 75.6681 292.885 71.4491 292.563 66.0701C292.491 64.7341 292.477 63.3311 292.644 61.8901C292.739 61.1721 292.783 60.4321 292.924 59.6951C293.082 58.9611 293.243 58.2141 293.406 57.4551C294.204 54.4541 295.593 51.3921 297.63 48.5631C299.676 45.7441 302.382 43.1751 305.639 41.1941C308.891 39.2281 312.693 37.7841 316.775 37.4021C320.841 37.0011 325.14 37.4711 329.188 38.9971L329.953 39.2681L330.69 39.6141L332.167 40.3171C333.133 40.8241 334.059 41.4261 334.993 42.0121C336.769 43.3201 338.518 44.7381 339.964 46.4711C342.902 49.8141 345.001 53.8081 345.948 57.9821C346.922 62.1451 346.909 66.4261 346.011 70.3721C345.146 74.3371 343.295 77.9121 340.984 80.8891C338.663 83.8711 335.832 86.2521 332.823 87.9571C329.804 89.6491 326.628 90.6811 323.572 91.1361C320.51 91.5641 317.584 91.4961 314.95 91.0371C309.649 90.1341 305.648 87.8301 302.97 85.7881C302.924 85.7521 302.858 85.7601 302.822 85.8061C302.792 85.8441 302.793 85.8981 302.821 85.9361C302.824 85.9401 302.83 85.9481 302.83 85.9481L302.917 85.7791C300.459 85.7331 298.554 85.6981 297.237 85.6731C296.601 85.6651 296.108 85.6581 295.75 85.6541C295.414 85.6531 295.231 85.6601 295.231 85.6601Z" fill="#263238"/>
<path d="M313.696 54.7731C314.581 54.2381 315.522 53.8331 316.493 53.5571L317.069 50.7881L321.747 50.7061L322.42 53.4531C323.4 53.6951 324.356 54.0671 325.259 54.5701L327.623 53.0201L330.989 56.2701L329.524 58.6871C330.059 59.5721 330.464 60.5141 330.74 61.4851L333.508 62.0611L333.59 66.7391L330.843 67.4121C330.601 68.3921 330.23 69.3471 329.726 70.2501L331.275 72.6141L328.025 75.9801L325.608 74.5141C324.723 75.0491 323.781 75.4541 322.81 75.729L322.234 78.4981L317.556 78.5801L316.883 75.8331C315.903 75.5911 314.948 75.2191 314.045 74.7161L311.681 76.2661L308.315 73.0161L309.781 70.5991C309.246 69.7141 308.841 68.7731 308.565 67.8011L305.796 67.2251L305.714 62.5471L308.461 61.8731C308.703 60.8931 309.075 59.9381 309.578 59.0351L308.028 56.6711L311.278 53.3051L313.696 54.7731ZM316.19 61.0051C314.264 62.9991 314.32 66.1771 316.315 68.1021C318.309 70.0271 321.487 69.9711 323.412 67.9771C325.337 65.9831 325.282 62.8051 323.287 60.8801C321.293 58.9551 318.116 59.0111 316.19 61.0051Z" fill="#FF725E"/>
<path d="M237.773 112.28L237.039 74.331C236.549 64.897 241.631 56.748 251.075 56.52L251.949 56.55C260.745 56.85 267.838 63.852 268.245 72.643C268.624 80.822 268.938 89.864 268.735 94.239C268.314 103.294 259.205 104.394 259.205 104.394C259.185 104.394 259.188 109.904 259.212 112.565L258.753 118.819L253.159 120.239L237.773 112.28Z" fill="#FFBF9D"/>
<path d="M259.203 104.083C259.203 104.083 253.481 104.223 247.527 100.193C247.527 100.193 250.132 107.101 259.2 106.594L259.203 104.083Z" fill="#FF9A6C"/>
<path d="M265.157 80.7899C265.158 81.4739 264.579 82.0389 263.865 82.0529C263.152 82.0669 262.572 81.5249 262.571 80.8409C262.57 80.1569 263.148 79.5909 263.862 79.5769C264.576 79.5629 265.156 80.1059 265.157 80.7899Z" fill="#263238"/>
<path d="M266.18 76.2671C266.014 76.4301 265.059 75.6711 263.666 75.6281C262.276 75.5641 261.23 76.2461 261.085 76.0701C261.013 75.9921 261.187 75.6931 261.643 75.3841C262.092 75.0771 262.85 74.7881 263.717 74.8221C264.584 74.8561 265.302 75.2001 265.71 75.5411C266.128 75.8841 266.262 76.1941 266.18 76.2671Z" fill="#263238"/>
<path d="M253.01 80.485C253.011 81.169 252.432 81.734 251.718 81.748C251.005 81.762 250.425 81.22 250.424 80.536C250.423 79.852 251.002 79.287 251.715 79.273C252.429 79.258 253.009 79.801 253.01 80.485Z" fill="#263238"/>
<path d="M252.523 76.1241C252.356 76.2871 251.4 75.5291 250.009 75.4851C248.619 75.4221 247.573 76.1031 247.428 75.9271C247.357 75.8491 247.529 75.5501 247.987 75.2421C248.436 74.9341 249.193 74.6461 250.061 74.6791C250.928 74.7141 251.647 75.0581 252.055 75.3991C252.469 75.7411 252.604 76.0511 252.523 76.1241Z" fill="#263238"/>
<path d="M257.152 86.992C257.148 86.912 258.019 86.793 259.427 86.661C259.784 86.637 260.123 86.578 260.191 86.337C260.283 86.083 260.148 85.695 259.99 85.275C259.685 84.403 259.366 83.49 259.031 82.532C257.703 78.628 256.754 75.423 256.911 75.371C257.069 75.319 258.274 78.441 259.602 82.345C259.921 83.308 260.226 84.225 260.516 85.102C260.637 85.511 260.852 85.977 260.653 86.504C260.548 86.766 260.281 86.95 260.051 87.004C259.821 87.066 259.62 87.063 259.444 87.067C258.03 87.095 257.154 87.071 257.152 86.992Z" fill="#263238"/>
<path d="M253.122 71.7849C252.921 72.1339 251.583 71.7139 249.939 71.6229C248.297 71.4979 246.916 71.7389 246.762 71.3669C246.695 71.1899 246.984 70.8789 247.572 70.6109C248.156 70.3429 249.046 70.1469 250.032 70.2109C251.016 70.2769 251.874 70.5869 252.418 70.9289C252.967 71.2719 253.212 71.6179 253.122 71.7849Z" fill="#263238"/>
<path d="M266.384 72.176C266.089 72.487 264.961 72.136 263.597 72.095C262.235 72.013 261.075 72.259 260.815 71.923C260.702 71.76 260.889 71.447 261.399 71.157C261.902 70.868 262.738 70.64 263.675 70.682C264.611 70.725 265.418 71.027 265.886 71.36C266.363 71.695 266.515 72.024 266.384 72.176Z" fill="#263238"/>
<path d="M237.548 80.7541C237.396 80.6821 231.386 78.7001 231.373 84.9001C231.359 91.1001 237.587 89.8351 237.598 89.6571C237.609 89.4801 237.548 80.7541 237.548 80.7541Z" fill="#FFBF9D"/>
<path d="M235.709 87.3051C235.682 87.2851 235.601 87.3801 235.418 87.4641C235.24 87.5451 234.933 87.6001 234.611 87.4791C233.957 87.2371 233.407 86.1961 233.379 85.0791C233.365 84.5151 233.484 83.9781 233.685 83.5331C233.876 83.0801 234.169 82.7631 234.499 82.7061C234.827 82.6311 235.06 82.8291 235.136 83.0041C235.218 83.1771 235.179 83.3011 235.212 83.3121C235.229 83.3281 235.345 83.2081 235.296 82.9521C235.271 82.8291 235.198 82.6821 235.053 82.5631C234.905 82.4421 234.686 82.3791 234.456 82.4041C233.978 82.4361 233.547 82.8751 233.326 83.3631C233.079 83.8531 232.931 84.4571 232.948 85.0901C232.985 86.3391 233.622 87.5101 234.518 87.7711C234.954 87.8861 235.318 87.7551 235.506 87.6091C235.697 87.4541 235.73 87.3161 235.709 87.3051Z" fill="#FF9A6C"/>
<path d="M280.698 64.0859C280.601 63.7209 280.337 63.4189 280.012 63.2249C279.303 62.8029 278.485 62.8549 277.694 62.8389C275.727 62.7989 273.777 62.2879 272.027 61.3899C272.64 61.0829 273.213 60.7079 273.7 60.2259C274.707 59.2299 275.289 57.7019 274.836 56.3609C274.751 56.1089 274.606 55.8449 274.352 55.7659C273.95 55.6409 273.596 56.0349 273.314 56.3469C272.386 57.3749 271.531 57.8139 270.155 57.6689C269.3 57.5789 268.472 57.3839 267.801 56.9619C267.774 56.9339 267.75 56.9029 267.724 56.8749C267.403 56.5409 267.09 56.2219 266.781 55.9129L266.779 55.9099L266.78 55.9119C264.457 53.5889 262.458 51.9769 260.396 51.1369C257.374 49.9059 252.314 49.3899 249.154 50.2049C245.994 51.0199 243.149 53.5689 242.697 56.7999C240.933 55.2959 238.276 55.2969 236.116 56.1549L236.062 56.1309C233.658 56.9769 232.283 59.5069 231.564 61.9529C231.525 62.0869 231.491 62.2219 231.453 62.3569C230.636 63.6409 229.528 64.7379 228.209 65.4989C227.976 65.6329 227.71 65.798 227.68 66.064C227.651 66.329 227.873 66.549 228.089 66.705C228.663 67.12 229.332 67.393 230.029 67.521C229.807 68.102 229.547 68.666 229.226 69.205C228.953 69.663 228.629 70.211 228.863 70.69C229.045 71.06 229.513 71.2139 229.921 71.1559C230.329 71.0979 230.691 70.8739 231.041 70.6549C230.77 71.2949 230.5 71.9349 230.23 72.5749C231.098 72.7299 231.998 72.664 232.842 72.412C233.342 74.704 233.708 78.9459 234.291 80.4999C235.937 80.5359 236.337 80.3589 237.166 80.6369C238.238 80.9979 237.82 82.8969 239.22 82.3629C239.933 82.0909 241.036 79.4 241.277 78.676C242.877 73.875 243.423 68.7269 242.873 63.6969C243.872 62.6409 245.076 61.7799 246.398 61.1759L246.29 61.2719C248.829 60.4019 251.7 59.5479 254.1 60.7479C255.962 61.6789 257.051 63.6199 258.439 65.1709C261.071 68.1099 264.057 69.6859 267.997 69.872C268.341 72.611 268.427 77.0879 268.55 79.6419L270.753 74.5389L270.755 74.5599C270.932 74.2609 271.079 73.9599 271.221 73.6579L271.27 73.5669V73.5549C271.495 73.0699 271.71 72.584 271.995 72.105C272.003 72.112 272.011 72.1199 272.019 72.1269C273.398 73.3539 275.445 71.4959 274.36 70.0029C274.145 69.7069 273.887 69.4429 273.592 69.2239C274.222 69.8209 275.164 70.1089 275.995 69.858C276.825 69.607 277.472 68.7699 277.404 67.9049C277.357 67.3149 276.938 66.785 276.406 66.55C277.524 66.641 278.668 66.4019 279.645 65.8499C280.283 65.4879 280.912 64.8899 280.698 64.0859Z" fill="#263238"/>
<path d="M245.546 57.855C245.564 57.878 245.165 58.093 244.632 58.684C244.105 59.272 243.511 60.295 243.227 61.691C243.081 62.385 242.988 63.161 242.985 63.996C242.978 64.832 243.041 65.727 243.101 66.67C243.158 67.613 243.221 68.61 243.157 69.646C243.124 70.163 243.06 70.689 242.945 71.215C242.829 71.731 242.691 72.292 242.298 72.735C241.986 73.096 241.465 73.255 241.016 73.16C240.563 73.078 240.16 72.835 239.866 72.504C239.285 71.82 239.143 70.955 239.001 70.193L239.191 70.217C238.877 70.9 238.554 71.575 238.079 72.113C237.611 72.654 236.965 73.011 236.309 73.067C235.983 73.095 235.654 73.042 235.374 72.899C235.089 72.759 234.882 72.521 234.741 72.27C234.606 72.015 234.537 71.735 234.552 71.465C234.568 71.196 234.675 70.941 234.846 70.761L234.942 70.847C234.239 71.641 233.498 72.066 232.987 72.301C232.729 72.419 232.522 72.489 232.382 72.533C232.241 72.574 232.167 72.591 232.165 72.586C232.163 72.58 232.234 72.551 232.37 72.499C232.506 72.444 232.706 72.364 232.957 72.238C233.454 71.987 234.171 71.55 234.845 70.762L234.941 70.848C234.634 71.171 234.614 71.738 234.875 72.196C235.007 72.422 235.196 72.634 235.447 72.753C235.696 72.876 235.996 72.924 236.295 72.895C236.897 72.838 237.499 72.503 237.937 71.988C238.386 71.474 238.698 70.817 239.008 70.132L239.14 69.842L239.199 70.156C239.341 70.917 239.492 71.748 240.022 72.364C240.285 72.66 240.654 72.88 241.051 72.951C241.449 73.03 241.869 72.9 242.141 72.591C242.484 72.208 242.625 71.677 242.738 71.169C242.85 70.656 242.914 70.141 242.948 69.632C243.014 68.613 242.956 67.623 242.904 66.681C242.85 65.738 242.792 64.839 242.807 63.993C242.818 63.147 242.921 62.36 243.078 61.658C243.386 60.245 244.013 59.208 244.569 58.628C245.133 58.045 245.546 57.855 245.546 57.855Z" fill="#455A64"/>
<path d="M273.581 66.803C273.583 66.806 273.558 66.827 273.508 66.865C273.447 66.909 273.372 66.963 273.281 67.029C273.182 67.103 273.055 67.189 272.896 67.274C272.739 67.363 272.56 67.472 272.343 67.562C271.499 67.959 270.145 68.351 268.456 68.244C266.783 68.143 264.776 67.541 262.988 66.199C261.18 64.888 259.597 62.961 258.306 60.756C257.651 59.654 257.118 58.526 256.529 57.483C255.944 56.439 255.298 55.474 254.513 54.712C253.738 53.945 252.836 53.377 251.905 53.114C251.441 52.974 250.973 52.941 250.527 52.949C250.079 52.971 249.655 53.06 249.264 53.186C248.48 53.445 247.848 53.875 247.367 54.317C246.885 54.764 246.56 55.236 246.337 55.641C245.921 56.473 245.896 57.009 245.863 57C245.859 56.999 245.862 56.967 245.871 56.905C245.883 56.83 245.897 56.739 245.915 56.627C245.96 56.384 246.067 56.032 246.264 55.604C246.479 55.186 246.8 54.696 247.286 54.231C247.77 53.77 248.412 53.321 249.216 53.044C249.618 52.909 250.055 52.812 250.519 52.785C250.981 52.771 251.472 52.803 251.953 52.944C252.92 53.209 253.853 53.791 254.65 54.572C255.457 55.349 256.119 56.331 256.71 57.381C257.306 58.431 257.839 59.557 258.489 60.648C259.771 62.836 261.331 64.741 263.104 66.041C264.859 67.372 266.818 67.974 268.466 68.094C270.127 68.218 271.464 67.855 272.309 67.486C273.159 67.112 273.564 66.777 273.581 66.803Z" fill="#455A64"/>
<path d="M274.423 62.8189C274.431 62.8319 274.314 62.9109 274.097 63.0439C273.881 63.1809 273.551 63.3499 273.131 63.5289C272.712 63.7119 272.192 63.8819 271.603 64.0239C271.012 64.1549 270.35 64.2509 269.651 64.2749C268.951 64.2899 268.285 64.2309 267.687 64.1329C267.091 64.0239 266.563 63.8829 266.134 63.7239C265.705 63.5679 265.365 63.4179 265.143 63.2929C264.918 63.1719 264.798 63.0989 264.805 63.0859C264.823 63.0499 265.323 63.3099 266.182 63.5809C266.61 63.7199 267.133 63.8429 267.719 63.9389C268.307 64.0239 268.959 64.0769 269.645 64.0609C270.33 64.0379 270.979 63.9499 271.561 63.8319C272.141 63.7029 272.656 63.5509 273.076 63.3889C273.919 63.0719 274.404 62.7849 274.423 62.8189Z" fill="#455A64"/>
<path d="M257.052 91.2288C256.978 91.0048 255.518 91.5808 253.988 90.7428C252.455 89.9078 252.003 88.2888 251.794 88.3578C251.694 88.3738 251.648 88.8169 251.89 89.4799C252.123 90.1319 252.703 90.9898 253.639 91.5028C254.576 92.0128 255.553 92.0038 256.171 91.8168C256.803 91.6318 257.1 91.3258 257.052 91.2288Z" fill="#263238"/>
<path d="M290.926 328.445L294.214 345.575C294.214 345.575 313.241 351.665 313.389 355.207L277.256 355.864L274.415 328.549L290.926 328.445Z" fill="#263238"/>
<path d="M277.256 355.865L276.988 353.308L312.181 353.477C312.181 353.477 313.377 353.978 313.581 355.475L277.256 355.865Z" fill="#E0E0E0"/>
<path d="M294.818 345.399C294.808 345.58 293.902 345.644 293.001 346.208C292.085 346.749 291.611 347.523 291.446 347.448C291.28 347.409 291.571 346.334 292.674 345.67C293.772 344.996 294.861 345.234 294.818 345.399Z" fill="#455A64"/>
<path d="M298.671 347.082C298.709 347.258 297.92 347.55 297.29 348.303C296.639 349.037 296.467 349.862 296.288 349.85C296.117 349.875 296.013 348.814 296.813 347.892C297.605 346.964 298.671 346.909 298.671 347.082Z" fill="#455A64"/>
<path d="M300.786 351.774C300.621 351.809 300.387 350.901 300.871 349.919C301.348 348.934 302.208 348.56 302.282 348.712C302.381 348.863 301.822 349.383 301.437 350.195C301.033 350.998 300.967 351.759 300.786 351.774Z" fill="#455A64"/>
<path d="M293.29 341.412C293.211 341.576 292.386 341.31 291.363 341.359C290.339 341.388 289.536 341.715 289.445 341.558C289.343 341.425 290.132 340.771 291.339 340.73C292.544 340.68 293.382 341.272 293.29 341.412Z" fill="#263238"/>
<path d="M202.989 324.339L187.895 334.812C187.895 334.812 198.636 351.657 196.485 354.476L167.574 331.31L190.59 312.254L202.989 324.339Z" fill="#263238"/>
<path d="M167.574 331.309L169.919 329.367L196.662 352.371C196.662 352.371 197.261 353.521 196.462 354.802L167.574 331.309Z" fill="#E0E0E0"/>
<path d="M188.473 335.062C188.35 335.195 187.612 334.665 186.559 334.523C185.509 334.353 184.649 334.646 184.571 334.483C184.468 334.347 185.379 333.706 186.652 333.9C187.925 334.083 188.611 334.962 188.473 335.062Z" fill="#455A64"/>
<path d="M190.36 338.819C190.277 338.979 189.483 338.699 188.518 338.876C187.548 339.024 186.889 339.549 186.758 339.425C186.611 339.335 187.209 338.452 188.413 338.255C189.616 338.047 190.47 338.686 190.36 338.819Z" fill="#455A64"/>
<path d="M188.988 343.779C188.839 343.701 189.239 342.853 190.239 342.407C191.235 341.954 192.136 342.217 192.095 342.381C192.075 342.561 191.312 342.603 190.497 342.981C189.673 343.341 189.136 343.883 188.988 343.779Z" fill="#455A64"/>
<path d="M191.082 331.546C190.917 331.621 190.452 330.89 189.633 330.273C188.827 329.64 188 329.38 188.031 329.201C188.037 329.034 189.063 329.035 190.017 329.774C190.976 330.506 191.242 331.497 191.082 331.546Z" fill="#263238"/>
<path d="M212.622 135.146C212.622 135.146 194.209 147.189 193.348 155.171C192.488 163.153 189.514 180.168 192.619 190.547C195.724 200.926 198.697 212.942 207.223 213.147C215.749 213.352 221.289 209.397 221.289 209.397L231.564 178.108L228.218 142.937L227.021 130.289L212.622 135.146Z" fill="#263238"/>
<path d="M214.152 212.393C214.146 212.396 214.112 212.343 214.053 212.237C213.985 212.109 213.903 211.952 213.802 211.76C213.587 211.337 213.276 210.711 212.89 209.897C212.118 208.27 211.034 205.9 209.792 202.928C208.553 199.956 207.15 196.383 205.813 192.337C204.499 188.291 203.158 183.771 202.551 178.87C201.941 173.975 201.938 169.274 202.038 165.018C202.148 160.759 202.409 156.932 202.679 153.723C202.951 150.515 203.244 147.925 203.465 146.139C203.582 145.273 203.674 144.587 203.741 144.084C203.776 143.87 203.804 143.695 203.827 143.552C203.849 143.432 203.864 143.372 203.871 143.372C203.878 143.372 203.877 143.436 203.868 143.557C203.855 143.702 203.84 143.878 203.821 144.094C203.772 144.598 203.704 145.287 203.619 146.156C203.445 147.947 203.195 150.538 202.959 153.746C202.725 156.953 202.494 160.777 202.404 165.027C202.324 169.273 202.339 173.961 202.945 178.82C203.546 183.678 204.87 188.182 206.161 192.223C207.475 196.263 208.849 199.84 210.052 202.821C211.258 205.802 212.302 208.187 213.031 209.832C213.387 210.63 213.668 211.262 213.874 211.725C213.961 211.924 214.032 212.086 214.089 212.219C214.137 212.331 214.158 212.39 214.152 212.393Z" fill="#455A64"/>
<path d="M203.072 181.223C203.096 181.276 202.447 181.624 201.404 182.191C200.361 182.758 198.93 183.557 197.388 184.503C195.846 185.45 194.487 186.365 193.509 187.039C192.531 187.712 191.927 188.134 191.891 188.088C191.859 188.047 192.402 187.547 193.343 186.812C194.283 186.077 195.627 185.119 197.18 184.164C198.733 183.212 200.196 182.446 201.277 181.941C202.358 181.435 203.05 181.176 203.072 181.223Z" fill="#455A64"/>
<path d="M220.649 204.848C220.649 204.848 220.436 206.756 220.845 208.984C221.619 213.193 220.905 220.021 224.491 225.233C229.975 233.204 239.274 242.926 239.274 242.926L257.486 287.368L273.658 345.374L295.89 342.084L284.38 271.18L265.915 204.529L220.649 204.848Z" fill="#263238"/>
<path d="M177.038 319.113L216.499 268.674L224.353 221.704L254.725 235.671L245.028 277.271C243.832 282.403 241.14 287.065 237.294 290.667L194.179 335.699L177.038 319.113Z" fill="#263238"/>
<path d="M252.337 274.737C252.331 274.74 252.294 274.676 252.229 274.548C252.156 274.399 252.064 274.21 251.95 273.976C251.715 273.468 251.344 272.729 250.925 271.751C250.062 269.806 248.921 266.945 247.647 263.361C246.354 259.785 244.994 255.463 243.147 250.801C241.309 246.16 238.795 241.131 234.67 237.049C232.67 234.955 230.632 232.986 228.797 230.942C228.337 230.432 227.898 229.909 227.482 229.373C227.089 228.826 226.699 228.284 226.314 227.748C225.915 227.221 225.591 226.651 225.236 226.111C225.063 225.838 224.891 225.567 224.72 225.297C224.565 225.017 224.412 224.739 224.259 224.463C223.027 222.26 222.1 220.02 221.552 217.835C221.012 215.647 220.85 213.537 220.917 211.629C220.924 210.672 221.059 209.77 221.147 208.915C221.308 208.071 221.407 207.264 221.604 206.532C221.776 205.794 221.94 205.109 222.136 204.491C222.316 203.868 222.484 203.301 222.666 202.8C223.001 201.789 223.299 201.019 223.509 200.5C223.607 200.258 223.686 200.064 223.748 199.91C223.804 199.778 223.836 199.711 223.842 199.714C223.848 199.716 223.829 199.788 223.786 199.925C223.733 200.082 223.667 200.281 223.584 200.529C223.398 201.057 223.125 201.834 222.814 202.849C222.644 203.352 222.487 203.92 222.319 204.543C222.135 205.162 221.982 205.845 221.821 206.581C221.635 207.311 221.548 208.113 221.397 208.951C221.32 209.799 221.195 210.693 221.197 211.639C221.149 213.525 221.324 215.602 221.87 217.755C222.425 219.905 223.35 222.11 224.577 224.285C224.729 224.558 224.882 224.833 225.036 225.109C225.206 225.376 225.378 225.644 225.55 225.914C225.903 226.448 226.226 227.011 226.623 227.533C227.007 228.064 227.394 228.6 227.786 229.142C228.194 229.665 228.628 230.18 229.085 230.685C230.909 232.709 232.948 234.677 234.955 236.776C239.123 240.901 241.662 246.005 243.485 250.667C245.322 255.357 246.653 259.686 247.91 263.27C249.149 266.861 250.247 269.732 251.065 271.692C251.462 272.677 251.809 273.426 252.021 273.944C252.121 274.185 252.201 274.379 252.264 274.533C252.319 274.664 252.343 274.734 252.337 274.737Z" fill="#455A64"/>
<path d="M259.698 116.577L266.667 124.878C266.667 124.878 284.502 163.556 284.381 168.292C284.26 173.027 273.656 178.582 273.656 178.582L259.698 116.577Z" fill="#FF725E"/>
<path d="M236.769 101.523L236.759 99.3179L259.212 112.114L259.698 116.577L268.093 139.243L272.039 199.714L268.103 208.558L250.308 213.154L244.331 116.985L236.769 101.523Z" fill="#FAFAFA"/>
<path d="M233.729 105.596L224.56 110.79L222.888 159.402L224.669 180.253L217.974 214.447L218.201 219.237L270.6 219.044L271.088 200.62C271.088 200.62 271.567 191.447 271.6 188.836C271.695 181.22 268.778 160.381 267.358 149.353C265.431 134.393 255.643 117.392 255.643 117.392L235.772 100.684L233.729 105.596Z" fill="#FF725E"/>
<path d="M268.102 166.417C268.096 166.42 268.064 166.363 268.009 166.25C267.946 166.114 267.869 165.948 267.774 165.743C267.562 165.264 267.272 164.608 266.904 163.778C266.151 162.034 265.085 159.563 263.774 156.524C261.155 150.357 257.559 141.888 253.587 132.533C252.804 130.675 252.035 128.852 251.289 127.081L251.265 127.024L251.277 126.964C251.564 125.58 251.844 124.226 252.117 122.909L252.34 123.136C251.446 123.301 250.571 123.463 249.713 123.622L249.616 123.64L249.547 123.571C244.564 118.604 240.298 114.352 237.251 111.315C235.767 109.816 234.581 108.618 233.741 107.77C233.354 107.37 233.048 107.053 232.817 106.815C232.61 106.596 232.506 106.478 232.513 106.47C232.521 106.463 232.639 106.565 232.861 106.77C233.102 106.998 233.423 107.301 233.827 107.683C234.685 108.513 235.897 109.686 237.412 111.152C240.484 114.164 244.785 118.381 249.809 123.306L249.644 123.255C250.501 123.093 251.375 122.928 252.269 122.76L252.549 122.707L252.492 122.986C252.222 124.304 251.945 125.658 251.662 127.043L251.651 126.927C252.399 128.697 253.169 130.519 253.954 132.377C257.885 141.75 261.443 150.235 264.034 156.413C265.297 159.473 266.323 161.96 267.047 163.716C267.385 164.558 267.653 165.224 267.848 165.71C267.928 165.921 267.994 166.093 268.047 166.232C268.089 166.353 268.108 166.415 268.102 166.417Z" fill="#263238"/>
<g opacity="0.3">
<path d="M223.32 187.139L244.787 188.21C244.787 188.21 256.853 197.232 261.42 197.305C265.733 197.374 268.101 195.051 268.101 195.051L271.601 190.076V186.905L258.242 187.837L251.164 184.976L223.565 184.427L223.32 187.139Z" fill="black"/>
</g>
<path d="M254.718 132.675L230.783 171.155C229.179 173.734 229.986 177.068 232.605 178.683L259.197 195.076C261.844 196.708 265.366 195.983 267.106 193.449L292.374 156.648C294.124 154.1 293.419 150.675 290.796 148.977L262.87 130.905C260.138 129.136 256.417 129.944 254.718 132.675Z" fill="#E0E0E0"/>
<path d="M264.83 160.805C264.83 162.97 263.075 164.726 260.909 164.726C258.743 164.726 256.988 162.971 256.988 160.805C256.988 158.639 258.743 156.884 260.909 156.884C263.075 156.884 264.83 158.639 264.83 160.805Z" fill="white"/>
<g opacity="0.3">
<path d="M245.672 122.607L247.675 125.521L250.308 124.702L249.041 127.16L252.374 136.444L254.209 133.495L251.47 127.005L252.305 122.949L249.679 123.439L245.371 119.18L245.672 122.607Z" fill="black"/>
</g>
<g opacity="0.3">
<path d="M237.478 162.489L261.648 166.417L267.551 166.973L276.932 160.161L276.311 163.432L271.601 168.81L268.102 176.128L267.075 180.17L240.442 178.582L235.924 175.413L237.478 162.489Z" fill="black"/>
</g>
<path d="M224.085 111.071C224.085 111.071 227.199 108.036 228.965 106.926C231.547 105.305 234.552 105.521 235.796 106.014C237.041 106.507 243.313 108.341 245.67 120.588C247.126 128.153 236.862 164.725 236.862 164.725L229.322 163.653C229.322 163.653 236.356 135.053 237.01 129.063C237.664 123.074 239.766 107.978 224.085 111.071Z" fill="#263238"/>
<path d="M228.818 108.291C228.823 108.401 228.408 108.534 227.892 108.588C227.376 108.642 226.941 108.598 226.92 108.49C226.899 108.382 227.313 108.249 227.846 108.193C228.378 108.137 228.814 108.182 228.818 108.291Z" fill="#455A64"/>
<path d="M236.013 109.521C235.959 109.62 235.204 109.312 234.244 109.033C233.285 108.747 232.484 108.56 232.5 108.447C232.512 108.343 233.36 108.355 234.357 108.652C235.358 108.943 236.067 109.428 236.013 109.521Z" fill="#455A64"/>
<path d="M240.451 115.202C240.347 115.242 239.969 114.511 239.504 113.616C239.042 112.717 238.675 111.983 238.765 111.923C238.857 111.86 239.387 112.518 239.858 113.434C240.332 114.35 240.552 115.164 240.451 115.202Z" fill="#455A64"/>
<path d="M241.561 122.44C241.448 122.432 241.429 121.607 241.396 120.6C241.367 119.594 241.319 118.774 241.429 118.755C241.535 118.736 241.763 119.552 241.793 120.587C241.827 121.622 241.667 122.449 241.561 122.44Z" fill="#455A64"/>
<path d="M240.349 129.71C240.242 129.684 240.328 128.86 240.54 127.87C240.752 126.879 241.014 126.089 241.121 126.104C241.232 126.12 241.145 126.943 240.931 127.945C240.717 128.946 240.456 129.736 240.349 129.71Z" fill="#455A64"/>
<path d="M238.583 136.873C238.477 136.846 238.591 136.023 238.838 135.036C239.086 134.048 239.373 133.269 239.479 133.295C239.586 133.321 239.471 134.144 239.224 135.132C238.977 136.121 238.69 136.9 238.583 136.873Z" fill="#455A64"/>
<path d="M236.75 144.025C236.644 143.998 236.764 143.175 237.018 142.188C237.272 141.201 237.565 140.423 237.671 140.45C237.777 140.477 237.657 141.3 237.403 142.287C237.149 143.274 236.856 144.052 236.75 144.025Z" fill="#455A64"/>
<path d="M234.887 151.168C234.781 151.14 234.904 150.318 235.162 149.332C235.42 148.346 235.715 147.569 235.822 147.597C235.928 147.625 235.805 148.447 235.547 149.433C235.288 150.419 234.993 151.195 234.887 151.168Z" fill="#455A64"/>
<path d="M233.004 158.307C232.898 158.279 233.023 157.457 233.283 156.472C233.544 155.486 233.841 154.711 233.947 154.739C234.053 154.767 233.928 155.589 233.668 156.574C233.407 157.559 233.11 158.335 233.004 158.307Z" fill="#455A64"/>
<path d="M231.564 163.72C231.458 163.692 231.482 163.256 231.617 162.748C231.753 162.239 231.949 161.85 232.055 161.878C232.161 161.906 232.137 162.341 232.002 162.85C231.866 163.359 231.67 163.749 231.564 163.72Z" fill="#455A64"/>
<path d="M233.43 198.642C233.436 198.653 233.362 198.801 233.213 199.077C233.046 199.381 232.828 199.776 232.555 200.27C231.955 201.329 231.116 202.811 230.071 204.657L229.962 204.463C235.065 204.534 242.79 204.678 251.412 204.87C252.202 204.888 252.984 204.905 253.756 204.923L253.554 205.137C253.39 203 253.232 200.939 253.084 199.001L253.27 199.176C247.551 199.045 242.62 198.932 239.071 198.851C237.338 198.798 235.944 198.756 234.939 198.725C234.482 198.706 234.114 198.69 233.826 198.678C233.571 198.664 233.435 198.652 233.43 198.642C233.425 198.632 233.549 198.625 233.794 198.62C234.075 198.618 234.434 198.615 234.88 198.611C235.879 198.615 237.264 198.621 238.986 198.628C242.559 198.67 247.521 198.728 253.277 198.796L253.449 198.798L253.463 198.971C253.617 200.909 253.781 202.969 253.951 205.106L253.968 205.324L253.749 205.319C252.977 205.302 252.195 205.285 251.405 205.268C242.782 205.076 235.059 204.878 229.958 204.722L229.737 204.715L229.85 204.527C230.953 202.689 231.839 201.214 232.472 200.159C232.764 199.685 232.998 199.306 233.177 199.015C233.337 198.759 233.424 198.632 233.43 198.642Z" fill="#263238"/>
<path d="M277.45 159.09C277.679 158.692 278.265 158.653 278.555 159.011C279.239 159.856 279.997 161.54 278.846 163.944C277.61 166.526 275.936 167.759 275.936 167.759L282.835 171.298C282.835 171.298 285.097 172.972 284.147 174.368C283.197 175.764 282.889 175.52 282.889 175.52C282.889 175.52 284.513 176.288 283.662 178.085C283.173 179.118 281.622 179.408 281.622 179.408C281.622 179.408 281.32 181.393 280.891 181.687C280.462 181.981 278.465 182.069 278.465 182.069C278.465 182.069 278.357 183.383 277.404 183.665C276.451 183.947 272.231 183.408 272.231 183.408C272.231 183.408 267.529 181.87 265.762 181.221L262.93 180.961L263.953 169.473C263.953 169.473 266.353 169.475 266.894 169.186C268.043 168.573 272.52 164.807 272.52 164.807C272.52 164.807 275.032 163.358 276 161.883C276.741 160.755 277.088 159.72 277.45 159.09Z" fill="#FFBF9D"/>
<path d="M278.698 173.821C278.681 173.865 279.628 174.256 280.814 174.695C282 175.134 282.976 175.454 282.994 175.41C283.011 175.366 282.064 174.975 280.878 174.536C279.692 174.097 278.716 173.777 278.698 173.821Z" fill="#FF9A6C"/>
<path d="M276.311 177.806C276.303 177.828 276.59 177.95 277.063 178.121C277.536 178.292 278.198 178.511 278.937 178.726C279.677 178.94 280.354 179.11 280.847 179.22C281.34 179.329 281.649 179.38 281.655 179.358C281.661 179.335 281.363 179.243 280.879 179.104C280.333 178.948 279.694 178.765 278.988 178.564C278.284 178.357 277.648 178.169 277.103 178.008C276.621 177.865 276.32 177.783 276.311 177.806Z" fill="#FF9A6C"/>
<path d="M275.432 181.505C275.424 181.551 276.088 181.698 276.917 181.832C277.745 181.967 278.424 182.038 278.432 181.992C278.44 181.946 277.776 181.799 276.947 181.665C276.118 181.53 275.44 181.459 275.432 181.505Z" fill="#FF9A6C"/>
<path d="M259.666 168.142L264.029 168.602L263.701 182.292L258.812 181.813L259.666 168.142Z" fill="#F5F5F5"/>
<path d="M259.666 168.142C259.681 168.16 259.673 168.539 259.647 169.218C259.615 169.95 259.573 170.916 259.521 172.097C259.407 174.538 259.237 177.927 259.004 181.825L258.831 181.622C260.29 181.763 261.848 181.913 263.456 182.068C263.545 182.077 263.634 182.086 263.72 182.094L263.502 182.287C263.635 176.77 263.78 171.847 263.901 168.599L264.016 168.729C262.709 168.562 261.648 168.426 260.852 168.324C260.101 168.222 259.681 168.161 259.666 168.142C259.65 168.123 260.039 168.147 260.785 168.202C261.605 168.27 262.697 168.362 264.043 168.474L264.159 168.484L264.158 168.605C264.123 171.854 264.032 176.778 263.901 182.296L263.896 182.51L263.683 182.489C263.597 182.481 263.508 182.472 263.419 182.463C261.812 182.303 260.254 182.149 258.795 182.004L258.61 181.986L258.622 181.801C258.881 177.82 259.138 174.374 259.328 171.949C259.423 170.789 259.5 169.842 259.558 169.122C259.614 168.47 259.651 168.125 259.666 168.142Z" fill="#263238"/>
<path d="M226.147 109.967C226.147 109.967 217.806 113.136 215.62 123.722C213.435 134.308 203.404 170.106 205.447 176.561C207.49 183.016 214.426 183.825 228.518 184.794C242.61 185.763 258.49 186.718 258.49 186.718L259.741 167.727L229.533 163.432C229.533 163.432 238.327 132.088 238.976 127.554C239.626 123.019 241.113 106.615 226.147 109.967Z" fill="#FF725E"/>
<path d="M205.448 176.561C205.455 176.559 205.496 176.648 205.57 176.823C205.65 177.016 205.756 177.274 205.891 177.603C206.058 177.932 206.28 178.335 206.567 178.79C206.732 179.005 206.909 179.235 207.097 179.481C207.29 179.724 207.548 179.936 207.792 180.186C208.824 181.134 210.363 181.971 212.274 182.553C214.184 183.145 216.443 183.53 218.951 183.826C223.972 184.406 230.003 184.704 236.696 185.136C243.392 185.561 250.758 186.028 258.504 186.519L258.294 186.704C258.316 186.373 258.34 186.013 258.363 185.654C258.781 179.366 259.182 173.317 259.554 167.715L259.716 167.914C246.995 166.069 236.344 164.525 229.521 163.535L229.586 163.523C227.182 164.829 225.299 165.852 223.995 166.559C223.366 166.894 222.877 167.154 222.527 167.341C222.371 167.421 222.248 167.484 222.148 167.535C222.063 167.577 222.018 167.596 222.016 167.592C222.014 167.588 222.054 167.56 222.135 167.51C222.231 167.453 222.35 167.382 222.5 167.292C222.844 167.094 223.324 166.818 223.943 166.463C225.235 165.735 227.102 164.683 229.486 163.341L229.516 163.324L229.551 163.329C236.379 164.28 247.039 165.766 259.77 167.54L259.943 167.564L259.931 167.739C259.565 173.342 259.17 179.392 258.76 185.68C258.736 186.04 258.713 186.399 258.691 186.73L258.678 186.928L258.481 186.915C250.736 186.412 243.37 185.933 236.673 185.498C229.981 185.045 223.954 184.718 218.918 184.101C216.404 183.786 214.134 183.38 212.209 182.761C210.283 182.153 208.725 181.281 207.69 180.297C207.445 180.038 207.187 179.817 206.996 179.566C206.81 179.312 206.635 179.074 206.472 178.853C206.191 178.385 205.979 177.971 205.822 177.634C205.701 177.298 205.607 177.033 205.535 176.835C205.47 176.656 205.442 176.563 205.448 176.561Z" fill="#263238"/>
<path d="M114.602 412.855L132.257 385.54C136.767 373.482 141.683 361.617 145.111 356.929C151.883 347.665 166.425 337.768 189.209 339.527C195.443 340.008 203.312 342.418 209.36 344.007C217.893 346.25 221.767 346.846 231.879 347.167C250.163 347.747 294.187 341.645 295.213 362.361C296.239 383.077 264.312 380.761 254.57 380.349C244.828 379.936 226.142 378.748 218.859 380.941C211.576 383.134 188.841 383.748 188.841 383.748L167.901 453.753L114.602 412.855Z" fill="#FFBF9D"/>
<path d="M174.162 444.932L193.384 416.738C208.651 414.073 239.768 408.523 263.375 405.029C279.554 402.635 298.338 399.935 308.308 398.509C312.929 397.848 317.251 395.867 320.772 392.801L381.889 339.579C381.889 339.579 379.729 324.416 360.815 329.491C360.815 329.491 349.436 320.33 329.882 333.688L303.133 354.973L260.136 353.093L172.259 361.958L138.948 419.394L174.162 444.932Z" fill="#FFBF9D"/>
<path d="M277.316 397.836C277.312 397.824 277.509 397.748 277.892 397.613C278.308 397.471 278.872 397.278 279.591 397.032C281.117 396.528 283.294 395.808 286.041 394.9C291.63 393.087 299.534 390.524 308.94 387.474L308.853 387.525C314.892 381.876 321.917 375.404 329.424 368.611C344.066 355.359 357.339 343.851 365.849 336.868L365.8 337.04C364.498 333.17 361.956 330.884 360.174 329.679C359.263 329.066 358.496 328.702 357.98 328.46C357.737 328.356 357.541 328.273 357.384 328.206C357.251 328.147 357.184 328.114 357.186 328.107C357.186 328.107 358.377 328.357 360.267 329.536C361.199 330.136 362.292 330.983 363.351 332.195C364.405 333.403 365.431 334.98 366.101 336.94L366.136 337.042L366.052 337.113C357.626 344.187 344.411 355.749 329.773 368.998C322.267 375.79 315.23 382.244 309.168 387.865L309.129 387.901L309.08 387.916C299.65 390.893 291.727 393.394 286.124 395.162C283.36 396.017 281.17 396.695 279.635 397.17C278.907 397.387 278.336 397.558 277.915 397.683C277.523 397.795 277.319 397.848 277.316 397.836Z" fill="#FF9A6C"/>
<path d="M210.153 381.413C210.152 381.404 210.242 381.385 210.417 381.357C210.622 381.327 210.879 381.291 211.196 381.245C211.922 381.151 212.925 381.021 214.197 380.856C216.842 380.498 220.599 379.991 225.225 379.365C229.881 378.737 235.429 377.977 241.625 377.423C247.814 376.875 254.682 376.573 261.848 377.075C265.426 377.273 268.92 377.443 272.285 377.318C275.646 377.195 278.885 376.769 281.832 375.862C284.775 374.962 287.437 373.628 289.554 371.9C291.664 370.173 293.206 368.039 293.933 365.846C294.648 363.637 294.617 361.471 294.244 359.673C293.842 357.87 293.087 356.431 292.317 355.389C290.749 353.281 289.299 352.71 289.377 352.625C289.382 352.617 289.462 352.66 289.615 352.75C289.792 352.859 290.014 352.996 290.288 353.165C290.571 353.365 290.903 353.641 291.295 353.966C291.652 354.329 292.086 354.73 292.479 355.267C293.29 356.31 294.09 357.768 294.529 359.61C294.939 361.447 295.001 363.672 294.285 365.96C293.554 368.242 291.982 370.45 289.831 372.235C287.673 374.021 284.965 375.395 281.976 376.322C278.982 377.258 275.698 377.699 272.308 377.83C268.913 377.964 265.403 377.795 261.823 377.597C254.675 377.097 247.852 377.382 241.67 377.903C235.487 378.429 229.938 379.151 225.277 379.732C220.616 380.323 216.84 380.789 214.225 381.059C212.919 381.204 211.901 381.289 211.212 381.351C210.892 381.376 210.634 381.395 210.427 381.411C210.245 381.42 210.154 381.422 210.153 381.413Z" fill="#FF9A6C"/>
<path d="M189.911 429.346L125.297 383.459L108.374 407.29L172.987 453.176L189.911 429.346Z" fill="#EBEBEB"/>
<path d="M172.309 465.288L97.3369 413.303L113.441 389.512L188.094 442.522L172.309 465.288Z" fill="#FF725E"/>
</svg>
