<svg width="430" height="142" viewBox="0 0 430 142" fill="none" xmlns="http://www.w3.org/2000/svg">
<path d="M426.231 13.8788C427.545 14.3036 428.954 13.5829 429.379 12.2691C429.804 10.9554 429.083 9.54607 427.769 9.12131L426.231 13.8788ZM291 116L290.261 118.388L291 116ZM6.58646 140.152C6.94641 141.485 8.31879 142.273 9.65173 141.914L31.3737 136.048C32.7067 135.688 33.4955 134.316 33.1355 132.983C32.7756 131.65 31.4032 130.861 30.0702 131.221L10.7618 136.435L5.54785 117.126C5.1879 115.793 3.81552 115.005 2.48254 115.364C1.1496 115.724 0.360809 117.097 0.720734 118.43L6.58646 140.152ZM422.587 7.5208C421.262 7.13089 419.873 7.88855 419.483 9.21306C419.093 10.5376 419.85 11.9274 421.175 12.3173L422.587 7.5208ZM400.915 7.5444C402.275 7.7838 403.571 6.87553 403.81 5.51573C404.05 4.15593 403.141 2.85953 401.782 2.62013L400.915 7.5444ZM391.188 1.0829C389.816 0.926636 388.578 1.91206 388.421 3.28391C388.265 4.65575 389.25 5.89452 390.622 6.05078L391.188 1.0829ZM369.83 5.03804C371.21 5.01288 372.309 3.87337 372.284 2.49289C372.259 1.11241 371.119 0.0137024 369.739 0.0388641L369.83 5.03804ZM359.007 0.610352C357.632 0.73262 356.616 1.94664 356.738 3.32191C356.86 4.6972 358.074 5.71298 359.45 5.5907L359.007 0.610352ZM338.969 8.95059C340.31 8.62437 341.133 7.27231 340.807 5.93069C340.481 4.58908 339.129 3.76595 337.787 4.09216L338.969 8.95059ZM327.417 7.05222C326.105 7.48395 325.392 8.89711 325.824 10.2086C326.255 11.5201 327.669 12.2332 328.98 11.8015L327.417 7.05222ZM309.909 19.8918C311.129 19.2459 311.595 17.733 310.949 16.5127C310.303 15.2924 308.79 14.8268 307.57 15.4727L309.909 19.8918ZM298.274 20.9399C297.117 21.6934 296.79 23.2422 297.543 24.3991C298.297 25.5561 299.846 25.8832 301.003 25.1297L298.274 20.9399ZM284.895 38.0197C285.879 37.0506 285.891 35.4678 284.922 34.4842C283.953 33.5007 282.37 33.4889 281.386 34.458L284.895 38.0197ZM274.114 42.4821C273.249 43.5579 273.419 45.1316 274.495 45.9971C275.571 46.8626 277.144 46.6921 278.01 45.6164L274.114 42.4821ZM267.521 63.0758C268.042 61.7971 267.427 60.3383 266.148 59.8175C264.87 59.2967 263.411 59.9111 262.89 61.1898L267.521 63.0758ZM259.708 71.7649C259.446 73.1206 260.333 74.4317 261.689 74.6932C263.045 74.9547 264.356 74.0677 264.617 72.712L259.708 71.7649ZM265.923 92.1852C265.432 90.8947 263.988 90.2466 262.697 90.7376C261.407 91.2285 260.759 92.6727 261.25 93.9631L265.923 92.1852ZM266.936 103.758C267.811 104.826 269.386 104.982 270.454 104.107C271.522 103.232 271.679 101.657 270.804 100.589L266.936 103.758ZM286.903 111.89C285.624 111.37 284.165 111.985 283.645 113.264C283.125 114.543 283.74 116.001 285.019 116.522L286.903 111.89ZM294.739 119.721C296.066 120.101 297.45 119.333 297.83 118.005C298.21 116.678 297.441 115.294 296.114 114.914L294.739 119.721ZM313.706 119.071C312.348 118.821 311.045 119.72 310.795 121.078C310.546 122.436 311.444 123.739 312.802 123.988L313.706 119.071ZM321.998 125.407C323.368 125.577 324.616 124.603 324.786 123.233C324.955 121.863 323.982 120.615 322.612 120.445L321.998 125.407ZM340.504 121.37C339.124 121.411 338.039 122.564 338.081 123.944C338.123 125.324 339.276 126.409 340.656 126.367L340.504 121.37ZM350.049 125.594C351.416 125.402 352.369 124.139 352.178 122.771C351.986 121.404 350.723 120.451 349.355 120.642L350.049 125.594ZM365.829 115.484C364.637 116.18 364.235 117.711 364.931 118.903C365.628 120.096 367.159 120.498 368.351 119.801L365.829 115.484ZM375.975 113.157C376.79 112.042 376.547 110.478 375.433 109.663C374.318 108.848 372.754 109.091 371.939 110.205L375.975 113.157ZM372.782 95.311C373.345 96.5717 374.823 97.1375 376.084 96.5746C377.345 96.0117 377.91 94.5333 377.347 93.2726L372.782 95.311ZM372.155 84.9955C371.289 83.9202 369.715 83.7505 368.639 84.6165C367.564 85.4826 367.394 87.0564 368.261 88.1317L372.155 84.9955ZM355.297 76.1683C356.41 76.9856 357.975 76.7459 358.792 75.633C359.609 74.5201 359.369 72.9555 358.257 72.1382L355.297 76.1683ZM350.307 66.7482C349.143 66.0062 347.598 66.3487 346.856 67.5131C346.114 68.6775 346.456 70.2229 347.62 70.9649L350.307 66.7482ZM331.072 61.5112C332.302 62.1391 333.807 61.6513 334.435 60.4217C335.063 59.192 334.575 57.6861 333.346 57.0582L331.072 61.5112ZM324.556 52.8152C323.3 52.2424 321.817 52.7966 321.245 54.0529C320.672 55.3093 321.226 56.792 322.482 57.3647L324.556 52.8152ZM304.792 50.18C306.092 50.6473 307.524 49.9729 307.991 48.6737C308.458 47.3745 307.784 45.9424 306.485 45.4751L304.792 50.18ZM297.254 42.354C295.938 41.9365 294.533 42.665 294.116 43.9811C293.698 45.2972 294.427 46.7025 295.743 47.12L297.254 42.354ZM277.319 41.9958C278.661 42.3195 280.012 41.4937 280.335 40.1515C280.659 38.8093 279.833 37.4588 278.491 37.1351L277.319 41.9958ZM268.991 35.0091C267.639 34.7295 266.316 35.5988 266.036 36.9509C265.757 38.303 266.626 39.6258 267.978 39.9055L268.991 35.0091ZM249.116 36.606C250.482 36.8033 251.75 35.8554 251.947 34.4889C252.145 33.1224 251.197 31.8546 249.83 31.6573L249.116 36.606ZM240.191 30.4051C238.82 30.2464 237.579 31.2296 237.42 32.6012C237.262 33.9728 238.245 35.2133 239.616 35.372L240.191 30.4051ZM220.522 33.6782C221.9 33.7644 223.087 32.7173 223.173 31.3393C223.26 29.9612 222.212 28.7742 220.834 28.6879L220.522 33.6782ZM211.131 28.2015C209.751 28.1493 208.59 29.2255 208.538 30.6052C208.486 31.9849 209.562 33.1457 210.942 33.1979L211.131 28.2015ZM191.758 32.9253C193.139 32.9131 194.248 31.784 194.236 30.4034C194.224 29.0227 193.095 27.9133 191.714 27.9255L191.758 32.9253ZM182.012 28.1186C180.632 28.1612 179.548 29.3145 179.59 30.6946C179.633 32.0746 180.786 33.1588 182.166 33.1162L182.012 28.1186ZM162.995 34.1168C164.372 34.0162 165.407 32.8182 165.306 31.4412C165.205 30.0641 164.007 29.0295 162.63 29.1301L162.995 34.1168ZM152.397 30.0258C151.024 30.1748 150.032 31.4084 150.181 32.781C150.33 34.1537 151.564 35.1456 152.936 34.9966L152.397 30.0258ZM132.129 38.4069C133.476 38.1056 134.324 36.769 134.023 35.4216C133.722 34.0742 132.385 33.2261 131.038 33.5274L132.129 38.4069ZM120.533 36.2217C119.207 36.607 118.445 37.9942 118.83 39.3201C119.215 40.6459 120.602 41.4084 121.928 41.023L120.533 36.2217ZM102.176 48.2334C103.438 47.6716 104.005 46.1937 103.443 44.9325C102.881 43.6712 101.403 43.1043 100.142 43.6661L102.176 48.2334ZM90.3814 48.4351C89.1631 49.0848 88.7023 50.5992 89.3521 51.8174C90.0019 53.0357 91.5162 53.4965 92.7345 52.8468L90.3814 48.4351ZM74.9362 64.0143C76.0522 63.2014 76.2981 61.6377 75.4852 60.5217C74.6724 59.4056 73.1087 59.1597 71.9926 59.9726L74.9362 64.0143ZM63.4363 66.6479C62.3758 67.5321 62.2328 69.1085 63.1169 70.169C64.001 71.2295 65.5775 71.3725 66.638 70.4884L63.4363 66.6479ZM51.2913 84.9332C52.2415 83.9314 52.1996 82.349 51.1978 81.3989C50.196 80.4487 48.6137 80.4906 47.6635 81.4924L51.2913 84.9332ZM40.4268 89.525C39.5283 90.5734 39.6498 92.1516 40.6981 93.0501C41.7465 93.9487 43.3247 93.8272 44.2232 92.7788L40.4268 89.525ZM31.1707 109.439C31.9775 108.319 31.7233 106.756 30.6029 105.949C29.4825 105.143 27.9201 105.397 27.1133 106.517L31.1707 109.439ZM20.9698 115.375C20.2023 116.523 20.5105 118.075 21.6582 118.843C22.8059 119.611 24.3585 119.302 25.1261 118.155L20.9698 115.375ZM13.847 136.145C14.549 134.956 14.1541 133.423 12.9651 132.721C11.7762 132.019 10.2433 132.414 9.54135 133.603L13.847 136.145ZM427 11.5001L427.769 9.12131C426.033 8.55998 424.305 8.02666 422.587 7.5208L421.881 9.91904L421.175 12.3173C422.851 12.8106 424.536 13.331 426.231 13.8788L427 11.5001ZM401.348 5.08228L401.782 2.62013C398.202 1.98999 394.67 1.47954 391.188 1.0829L390.905 3.56683L390.622 6.05078C394.003 6.43584 397.434 6.9317 400.915 7.5444L401.348 5.08228ZM369.784 2.53845L369.739 0.0388641C366.092 0.105347 362.513 0.298615 359.007 0.610352L359.228 3.10052L359.45 5.5907C362.839 5.2894 366.3 5.10239 369.83 5.03804L369.784 2.53845ZM338.378 6.52138L337.787 4.09216C334.23 4.95712 330.772 5.94769 327.417 7.05222L328.198 9.42685L328.98 11.8015C332.209 10.7384 335.54 9.78429 338.969 8.95059L338.378 6.52138ZM308.739 17.6823L307.57 15.4727C304.328 17.1887 301.227 19.0165 298.274 20.9399L299.638 23.0348L301.003 25.1297C303.829 23.2891 306.799 21.5377 309.909 19.8918L308.739 17.6823ZM283.141 36.2388L281.386 34.458C278.747 37.0587 276.319 39.7416 274.114 42.4821L276.062 44.0492L278.01 45.6164C280.09 43.0303 282.388 40.4897 284.895 38.0197L283.141 36.2388ZM265.206 62.1328L262.89 61.1898C261.454 64.7171 260.384 68.2577 259.708 71.7649L262.163 72.2384L264.617 72.712C265.227 69.5513 266.198 66.3246 267.521 63.0758L265.206 62.1328ZM263.586 93.0742L261.25 93.9631C262.579 97.4564 264.468 100.746 266.936 103.758L268.87 102.174L270.804 100.589C268.678 97.9948 267.06 95.1755 265.923 92.1852L263.586 93.0742ZM285.961 114.206L285.019 116.522C286.686 117.2 288.433 117.823 290.261 118.388L291 116L291.739 113.612C290.042 113.087 288.43 112.512 286.903 111.89L285.961 114.206ZM291 116L290.261 118.388C291.768 118.854 293.261 119.299 294.739 119.721L295.426 117.318L296.114 114.914C294.671 114.501 293.212 114.067 291.739 113.612L291 116ZM313.254 121.529L312.802 123.988C315.959 124.568 319.026 125.04 321.998 125.407L322.305 122.926L322.612 120.445C319.74 120.09 316.77 119.634 313.706 119.071L313.254 121.529ZM340.58 123.868L340.656 126.367C343.97 126.267 347.106 126.006 350.049 125.594L349.702 123.118L349.355 120.642C346.607 121.027 343.653 121.274 340.504 121.37L340.58 123.868ZM367.09 117.643L368.351 119.801C371.501 117.961 374.086 115.74 375.975 113.157L373.957 111.681L371.939 110.205C370.528 112.135 368.502 113.922 365.829 115.484L367.09 117.643ZM375.065 94.2918L377.347 93.2726C376.131 90.5488 374.398 87.7814 372.155 84.9955L370.208 86.5636L368.261 88.1317C370.283 90.6429 371.77 93.0459 372.782 95.311L375.065 94.2918ZM356.777 74.1533L358.257 72.1382C357.026 71.2346 355.739 70.3303 354.396 69.426L353 71.5L351.604 73.574C352.893 74.4417 354.124 75.3069 355.297 76.1683L356.777 74.1533ZM353 71.5L354.396 69.426C353.045 68.5171 351.682 67.6245 350.307 66.7482L348.964 68.8566L347.62 70.9649C348.961 71.8189 350.289 72.6885 351.604 73.574L353 71.5ZM332.209 59.2847L333.346 57.0582C330.457 55.5833 327.527 54.1693 324.556 52.8152L323.519 55.0899L322.482 57.3647C325.387 58.6888 328.251 60.0707 331.072 61.5112L332.209 59.2847ZM305.639 47.8275L306.485 45.4751C303.441 44.3802 300.363 43.3401 297.254 42.354L296.499 44.737L295.743 47.12C298.792 48.0873 301.81 49.107 304.792 50.18L305.639 47.8275ZM277.905 39.5655L278.491 37.1351C275.349 36.3776 272.182 35.6692 268.991 35.0091L268.484 37.4573L267.978 39.9055C271.117 40.5548 274.231 41.2513 277.319 41.9958L277.905 39.5655ZM249.473 34.1317L249.83 31.6573C246.635 31.1961 243.422 30.779 240.191 30.4051L239.904 32.8886L239.616 35.372C242.801 35.7405 245.968 36.1516 249.116 36.606L249.473 34.1317ZM220.678 31.183L220.834 28.6879C217.612 28.4862 214.377 28.3243 211.131 28.2015L211.036 30.6997L210.942 33.1979C214.148 33.3192 217.342 33.479 220.522 33.6782L220.678 31.183ZM191.736 30.4254L191.714 27.9255C188.487 27.9539 185.252 28.0185 182.012 28.1186L182.089 30.6174L182.166 33.1162C185.37 33.0172 188.568 32.9534 191.758 32.9253L191.736 30.4254ZM162.813 31.6235L162.63 29.1301C161.018 29.248 159.406 29.3742 157.792 29.5086L158 32L158.208 34.4914C159.804 34.3583 161.4 34.2335 162.995 34.1168L162.813 31.6235ZM158 32L157.792 29.5086C155.975 29.6601 154.177 29.8325 152.397 30.0258L152.667 32.5112L152.936 34.9966C154.674 34.8079 156.431 34.6394 158.208 34.4914L158 32ZM131.583 35.9672L131.038 33.5274C127.455 34.3285 123.955 35.2271 120.533 36.2217L121.231 38.6224L121.928 41.023C125.248 40.0582 128.647 39.1855 132.129 38.4069L131.583 35.9672ZM101.159 45.9498L100.142 43.6661C96.8091 45.1508 93.5573 46.7411 90.3814 48.4351L91.5579 50.6409L92.7345 52.8468C95.8064 51.2083 98.952 49.6699 102.176 48.2334L101.159 45.9498ZM73.4644 61.9934L71.9926 59.9726C69.0741 62.0981 66.2238 64.324 63.4363 66.6479L65.0371 68.5682L66.638 70.4884C69.344 68.2324 72.1083 66.0738 74.9362 64.0143L73.4644 61.9934ZM49.4774 83.2128L47.6635 81.4924C45.2045 84.085 42.7939 86.7633 40.4268 89.525L42.325 91.1519L44.2232 92.7788C46.5382 90.0779 48.8927 87.4622 51.2913 84.9332L49.4774 83.2128ZM29.142 107.978L27.1133 106.517C25.0369 109.401 22.9904 112.354 20.9698 115.375L23.0479 116.765L25.1261 118.155C27.1163 115.179 29.1299 112.273 31.1707 109.439L29.142 107.978ZM11.6942 134.874L9.54135 133.603C8.63455 135.139 7.73172 136.69 6.83252 138.254L9 139.5L11.1675 140.746C12.0574 139.198 12.9504 137.664 13.847 136.145L11.6942 134.874Z" fill="#8F4EA6"/>
</svg>
